G04*
G04 #@! TF.GenerationSoftware,Altium Limited,Altium Designer,22.0.2 (36)*
G04*
G04 Layer_Color=16711935*
%FSLAX25Y25*%
%MOIN*%
G70*
G04*
G04 #@! TF.SameCoordinates,4AEEF1EB-5C28-47D6-87F3-BA9F17CF17F5*
G04*
G04*
G04 #@! TF.FilePolarity,Positive*
G04*
G01*
G75*
%ADD14C,0.00100*%
%ADD16C,0.00200*%
%ADD95C,0.00394*%
D14*
X23193Y56446D02*
X26693D01*
X23193D02*
Y59946D01*
X26693Y56446D02*
X26693Y59946D01*
X23193D02*
X26693D01*
X6307Y59946D02*
X9807D01*
Y56446D02*
Y59946D01*
X6307Y56446D02*
Y59946D01*
Y56446D02*
X9807D01*
X6657Y61542D02*
X26342D01*
Y41857D02*
Y61542D01*
X6657Y41857D02*
X6657Y61542D01*
X6657Y41857D02*
X26342D01*
X23193Y46955D02*
X26693D01*
Y43455D02*
Y46955D01*
X23193Y43455D02*
Y46955D01*
Y43455D02*
X26693D01*
X6307D02*
X9807Y43455D01*
X6307Y43455D02*
X6307Y46955D01*
X9807Y43455D02*
Y46955D01*
X6307D02*
X9807D01*
D16*
X21531Y51116D02*
Y53084D01*
X25469Y51116D02*
Y53084D01*
X21531Y51116D02*
X25469D01*
X21531Y53084D02*
X25469D01*
X23500Y51500D02*
Y52700D01*
X22900Y52100D02*
X24100D01*
X21531Y47416D02*
Y49384D01*
X25469Y47416D02*
Y49384D01*
X21531Y47416D02*
X25469D01*
X21531Y49384D02*
X25469D01*
X23500Y47800D02*
Y49000D01*
X22900Y48400D02*
X24100D01*
X21032Y59816D02*
Y61784D01*
X24969Y59816D02*
Y61784D01*
X21032Y59816D02*
X24969D01*
X21032Y61784D02*
X24969D01*
X23000Y60200D02*
Y61400D01*
X22400Y60800D02*
X23600D01*
X30632Y87916D02*
Y89884D01*
X34569Y87916D02*
Y89884D01*
X30632Y87916D02*
X34569D01*
X30632Y89884D02*
X34569D01*
X32600Y88300D02*
Y89500D01*
X32000Y88900D02*
X33200D01*
X92968Y7616D02*
Y9584D01*
X89031Y7616D02*
Y9584D01*
Y7616D02*
X92968D01*
X89031Y9584D02*
X92968D01*
X91000Y8000D02*
Y9200D01*
X90400Y8600D02*
X91600D01*
X16500Y50700D02*
Y52700D01*
X15500Y51700D02*
X17500D01*
X92968Y89016D02*
Y90984D01*
X89031Y89016D02*
Y90984D01*
Y89016D02*
X92968D01*
X89031Y90984D02*
X92968D01*
X91000Y89400D02*
Y90600D01*
X90400Y90000D02*
X91600D01*
X99032Y74516D02*
Y76484D01*
X102969Y74516D02*
Y76484D01*
X99032Y76484D02*
X102969D01*
X99032Y74516D02*
X102969D01*
X101000Y74900D02*
Y76100D01*
X100400Y75500D02*
X101600D01*
X83516Y71031D02*
X85484D01*
X83516Y74968D02*
X85484D01*
X83516Y71031D02*
Y74968D01*
X85484Y71031D02*
Y74968D01*
X83900Y73000D02*
X85100D01*
X84500Y72400D02*
Y73600D01*
X98437Y11116D02*
Y13084D01*
X102374Y11116D02*
Y13084D01*
X98437Y13084D02*
X102374D01*
X98437Y11116D02*
X102374D01*
X100406Y11500D02*
Y12700D01*
X99806Y12100D02*
X101006D01*
X100268Y7616D02*
Y9584D01*
X96332Y7616D02*
Y9584D01*
Y7616D02*
X100268D01*
X96332Y9584D02*
X100268D01*
X98300Y8000D02*
Y9200D01*
X97700Y8600D02*
X98900D01*
X92968Y11116D02*
Y13084D01*
X89031Y11116D02*
Y13084D01*
Y11116D02*
X92968D01*
X89031Y13084D02*
X92968D01*
X91000Y11500D02*
Y12700D01*
X90400Y12100D02*
X91600D01*
X49031Y25016D02*
Y26984D01*
X52969Y25016D02*
Y26984D01*
X49031Y26984D02*
X52969D01*
X49031Y25016D02*
X52969D01*
X51000Y25400D02*
Y26600D01*
X50400Y26000D02*
X51600D01*
X57016Y74032D02*
X58984D01*
X57016Y77969D02*
X58984D01*
X57016Y74032D02*
Y77969D01*
X58984Y74032D02*
Y77969D01*
X57400Y76000D02*
X58600D01*
X58000Y75400D02*
Y76600D01*
X52118Y77116D02*
Y79084D01*
X48182Y77116D02*
Y79084D01*
Y77116D02*
X52118D01*
X48182Y79084D02*
X52118D01*
X50150Y77500D02*
Y78700D01*
X49550Y78100D02*
X50750D01*
X40681Y77116D02*
Y79084D01*
X44618Y77116D02*
Y79084D01*
X40681Y79084D02*
X44618D01*
X40681Y77116D02*
X44618D01*
X42650Y77500D02*
Y78700D01*
X42050Y78100D02*
X43250D01*
X45968Y25016D02*
Y26984D01*
X42031Y25016D02*
Y26984D01*
Y25016D02*
X45968D01*
X42031Y26984D02*
X45968D01*
X44000Y25400D02*
Y26600D01*
X43400Y26000D02*
X44600D01*
X38969Y25016D02*
Y26984D01*
X35032Y25016D02*
Y26984D01*
Y25016D02*
X38969D01*
X35032Y26984D02*
X38969D01*
X37000Y25400D02*
Y26600D01*
X36400Y26000D02*
X37600D01*
X74882Y65316D02*
Y67284D01*
X78819Y65316D02*
Y67284D01*
X74882Y67284D02*
X78819D01*
X74882Y65316D02*
X78819D01*
X76850Y65700D02*
Y66900D01*
X76250Y66300D02*
X77450D01*
X71819Y65316D02*
Y67284D01*
X67882Y65316D02*
Y67284D01*
Y65316D02*
X71819D01*
X67882Y67284D02*
X71819D01*
X69850Y65700D02*
Y66900D01*
X69250Y66300D02*
X70450D01*
X56016Y45968D02*
X57984D01*
X56016Y42031D02*
X57984D01*
X57984D02*
Y45968D01*
X56016Y42031D02*
Y45968D01*
X56400Y44000D02*
X57600D01*
X57000Y43400D02*
Y44600D01*
X60882Y65316D02*
Y67284D01*
X64819Y65316D02*
Y67284D01*
X60882Y67284D02*
X64819D01*
X60882Y65316D02*
X64819D01*
X62850Y65700D02*
Y66900D01*
X62250Y66300D02*
X63450D01*
D95*
X100043Y15398D02*
Y27602D01*
X92957Y15398D02*
Y27602D01*
Y15398D02*
X100043D01*
X92957Y27602D02*
X100043D01*
M02*
