G04*
G04 #@! TF.GenerationSoftware,Altium Limited,Altium Designer,22.0.2 (36)*
G04*
G04 Layer_Physical_Order=3*
G04 Layer_Color=128*
%FSLAX25Y25*%
%MOIN*%
G70*
G04*
G04 #@! TF.SameCoordinates,4AEEF1EB-5C28-47D6-87F3-BA9F17CF17F5*
G04*
G04*
G04 #@! TF.FilePolarity,Negative*
G04*
G01*
G75*
%ADD17C,0.01000*%
%ADD77C,0.04000*%
%ADD78C,0.05537*%
%ADD79C,0.05143*%
%ADD80C,0.04159*%
%ADD81C,0.02600*%
%ADD82C,0.02800*%
%ADD83O,0.08293X0.03962*%
%ADD84O,0.06324X0.03962*%
D17*
X88064Y77435D02*
G03*
X96600Y73900I8535J8535D01*
G01*
X119000Y-500D02*
G03*
X124000Y4500I0J5000D01*
G01*
X99000D02*
G03*
X104000Y-500I5000J0D01*
G01*
X99000Y16000D02*
G03*
X95464Y24535I-12071J0D01*
G01*
X85000Y40000D02*
G03*
X88535Y31464I12071J0D01*
G01*
X85000Y48500D02*
G03*
X81464Y57035I-12071J0D01*
G01*
X76500Y67000D02*
G03*
X80036Y58464I12071J0D01*
G01*
X81500Y81000D02*
G03*
X76500Y76000I0J-5000D01*
G01*
X86621Y78879D02*
G03*
X81500Y81000I-5121J-5121D01*
G01*
X86621Y78879D02*
X88064Y77435D01*
X96600Y73900D02*
X107400D01*
X124000Y4500D02*
Y73900D01*
X104000Y-500D02*
X119000D01*
X99000Y4500D02*
Y16000D01*
X88535Y31464D02*
X95464Y24535D01*
X85000Y40000D02*
Y48500D01*
X80036Y58464D02*
X81464Y57035D01*
X76500Y67000D02*
Y76000D01*
X107400Y73900D02*
X124000D01*
D77*
X23240Y64940D02*
G03*
X26500Y68200I0J3260D01*
G01*
X34500Y98000D02*
G03*
X26500Y90000I0J-8000D01*
G01*
X107000D02*
G03*
X99000Y98000I-8000J0D01*
G01*
X106990Y75250D02*
G03*
X110250Y71990I3260J0D01*
G01*
X110300Y31500D02*
G03*
X107040Y28240I0J-3260D01*
G01*
X99000Y5500D02*
G03*
X107000Y13500I0J8000D01*
G01*
X26500Y7207D02*
G03*
X28207Y5500I1707J0D01*
G01*
X26500Y34700D02*
G03*
X23240Y37960I-3260J0D01*
G01*
Y64940D02*
Y64982D01*
X26482Y68200D02*
X26500D01*
X26482D02*
Y90000D01*
X26500D01*
X34500Y98000D02*
Y98000D01*
X106990Y75250D02*
X107000D01*
X110250Y71990D02*
Y72000D01*
X115700D01*
X107000Y28240D02*
X107040D01*
X107000Y13500D02*
Y28240D01*
X99000Y5500D02*
Y5500D01*
X28207D02*
X99000Y5500D01*
X26500Y7207D02*
Y34700D01*
X3500Y38000D02*
X23240Y37960D01*
X3500Y38000D02*
Y64982D01*
X23240D01*
X34500Y98000D02*
X99000Y98000D01*
X107000Y75250D02*
Y90000D01*
X115700Y31500D02*
Y72000D01*
X110300Y31500D02*
X115700D01*
D78*
X72900Y40300D02*
D03*
D79*
Y71796D02*
D03*
D80*
X95342Y63178D02*
D03*
Y40422D02*
D03*
D81*
X46700Y90700D02*
D03*
X91500Y8500D02*
D03*
X84387Y9100D02*
D03*
X42000Y22700D02*
D03*
X73200Y33700D02*
D03*
X84500Y52700D02*
D03*
X19900Y58100D02*
D03*
X47249Y30018D02*
D03*
X55100Y34800D02*
D03*
X52600D02*
D03*
X34536Y36369D02*
D03*
X51200Y56000D02*
D03*
X78000Y69731D02*
D03*
Y72800D02*
D03*
X69100Y72200D02*
D03*
X59900Y92000D02*
D03*
X60600Y83300D02*
D03*
X94034Y52839D02*
D03*
X82000Y48400D02*
D03*
X31119Y39981D02*
D03*
X90500Y84400D02*
D03*
X92800Y39000D02*
D03*
X104900Y21500D02*
D03*
X25800Y54500D02*
D03*
X35100Y65200D02*
D03*
X67400Y64300D02*
D03*
X78300Y47600D02*
D03*
X61700D02*
D03*
X97800Y54700D02*
D03*
X83900Y45700D02*
D03*
X81200Y40000D02*
D03*
X97800Y48000D02*
D03*
X34000Y94500D02*
D03*
X28800Y86300D02*
D03*
X39500Y83200D02*
D03*
X78100Y63600D02*
D03*
X60800Y71000D02*
D03*
X40400Y65900D02*
D03*
Y73700D02*
D03*
X49800D02*
D03*
X40800Y30700D02*
D03*
X35800Y22900D02*
D03*
X30400Y30400D02*
D03*
X38200Y34300D02*
D03*
X44800Y42700D02*
D03*
X37300Y42000D02*
D03*
X12500Y44900D02*
D03*
Y50200D02*
D03*
X57000Y62900D02*
D03*
X49800Y65900D02*
D03*
X48700Y56000D02*
D03*
X49400Y49200D02*
D03*
X45700D02*
D03*
Y56000D02*
D03*
Y62800D02*
D03*
X98500Y72800D02*
D03*
X89600Y79700D02*
D03*
X97400D02*
D03*
X86300Y83700D02*
D03*
Y88400D02*
D03*
X100800D02*
D03*
Y93300D02*
D03*
X93550D02*
D03*
X86300D02*
D03*
X73000Y89300D02*
D03*
Y85300D02*
D03*
X69200Y85200D02*
D03*
Y89300D02*
D03*
X71200Y25500D02*
D03*
Y20300D02*
D03*
X65300D02*
D03*
X65500Y25500D02*
D03*
X74100Y53700D02*
D03*
Y49900D02*
D03*
X66200D02*
D03*
X70000D02*
D03*
X66200Y53700D02*
D03*
X70000Y53800D02*
D03*
X109121Y41500D02*
D03*
Y51550D02*
D03*
Y61600D02*
D03*
X96500Y21667D02*
D03*
Y25500D02*
D03*
Y14000D02*
D03*
X102600Y9300D02*
D03*
X57700Y9900D02*
D03*
X54900Y11600D02*
D03*
Y14200D02*
D03*
X53400Y16900D02*
D03*
X29800Y18600D02*
D03*
X32425D02*
D03*
X35050D02*
D03*
X37675D02*
D03*
X40300D02*
D03*
X42925D02*
D03*
X45550D02*
D03*
X48175D02*
D03*
X50800D02*
D03*
X56300Y77900D02*
D03*
X40200Y50200D02*
D03*
X56900Y56100D02*
D03*
X37100Y38900D02*
D03*
X80300Y45500D02*
D03*
X56000Y72200D02*
D03*
X76089Y11711D02*
D03*
X92300Y29400D02*
D03*
X90600Y21700D02*
D03*
X69300Y13800D02*
D03*
X69800Y32600D02*
D03*
X44800Y46700D02*
D03*
X80600Y20247D02*
D03*
X82200Y18300D02*
D03*
X86011Y11000D02*
D03*
X53100Y82700D02*
D03*
D82*
X95900Y75200D02*
D03*
X42100Y56800D02*
D03*
X11700Y58200D02*
D03*
X81321Y28121D02*
D03*
D83*
X93373Y34772D02*
D03*
Y68828D02*
D03*
D84*
X109121Y34772D02*
D03*
Y68828D02*
D03*
M02*
