G04*
G04 #@! TF.GenerationSoftware,Altium Limited,Altium Designer,22.0.2 (36)*
G04*
G04 Layer_Color=2752767*
%FSLAX25Y25*%
%MOIN*%
G70*
G04*
G04 #@! TF.SameCoordinates,4AEEF1EB-5C28-47D6-87F3-BA9F17CF17F5*
G04*
G04*
G04 #@! TF.FilePolarity,Positive*
G04*
G01*
G75*
%ADD11C,0.00600*%
%ADD16C,0.00200*%
%ADD96C,0.00267*%
%ADD97C,0.00960*%
%ADD98C,0.00533*%
%ADD99C,0.00840*%
D11*
X213572Y87333D02*
X214905D01*
X214238D01*
Y91332D01*
X213572Y90665D01*
X216904Y87333D02*
X218237D01*
X217570D01*
Y91332D01*
X216904Y90665D01*
X220236Y91332D02*
X222902D01*
Y90665D01*
X220236Y87999D01*
Y87333D01*
X259639D02*
X260972D01*
X260306D01*
Y91332D01*
X259639Y90665D01*
X262972D02*
X263638Y91332D01*
X264971D01*
X265637Y90665D01*
Y87999D01*
X264971Y87333D01*
X263638D01*
X262972Y87999D01*
Y90665D01*
X266970Y87333D02*
Y89999D01*
X267637D01*
X268303Y89332D01*
Y87333D01*
Y89332D01*
X268970Y89999D01*
X269636Y89332D01*
Y87333D01*
X270969D02*
X272302D01*
X271636D01*
Y89999D01*
X270969D01*
X274301Y87333D02*
X275634D01*
X274968D01*
Y91332D01*
X274301D01*
X282965Y87333D02*
X281632Y88666D01*
Y89999D01*
X282965Y91332D01*
X284964Y90665D02*
X285631Y91332D01*
X286964D01*
X287630Y90665D01*
Y87999D01*
X286964Y87333D01*
X285631D01*
X284964Y87999D01*
Y90665D01*
X288963Y87333D02*
Y87999D01*
X289630D01*
Y87333D01*
X288963D01*
X294961D02*
X292296D01*
X294961Y89999D01*
Y90665D01*
X294295Y91332D01*
X292962D01*
X292296Y90665D01*
X298960Y91332D02*
X296294D01*
Y89332D01*
X297627Y89999D01*
X298293D01*
X298960Y89332D01*
Y87999D01*
X298293Y87333D01*
X296961D01*
X296294Y87999D01*
X302292Y87333D02*
Y91332D01*
X300293Y89332D01*
X302959D01*
X304292Y87333D02*
Y89999D01*
X304958D01*
X305625Y89332D01*
Y87333D01*
Y89332D01*
X306291Y89999D01*
X306957Y89332D01*
Y87333D01*
X308290D02*
Y89999D01*
X308957D01*
X309623Y89332D01*
Y87333D01*
Y89332D01*
X310290Y89999D01*
X310956Y89332D01*
Y87333D01*
X312289D02*
X313622Y88666D01*
Y89999D01*
X312289Y91332D01*
X505008Y87333D02*
Y91332D01*
X507007D01*
X507673Y90665D01*
Y89332D01*
X507007Y88666D01*
X505008D01*
X509006Y91332D02*
X511672D01*
X510339D01*
Y87333D01*
X513005Y91332D02*
Y87333D01*
Y89332D01*
X515671D01*
Y91332D01*
Y87333D01*
X538279D02*
Y91332D01*
X540279D01*
X540945Y90665D01*
Y89332D01*
X540279Y88666D01*
X538279D01*
X539612D02*
X540945Y87333D01*
X542944D02*
X544277D01*
X544944Y87999D01*
Y89332D01*
X544277Y89999D01*
X542944D01*
X542278Y89332D01*
Y87999D01*
X542944Y87333D01*
X546277Y89999D02*
Y87999D01*
X546943Y87333D01*
X548943D01*
Y89999D01*
X550275Y87333D02*
Y89999D01*
X552275D01*
X552941Y89332D01*
Y87333D01*
X556940Y91332D02*
Y87333D01*
X554941D01*
X554274Y87999D01*
Y89332D01*
X554941Y89999D01*
X556940D01*
X216237Y79333D02*
X213572D01*
X216237Y81999D01*
Y82665D01*
X215571Y83332D01*
X214238D01*
X213572Y82665D01*
X217570D02*
X218237Y83332D01*
X219570D01*
X220236Y82665D01*
Y79999D01*
X219570Y79333D01*
X218237D01*
X217570Y79999D01*
Y82665D01*
X259639Y79333D02*
X260972D01*
X260306D01*
Y83332D01*
X259639Y82665D01*
X265637Y79333D02*
X262972D01*
X265637Y81999D01*
Y82665D01*
X264971Y83332D01*
X263638D01*
X262972Y82665D01*
X266970Y79333D02*
Y81999D01*
X267637D01*
X268303Y81332D01*
Y79333D01*
Y81332D01*
X268970Y81999D01*
X269636Y81332D01*
Y79333D01*
X270969D02*
X272302D01*
X271636D01*
Y81999D01*
X270969D01*
X274301Y79333D02*
X275634D01*
X274968D01*
Y83332D01*
X274301D01*
X282965Y79333D02*
X281632Y80666D01*
Y81999D01*
X282965Y83332D01*
X284964Y82665D02*
X285631Y83332D01*
X286964D01*
X287630Y82665D01*
Y79999D01*
X286964Y79333D01*
X285631D01*
X284964Y79999D01*
Y82665D01*
X288963Y79333D02*
Y79999D01*
X289630D01*
Y79333D01*
X288963D01*
X292296Y82665D02*
X292962Y83332D01*
X294295D01*
X294961Y82665D01*
Y81999D01*
X294295Y81332D01*
X293628D01*
X294295D01*
X294961Y80666D01*
Y79999D01*
X294295Y79333D01*
X292962D01*
X292296Y79999D01*
X296294Y82665D02*
X296961Y83332D01*
X298293D01*
X298960Y82665D01*
Y79999D01*
X298293Y79333D01*
X296961D01*
X296294Y79999D01*
Y82665D01*
X302292Y79333D02*
Y83332D01*
X300293Y81332D01*
X302959D01*
X304292Y82665D02*
X304958Y83332D01*
X306291D01*
X306957Y82665D01*
Y81999D01*
X306291Y81332D01*
X306957Y80666D01*
Y79999D01*
X306291Y79333D01*
X304958D01*
X304292Y79999D01*
Y80666D01*
X304958Y81332D01*
X304292Y81999D01*
Y82665D01*
X304958Y81332D02*
X306291D01*
X308290Y79333D02*
Y81999D01*
X308957D01*
X309623Y81332D01*
Y79333D01*
Y81332D01*
X310290Y81999D01*
X310956Y81332D01*
Y79333D01*
X312289D02*
Y81999D01*
X312955D01*
X313622Y81332D01*
Y79333D01*
Y81332D01*
X314288Y81999D01*
X314955Y81332D01*
Y79333D01*
X316288D02*
X317621Y80666D01*
Y81999D01*
X316288Y83332D01*
X505008Y79333D02*
Y83332D01*
X507007D01*
X507673Y82665D01*
Y81332D01*
X507007Y80666D01*
X505008D01*
X509006Y83332D02*
X511672D01*
X510339D01*
Y79333D01*
X513005Y83332D02*
Y79333D01*
Y81332D01*
X515671D01*
Y83332D01*
Y79333D01*
X538279D02*
Y83332D01*
X540279D01*
X540945Y82665D01*
Y81332D01*
X540279Y80666D01*
X538279D01*
X539612D02*
X540945Y79333D01*
X542944D02*
X544277D01*
X544944Y79999D01*
Y81332D01*
X544277Y81999D01*
X542944D01*
X542278Y81332D01*
Y79999D01*
X542944Y79333D01*
X546277Y81999D02*
Y79999D01*
X546943Y79333D01*
X548943D01*
Y81999D01*
X550275Y79333D02*
Y81999D01*
X552275D01*
X552941Y81332D01*
Y79333D01*
X556940Y83332D02*
Y79333D01*
X554941D01*
X554274Y79999D01*
Y81332D01*
X554941Y81999D01*
X556940D01*
X216237Y71333D02*
X213572D01*
X216237Y73999D01*
Y74665D01*
X215571Y75332D01*
X214238D01*
X213572Y74665D01*
X262305Y71333D02*
X259639D01*
X262305Y73999D01*
Y74665D01*
X261639Y75332D01*
X260306D01*
X259639Y74665D01*
X266304Y75332D02*
X263638D01*
Y73332D01*
X264971Y73999D01*
X265637D01*
X266304Y73332D01*
Y71999D01*
X265637Y71333D01*
X264304D01*
X263638Y71999D01*
X267637Y71333D02*
Y71999D01*
X268303D01*
Y71333D01*
X267637D01*
X273635Y75332D02*
X270969D01*
Y73332D01*
X272302Y73999D01*
X272968D01*
X273635Y73332D01*
Y71999D01*
X272968Y71333D01*
X271636D01*
X270969Y71999D01*
X274968D02*
X275634Y71333D01*
X276967D01*
X277634Y71999D01*
Y74665D01*
X276967Y75332D01*
X275634D01*
X274968Y74665D01*
Y73999D01*
X275634Y73332D01*
X277634D01*
X278966Y71333D02*
X280299D01*
X279633D01*
Y75332D01*
X278966Y74665D01*
X282299Y71333D02*
Y73999D01*
X282965D01*
X283632Y73332D01*
Y71333D01*
Y73332D01*
X284298Y73999D01*
X284964Y73332D01*
Y71333D01*
X286297D02*
X287630D01*
X286964D01*
Y73999D01*
X286297D01*
X289630Y71333D02*
X290963D01*
X290296D01*
Y75332D01*
X289630D01*
X298293Y71333D02*
X296961Y72666D01*
Y73999D01*
X298293Y75332D01*
X300293Y74665D02*
X300959Y75332D01*
X302292D01*
X302959Y74665D01*
Y71999D01*
X302292Y71333D01*
X300959D01*
X300293Y71999D01*
Y74665D01*
X304292Y71333D02*
Y71999D01*
X304958D01*
Y71333D01*
X304292D01*
X310290Y75332D02*
X308957Y74665D01*
X307624Y73332D01*
Y71999D01*
X308290Y71333D01*
X309623D01*
X310290Y71999D01*
Y72666D01*
X309623Y73332D01*
X307624D01*
X314288Y75332D02*
X311623D01*
Y73332D01*
X312955Y73999D01*
X313622D01*
X314288Y73332D01*
Y71999D01*
X313622Y71333D01*
X312289D01*
X311623Y71999D01*
X315621Y71333D02*
Y73999D01*
X316288D01*
X316954Y73332D01*
Y71333D01*
Y73332D01*
X317621Y73999D01*
X318287Y73332D01*
Y71333D01*
X319620D02*
Y73999D01*
X320286D01*
X320953Y73332D01*
Y71333D01*
Y73332D01*
X321619Y73999D01*
X322286Y73332D01*
Y71333D01*
X323619D02*
X324952Y72666D01*
Y73999D01*
X323619Y75332D01*
X505008Y71333D02*
Y75332D01*
X507007D01*
X507673Y74665D01*
Y73332D01*
X507007Y72666D01*
X505008D01*
X509006Y75332D02*
X511672D01*
X510339D01*
Y71333D01*
X513005Y75332D02*
Y71333D01*
Y73332D01*
X515671D01*
Y75332D01*
Y71333D01*
X538279D02*
Y75332D01*
X540279D01*
X540945Y74665D01*
Y73332D01*
X540279Y72666D01*
X538279D01*
X539612D02*
X540945Y71333D01*
X542944D02*
X544277D01*
X544944Y71999D01*
Y73332D01*
X544277Y73999D01*
X542944D01*
X542278Y73332D01*
Y71999D01*
X542944Y71333D01*
X546277Y73999D02*
Y71999D01*
X546943Y71333D01*
X548943D01*
Y73999D01*
X550275Y71333D02*
Y73999D01*
X552275D01*
X552941Y73332D01*
Y71333D01*
X556940Y75332D02*
Y71333D01*
X554941D01*
X554274Y71999D01*
Y73332D01*
X554941Y73999D01*
X556940D01*
X213572Y63333D02*
X214905D01*
X214238D01*
Y67332D01*
X213572Y66665D01*
X259639D02*
X260306Y67332D01*
X261639D01*
X262305Y66665D01*
Y65999D01*
X261639Y65332D01*
X260972D01*
X261639D01*
X262305Y64666D01*
Y63999D01*
X261639Y63333D01*
X260306D01*
X259639Y63999D01*
X266304Y67332D02*
X263638D01*
Y65332D01*
X264971Y65999D01*
X265637D01*
X266304Y65332D01*
Y63999D01*
X265637Y63333D01*
X264304D01*
X263638Y63999D01*
X267637Y63333D02*
Y63999D01*
X268303D01*
Y63333D01*
X267637D01*
X272968D02*
Y67332D01*
X270969Y65332D01*
X273635D01*
X274968Y66665D02*
X275634Y67332D01*
X276967D01*
X277634Y66665D01*
Y65999D01*
X276967Y65332D01*
X276301D01*
X276967D01*
X277634Y64666D01*
Y63999D01*
X276967Y63333D01*
X275634D01*
X274968Y63999D01*
X278966Y66665D02*
X279633Y67332D01*
X280966D01*
X281632Y66665D01*
Y65999D01*
X280966Y65332D01*
X280299D01*
X280966D01*
X281632Y64666D01*
Y63999D01*
X280966Y63333D01*
X279633D01*
X278966Y63999D01*
X282965Y63333D02*
Y65999D01*
X283632D01*
X284298Y65332D01*
Y63333D01*
Y65332D01*
X284964Y65999D01*
X285631Y65332D01*
Y63333D01*
X286964D02*
X288297D01*
X287630D01*
Y65999D01*
X286964D01*
X290296Y63333D02*
X291629D01*
X290963D01*
Y67332D01*
X290296D01*
X298960Y63333D02*
X297627Y64666D01*
Y65999D01*
X298960Y67332D01*
X300959Y66665D02*
X301626Y67332D01*
X302959D01*
X303625Y66665D01*
Y63999D01*
X302959Y63333D01*
X301626D01*
X300959Y63999D01*
Y66665D01*
X304958Y63333D02*
Y63999D01*
X305625D01*
Y63333D01*
X304958D01*
X308290Y63999D02*
X308957Y63333D01*
X310290D01*
X310956Y63999D01*
Y66665D01*
X310290Y67332D01*
X308957D01*
X308290Y66665D01*
Y65999D01*
X308957Y65332D01*
X310956D01*
X312289Y63333D02*
Y65999D01*
X312955D01*
X313622Y65332D01*
Y63333D01*
Y65332D01*
X314288Y65999D01*
X314955Y65332D01*
Y63333D01*
X316288D02*
Y65999D01*
X316954D01*
X317621Y65332D01*
Y63333D01*
Y65332D01*
X318287Y65999D01*
X318953Y65332D01*
Y63333D01*
X320286D02*
X321619Y64666D01*
Y65999D01*
X320286Y67332D01*
X505008Y63333D02*
Y67332D01*
X507007D01*
X507673Y66665D01*
Y65332D01*
X507007Y64666D01*
X505008D01*
X509006Y67332D02*
X511672D01*
X510339D01*
Y63333D01*
X513005Y67332D02*
Y63333D01*
Y65332D01*
X515671D01*
Y67332D01*
Y63333D01*
X538279D02*
Y67332D01*
X540279D01*
X540945Y66665D01*
Y65332D01*
X540279Y64666D01*
X538279D01*
X539612D02*
X540945Y63333D01*
X542944D02*
X544277D01*
X544944Y63999D01*
Y65332D01*
X544277Y65999D01*
X542944D01*
X542278Y65332D01*
Y63999D01*
X542944Y63333D01*
X546277Y65999D02*
Y63999D01*
X546943Y63333D01*
X548943D01*
Y65999D01*
X550275Y63333D02*
Y65999D01*
X552275D01*
X552941Y65332D01*
Y63333D01*
X556940Y67332D02*
Y63333D01*
X554941D01*
X554274Y63999D01*
Y65332D01*
X554941Y65999D01*
X556940D01*
X213572Y55333D02*
X214905D01*
X214238D01*
Y59332D01*
X213572Y58665D01*
X259639D02*
X260306Y59332D01*
X261639D01*
X262305Y58665D01*
Y57999D01*
X261639Y57332D01*
X260972D01*
X261639D01*
X262305Y56666D01*
Y55999D01*
X261639Y55333D01*
X260306D01*
X259639Y55999D01*
X263638D02*
X264304Y55333D01*
X265637D01*
X266304Y55999D01*
Y58665D01*
X265637Y59332D01*
X264304D01*
X263638Y58665D01*
Y57999D01*
X264304Y57332D01*
X266304D01*
X267637Y55333D02*
Y55999D01*
X268303D01*
Y55333D01*
X267637D01*
X270969Y58665D02*
X271636Y59332D01*
X272968D01*
X273635Y58665D01*
Y57999D01*
X272968Y57332D01*
X272302D01*
X272968D01*
X273635Y56666D01*
Y55999D01*
X272968Y55333D01*
X271636D01*
X270969Y55999D01*
X274968Y59332D02*
X277634D01*
Y58665D01*
X274968Y55999D01*
Y55333D01*
X278966D02*
Y57999D01*
X279633D01*
X280299Y57332D01*
Y55333D01*
Y57332D01*
X280966Y57999D01*
X281632Y57332D01*
Y55333D01*
X282965D02*
X284298D01*
X283632D01*
Y57999D01*
X282965D01*
X286297Y55333D02*
X287630D01*
X286964D01*
Y59332D01*
X286297D01*
X294961Y55333D02*
X293628Y56666D01*
Y57999D01*
X294961Y59332D01*
X296961Y55333D02*
X298293D01*
X297627D01*
Y59332D01*
X296961Y58665D01*
X300293Y55333D02*
Y57999D01*
X300959D01*
X301626Y57332D01*
Y55333D01*
Y57332D01*
X302292Y57999D01*
X302959Y57332D01*
Y55333D01*
X304292D02*
Y57999D01*
X304958D01*
X305625Y57332D01*
Y55333D01*
Y57332D01*
X306291Y57999D01*
X306957Y57332D01*
Y55333D01*
X308290D02*
X309623Y56666D01*
Y57999D01*
X308290Y59332D01*
X505008Y55333D02*
Y59332D01*
X507673Y55333D01*
Y59332D01*
X509006Y55333D02*
Y59332D01*
X511006D01*
X511672Y58665D01*
Y57332D01*
X511006Y56666D01*
X509006D01*
X513005Y59332D02*
X515671D01*
X514338D01*
Y55333D01*
X517004Y59332D02*
Y55333D01*
Y57332D01*
X519669D01*
Y59332D01*
Y55333D01*
X538279D02*
Y59332D01*
X540279D01*
X540945Y58665D01*
Y57332D01*
X540279Y56666D01*
X538279D01*
X539612D02*
X540945Y55333D01*
X542944D02*
X544277D01*
X544944Y55999D01*
Y57332D01*
X544277Y57999D01*
X542944D01*
X542278Y57332D01*
Y55999D01*
X542944Y55333D01*
X546277Y57999D02*
Y55999D01*
X546943Y55333D01*
X548943D01*
Y57999D01*
X550275Y55333D02*
Y57999D01*
X552275D01*
X552941Y57332D01*
Y55333D01*
X556940Y59332D02*
Y55333D01*
X554941D01*
X554274Y55999D01*
Y57332D01*
X554941Y57999D01*
X556940D01*
X216237Y47333D02*
X213572D01*
X216237Y49999D01*
Y50665D01*
X215571Y51332D01*
X214238D01*
X213572Y50665D01*
X262305Y47333D02*
X259639D01*
X262305Y49999D01*
Y50665D01*
X261639Y51332D01*
X260306D01*
X259639Y50665D01*
X263638D02*
X264304Y51332D01*
X265637D01*
X266304Y50665D01*
Y49999D01*
X265637Y49332D01*
X264971D01*
X265637D01*
X266304Y48666D01*
Y47999D01*
X265637Y47333D01*
X264304D01*
X263638Y47999D01*
X267637Y47333D02*
Y47999D01*
X268303D01*
Y47333D01*
X267637D01*
X273635Y51332D02*
X272302Y50665D01*
X270969Y49332D01*
Y47999D01*
X271636Y47333D01*
X272968D01*
X273635Y47999D01*
Y48666D01*
X272968Y49332D01*
X270969D01*
X277634Y47333D02*
X274968D01*
X277634Y49999D01*
Y50665D01*
X276967Y51332D01*
X275634D01*
X274968Y50665D01*
X281632Y47333D02*
X278966D01*
X281632Y49999D01*
Y50665D01*
X280966Y51332D01*
X279633D01*
X278966Y50665D01*
X282965Y47333D02*
Y49999D01*
X283632D01*
X284298Y49332D01*
Y47333D01*
Y49332D01*
X284964Y49999D01*
X285631Y49332D01*
Y47333D01*
X286964D02*
X288297D01*
X287630D01*
Y49999D01*
X286964D01*
X290296Y47333D02*
X291629D01*
X290963D01*
Y51332D01*
X290296D01*
X298960Y47333D02*
X297627Y48666D01*
Y49999D01*
X298960Y51332D01*
X300959Y50665D02*
X301626Y51332D01*
X302959D01*
X303625Y50665D01*
Y47999D01*
X302959Y47333D01*
X301626D01*
X300959Y47999D01*
Y50665D01*
X304958Y47333D02*
Y47999D01*
X305625D01*
Y47333D01*
X304958D01*
X310956Y51332D02*
X309623Y50665D01*
X308290Y49332D01*
Y47999D01*
X308957Y47333D01*
X310290D01*
X310956Y47999D01*
Y48666D01*
X310290Y49332D01*
X308290D01*
X312289Y47333D02*
Y49999D01*
X312955D01*
X313622Y49332D01*
Y47333D01*
Y49332D01*
X314288Y49999D01*
X314955Y49332D01*
Y47333D01*
X316288D02*
Y49999D01*
X316954D01*
X317621Y49332D01*
Y47333D01*
Y49332D01*
X318287Y49999D01*
X318953Y49332D01*
Y47333D01*
X320286D02*
X321619Y48666D01*
Y49999D01*
X320286Y51332D01*
X350892Y47333D02*
Y51332D01*
X348893Y49332D01*
X351559D01*
X352892Y51332D02*
X355557D01*
Y50665D01*
X352892Y47999D01*
Y47333D01*
X356890D02*
Y47999D01*
X357557D01*
Y47333D01*
X356890D01*
X362889D02*
X360223D01*
X362889Y49999D01*
Y50665D01*
X362222Y51332D01*
X360889D01*
X360223Y50665D01*
X366221Y47333D02*
Y51332D01*
X364221Y49332D01*
X366887D01*
X370219Y47333D02*
Y51332D01*
X368220Y49332D01*
X370886D01*
X372219Y47333D02*
Y49999D01*
X372885D01*
X373552Y49332D01*
Y47333D01*
Y49332D01*
X374218Y49999D01*
X374885Y49332D01*
Y47333D01*
X376218D02*
X377550D01*
X376884D01*
Y49999D01*
X376218D01*
X379550Y47333D02*
X380883D01*
X380216D01*
Y51332D01*
X379550D01*
X388214Y47333D02*
X386881Y48666D01*
Y49999D01*
X388214Y51332D01*
X390213Y47333D02*
X391546D01*
X390879D01*
Y51332D01*
X390213Y50665D01*
X393545Y47333D02*
Y47999D01*
X394212D01*
Y47333D01*
X393545D01*
X399543D02*
X396878D01*
X399543Y49999D01*
Y50665D01*
X398877Y51332D01*
X397544D01*
X396878Y50665D01*
X400876Y47333D02*
Y49999D01*
X401543D01*
X402209Y49332D01*
Y47333D01*
Y49332D01*
X402876Y49999D01*
X403542Y49332D01*
Y47333D01*
X404875D02*
Y49999D01*
X405541D01*
X406208Y49332D01*
Y47333D01*
Y49332D01*
X406874Y49999D01*
X407541Y49332D01*
Y47333D01*
X408874D02*
X410207Y48666D01*
Y49999D01*
X408874Y51332D01*
X427217Y47333D02*
X424551D01*
X427217Y49999D01*
Y50665D01*
X426550Y51332D01*
X425217D01*
X424551Y50665D01*
X428550D02*
X429216Y51332D01*
X430549D01*
X431215Y50665D01*
Y49999D01*
X430549Y49332D01*
X429883D01*
X430549D01*
X431215Y48666D01*
Y47999D01*
X430549Y47333D01*
X429216D01*
X428550Y47999D01*
X432549Y47333D02*
Y47999D01*
X433215D01*
Y47333D01*
X432549D01*
X438547Y51332D02*
X437214Y50665D01*
X435881Y49332D01*
Y47999D01*
X436547Y47333D01*
X437880D01*
X438547Y47999D01*
Y48666D01*
X437880Y49332D01*
X435881D01*
X442545Y47333D02*
X439879D01*
X442545Y49999D01*
Y50665D01*
X441879Y51332D01*
X440546D01*
X439879Y50665D01*
X446544Y47333D02*
X443878D01*
X446544Y49999D01*
Y50665D01*
X445878Y51332D01*
X444545D01*
X443878Y50665D01*
X447877Y47333D02*
Y49999D01*
X448543D01*
X449210Y49332D01*
Y47333D01*
Y49332D01*
X449876Y49999D01*
X450543Y49332D01*
Y47333D01*
X451876D02*
X453208D01*
X452542D01*
Y49999D01*
X451876D01*
X455208Y47333D02*
X456541D01*
X455874D01*
Y51332D01*
X455208D01*
X463872Y47333D02*
X462539Y48666D01*
Y49999D01*
X463872Y51332D01*
X465871Y50665D02*
X466538Y51332D01*
X467870D01*
X468537Y50665D01*
Y47999D01*
X467870Y47333D01*
X466538D01*
X465871Y47999D01*
Y50665D01*
X469870Y47333D02*
Y47999D01*
X470536D01*
Y47333D01*
X469870D01*
X475868Y51332D02*
X474535Y50665D01*
X473202Y49332D01*
Y47999D01*
X473869Y47333D01*
X475201D01*
X475868Y47999D01*
Y48666D01*
X475201Y49332D01*
X473202D01*
X477201Y47333D02*
Y49999D01*
X477867D01*
X478534Y49332D01*
Y47333D01*
Y49332D01*
X479200Y49999D01*
X479867Y49332D01*
Y47333D01*
X481199D02*
Y49999D01*
X481866D01*
X482532Y49332D01*
Y47333D01*
Y49332D01*
X483199Y49999D01*
X483865Y49332D01*
Y47333D01*
X485198D02*
X486531Y48666D01*
Y49999D01*
X485198Y51332D01*
X505008Y47333D02*
Y51332D01*
X507007D01*
X507673Y50665D01*
Y49332D01*
X507007Y48666D01*
X505008D01*
X509006Y51332D02*
X511672D01*
X510339D01*
Y47333D01*
X513005Y51332D02*
Y47333D01*
Y49332D01*
X515671D01*
Y51332D01*
Y47333D01*
X540945Y50665D02*
X540279Y51332D01*
X538946D01*
X538279Y50665D01*
Y49999D01*
X538946Y49332D01*
X540279D01*
X540945Y48666D01*
Y47999D01*
X540279Y47333D01*
X538946D01*
X538279Y47999D01*
X542278Y47333D02*
X543611D01*
X542944D01*
Y51332D01*
X542278D01*
X546277Y47333D02*
X547610D01*
X548276Y47999D01*
Y49332D01*
X547610Y49999D01*
X546277D01*
X545610Y49332D01*
Y47999D01*
X546277Y47333D01*
X550275Y50665D02*
Y49999D01*
X549609D01*
X550942D01*
X550275D01*
Y47999D01*
X550942Y47333D01*
X216237Y39333D02*
X213572D01*
X216237Y41999D01*
Y42665D01*
X215571Y43332D01*
X214238D01*
X213572Y42665D01*
X262305Y39333D02*
X259639D01*
X262305Y41999D01*
Y42665D01*
X261639Y43332D01*
X260306D01*
X259639Y42665D01*
X263638D02*
X264304Y43332D01*
X265637D01*
X266304Y42665D01*
Y41999D01*
X265637Y41332D01*
X264971D01*
X265637D01*
X266304Y40666D01*
Y39999D01*
X265637Y39333D01*
X264304D01*
X263638Y39999D01*
X267637Y39333D02*
Y39999D01*
X268303D01*
Y39333D01*
X267637D01*
X273635Y43332D02*
X272302Y42665D01*
X270969Y41332D01*
Y39999D01*
X271636Y39333D01*
X272968D01*
X273635Y39999D01*
Y40666D01*
X272968Y41332D01*
X270969D01*
X277634Y39333D02*
X274968D01*
X277634Y41999D01*
Y42665D01*
X276967Y43332D01*
X275634D01*
X274968Y42665D01*
X281632Y39333D02*
X278966D01*
X281632Y41999D01*
Y42665D01*
X280966Y43332D01*
X279633D01*
X278966Y42665D01*
X282965Y39333D02*
Y41999D01*
X283632D01*
X284298Y41332D01*
Y39333D01*
Y41332D01*
X284964Y41999D01*
X285631Y41332D01*
Y39333D01*
X286964D02*
X288297D01*
X287630D01*
Y41999D01*
X286964D01*
X290296Y39333D02*
X291629D01*
X290963D01*
Y43332D01*
X290296D01*
X298960Y39333D02*
X297627Y40666D01*
Y41999D01*
X298960Y43332D01*
X300959Y42665D02*
X301626Y43332D01*
X302959D01*
X303625Y42665D01*
Y39999D01*
X302959Y39333D01*
X301626D01*
X300959Y39999D01*
Y42665D01*
X304958Y39333D02*
Y39999D01*
X305625D01*
Y39333D01*
X304958D01*
X310956Y43332D02*
X309623Y42665D01*
X308290Y41332D01*
Y39999D01*
X308957Y39333D01*
X310290D01*
X310956Y39999D01*
Y40666D01*
X310290Y41332D01*
X308290D01*
X312289Y39333D02*
Y41999D01*
X312955D01*
X313622Y41332D01*
Y39333D01*
Y41332D01*
X314288Y41999D01*
X314955Y41332D01*
Y39333D01*
X316288D02*
Y41999D01*
X316954D01*
X317621Y41332D01*
Y39333D01*
Y41332D01*
X318287Y41999D01*
X318953Y41332D01*
Y39333D01*
X320286D02*
X321619Y40666D01*
Y41999D01*
X320286Y43332D01*
X351559D02*
X350226Y42665D01*
X348893Y41332D01*
Y39999D01*
X349559Y39333D01*
X350892D01*
X351559Y39999D01*
Y40666D01*
X350892Y41332D01*
X348893D01*
X355557Y43332D02*
X354225Y42665D01*
X352892Y41332D01*
Y39999D01*
X353558Y39333D01*
X354891D01*
X355557Y39999D01*
Y40666D01*
X354891Y41332D01*
X352892D01*
X356890Y39333D02*
Y39999D01*
X357557D01*
Y39333D01*
X356890D01*
X360223Y39999D02*
X360889Y39333D01*
X362222D01*
X362889Y39999D01*
Y42665D01*
X362222Y43332D01*
X360889D01*
X360223Y42665D01*
Y41999D01*
X360889Y41332D01*
X362889D01*
X366887Y39333D02*
X364221D01*
X366887Y41999D01*
Y42665D01*
X366221Y43332D01*
X364888D01*
X364221Y42665D01*
X368220Y39999D02*
X368886Y39333D01*
X370219D01*
X370886Y39999D01*
Y42665D01*
X370219Y43332D01*
X368886D01*
X368220Y42665D01*
Y41999D01*
X368886Y41332D01*
X370886D01*
X372219Y39333D02*
Y41999D01*
X372885D01*
X373552Y41332D01*
Y39333D01*
Y41332D01*
X374218Y41999D01*
X374885Y41332D01*
Y39333D01*
X376218D02*
X377550D01*
X376884D01*
Y41999D01*
X376218D01*
X379550Y39333D02*
X380883D01*
X380216D01*
Y43332D01*
X379550D01*
X388214Y39333D02*
X386881Y40666D01*
Y41999D01*
X388214Y43332D01*
X390213Y39333D02*
X391546D01*
X390879D01*
Y43332D01*
X390213Y42665D01*
X393545Y39333D02*
Y39999D01*
X394212D01*
Y39333D01*
X393545D01*
X396878Y43332D02*
X399543D01*
Y42665D01*
X396878Y39999D01*
Y39333D01*
X400876D02*
Y41999D01*
X401543D01*
X402209Y41332D01*
Y39333D01*
Y41332D01*
X402876Y41999D01*
X403542Y41332D01*
Y39333D01*
X404875D02*
Y41999D01*
X405541D01*
X406208Y41332D01*
Y39333D01*
Y41332D01*
X406874Y41999D01*
X407541Y41332D01*
Y39333D01*
X408874D02*
X410207Y40666D01*
Y41999D01*
X408874Y43332D01*
X426550Y39333D02*
Y43332D01*
X424551Y41332D01*
X427217D01*
X428550Y42665D02*
X429216Y43332D01*
X430549D01*
X431215Y42665D01*
Y41999D01*
X430549Y41332D01*
X429883D01*
X430549D01*
X431215Y40666D01*
Y39999D01*
X430549Y39333D01*
X429216D01*
X428550Y39999D01*
X432549Y39333D02*
Y39999D01*
X433215D01*
Y39333D01*
X432549D01*
X435881Y42665D02*
X436547Y43332D01*
X437880D01*
X438547Y42665D01*
Y41999D01*
X437880Y41332D01*
X437214D01*
X437880D01*
X438547Y40666D01*
Y39999D01*
X437880Y39333D01*
X436547D01*
X435881Y39999D01*
X439879Y42665D02*
X440546Y43332D01*
X441879D01*
X442545Y42665D01*
Y39999D01*
X441879Y39333D01*
X440546D01*
X439879Y39999D01*
Y42665D01*
X443878Y43332D02*
X446544D01*
Y42665D01*
X443878Y39999D01*
Y39333D01*
X447877D02*
Y41999D01*
X448543D01*
X449210Y41332D01*
Y39333D01*
Y41332D01*
X449876Y41999D01*
X450543Y41332D01*
Y39333D01*
X451876D02*
X453208D01*
X452542D01*
Y41999D01*
X451876D01*
X455208Y39333D02*
X456541D01*
X455874D01*
Y43332D01*
X455208D01*
X463872Y39333D02*
X462539Y40666D01*
Y41999D01*
X463872Y43332D01*
X465871Y39333D02*
X467204D01*
X466538D01*
Y43332D01*
X465871Y42665D01*
X469203Y39333D02*
Y39999D01*
X469870D01*
Y39333D01*
X469203D01*
X472536D02*
X473869D01*
X473202D01*
Y43332D01*
X472536Y42665D01*
X475868Y39333D02*
Y41999D01*
X476534D01*
X477201Y41332D01*
Y39333D01*
Y41332D01*
X477867Y41999D01*
X478534Y41332D01*
Y39333D01*
X479867D02*
Y41999D01*
X480533D01*
X481199Y41332D01*
Y39333D01*
Y41332D01*
X481866Y41999D01*
X482532Y41332D01*
Y39333D01*
X483865D02*
X485198Y40666D01*
Y41999D01*
X483865Y43332D01*
X505008Y39333D02*
Y43332D01*
X507007D01*
X507673Y42665D01*
Y41332D01*
X507007Y40666D01*
X505008D01*
X509006Y43332D02*
X511672D01*
X510339D01*
Y39333D01*
X513005Y43332D02*
Y39333D01*
Y41332D01*
X515671D01*
Y43332D01*
Y39333D01*
X540945Y42665D02*
X540279Y43332D01*
X538946D01*
X538279Y42665D01*
Y41999D01*
X538946Y41332D01*
X540279D01*
X540945Y40666D01*
Y39999D01*
X540279Y39333D01*
X538946D01*
X538279Y39999D01*
X542278Y39333D02*
X543611D01*
X542944D01*
Y43332D01*
X542278D01*
X546277Y39333D02*
X547610D01*
X548276Y39999D01*
Y41332D01*
X547610Y41999D01*
X546277D01*
X545610Y41332D01*
Y39999D01*
X546277Y39333D01*
X550275Y42665D02*
Y41999D01*
X549609D01*
X550942D01*
X550275D01*
Y39999D01*
X550942Y39333D01*
X213572Y31333D02*
X214905D01*
X214238D01*
Y35332D01*
X213572Y34665D01*
X218903Y31333D02*
Y35332D01*
X216904Y33332D01*
X219570D01*
X223569Y35332D02*
X220903D01*
Y33332D01*
X222236Y33999D01*
X222902D01*
X223569Y33332D01*
Y31999D01*
X222902Y31333D01*
X221569D01*
X220903Y31999D01*
X230528Y35332D02*
X233194D01*
X231861D01*
Y31333D01*
X235194D02*
X236527D01*
X237193Y31999D01*
Y33332D01*
X236527Y33999D01*
X235194D01*
X234527Y33332D01*
Y31999D01*
X235194Y31333D01*
X239192Y34665D02*
Y33999D01*
X238526D01*
X239859D01*
X239192D01*
Y31999D01*
X239859Y31333D01*
X242525Y33999D02*
X243858D01*
X244524Y33332D01*
Y31333D01*
X242525D01*
X241858Y31999D01*
X242525Y32666D01*
X244524D01*
X245857Y31333D02*
X247190D01*
X246523D01*
Y35332D01*
X245857D01*
X318045Y24666D02*
X320711D01*
X318045Y25999D02*
X320711D01*
X328708Y26665D02*
X328042Y27332D01*
X326709D01*
X326043Y26665D01*
Y23999D01*
X326709Y23333D01*
X328042D01*
X328708Y23999D01*
X330708Y25999D02*
X332041D01*
X332707Y25332D01*
Y23333D01*
X330708D01*
X330041Y23999D01*
X330708Y24666D01*
X332707D01*
X334040Y23333D02*
X335373D01*
X334706D01*
Y27332D01*
X334040D01*
X340038Y25999D02*
X338039D01*
X337372Y25332D01*
Y23999D01*
X338039Y23333D01*
X340038D01*
X341371Y25999D02*
Y23999D01*
X342037Y23333D01*
X344037D01*
Y25999D01*
X345370Y23333D02*
X346703D01*
X346036D01*
Y27332D01*
X345370D01*
X349368Y25999D02*
X350701D01*
X351368Y25332D01*
Y23333D01*
X349368D01*
X348702Y23999D01*
X349368Y24666D01*
X351368D01*
X353367Y26665D02*
Y25999D01*
X352701D01*
X354034D01*
X353367D01*
Y23999D01*
X354034Y23333D01*
X358032D02*
X356699D01*
X356033Y23999D01*
Y25332D01*
X356699Y25999D01*
X358032D01*
X358699Y25332D01*
Y24666D01*
X356033D01*
X362697Y27332D02*
Y23333D01*
X360698D01*
X360032Y23999D01*
Y25332D01*
X360698Y25999D01*
X362697D01*
X368695Y23333D02*
Y26665D01*
Y25332D01*
X368029D01*
X369362D01*
X368695D01*
Y26665D01*
X369362Y27332D01*
X371361Y25999D02*
Y23333D01*
Y24666D01*
X372028Y25332D01*
X372694Y25999D01*
X373361D01*
X376027Y23333D02*
X377359D01*
X378026Y23999D01*
Y25332D01*
X377359Y25999D01*
X376027D01*
X375360Y25332D01*
Y23999D01*
X376027Y23333D01*
X379359D02*
Y25999D01*
X380025D01*
X380692Y25332D01*
Y23333D01*
Y25332D01*
X381358Y25999D01*
X382025Y25332D01*
Y23333D01*
X388023Y26665D02*
Y25999D01*
X387356D01*
X388689D01*
X388023D01*
Y23999D01*
X388689Y23333D01*
X391355D02*
X392688D01*
X393354Y23999D01*
Y25332D01*
X392688Y25999D01*
X391355D01*
X390688Y25332D01*
Y23999D01*
X391355Y23333D01*
X395354D02*
X396687D01*
X397353Y23999D01*
Y25332D01*
X396687Y25999D01*
X395354D01*
X394687Y25332D01*
Y23999D01*
X395354Y23333D01*
X398686D02*
X400019D01*
X399352D01*
Y27332D01*
X398686D01*
X406017Y23333D02*
X408016D01*
X408683Y23999D01*
X408016Y24666D01*
X406683D01*
X406017Y25332D01*
X406683Y25999D01*
X408683D01*
X410682Y26665D02*
Y25999D01*
X410015D01*
X411348D01*
X410682D01*
Y23999D01*
X411348Y23333D01*
X414014Y25999D02*
X415347D01*
X416014Y25332D01*
Y23333D01*
X414014D01*
X413348Y23999D01*
X414014Y24666D01*
X416014D01*
X417346Y25999D02*
Y23333D01*
Y24666D01*
X418013Y25332D01*
X418679Y25999D01*
X419346D01*
X422012Y26665D02*
Y25999D01*
X421345D01*
X422678D01*
X422012D01*
Y23999D01*
X422678Y23333D01*
X431342Y25999D02*
X429343D01*
X428676Y25332D01*
Y23999D01*
X429343Y23333D01*
X431342D01*
X434674D02*
X433341D01*
X432675Y23999D01*
Y25332D01*
X433341Y25999D01*
X434674D01*
X435341Y25332D01*
Y24666D01*
X432675D01*
X436674Y23333D02*
Y25999D01*
X438673D01*
X439339Y25332D01*
Y23333D01*
X441339Y26665D02*
Y25999D01*
X440672D01*
X442005D01*
X441339D01*
Y23999D01*
X442005Y23333D01*
X444005Y25999D02*
Y23333D01*
Y24666D01*
X444671Y25332D01*
X445337Y25999D01*
X446004D01*
X450003Y23333D02*
X448670D01*
X448003Y23999D01*
Y25332D01*
X448670Y25999D01*
X450003D01*
X450669Y25332D01*
Y24666D01*
X448003D01*
X456001Y22000D02*
Y25999D01*
X458000D01*
X458667Y25332D01*
Y23999D01*
X458000Y23333D01*
X456001D01*
X460666D02*
X461999D01*
X462665Y23999D01*
Y25332D01*
X461999Y25999D01*
X460666D01*
X459999Y25332D01*
Y23999D01*
X460666Y23333D01*
X463998D02*
X465998D01*
X466664Y23999D01*
X465998Y24666D01*
X464665D01*
X463998Y25332D01*
X464665Y25999D01*
X466664D01*
X467997Y23333D02*
X469330D01*
X468663D01*
Y25999D01*
X467997D01*
X471995Y26665D02*
Y25999D01*
X471329D01*
X472662D01*
X471995D01*
Y23999D01*
X472662Y23333D01*
X474661D02*
X475994D01*
X475328D01*
Y25999D01*
X474661D01*
X478660Y23333D02*
X479993D01*
X480659Y23999D01*
Y25332D01*
X479993Y25999D01*
X478660D01*
X477994Y25332D01*
Y23999D01*
X478660Y23333D01*
X481992D02*
Y25999D01*
X483992D01*
X484658Y25332D01*
Y23333D01*
X490656Y26665D02*
Y25999D01*
X489990D01*
X491323D01*
X490656D01*
Y23999D01*
X491323Y23333D01*
X493988D02*
X495321D01*
X495988Y23999D01*
Y25332D01*
X495321Y25999D01*
X493988D01*
X493322Y25332D01*
Y23999D01*
X493988Y23333D01*
X501986Y26665D02*
Y25999D01*
X501319D01*
X502652D01*
X501986D01*
Y23999D01*
X502652Y23333D01*
X505318D02*
X506651D01*
X507317Y23999D01*
Y25332D01*
X506651Y25999D01*
X505318D01*
X504652Y25332D01*
Y23999D01*
X505318Y23333D01*
X509317D02*
X510650D01*
X511316Y23999D01*
Y25332D01*
X510650Y25999D01*
X509317D01*
X508650Y25332D01*
Y23999D01*
X509317Y23333D01*
X512649D02*
X513982D01*
X513315D01*
Y27332D01*
X512649D01*
X521979Y23333D02*
X520646D01*
X519980Y23999D01*
Y25332D01*
X520646Y25999D01*
X521979D01*
X522646Y25332D01*
Y24666D01*
X519980D01*
X523979Y23333D02*
Y25999D01*
X525978D01*
X526645Y25332D01*
Y23333D01*
X530643Y27332D02*
Y23333D01*
X528644D01*
X527978Y23999D01*
Y25332D01*
X528644Y25999D01*
X530643D01*
X538641D02*
X536641D01*
X535975Y25332D01*
Y23999D01*
X536641Y23333D01*
X538641D01*
X541973D02*
X540640D01*
X539974Y23999D01*
Y25332D01*
X540640Y25999D01*
X541973D01*
X542639Y25332D01*
Y24666D01*
X539974D01*
X543972Y23333D02*
Y25999D01*
X545972D01*
X546638Y25332D01*
Y23333D01*
X548637Y26665D02*
Y25999D01*
X547971D01*
X549304D01*
X548637D01*
Y23999D01*
X549304Y23333D01*
X551303Y25999D02*
Y23333D01*
Y24666D01*
X551970Y25332D01*
X552636Y25999D01*
X553303D01*
X557301Y23333D02*
X555969D01*
X555302Y23999D01*
Y25332D01*
X555969Y25999D01*
X557301D01*
X557968Y25332D01*
Y24666D01*
X555302D01*
X563299Y22000D02*
Y25999D01*
X565299D01*
X565965Y25332D01*
Y23999D01*
X565299Y23333D01*
X563299D01*
X567965D02*
X569298D01*
X569964Y23999D01*
Y25332D01*
X569298Y25999D01*
X567965D01*
X567298Y25332D01*
Y23999D01*
X567965Y23333D01*
X571297D02*
X573296D01*
X573963Y23999D01*
X573296Y24666D01*
X571963D01*
X571297Y25332D01*
X571963Y25999D01*
X573963D01*
X575296Y23333D02*
X576628D01*
X575962D01*
Y25999D01*
X575296D01*
X579294Y26665D02*
Y25999D01*
X578628D01*
X579961D01*
X579294D01*
Y23999D01*
X579961Y23333D01*
X581960D02*
X583293D01*
X582626D01*
Y25999D01*
X581960D01*
X585959Y23333D02*
X587292D01*
X587958Y23999D01*
Y25332D01*
X587292Y25999D01*
X585959D01*
X585292Y25332D01*
Y23999D01*
X585959Y23333D01*
X589291D02*
Y25999D01*
X591290D01*
X591957Y25332D01*
Y23333D01*
X593290D02*
Y23999D01*
X593956D01*
Y23333D01*
X593290D01*
X318045Y16666D02*
X320711D01*
X318045Y17999D02*
X320711D01*
X326043Y15333D02*
Y19332D01*
X328042D01*
X328708Y18665D01*
Y17332D01*
X328042Y16666D01*
X326043D01*
X327376D02*
X328708Y15333D01*
X330708D02*
X332041D01*
X332707Y15999D01*
Y17332D01*
X332041Y17999D01*
X330708D01*
X330041Y17332D01*
Y15999D01*
X330708Y15333D01*
X334040Y17999D02*
Y15999D01*
X334706Y15333D01*
X336706D01*
Y17999D01*
X338705Y18665D02*
Y17999D01*
X338039D01*
X339372D01*
X338705D01*
Y15999D01*
X339372Y15333D01*
X345370D02*
Y19332D01*
X347369D01*
X348036Y18665D01*
Y17332D01*
X347369Y16666D01*
X345370D01*
X350035Y17999D02*
X351368D01*
X352034Y17332D01*
Y15333D01*
X350035D01*
X349368Y15999D01*
X350035Y16666D01*
X352034D01*
X354034Y18665D02*
Y17999D01*
X353367D01*
X354700D01*
X354034D01*
Y15999D01*
X354700Y15333D01*
X356699Y19332D02*
Y15333D01*
Y17332D01*
X357366Y17999D01*
X358699D01*
X359365Y17332D01*
Y15333D01*
X364697Y19332D02*
Y15333D01*
X367363D01*
X370695D02*
X369362D01*
X368695Y15999D01*
Y17332D01*
X369362Y17999D01*
X370695D01*
X371361Y17332D01*
Y16666D01*
X368695D01*
X372694Y15333D02*
Y17999D01*
X374694D01*
X375360Y17332D01*
Y15333D01*
X378026Y14000D02*
X378692D01*
X379359Y14667D01*
Y17999D01*
X377359D01*
X376693Y17332D01*
Y15999D01*
X377359Y15333D01*
X379359D01*
X381358Y18665D02*
Y17999D01*
X380692D01*
X382025D01*
X381358D01*
Y15999D01*
X382025Y15333D01*
X384024Y19332D02*
Y15333D01*
Y17332D01*
X384690Y17999D01*
X386023D01*
X386690Y17332D01*
Y15333D01*
X392021Y17332D02*
X394687D01*
X393354Y18665D02*
Y15999D01*
X400019Y19332D02*
X402684D01*
X401352D01*
Y15333D01*
X404684D02*
X406017D01*
X406683Y15999D01*
Y17332D01*
X406017Y17999D01*
X404684D01*
X404017Y17332D01*
Y15999D01*
X404684Y15333D01*
X408683D02*
X410015D01*
X410682Y15999D01*
Y17332D01*
X410015Y17999D01*
X408683D01*
X408016Y17332D01*
Y15999D01*
X408683Y15333D01*
X412015D02*
X413348D01*
X412681D01*
Y19332D01*
X412015D01*
X422012Y18665D02*
X421345Y19332D01*
X420012D01*
X419346Y18665D01*
Y17999D01*
X420012Y17332D01*
X421345D01*
X422012Y16666D01*
Y15999D01*
X421345Y15333D01*
X420012D01*
X419346Y15999D01*
X423345Y15333D02*
X424678D01*
X424011D01*
Y17999D01*
X423345D01*
X426677D02*
X429343D01*
X426677Y15333D01*
X429343D01*
X432675D02*
X431342D01*
X430676Y15999D01*
Y17332D01*
X431342Y17999D01*
X432675D01*
X433341Y17332D01*
Y16666D01*
X430676D01*
X438673D02*
X441339D01*
X438673Y17999D02*
X441339D01*
X449336Y18665D02*
X448670Y19332D01*
X447337D01*
X446670Y18665D01*
Y17999D01*
X447337Y17332D01*
X448670D01*
X449336Y16666D01*
Y15999D01*
X448670Y15333D01*
X447337D01*
X446670Y15999D01*
X450669Y15333D02*
X452002D01*
X451335D01*
Y19332D01*
X450669D01*
X454668Y15333D02*
X456001D01*
X456667Y15999D01*
Y17332D01*
X456001Y17999D01*
X454668D01*
X454001Y17332D01*
Y15999D01*
X454668Y15333D01*
X458667Y18665D02*
Y17999D01*
X458000D01*
X459333D01*
X458667D01*
Y15999D01*
X459333Y15333D01*
X465331D02*
X466664D01*
X465998D01*
Y19332D01*
X465331D01*
X470663Y15333D02*
X469330D01*
X468663Y15999D01*
Y17332D01*
X469330Y17999D01*
X470663D01*
X471329Y17332D01*
Y16666D01*
X468663D01*
X472662Y15333D02*
Y17999D01*
X474661D01*
X475328Y17332D01*
Y15333D01*
X477994Y14000D02*
X478660D01*
X479326Y14667D01*
Y17999D01*
X477327D01*
X476661Y17332D01*
Y15999D01*
X477327Y15333D01*
X479326D01*
X481326Y18665D02*
Y17999D01*
X480659D01*
X481992D01*
X481326D01*
Y15999D01*
X481992Y15333D01*
X483992Y19332D02*
Y15333D01*
Y17332D01*
X484658Y17999D01*
X485991D01*
X486657Y17332D01*
Y15333D01*
X492656Y17999D02*
X493988D01*
X494655Y17332D01*
Y15333D01*
X492656D01*
X491989Y15999D01*
X492656Y16666D01*
X494655D01*
X495988Y15333D02*
X497987D01*
X498654Y15999D01*
X497987Y16666D01*
X496654D01*
X495988Y17332D01*
X496654Y17999D01*
X498654D01*
X506651Y19332D02*
Y15333D01*
X504652D01*
X503985Y15999D01*
Y17332D01*
X504652Y17999D01*
X506651D01*
X509983Y15333D02*
X508650D01*
X507984Y15999D01*
Y17332D01*
X508650Y17999D01*
X509983D01*
X510650Y17332D01*
Y16666D01*
X507984D01*
X512649Y15333D02*
Y18665D01*
Y17332D01*
X511983D01*
X513315D01*
X512649D01*
Y18665D01*
X513315Y19332D01*
X515315Y15333D02*
X516648D01*
X515981D01*
Y17999D01*
X515315D01*
X518647Y15333D02*
Y17999D01*
X520646D01*
X521313Y17332D01*
Y15333D01*
X524645D02*
X523312D01*
X522646Y15999D01*
Y17332D01*
X523312Y17999D01*
X524645D01*
X525312Y17332D01*
Y16666D01*
X522646D01*
X529310Y19332D02*
Y15333D01*
X527311D01*
X526645Y15999D01*
Y17332D01*
X527311Y17999D01*
X529310D01*
X534642Y15333D02*
X535975D01*
X535308D01*
Y17999D01*
X534642D01*
X537974Y15333D02*
Y17999D01*
X539974D01*
X540640Y17332D01*
Y15333D01*
X546638Y18665D02*
Y17999D01*
X545972D01*
X547305D01*
X546638D01*
Y15999D01*
X547305Y15333D01*
X549304Y19332D02*
Y15333D01*
Y17332D01*
X549970Y17999D01*
X551303D01*
X551970Y17332D01*
Y15333D01*
X555302D02*
X553969D01*
X553303Y15999D01*
Y17332D01*
X553969Y17999D01*
X555302D01*
X555968Y17332D01*
Y16666D01*
X553303D01*
X561300Y15333D02*
Y19332D01*
X563299D01*
X563966Y18665D01*
Y17332D01*
X563299Y16666D01*
X561300D01*
X567965Y18665D02*
X567298Y19332D01*
X565965D01*
X565299Y18665D01*
Y15999D01*
X565965Y15333D01*
X567298D01*
X567965Y15999D01*
X569298Y19332D02*
Y15333D01*
X571297D01*
X571963Y15999D01*
Y16666D01*
X571297Y17332D01*
X569298D01*
X571297D01*
X571963Y17999D01*
Y18665D01*
X571297Y19332D01*
X569298D01*
X577295Y15333D02*
X578628D01*
X577961D01*
Y19332D01*
X577295D01*
X581294Y17999D02*
X582626D01*
X583293Y17332D01*
Y15333D01*
X581294D01*
X580627Y15999D01*
X581294Y16666D01*
X583293D01*
X584626Y17999D02*
Y15999D01*
X585292Y15333D01*
X587292D01*
Y14667D01*
X586625Y14000D01*
X585959D01*
X587292Y15333D02*
Y17999D01*
X589291Y15333D02*
X590624D01*
X591290Y15999D01*
Y17332D01*
X590624Y17999D01*
X589291D01*
X588625Y17332D01*
Y15999D01*
X589291Y15333D01*
X592623Y17999D02*
Y15999D01*
X593290Y15333D01*
X595289D01*
Y17999D01*
X597289Y18665D02*
Y17999D01*
X596622D01*
X597955D01*
X597289D01*
Y15999D01*
X597955Y15333D01*
D16*
X72100Y39500D02*
Y41100D01*
X73700D01*
Y39500D01*
X72100D01*
X93373Y33972D02*
X92573Y35572D01*
X94173D01*
X93373Y33972D01*
Y68028D02*
X92573Y69628D01*
X94173D01*
X93373Y68028D01*
X109121Y33972D02*
X109521Y34372D01*
X109921D01*
X109521Y34772D01*
X109921Y35172D01*
X109521D01*
X109121Y35572D01*
X108721Y35172D01*
X108321D01*
X108721Y34772D01*
X108321Y34372D01*
X108721D01*
X109121Y33972D01*
Y68028D02*
X109521Y68428D01*
X109921D01*
X109521Y68828D01*
X109921Y69228D01*
X109521D01*
X109121Y69628D01*
X108721Y69228D01*
X108321D01*
X108721Y68828D01*
X108321Y68428D01*
X108721D01*
X109121Y68028D01*
X94542Y62378D02*
X94942Y63178D01*
X94542Y63978D01*
X95342Y63578D01*
X96142Y63978D01*
X95742Y63178D01*
X96142Y62378D01*
X95342Y62778D01*
X94542Y62378D01*
Y39622D02*
X94942Y40422D01*
X94542Y41222D01*
X95342Y40822D01*
X96142Y41222D01*
X95742Y40422D01*
X96142Y39622D01*
X95342Y40022D01*
X94542Y39622D01*
X95500Y74800D02*
Y74400D01*
X96300D01*
Y74800D01*
X96700D01*
Y75600D01*
X96300D01*
Y76000D01*
X95500D01*
Y75600D01*
X95100D01*
Y74800D01*
X95500D01*
X45900Y89900D02*
X46300D01*
X46700Y90300D01*
X47100Y89900D01*
X47500D01*
Y90300D01*
X47100Y90700D01*
X47500Y91100D01*
Y91500D01*
X47100D01*
X46700Y91100D01*
X46300Y91500D01*
X45900D01*
Y91100D01*
X46300Y90700D01*
X45900Y90300D01*
Y89900D01*
X90700Y7700D02*
X91100D01*
X91500Y8100D01*
X91900Y7700D01*
X92300D01*
Y8100D01*
X91900Y8500D01*
X92300Y8900D01*
Y9300D01*
X91900D01*
X91500Y8900D01*
X91100Y9300D01*
X90700D01*
Y8900D01*
X91100Y8500D01*
X90700Y8100D01*
Y7700D01*
X83587Y8300D02*
X83987D01*
X84387Y8700D01*
X84787Y8300D01*
X85187D01*
Y8700D01*
X84787Y9100D01*
X85187Y9500D01*
Y9900D01*
X84787D01*
X84387Y9500D01*
X83987Y9900D01*
X83587D01*
Y9500D01*
X83987Y9100D01*
X83587Y8700D01*
Y8300D01*
X41200Y21900D02*
X41600D01*
X42000Y22300D01*
X42400Y21900D01*
X42800D01*
Y22300D01*
X42400Y22700D01*
X42800Y23100D01*
Y23500D01*
X42400D01*
X42000Y23100D01*
X41600Y23500D01*
X41200D01*
Y23100D01*
X41600Y22700D01*
X41200Y22300D01*
Y21900D01*
X72400Y32900D02*
X72800D01*
X73200Y33300D01*
X73600Y32900D01*
X74000D01*
Y33300D01*
X73600Y33700D01*
X74000Y34100D01*
Y34500D01*
X73600D01*
X73200Y34100D01*
X72800Y34500D01*
X72400D01*
Y34100D01*
X72800Y33700D01*
X72400Y33300D01*
Y32900D01*
X83700Y51900D02*
X84100D01*
X84500Y52300D01*
X84900Y51900D01*
X85300D01*
Y52300D01*
X84900Y52700D01*
X85300Y53100D01*
Y53500D01*
X84900D01*
X84500Y53100D01*
X84100Y53500D01*
X83700D01*
Y53100D01*
X84100Y52700D01*
X83700Y52300D01*
Y51900D01*
X19100Y57300D02*
X19500D01*
X19900Y57700D01*
X20300Y57300D01*
X20700D01*
Y57700D01*
X20300Y58100D01*
X20700Y58500D01*
Y58900D01*
X20300D01*
X19900Y58500D01*
X19500Y58900D01*
X19100D01*
Y58500D01*
X19500Y58100D01*
X19100Y57700D01*
Y57300D01*
X46450Y29218D02*
X46850D01*
X47249Y29618D01*
X47649Y29218D01*
X48050D01*
Y29618D01*
X47649Y30018D01*
X48050Y30418D01*
Y30818D01*
X47649D01*
X47249Y30418D01*
X46850Y30818D01*
X46450D01*
Y30418D01*
X46850Y30018D01*
X46450Y29618D01*
Y29218D01*
X54300Y34000D02*
X54700D01*
X55100Y34400D01*
X55500Y34000D01*
X55900D01*
Y34400D01*
X55500Y34800D01*
X55900Y35200D01*
Y35600D01*
X55500D01*
X55100Y35200D01*
X54700Y35600D01*
X54300D01*
Y35200D01*
X54700Y34800D01*
X54300Y34400D01*
Y34000D01*
X51800D02*
X52200D01*
X52600Y34400D01*
X53000Y34000D01*
X53400D01*
Y34400D01*
X53000Y34800D01*
X53400Y35200D01*
Y35600D01*
X53000D01*
X52600Y35200D01*
X52200Y35600D01*
X51800D01*
Y35200D01*
X52200Y34800D01*
X51800Y34400D01*
Y34000D01*
X33735Y35569D02*
X34135D01*
X34536Y35969D01*
X34936Y35569D01*
X35335D01*
Y35969D01*
X34936Y36369D01*
X35335Y36769D01*
Y37169D01*
X34936D01*
X34536Y36769D01*
X34135Y37169D01*
X33735D01*
Y36769D01*
X34135Y36369D01*
X33735Y35969D01*
Y35569D01*
X50400Y55200D02*
X50800D01*
X51200Y55600D01*
X51600Y55200D01*
X52000D01*
Y55600D01*
X51600Y56000D01*
X52000Y56400D01*
Y56800D01*
X51600D01*
X51200Y56400D01*
X50800Y56800D01*
X50400D01*
Y56400D01*
X50800Y56000D01*
X50400Y55600D01*
Y55200D01*
X77200Y68931D02*
X77600D01*
X78000Y69331D01*
X78400Y68931D01*
X78800D01*
Y69331D01*
X78400Y69731D01*
X78800Y70131D01*
Y70531D01*
X78400D01*
X78000Y70131D01*
X77600Y70531D01*
X77200D01*
Y70131D01*
X77600Y69731D01*
X77200Y69331D01*
Y68931D01*
Y72000D02*
X77600D01*
X78000Y72400D01*
X78400Y72000D01*
X78800D01*
Y72400D01*
X78400Y72800D01*
X78800Y73200D01*
Y73600D01*
X78400D01*
X78000Y73200D01*
X77600Y73600D01*
X77200D01*
Y73200D01*
X77600Y72800D01*
X77200Y72400D01*
Y72000D01*
X68300Y71400D02*
X68700D01*
X69100Y71800D01*
X69500Y71400D01*
X69900D01*
Y71800D01*
X69500Y72200D01*
X69900Y72600D01*
Y73000D01*
X69500D01*
X69100Y72600D01*
X68700Y73000D01*
X68300D01*
Y72600D01*
X68700Y72200D01*
X68300Y71800D01*
Y71400D01*
X59100Y91200D02*
X59500D01*
X59900Y91600D01*
X60300Y91200D01*
X60700D01*
Y91600D01*
X60300Y92000D01*
X60700Y92400D01*
Y92800D01*
X60300D01*
X59900Y92400D01*
X59500Y92800D01*
X59100D01*
Y92400D01*
X59500Y92000D01*
X59100Y91600D01*
Y91200D01*
X59800Y82500D02*
X60200D01*
X60600Y82900D01*
X61000Y82500D01*
X61400D01*
Y82900D01*
X61000Y83300D01*
X61400Y83700D01*
Y84100D01*
X61000D01*
X60600Y83700D01*
X60200Y84100D01*
X59800D01*
Y83700D01*
X60200Y83300D01*
X59800Y82900D01*
Y82500D01*
X93234Y52039D02*
X93634D01*
X94034Y52439D01*
X94434Y52039D01*
X94834D01*
Y52439D01*
X94434Y52839D01*
X94834Y53239D01*
Y53639D01*
X94434D01*
X94034Y53239D01*
X93634Y53639D01*
X93234D01*
Y53239D01*
X93634Y52839D01*
X93234Y52439D01*
Y52039D01*
X93800Y59500D02*
Y59100D01*
X94600D01*
Y59500D01*
X95000D01*
Y60300D01*
X94600D01*
Y60700D01*
X93800D01*
Y60300D01*
X93400D01*
Y59500D01*
X93800D01*
X81200Y47600D02*
X81600D01*
X82000Y48000D01*
X82400Y47600D01*
X82800D01*
Y48000D01*
X82400Y48400D01*
X82800Y48800D01*
Y49200D01*
X82400D01*
X82000Y48800D01*
X81600Y49200D01*
X81200D01*
Y48800D01*
X81600Y48400D01*
X81200Y48000D01*
Y47600D01*
X40900Y62300D02*
X41300D01*
X41700Y62700D01*
X42100Y62300D01*
X42500D01*
Y62700D01*
X42100Y63100D01*
X42500Y63500D01*
Y63900D01*
X42100D01*
X41700Y63500D01*
X41300Y63900D01*
X40900D01*
Y63500D01*
X41300Y63100D01*
X40900Y62700D01*
Y62300D01*
X38100Y62700D02*
Y62300D01*
X38900D01*
Y62700D01*
X39300D01*
Y63500D01*
X38900D01*
Y63900D01*
X38100D01*
Y63500D01*
X37700D01*
Y62700D01*
X38100D01*
X30319Y39181D02*
X30719D01*
X31119Y39581D01*
X31519Y39181D01*
X31919D01*
Y39581D01*
X31519Y39981D01*
X31919Y40381D01*
Y40781D01*
X31519D01*
X31119Y40381D01*
X30719Y40781D01*
X30319D01*
Y40381D01*
X30719Y39981D01*
X30319Y39581D01*
Y39181D01*
X89700Y83600D02*
X90100D01*
X90500Y84000D01*
X90900Y83600D01*
X91300D01*
Y84000D01*
X90900Y84400D01*
X91300Y84800D01*
Y85200D01*
X90900D01*
X90500Y84800D01*
X90100Y85200D01*
X89700D01*
Y84800D01*
X90100Y84400D01*
X89700Y84000D01*
Y83600D01*
X92000Y38200D02*
X92400D01*
X92800Y38600D01*
X93200Y38200D01*
X93600D01*
Y38600D01*
X93200Y39000D01*
X93600Y39400D01*
Y39800D01*
X93200D01*
X92800Y39400D01*
X92400Y39800D01*
X92000D01*
Y39400D01*
X92400Y39000D01*
X92000Y38600D01*
Y38200D01*
X104100Y20700D02*
X104500D01*
X104900Y21100D01*
X105300Y20700D01*
X105700D01*
Y21100D01*
X105300Y21500D01*
X105700Y21900D01*
Y22300D01*
X105300D01*
X104900Y21900D01*
X104500Y22300D01*
X104100D01*
Y21900D01*
X104500Y21500D01*
X104100Y21100D01*
Y20700D01*
X25000Y53700D02*
X25400D01*
X25800Y54100D01*
X26200Y53700D01*
X26600D01*
Y54100D01*
X26200Y54500D01*
X26600Y54900D01*
Y55300D01*
X26200D01*
X25800Y54900D01*
X25400Y55300D01*
X25000D01*
Y54900D01*
X25400Y54500D01*
X25000Y54100D01*
Y53700D01*
X34300Y64400D02*
X34700D01*
X35100Y64800D01*
X35500Y64400D01*
X35900D01*
Y64800D01*
X35500Y65200D01*
X35900Y65600D01*
Y66000D01*
X35500D01*
X35100Y65600D01*
X34700Y66000D01*
X34300D01*
Y65600D01*
X34700Y65200D01*
X34300Y64800D01*
Y64400D01*
X66600Y63500D02*
X67000D01*
X67400Y63900D01*
X67800Y63500D01*
X68200D01*
Y63900D01*
X67800Y64300D01*
X68200Y64700D01*
Y65100D01*
X67800D01*
X67400Y64700D01*
X67000Y65100D01*
X66600D01*
Y64700D01*
X67000Y64300D01*
X66600Y63900D01*
Y63500D01*
X77500Y46800D02*
X77900D01*
X78300Y47200D01*
X78700Y46800D01*
X79100D01*
Y47200D01*
X78700Y47600D01*
X79100Y48000D01*
Y48400D01*
X78700D01*
X78300Y48000D01*
X77900Y48400D01*
X77500D01*
Y48000D01*
X77900Y47600D01*
X77500Y47200D01*
Y46800D01*
X60900D02*
X61300D01*
X61700Y47200D01*
X62100Y46800D01*
X62500D01*
Y47200D01*
X62100Y47600D01*
X62500Y48000D01*
Y48400D01*
X62100D01*
X61700Y48000D01*
X61300Y48400D01*
X60900D01*
Y48000D01*
X61300Y47600D01*
X60900Y47200D01*
Y46800D01*
X97000Y53900D02*
X97400D01*
X97800Y54300D01*
X98200Y53900D01*
X98600D01*
Y54300D01*
X98200Y54700D01*
X98600Y55100D01*
Y55500D01*
X98200D01*
X97800Y55100D01*
X97400Y55500D01*
X97000D01*
Y55100D01*
X97400Y54700D01*
X97000Y54300D01*
Y53900D01*
X93500Y17000D02*
X93900D01*
X94300Y17400D01*
X94700Y17000D01*
X95100D01*
Y17400D01*
X94700Y17800D01*
X95100Y18200D01*
Y18600D01*
X94700D01*
X94300Y18200D01*
X93900Y18600D01*
X93500D01*
Y18200D01*
X93900Y17800D01*
X93500Y17400D01*
Y17000D01*
X83100Y44900D02*
X83500D01*
X83900Y45300D01*
X84300Y44900D01*
X84700D01*
Y45300D01*
X84300Y45700D01*
X84700Y46100D01*
Y46500D01*
X84300D01*
X83900Y46100D01*
X83500Y46500D01*
X83100D01*
Y46100D01*
X83500Y45700D01*
X83100Y45300D01*
Y44900D01*
X80400Y39200D02*
X80800D01*
X81200Y39600D01*
X81600Y39200D01*
X82000D01*
Y39600D01*
X81600Y40000D01*
X82000Y40400D01*
Y40800D01*
X81600D01*
X81200Y40400D01*
X80800Y40800D01*
X80400D01*
Y40400D01*
X80800Y40000D01*
X80400Y39600D01*
Y39200D01*
X97000Y47200D02*
X97400D01*
X97800Y47600D01*
X98200Y47200D01*
X98600D01*
Y47600D01*
X98200Y48000D01*
X98600Y48400D01*
Y48800D01*
X98200D01*
X97800Y48400D01*
X97400Y48800D01*
X97000D01*
Y48400D01*
X97400Y48000D01*
X97000Y47600D01*
Y47200D01*
X33200Y93700D02*
X33600D01*
X34000Y94100D01*
X34400Y93700D01*
X34800D01*
Y94100D01*
X34400Y94500D01*
X34800Y94900D01*
Y95300D01*
X34400D01*
X34000Y94900D01*
X33600Y95300D01*
X33200D01*
Y94900D01*
X33600Y94500D01*
X33200Y94100D01*
Y93700D01*
X28000Y85500D02*
X28400D01*
X28800Y85900D01*
X29200Y85500D01*
X29600D01*
Y85900D01*
X29200Y86300D01*
X29600Y86700D01*
Y87100D01*
X29200D01*
X28800Y86700D01*
X28400Y87100D01*
X28000D01*
Y86700D01*
X28400Y86300D01*
X28000Y85900D01*
Y85500D01*
X38700Y82400D02*
X39100D01*
X39500Y82800D01*
X39900Y82400D01*
X40300D01*
Y82800D01*
X39900Y83200D01*
X40300Y83600D01*
Y84000D01*
X39900D01*
X39500Y83600D01*
X39100Y84000D01*
X38700D01*
Y83600D01*
X39100Y83200D01*
X38700Y82800D01*
Y82400D01*
X77300Y62800D02*
X77700D01*
X78100Y63200D01*
X78500Y62800D01*
X78900D01*
Y63200D01*
X78500Y63600D01*
X78900Y64000D01*
Y64400D01*
X78500D01*
X78100Y64000D01*
X77700Y64400D01*
X77300D01*
Y64000D01*
X77700Y63600D01*
X77300Y63200D01*
Y62800D01*
X60000Y70200D02*
X60400D01*
X60800Y70600D01*
X61200Y70200D01*
X61600D01*
Y70600D01*
X61200Y71000D01*
X61600Y71400D01*
Y71800D01*
X61200D01*
X60800Y71400D01*
X60400Y71800D01*
X60000D01*
Y71400D01*
X60400Y71000D01*
X60000Y70600D01*
Y70200D01*
X39600Y65100D02*
X40000D01*
X40400Y65500D01*
X40800Y65100D01*
X41200D01*
Y65500D01*
X40800Y65900D01*
X41200Y66300D01*
Y66700D01*
X40800D01*
X40400Y66300D01*
X40000Y66700D01*
X39600D01*
Y66300D01*
X40000Y65900D01*
X39600Y65500D01*
Y65100D01*
Y72900D02*
X40000D01*
X40400Y73300D01*
X40800Y72900D01*
X41200D01*
Y73300D01*
X40800Y73700D01*
X41200Y74100D01*
Y74500D01*
X40800D01*
X40400Y74100D01*
X40000Y74500D01*
X39600D01*
Y74100D01*
X40000Y73700D01*
X39600Y73300D01*
Y72900D01*
X49000D02*
X49400D01*
X49800Y73300D01*
X50200Y72900D01*
X50600D01*
Y73300D01*
X50200Y73700D01*
X50600Y74100D01*
Y74500D01*
X50200D01*
X49800Y74100D01*
X49400Y74500D01*
X49000D01*
Y74100D01*
X49400Y73700D01*
X49000Y73300D01*
Y72900D01*
X40000Y29900D02*
X40400D01*
X40800Y30300D01*
X41200Y29900D01*
X41600D01*
Y30300D01*
X41200Y30700D01*
X41600Y31100D01*
Y31500D01*
X41200D01*
X40800Y31100D01*
X40400Y31500D01*
X40000D01*
Y31100D01*
X40400Y30700D01*
X40000Y30300D01*
Y29900D01*
X35000Y22100D02*
X35400D01*
X35800Y22500D01*
X36200Y22100D01*
X36600D01*
Y22500D01*
X36200Y22900D01*
X36600Y23300D01*
Y23700D01*
X36200D01*
X35800Y23300D01*
X35400Y23700D01*
X35000D01*
Y23300D01*
X35400Y22900D01*
X35000Y22500D01*
Y22100D01*
X29600Y29600D02*
X30000D01*
X30400Y30000D01*
X30800Y29600D01*
X31200D01*
Y30000D01*
X30800Y30400D01*
X31200Y30800D01*
Y31200D01*
X30800D01*
X30400Y30800D01*
X30000Y31200D01*
X29600D01*
Y30800D01*
X30000Y30400D01*
X29600Y30000D01*
Y29600D01*
X37400Y33500D02*
X37800D01*
X38200Y33900D01*
X38600Y33500D01*
X39000D01*
Y33900D01*
X38600Y34300D01*
X39000Y34700D01*
Y35100D01*
X38600D01*
X38200Y34700D01*
X37800Y35100D01*
X37400D01*
Y34700D01*
X37800Y34300D01*
X37400Y33900D01*
Y33500D01*
X44000Y41900D02*
X44400D01*
X44800Y42300D01*
X45200Y41900D01*
X45600D01*
Y42300D01*
X45200Y42700D01*
X45600Y43100D01*
Y43500D01*
X45200D01*
X44800Y43100D01*
X44400Y43500D01*
X44000D01*
Y43100D01*
X44400Y42700D01*
X44000Y42300D01*
Y41900D01*
X36500Y41200D02*
X36900D01*
X37300Y41600D01*
X37700Y41200D01*
X38100D01*
Y41600D01*
X37700Y42000D01*
X38100Y42400D01*
Y42800D01*
X37700D01*
X37300Y42400D01*
X36900Y42800D01*
X36500D01*
Y42400D01*
X36900Y42000D01*
X36500Y41600D01*
Y41200D01*
X11700Y44100D02*
X12100D01*
X12500Y44500D01*
X12900Y44100D01*
X13300D01*
Y44500D01*
X12900Y44900D01*
X13300Y45300D01*
Y45700D01*
X12900D01*
X12500Y45300D01*
X12100Y45700D01*
X11700D01*
Y45300D01*
X12100Y44900D01*
X11700Y44500D01*
Y44100D01*
Y49400D02*
X12100D01*
X12500Y49800D01*
X12900Y49400D01*
X13300D01*
Y49800D01*
X12900Y50200D01*
X13300Y50600D01*
Y51000D01*
X12900D01*
X12500Y50600D01*
X12100Y51000D01*
X11700D01*
Y50600D01*
X12100Y50200D01*
X11700Y49800D01*
Y49400D01*
X56200Y62100D02*
X56600D01*
X57000Y62500D01*
X57400Y62100D01*
X57800D01*
Y62500D01*
X57400Y62900D01*
X57800Y63300D01*
Y63700D01*
X57400D01*
X57000Y63300D01*
X56600Y63700D01*
X56200D01*
Y63300D01*
X56600Y62900D01*
X56200Y62500D01*
Y62100D01*
X49000Y65100D02*
X49400D01*
X49800Y65500D01*
X50200Y65100D01*
X50600D01*
Y65500D01*
X50200Y65900D01*
X50600Y66300D01*
Y66700D01*
X50200D01*
X49800Y66300D01*
X49400Y66700D01*
X49000D01*
Y66300D01*
X49400Y65900D01*
X49000Y65500D01*
Y65100D01*
X47900Y55200D02*
X48300D01*
X48700Y55600D01*
X49100Y55200D01*
X49500D01*
Y55600D01*
X49100Y56000D01*
X49500Y56400D01*
Y56800D01*
X49100D01*
X48700Y56400D01*
X48300Y56800D01*
X47900D01*
Y56400D01*
X48300Y56000D01*
X47900Y55600D01*
Y55200D01*
X48600Y48400D02*
X49000D01*
X49400Y48800D01*
X49800Y48400D01*
X50200D01*
Y48800D01*
X49800Y49200D01*
X50200Y49600D01*
Y50000D01*
X49800D01*
X49400Y49600D01*
X49000Y50000D01*
X48600D01*
Y49600D01*
X49000Y49200D01*
X48600Y48800D01*
Y48400D01*
X44900D02*
X45300D01*
X45700Y48800D01*
X46100Y48400D01*
X46500D01*
Y48800D01*
X46100Y49200D01*
X46500Y49600D01*
Y50000D01*
X46100D01*
X45700Y49600D01*
X45300Y50000D01*
X44900D01*
Y49600D01*
X45300Y49200D01*
X44900Y48800D01*
Y48400D01*
Y55200D02*
X45300D01*
X45700Y55600D01*
X46100Y55200D01*
X46500D01*
Y55600D01*
X46100Y56000D01*
X46500Y56400D01*
Y56800D01*
X46100D01*
X45700Y56400D01*
X45300Y56800D01*
X44900D01*
Y56400D01*
X45300Y56000D01*
X44900Y55600D01*
Y55200D01*
Y62000D02*
X45300D01*
X45700Y62400D01*
X46100Y62000D01*
X46500D01*
Y62400D01*
X46100Y62800D01*
X46500Y63200D01*
Y63600D01*
X46100D01*
X45700Y63200D01*
X45300Y63600D01*
X44900D01*
Y63200D01*
X45300Y62800D01*
X44900Y62400D01*
Y62000D01*
X97700Y72000D02*
X98100D01*
X98500Y72400D01*
X98900Y72000D01*
X99300D01*
Y72400D01*
X98900Y72800D01*
X99300Y73200D01*
Y73600D01*
X98900D01*
X98500Y73200D01*
X98100Y73600D01*
X97700D01*
Y73200D01*
X98100Y72800D01*
X97700Y72400D01*
Y72000D01*
X88800Y78900D02*
X89200D01*
X89600Y79300D01*
X90000Y78900D01*
X90400D01*
Y79300D01*
X90000Y79700D01*
X90400Y80100D01*
Y80500D01*
X90000D01*
X89600Y80100D01*
X89200Y80500D01*
X88800D01*
Y80100D01*
X89200Y79700D01*
X88800Y79300D01*
Y78900D01*
X96600D02*
X97000D01*
X97400Y79300D01*
X97800Y78900D01*
X98200D01*
Y79300D01*
X97800Y79700D01*
X98200Y80100D01*
Y80500D01*
X97800D01*
X97400Y80100D01*
X97000Y80500D01*
X96600D01*
Y80100D01*
X97000Y79700D01*
X96600Y79300D01*
Y78900D01*
X85500Y82900D02*
X85900D01*
X86300Y83300D01*
X86700Y82900D01*
X87100D01*
Y83300D01*
X86700Y83700D01*
X87100Y84100D01*
Y84500D01*
X86700D01*
X86300Y84100D01*
X85900Y84500D01*
X85500D01*
Y84100D01*
X85900Y83700D01*
X85500Y83300D01*
Y82900D01*
Y87600D02*
X85900D01*
X86300Y88000D01*
X86700Y87600D01*
X87100D01*
Y88000D01*
X86700Y88400D01*
X87100Y88800D01*
Y89200D01*
X86700D01*
X86300Y88800D01*
X85900Y89200D01*
X85500D01*
Y88800D01*
X85900Y88400D01*
X85500Y88000D01*
Y87600D01*
X100000D02*
X100400D01*
X100800Y88000D01*
X101200Y87600D01*
X101600D01*
Y88000D01*
X101200Y88400D01*
X101600Y88800D01*
Y89200D01*
X101200D01*
X100800Y88800D01*
X100400Y89200D01*
X100000D01*
Y88800D01*
X100400Y88400D01*
X100000Y88000D01*
Y87600D01*
Y92500D02*
X100400D01*
X100800Y92900D01*
X101200Y92500D01*
X101600D01*
Y92900D01*
X101200Y93300D01*
X101600Y93700D01*
Y94100D01*
X101200D01*
X100800Y93700D01*
X100400Y94100D01*
X100000D01*
Y93700D01*
X100400Y93300D01*
X100000Y92900D01*
Y92500D01*
X92750D02*
X93150D01*
X93550Y92900D01*
X93950Y92500D01*
X94350D01*
Y92900D01*
X93950Y93300D01*
X94350Y93700D01*
Y94100D01*
X93950D01*
X93550Y93700D01*
X93150Y94100D01*
X92750D01*
Y93700D01*
X93150Y93300D01*
X92750Y92900D01*
Y92500D01*
X85500D02*
X85900D01*
X86300Y92900D01*
X86700Y92500D01*
X87100D01*
Y92900D01*
X86700Y93300D01*
X87100Y93700D01*
Y94100D01*
X86700D01*
X86300Y93700D01*
X85900Y94100D01*
X85500D01*
Y93700D01*
X85900Y93300D01*
X85500Y92900D01*
Y92500D01*
X72200Y88500D02*
X72600D01*
X73000Y88900D01*
X73400Y88500D01*
X73800D01*
Y88900D01*
X73400Y89300D01*
X73800Y89700D01*
Y90100D01*
X73400D01*
X73000Y89700D01*
X72600Y90100D01*
X72200D01*
Y89700D01*
X72600Y89300D01*
X72200Y88900D01*
Y88500D01*
Y84500D02*
X72600D01*
X73000Y84900D01*
X73400Y84500D01*
X73800D01*
Y84900D01*
X73400Y85300D01*
X73800Y85700D01*
Y86100D01*
X73400D01*
X73000Y85700D01*
X72600Y86100D01*
X72200D01*
Y85700D01*
X72600Y85300D01*
X72200Y84900D01*
Y84500D01*
X68400Y84400D02*
X68800D01*
X69200Y84800D01*
X69600Y84400D01*
X70000D01*
Y84800D01*
X69600Y85200D01*
X70000Y85600D01*
Y86000D01*
X69600D01*
X69200Y85600D01*
X68800Y86000D01*
X68400D01*
Y85600D01*
X68800Y85200D01*
X68400Y84800D01*
Y84400D01*
Y88500D02*
X68800D01*
X69200Y88900D01*
X69600Y88500D01*
X70000D01*
Y88900D01*
X69600Y89300D01*
X70000Y89700D01*
Y90100D01*
X69600D01*
X69200Y89700D01*
X68800Y90100D01*
X68400D01*
Y89700D01*
X68800Y89300D01*
X68400Y88900D01*
Y88500D01*
X70400Y24700D02*
X70800D01*
X71200Y25100D01*
X71600Y24700D01*
X72000D01*
Y25100D01*
X71600Y25500D01*
X72000Y25900D01*
Y26300D01*
X71600D01*
X71200Y25900D01*
X70800Y26300D01*
X70400D01*
Y25900D01*
X70800Y25500D01*
X70400Y25100D01*
Y24700D01*
Y19500D02*
X70800D01*
X71200Y19900D01*
X71600Y19500D01*
X72000D01*
Y19900D01*
X71600Y20300D01*
X72000Y20700D01*
Y21100D01*
X71600D01*
X71200Y20700D01*
X70800Y21100D01*
X70400D01*
Y20700D01*
X70800Y20300D01*
X70400Y19900D01*
Y19500D01*
X64500D02*
X64900D01*
X65300Y19900D01*
X65700Y19500D01*
X66100D01*
Y19900D01*
X65700Y20300D01*
X66100Y20700D01*
Y21100D01*
X65700D01*
X65300Y20700D01*
X64900Y21100D01*
X64500D01*
Y20700D01*
X64900Y20300D01*
X64500Y19900D01*
Y19500D01*
X64700Y24700D02*
X65100D01*
X65500Y25100D01*
X65900Y24700D01*
X66300D01*
Y25100D01*
X65900Y25500D01*
X66300Y25900D01*
Y26300D01*
X65900D01*
X65500Y25900D01*
X65100Y26300D01*
X64700D01*
Y25900D01*
X65100Y25500D01*
X64700Y25100D01*
Y24700D01*
X73300Y52900D02*
X73700D01*
X74100Y53300D01*
X74500Y52900D01*
X74900D01*
Y53300D01*
X74500Y53700D01*
X74900Y54100D01*
Y54500D01*
X74500D01*
X74100Y54100D01*
X73700Y54500D01*
X73300D01*
Y54100D01*
X73700Y53700D01*
X73300Y53300D01*
Y52900D01*
Y49100D02*
X73700D01*
X74100Y49500D01*
X74500Y49100D01*
X74900D01*
Y49500D01*
X74500Y49900D01*
X74900Y50300D01*
Y50700D01*
X74500D01*
X74100Y50300D01*
X73700Y50700D01*
X73300D01*
Y50300D01*
X73700Y49900D01*
X73300Y49500D01*
Y49100D01*
X65400D02*
X65800D01*
X66200Y49500D01*
X66600Y49100D01*
X67000D01*
Y49500D01*
X66600Y49900D01*
X67000Y50300D01*
Y50700D01*
X66600D01*
X66200Y50300D01*
X65800Y50700D01*
X65400D01*
Y50300D01*
X65800Y49900D01*
X65400Y49500D01*
Y49100D01*
X69200D02*
X69600D01*
X70000Y49500D01*
X70400Y49100D01*
X70800D01*
Y49500D01*
X70400Y49900D01*
X70800Y50300D01*
Y50700D01*
X70400D01*
X70000Y50300D01*
X69600Y50700D01*
X69200D01*
Y50300D01*
X69600Y49900D01*
X69200Y49500D01*
Y49100D01*
X65400Y52900D02*
X65800D01*
X66200Y53300D01*
X66600Y52900D01*
X67000D01*
Y53300D01*
X66600Y53700D01*
X67000Y54100D01*
Y54500D01*
X66600D01*
X66200Y54100D01*
X65800Y54500D01*
X65400D01*
Y54100D01*
X65800Y53700D01*
X65400Y53300D01*
Y52900D01*
X69200Y53000D02*
X69600D01*
X70000Y53400D01*
X70400Y53000D01*
X70800D01*
Y53400D01*
X70400Y53800D01*
X70800Y54200D01*
Y54600D01*
X70400D01*
X70000Y54200D01*
X69600Y54600D01*
X69200D01*
Y54200D01*
X69600Y53800D01*
X69200Y53400D01*
Y53000D01*
X108321Y40700D02*
X108721D01*
X109121Y41100D01*
X109521Y40700D01*
X109921D01*
Y41100D01*
X109521Y41500D01*
X109921Y41900D01*
Y42300D01*
X109521D01*
X109121Y41900D01*
X108721Y42300D01*
X108321D01*
Y41900D01*
X108721Y41500D01*
X108321Y41100D01*
Y40700D01*
Y50750D02*
X108721D01*
X109121Y51150D01*
X109521Y50750D01*
X109921D01*
Y51150D01*
X109521Y51550D01*
X109921Y51950D01*
Y52350D01*
X109521D01*
X109121Y51950D01*
X108721Y52350D01*
X108321D01*
Y51950D01*
X108721Y51550D01*
X108321Y51150D01*
Y50750D01*
Y60800D02*
X108721D01*
X109121Y61200D01*
X109521Y60800D01*
X109921D01*
Y61200D01*
X109521Y61600D01*
X109921Y62000D01*
Y62400D01*
X109521D01*
X109121Y62000D01*
X108721Y62400D01*
X108321D01*
Y62000D01*
X108721Y61600D01*
X108321Y61200D01*
Y60800D01*
X95700Y20867D02*
X96100D01*
X96500Y21267D01*
X96900Y20867D01*
X97300D01*
Y21267D01*
X96900Y21667D01*
X97300Y22067D01*
Y22467D01*
X96900D01*
X96500Y22067D01*
X96100Y22467D01*
X95700D01*
Y22067D01*
X96100Y21667D01*
X95700Y21267D01*
Y20867D01*
Y24700D02*
X96100D01*
X96500Y25100D01*
X96900Y24700D01*
X97300D01*
Y25100D01*
X96900Y25500D01*
X97300Y25900D01*
Y26300D01*
X96900D01*
X96500Y25900D01*
X96100Y26300D01*
X95700D01*
Y25900D01*
X96100Y25500D01*
X95700Y25100D01*
Y24700D01*
Y13200D02*
X96100D01*
X96500Y13600D01*
X96900Y13200D01*
X97300D01*
Y13600D01*
X96900Y14000D01*
X97300Y14400D01*
Y14800D01*
X96900D01*
X96500Y14400D01*
X96100Y14800D01*
X95700D01*
Y14400D01*
X96100Y14000D01*
X95700Y13600D01*
Y13200D01*
X101800Y8500D02*
X102200D01*
X102600Y8900D01*
X103000Y8500D01*
X103400D01*
Y8900D01*
X103000Y9300D01*
X103400Y9700D01*
Y10100D01*
X103000D01*
X102600Y9700D01*
X102200Y10100D01*
X101800D01*
Y9700D01*
X102200Y9300D01*
X101800Y8900D01*
Y8500D01*
X56900Y9100D02*
X57300D01*
X57700Y9500D01*
X58100Y9100D01*
X58500D01*
Y9500D01*
X58100Y9900D01*
X58500Y10300D01*
Y10700D01*
X58100D01*
X57700Y10300D01*
X57300Y10700D01*
X56900D01*
Y10300D01*
X57300Y9900D01*
X56900Y9500D01*
Y9100D01*
X54100Y10800D02*
X54500D01*
X54900Y11200D01*
X55300Y10800D01*
X55700D01*
Y11200D01*
X55300Y11600D01*
X55700Y12000D01*
Y12400D01*
X55300D01*
X54900Y12000D01*
X54500Y12400D01*
X54100D01*
Y12000D01*
X54500Y11600D01*
X54100Y11200D01*
Y10800D01*
Y13400D02*
X54500D01*
X54900Y13800D01*
X55300Y13400D01*
X55700D01*
Y13800D01*
X55300Y14200D01*
X55700Y14600D01*
Y15000D01*
X55300D01*
X54900Y14600D01*
X54500Y15000D01*
X54100D01*
Y14600D01*
X54500Y14200D01*
X54100Y13800D01*
Y13400D01*
X52600Y16100D02*
X53000D01*
X53400Y16500D01*
X53800Y16100D01*
X54200D01*
Y16500D01*
X53800Y16900D01*
X54200Y17300D01*
Y17700D01*
X53800D01*
X53400Y17300D01*
X53000Y17700D01*
X52600D01*
Y17300D01*
X53000Y16900D01*
X52600Y16500D01*
Y16100D01*
X29000Y17800D02*
X29400D01*
X29800Y18200D01*
X30200Y17800D01*
X30600D01*
Y18200D01*
X30200Y18600D01*
X30600Y19000D01*
Y19400D01*
X30200D01*
X29800Y19000D01*
X29400Y19400D01*
X29000D01*
Y19000D01*
X29400Y18600D01*
X29000Y18200D01*
Y17800D01*
X31625D02*
X32025D01*
X32425Y18200D01*
X32825Y17800D01*
X33225D01*
Y18200D01*
X32825Y18600D01*
X33225Y19000D01*
Y19400D01*
X32825D01*
X32425Y19000D01*
X32025Y19400D01*
X31625D01*
Y19000D01*
X32025Y18600D01*
X31625Y18200D01*
Y17800D01*
X34250D02*
X34650D01*
X35050Y18200D01*
X35450Y17800D01*
X35850D01*
Y18200D01*
X35450Y18600D01*
X35850Y19000D01*
Y19400D01*
X35450D01*
X35050Y19000D01*
X34650Y19400D01*
X34250D01*
Y19000D01*
X34650Y18600D01*
X34250Y18200D01*
Y17800D01*
X36875D02*
X37275D01*
X37675Y18200D01*
X38075Y17800D01*
X38475D01*
Y18200D01*
X38075Y18600D01*
X38475Y19000D01*
Y19400D01*
X38075D01*
X37675Y19000D01*
X37275Y19400D01*
X36875D01*
Y19000D01*
X37275Y18600D01*
X36875Y18200D01*
Y17800D01*
X39500D02*
X39900D01*
X40300Y18200D01*
X40700Y17800D01*
X41100D01*
Y18200D01*
X40700Y18600D01*
X41100Y19000D01*
Y19400D01*
X40700D01*
X40300Y19000D01*
X39900Y19400D01*
X39500D01*
Y19000D01*
X39900Y18600D01*
X39500Y18200D01*
Y17800D01*
X42125D02*
X42525D01*
X42925Y18200D01*
X43325Y17800D01*
X43725D01*
Y18200D01*
X43325Y18600D01*
X43725Y19000D01*
Y19400D01*
X43325D01*
X42925Y19000D01*
X42525Y19400D01*
X42125D01*
Y19000D01*
X42525Y18600D01*
X42125Y18200D01*
Y17800D01*
X44750D02*
X45150D01*
X45550Y18200D01*
X45950Y17800D01*
X46350D01*
Y18200D01*
X45950Y18600D01*
X46350Y19000D01*
Y19400D01*
X45950D01*
X45550Y19000D01*
X45150Y19400D01*
X44750D01*
Y19000D01*
X45150Y18600D01*
X44750Y18200D01*
Y17800D01*
X47375D02*
X47775D01*
X48175Y18200D01*
X48575Y17800D01*
X48975D01*
Y18200D01*
X48575Y18600D01*
X48975Y19000D01*
Y19400D01*
X48575D01*
X48175Y19000D01*
X47775Y19400D01*
X47375D01*
Y19000D01*
X47775Y18600D01*
X47375Y18200D01*
Y17800D01*
X50000D02*
X50400D01*
X50800Y18200D01*
X51200Y17800D01*
X51600D01*
Y18200D01*
X51200Y18600D01*
X51600Y19000D01*
Y19400D01*
X51200D01*
X50800Y19000D01*
X50400Y19400D01*
X50000D01*
Y19000D01*
X50400Y18600D01*
X50000Y18200D01*
Y17800D01*
X95000Y44300D02*
Y43900D01*
X95800D01*
Y44300D01*
X96200D01*
Y45100D01*
X95800D01*
Y45500D01*
X95000D01*
Y45100D01*
X94600D01*
Y44300D01*
X95000D01*
X55500Y77100D02*
X55900D01*
X56300Y77500D01*
X56700Y77100D01*
X57100D01*
Y77500D01*
X56700Y77900D01*
X57100Y78300D01*
Y78700D01*
X56700D01*
X56300Y78300D01*
X55900Y78700D01*
X55500D01*
Y78300D01*
X55900Y77900D01*
X55500Y77500D01*
Y77100D01*
X41700Y56400D02*
Y56000D01*
X42500D01*
Y56400D01*
X42900D01*
Y57200D01*
X42500D01*
Y57600D01*
X41700D01*
Y57200D01*
X41300D01*
Y56400D01*
X41700D01*
X39400Y49400D02*
X39800D01*
X40200Y49800D01*
X40600Y49400D01*
X41000D01*
Y49800D01*
X40600Y50200D01*
X41000Y50600D01*
Y51000D01*
X40600D01*
X40200Y50600D01*
X39800Y51000D01*
X39400D01*
Y50600D01*
X39800Y50200D01*
X39400Y49800D01*
Y49400D01*
X61400Y59900D02*
Y59500D01*
X62200D01*
Y59900D01*
X62600D01*
Y60700D01*
X62200D01*
Y61100D01*
X61400D01*
Y60700D01*
X61000D01*
Y59900D01*
X61400D01*
X56100Y55300D02*
X56500D01*
X56900Y55700D01*
X57300Y55300D01*
X57700D01*
Y55700D01*
X57300Y56100D01*
X57700Y56500D01*
Y56900D01*
X57300D01*
X56900Y56500D01*
X56500Y56900D01*
X56100D01*
Y56500D01*
X56500Y56100D01*
X56100Y55700D01*
Y55300D01*
X11300Y57800D02*
Y57400D01*
X12100D01*
Y57800D01*
X12500D01*
Y58600D01*
X12100D01*
Y59000D01*
X11300D01*
Y58600D01*
X10900D01*
Y57800D01*
X11300D01*
X30200Y90600D02*
Y90200D01*
X31000D01*
Y90600D01*
X31400D01*
Y91400D01*
X31000D01*
Y91800D01*
X30200D01*
Y91400D01*
X29800D01*
Y90600D01*
X30200D01*
X90206Y14107D02*
X90605D01*
X91005Y14507D01*
X91405Y14107D01*
X91805D01*
Y14507D01*
X91405Y14907D01*
X91805Y15307D01*
Y15707D01*
X91405D01*
X91005Y15307D01*
X90605Y15707D01*
X90206D01*
Y15307D01*
X90605Y14907D01*
X90206Y14507D01*
Y14107D01*
X95008Y10656D02*
Y10256D01*
X95808D01*
Y10656D01*
X96208D01*
Y11456D01*
X95808D01*
Y11856D01*
X95008D01*
Y11456D01*
X94608D01*
Y10656D01*
X95008D01*
X81700Y77300D02*
Y76900D01*
X82500D01*
Y77300D01*
X82900D01*
Y78100D01*
X82500D01*
Y78500D01*
X81700D01*
Y78100D01*
X81300D01*
Y77300D01*
X81700D01*
X102000Y27300D02*
Y26900D01*
X102800D01*
Y27300D01*
X103200D01*
Y28100D01*
X102800D01*
Y28500D01*
X102000D01*
Y28100D01*
X101600D01*
Y27300D01*
X102000D01*
X102006Y14530D02*
Y14130D01*
X102805D01*
Y14530D01*
X103206D01*
Y15330D01*
X102805D01*
Y15730D01*
X102006D01*
Y15330D01*
X101605D01*
Y14530D01*
X102006D01*
X15800Y60356D02*
Y59956D01*
X16600D01*
Y60356D01*
X17000D01*
Y61156D01*
X16600D01*
Y61556D01*
X15800D01*
Y61156D01*
X15400D01*
Y60356D01*
X15800D01*
X21100Y49850D02*
Y49450D01*
X21900D01*
Y49850D01*
X22300D01*
Y50650D01*
X21900D01*
Y51050D01*
X21100D01*
Y50650D01*
X20700D01*
Y49850D01*
X21100D01*
X65900Y68400D02*
Y68000D01*
X66700D01*
Y68400D01*
X67100D01*
Y69200D01*
X66700D01*
Y69600D01*
X65900D01*
Y69200D01*
X65500D01*
Y68400D01*
X65900D01*
X69450Y68200D02*
Y67800D01*
X70250D01*
Y68200D01*
X70650D01*
Y69000D01*
X70250D01*
Y69400D01*
X69450D01*
Y69000D01*
X69050D01*
Y68200D01*
X69450D01*
X93000Y83300D02*
Y82900D01*
X93800D01*
Y83300D01*
X94200D01*
Y84100D01*
X93800D01*
Y84500D01*
X93000D01*
Y84100D01*
X92600D01*
Y83300D01*
X93000D01*
X100119Y83182D02*
Y82782D01*
X100919D01*
Y83182D01*
X101319D01*
Y83982D01*
X100919D01*
Y84382D01*
X100119D01*
Y83982D01*
X99719D01*
Y83182D01*
X100119D01*
X102600Y77300D02*
Y76900D01*
X103400D01*
Y77300D01*
X103800D01*
Y78100D01*
X103400D01*
Y78500D01*
X102600D01*
Y78100D01*
X102200D01*
Y77300D01*
X102600D01*
X36300Y38100D02*
X36700D01*
X37100Y38500D01*
X37500Y38100D01*
X37900D01*
Y38500D01*
X37500Y38900D01*
X37900Y39300D01*
Y39700D01*
X37500D01*
X37100Y39300D01*
X36700Y39700D01*
X36300D01*
Y39300D01*
X36700Y38900D01*
X36300Y38500D01*
Y38100D01*
X79500Y44700D02*
X79900D01*
X80300Y45100D01*
X80700Y44700D01*
X81100D01*
Y45100D01*
X80700Y45500D01*
X81100Y45900D01*
Y46300D01*
X80700D01*
X80300Y45900D01*
X79900Y46300D01*
X79500D01*
Y45900D01*
X79900Y45500D01*
X79500Y45100D01*
Y44700D01*
X55200Y71400D02*
X55600D01*
X56000Y71800D01*
X56400Y71400D01*
X56800D01*
Y71800D01*
X56400Y72200D01*
X56800Y72600D01*
Y73000D01*
X56400D01*
X56000Y72600D01*
X55600Y73000D01*
X55200D01*
Y72600D01*
X55600Y72200D01*
X55200Y71800D01*
Y71400D01*
X75289Y10911D02*
X75689D01*
X76089Y11311D01*
X76489Y10911D01*
X76889D01*
Y11311D01*
X76489Y11711D01*
X76889Y12111D01*
Y12511D01*
X76489D01*
X76089Y12111D01*
X75689Y12511D01*
X75289D01*
Y12111D01*
X75689Y11711D01*
X75289Y11311D01*
Y10911D01*
X80921Y27721D02*
Y27321D01*
X81721D01*
Y27721D01*
X82121D01*
Y28521D01*
X81721D01*
Y28921D01*
X80921D01*
Y28521D01*
X80521D01*
Y27721D01*
X80921D01*
X91500Y28600D02*
X91900D01*
X92300Y29000D01*
X92700Y28600D01*
X93100D01*
Y29000D01*
X92700Y29400D01*
X93100Y29800D01*
Y30200D01*
X92700D01*
X92300Y29800D01*
X91900Y30200D01*
X91500D01*
Y29800D01*
X91900Y29400D01*
X91500Y29000D01*
Y28600D01*
X89800Y20900D02*
X90200D01*
X90600Y21300D01*
X91000Y20900D01*
X91400D01*
Y21300D01*
X91000Y21700D01*
X91400Y22100D01*
Y22500D01*
X91000D01*
X90600Y22100D01*
X90200Y22500D01*
X89800D01*
Y22100D01*
X90200Y21700D01*
X89800Y21300D01*
Y20900D01*
X68500Y13000D02*
X68900D01*
X69300Y13400D01*
X69700Y13000D01*
X70100D01*
Y13400D01*
X69700Y13800D01*
X70100Y14200D01*
Y14600D01*
X69700D01*
X69300Y14200D01*
X68900Y14600D01*
X68500D01*
Y14200D01*
X68900Y13800D01*
X68500Y13400D01*
Y13000D01*
X69000Y31800D02*
X69400D01*
X69800Y32200D01*
X70200Y31800D01*
X70600D01*
Y32200D01*
X70200Y32600D01*
X70600Y33000D01*
Y33400D01*
X70200D01*
X69800Y33000D01*
X69400Y33400D01*
X69000D01*
Y33000D01*
X69400Y32600D01*
X69000Y32200D01*
Y31800D01*
X44000Y45900D02*
X44400D01*
X44800Y46300D01*
X45200Y45900D01*
X45600D01*
Y46300D01*
X45200Y46700D01*
X45600Y47100D01*
Y47500D01*
X45200D01*
X44800Y47100D01*
X44400Y47500D01*
X44000D01*
Y47100D01*
X44400Y46700D01*
X44000Y46300D01*
Y45900D01*
X79800Y19447D02*
X80200D01*
X80600Y19847D01*
X81000Y19447D01*
X81400D01*
Y19847D01*
X81000Y20247D01*
X81400Y20647D01*
Y21047D01*
X81000D01*
X80600Y20647D01*
X80200Y21047D01*
X79800D01*
Y20647D01*
X80200Y20247D01*
X79800Y19847D01*
Y19447D01*
X81400Y17500D02*
X81800D01*
X82200Y17900D01*
X82600Y17500D01*
X83000D01*
Y17900D01*
X82600Y18300D01*
X83000Y18700D01*
Y19100D01*
X82600D01*
X82200Y18700D01*
X81800Y19100D01*
X81400D01*
Y18700D01*
X81800Y18300D01*
X81400Y17900D01*
Y17500D01*
X85211Y10200D02*
X85611D01*
X86011Y10600D01*
X86411Y10200D01*
X86811D01*
Y10600D01*
X86411Y11000D01*
X86811Y11400D01*
Y11800D01*
X86411D01*
X86011Y11400D01*
X85611Y11800D01*
X85211D01*
Y11400D01*
X85611Y11000D01*
X85211Y10600D01*
Y10200D01*
X52300Y81900D02*
X52700D01*
X53100Y82300D01*
X53500Y81900D01*
X53900D01*
Y82300D01*
X53500Y82700D01*
X53900Y83100D01*
Y83500D01*
X53500D01*
X53100Y83100D01*
X52700Y83500D01*
X52300D01*
Y83100D01*
X52700Y82700D01*
X52300Y82300D01*
Y81900D01*
X180300Y87733D02*
X181100D01*
X181900Y88533D01*
X182700Y87733D01*
X183500D01*
Y88533D01*
X182700Y89333D01*
X183500Y90133D01*
Y90933D01*
X182700D01*
X181900Y90133D01*
X181100Y90933D01*
X180300D01*
Y90133D01*
X181100Y89333D01*
X180300Y88533D01*
Y87733D01*
X181100Y80533D02*
Y79733D01*
X182700D01*
Y80533D01*
X183500D01*
Y82133D01*
X182700D01*
Y82933D01*
X181100D01*
Y82133D01*
X180300D01*
Y80533D01*
X181100D01*
X180300Y71733D02*
X181100Y73333D01*
X180300Y74933D01*
X181900Y74133D01*
X183500Y74933D01*
X182700Y73333D01*
X183500Y71733D01*
X181900Y72533D01*
X180300Y71733D01*
Y55733D02*
Y58933D01*
X183500D01*
Y55733D01*
X180300D01*
X181900Y47733D02*
X182700Y48533D01*
X183500D01*
X182700Y49333D01*
X183500Y50133D01*
X182700D01*
X181900Y50933D01*
X181100Y50133D01*
X180300D01*
X181100Y49333D01*
X180300Y48533D01*
X181100D01*
X181900Y47733D01*
Y39733D02*
X180300Y42933D01*
X183500D01*
X181900Y39733D01*
D96*
X73700Y71796D02*
G03*
X73700Y71796I-800J0D01*
G01*
D97*
X183499Y100932D02*
X182699Y101731D01*
X181100D01*
X180300Y100932D01*
Y100132D01*
X181100Y99332D01*
X182699D01*
X183499Y98532D01*
Y97733D01*
X182699Y96933D01*
X181100D01*
X180300Y97733D01*
X185099Y100132D02*
Y97733D01*
X185898Y96933D01*
X188297D01*
Y96133D01*
X187498Y95333D01*
X186698D01*
X188297Y96933D02*
Y100132D01*
X189897Y96933D02*
Y100132D01*
X190697D01*
X191496Y99332D01*
Y96933D01*
Y99332D01*
X192296Y100132D01*
X193096Y99332D01*
Y96933D01*
X194695Y101731D02*
Y96933D01*
X197095D01*
X197894Y97733D01*
Y98532D01*
Y99332D01*
X197095Y100132D01*
X194695D01*
X200293Y96933D02*
X201893D01*
X202693Y97733D01*
Y99332D01*
X201893Y100132D01*
X200293D01*
X199494Y99332D01*
Y97733D01*
X200293Y96933D01*
X204292D02*
X205892D01*
X205092D01*
Y101731D01*
X204292D01*
X213572D02*
Y96933D01*
Y99332D01*
X216771D01*
Y101731D01*
Y96933D01*
X218370D02*
X219970D01*
X219170D01*
Y100132D01*
X218370D01*
X223169Y100932D02*
Y100132D01*
X222369D01*
X223968D01*
X223169D01*
Y97733D01*
X223968Y96933D01*
X234365Y100932D02*
X233565Y101731D01*
X231966D01*
X231166Y100932D01*
Y97733D01*
X231966Y96933D01*
X233565D01*
X234365Y97733D01*
X236764Y96933D02*
X238364D01*
X239163Y97733D01*
Y99332D01*
X238364Y100132D01*
X236764D01*
X235964Y99332D01*
Y97733D01*
X236764Y96933D01*
X240763Y100132D02*
Y97733D01*
X241563Y96933D01*
X243962D01*
Y100132D01*
X245561Y96933D02*
Y100132D01*
X247961D01*
X248760Y99332D01*
Y96933D01*
X251160Y100932D02*
Y100132D01*
X250360D01*
X251959D01*
X251160D01*
Y97733D01*
X251959Y96933D01*
X262838Y101731D02*
X259639D01*
Y99332D01*
X261239D01*
X259639D01*
Y96933D01*
X264438D02*
X266037D01*
X265237D01*
Y100132D01*
X264438D01*
X268437Y96933D02*
Y100132D01*
X270836D01*
X271636Y99332D01*
Y96933D01*
X273235D02*
X274834D01*
X274035D01*
Y100132D01*
X273235D01*
X277234Y96933D02*
X279633D01*
X280433Y97733D01*
X279633Y98532D01*
X278033D01*
X277234Y99332D01*
X278033Y100132D01*
X280433D01*
X282032Y101731D02*
Y96933D01*
Y99332D01*
X282832Y100132D01*
X284431D01*
X285231Y99332D01*
Y96933D01*
X289230D02*
X287630D01*
X286830Y97733D01*
Y99332D01*
X287630Y100132D01*
X289230D01*
X290030Y99332D01*
Y98532D01*
X286830D01*
X294828Y101731D02*
Y96933D01*
X292429D01*
X291629Y97733D01*
Y99332D01*
X292429Y100132D01*
X294828D01*
X301226Y101731D02*
Y96933D01*
Y99332D01*
X304425D01*
Y101731D01*
Y96933D01*
X306824D02*
X308424D01*
X309223Y97733D01*
Y99332D01*
X308424Y100132D01*
X306824D01*
X306024Y99332D01*
Y97733D01*
X306824Y96933D01*
X310823D02*
X312422D01*
X311623D01*
Y101731D01*
X310823D01*
X317221Y96933D02*
X315621D01*
X314822Y97733D01*
Y99332D01*
X315621Y100132D01*
X317221D01*
X318021Y99332D01*
Y98532D01*
X314822D01*
X327617Y100932D02*
X326818Y101731D01*
X325218D01*
X324418Y100932D01*
Y100132D01*
X325218Y99332D01*
X326818D01*
X327617Y98532D01*
Y97733D01*
X326818Y96933D01*
X325218D01*
X324418Y97733D01*
X329217Y96933D02*
X330816D01*
X330017D01*
Y100132D01*
X329217D01*
X333216D02*
X336415D01*
X333216Y96933D01*
X336415D01*
X340413D02*
X338814D01*
X338014Y97733D01*
Y99332D01*
X338814Y100132D01*
X340413D01*
X341213Y99332D01*
Y98532D01*
X338014D01*
X348893Y96933D02*
Y101731D01*
X351292D01*
X352092Y100932D01*
Y99332D01*
X351292Y98532D01*
X348893D01*
X353691Y101731D02*
Y96933D01*
Y99332D01*
X354491Y100132D01*
X356091D01*
X356890Y99332D01*
Y96933D01*
X358490Y100132D02*
Y97733D01*
X359290Y96933D01*
X361689D01*
Y96133D01*
X360889Y95333D01*
X360089D01*
X361689Y96933D02*
Y100132D01*
X363288Y96933D02*
X365688D01*
X366487Y97733D01*
X365688Y98532D01*
X364088D01*
X363288Y99332D01*
X364088Y100132D01*
X366487D01*
X368087Y96933D02*
X369686D01*
X368886D01*
Y100132D01*
X368087D01*
X375285D02*
X372885D01*
X372085Y99332D01*
Y97733D01*
X372885Y96933D01*
X375285D01*
X377684Y100132D02*
X379283D01*
X380083Y99332D01*
Y96933D01*
X377684D01*
X376884Y97733D01*
X377684Y98532D01*
X380083D01*
X381682Y96933D02*
X383282D01*
X382482D01*
Y101731D01*
X381682D01*
X390480D02*
Y96933D01*
X393678D01*
X397677D02*
X396078D01*
X395278Y97733D01*
Y99332D01*
X396078Y100132D01*
X397677D01*
X398477Y99332D01*
Y98532D01*
X395278D01*
X400076Y96933D02*
Y100132D01*
X402476D01*
X403275Y99332D01*
Y96933D01*
X406474Y95333D02*
X407274D01*
X408074Y96133D01*
Y100132D01*
X405675D01*
X404875Y99332D01*
Y97733D01*
X405675Y96933D01*
X408074D01*
X410473Y100932D02*
Y100132D01*
X409673D01*
X411273D01*
X410473D01*
Y97733D01*
X411273Y96933D01*
X413672Y101731D02*
Y96933D01*
Y99332D01*
X414472Y100132D01*
X416071D01*
X416871Y99332D01*
Y96933D01*
X424551D02*
Y101731D01*
X426950D01*
X427750Y100932D01*
Y99332D01*
X426950Y98532D01*
X424551D01*
X426151D02*
X427750Y96933D01*
X430149D02*
X431749D01*
X432549Y97733D01*
Y99332D01*
X431749Y100132D01*
X430149D01*
X429350Y99332D01*
Y97733D01*
X430149Y96933D01*
X434148Y100132D02*
Y97733D01*
X434948Y96933D01*
X437347D01*
Y100132D01*
X439746Y100932D02*
Y100132D01*
X438946D01*
X440546D01*
X439746D01*
Y97733D01*
X440546Y96933D01*
X447744D02*
Y101731D01*
X450143D01*
X450943Y100932D01*
Y99332D01*
X450143Y98532D01*
X447744D01*
X453342Y100132D02*
X454941D01*
X455741Y99332D01*
Y96933D01*
X453342D01*
X452542Y97733D01*
X453342Y98532D01*
X455741D01*
X458140Y100932D02*
Y100132D01*
X457340D01*
X458940D01*
X458140D01*
Y97733D01*
X458940Y96933D01*
X461339Y101731D02*
Y96933D01*
Y99332D01*
X462139Y100132D01*
X463738D01*
X464538Y99332D01*
Y96933D01*
X470936Y101731D02*
Y96933D01*
X474135D01*
X478134D02*
X476534D01*
X475735Y97733D01*
Y99332D01*
X476534Y100132D01*
X478134D01*
X478933Y99332D01*
Y98532D01*
X475735D01*
X480533Y96933D02*
Y100132D01*
X482932D01*
X483732Y99332D01*
Y96933D01*
X486931Y95333D02*
X487731D01*
X488530Y96133D01*
Y100132D01*
X486131D01*
X485331Y99332D01*
Y97733D01*
X486131Y96933D01*
X488530D01*
X490930Y100932D02*
Y100132D01*
X490130D01*
X491729D01*
X490930D01*
Y97733D01*
X491729Y96933D01*
X494129Y101731D02*
Y96933D01*
Y99332D01*
X494928Y100132D01*
X496528D01*
X497328Y99332D01*
Y96933D01*
X505008D02*
Y101731D01*
X507407D01*
X508207Y100932D01*
Y99332D01*
X507407Y98532D01*
X505008D01*
X509806Y96933D02*
X511406D01*
X510606D01*
Y101731D01*
X509806D01*
X514604Y100132D02*
X516204D01*
X517004Y99332D01*
Y96933D01*
X514604D01*
X513805Y97733D01*
X514604Y98532D01*
X517004D01*
X519403Y100932D02*
Y100132D01*
X518603D01*
X520203D01*
X519403D01*
Y97733D01*
X520203Y96933D01*
X525001D02*
X523402D01*
X522602Y97733D01*
Y99332D01*
X523402Y100132D01*
X525001D01*
X525801Y99332D01*
Y98532D01*
X522602D01*
X530599Y101731D02*
Y96933D01*
X528200D01*
X527400Y97733D01*
Y99332D01*
X528200Y100132D01*
X530599D01*
X538279Y101731D02*
Y96933D01*
Y99332D01*
X541478D01*
Y101731D01*
Y96933D01*
X543878D02*
X545477D01*
X546277Y97733D01*
Y99332D01*
X545477Y100132D01*
X543878D01*
X543078Y99332D01*
Y97733D01*
X543878Y96933D01*
X547876D02*
X549476D01*
X548676D01*
Y101731D01*
X547876D01*
X554274Y96933D02*
X552675D01*
X551875Y97733D01*
Y99332D01*
X552675Y100132D01*
X554274D01*
X555074Y99332D01*
Y98532D01*
X551875D01*
X561472Y101731D02*
X564671D01*
X563071D01*
Y96933D01*
X566270Y100132D02*
Y97733D01*
X567070Y96933D01*
X569469D01*
Y96133D01*
X568670Y95333D01*
X567870D01*
X569469Y96933D02*
Y100132D01*
X571069Y95333D02*
Y100132D01*
X573468D01*
X574268Y99332D01*
Y97733D01*
X573468Y96933D01*
X571069D01*
X578266D02*
X576667D01*
X575867Y97733D01*
Y99332D01*
X576667Y100132D01*
X578266D01*
X579066Y99332D01*
Y98532D01*
X575867D01*
X174540Y104133D02*
X586746D01*
X174540Y93333D02*
X586746D01*
X174540Y104133D02*
Y29333D01*
X586746Y104133D02*
Y29333D01*
X210692Y104133D02*
Y29333D01*
X256759Y104133D02*
Y29333D01*
X346013Y104133D02*
Y29333D01*
X421671Y104133D02*
Y29333D01*
X502128Y104133D02*
Y29333D01*
X535399Y104133D02*
Y29333D01*
X174540Y37333D02*
X586746D01*
X174540Y29333D02*
X586746D01*
D98*
X183500Y65333D02*
G03*
X183500Y65333I-1600J0D01*
G01*
D99*
X182966Y26665D02*
X182299Y27332D01*
X180966D01*
X180300Y26665D01*
Y25999D01*
X180966Y25332D01*
X182299D01*
X182966Y24666D01*
Y23999D01*
X182299Y23333D01*
X180966D01*
X180300Y23999D01*
X184299Y23333D02*
X185632D01*
X184965D01*
Y27332D01*
X184299D01*
X188297Y23333D02*
X189630D01*
X190297Y23999D01*
Y25332D01*
X189630Y25999D01*
X188297D01*
X187631Y25332D01*
Y23999D01*
X188297Y23333D01*
X192296Y26665D02*
Y25999D01*
X191630D01*
X192963D01*
X192296D01*
Y23999D01*
X192963Y23333D01*
X201626Y27332D02*
Y23333D01*
X199627D01*
X198961Y23999D01*
Y25332D01*
X199627Y25999D01*
X201626D01*
X204959Y23333D02*
X203626D01*
X202959Y23999D01*
Y25332D01*
X203626Y25999D01*
X204959D01*
X205625Y25332D01*
Y24666D01*
X202959D01*
X207625Y23333D02*
Y26665D01*
Y25332D01*
X206958D01*
X208291D01*
X207625D01*
Y26665D01*
X208291Y27332D01*
X210290Y23333D02*
X211623D01*
X210957D01*
Y25999D01*
X210290D01*
X213623Y23333D02*
Y25999D01*
X215622D01*
X216288Y25332D01*
Y23333D01*
X217621D02*
X218954D01*
X218288D01*
Y25999D01*
X217621D01*
X221620Y26665D02*
Y25999D01*
X220954D01*
X222287D01*
X221620D01*
Y23999D01*
X222287Y23333D01*
X224286D02*
X225619D01*
X224952D01*
Y25999D01*
X224286D01*
X228285Y23333D02*
X229617D01*
X230284Y23999D01*
Y25332D01*
X229617Y25999D01*
X228285D01*
X227618Y25332D01*
Y23999D01*
X228285Y23333D01*
X231617D02*
Y25999D01*
X233616D01*
X234283Y25332D01*
Y23333D01*
X235615D02*
X237615D01*
X238281Y23999D01*
X237615Y24666D01*
X236282D01*
X235615Y25332D01*
X236282Y25999D01*
X238281D01*
X243613D02*
X244279D01*
Y25332D01*
X243613D01*
Y25999D01*
Y23999D02*
X244279D01*
Y23333D01*
X243613D01*
Y23999D01*
X251719Y23333D02*
Y27332D01*
X253719D01*
X254385Y26665D01*
Y25332D01*
X253719Y24666D01*
X251719D01*
X253052D02*
X254385Y23333D01*
X256384D02*
X257717D01*
X258384Y23999D01*
Y25332D01*
X257717Y25999D01*
X256384D01*
X255718Y25332D01*
Y23999D01*
X256384Y23333D01*
X259717Y25999D02*
Y23999D01*
X260383Y23333D01*
X262383D01*
Y25999D01*
X264382Y26665D02*
Y25999D01*
X263716D01*
X265048D01*
X264382D01*
Y23999D01*
X265048Y23333D01*
X271046D02*
Y27332D01*
X273046D01*
X273712Y26665D01*
Y25332D01*
X273046Y24666D01*
X271046D01*
X275712Y25999D02*
X277045D01*
X277711Y25332D01*
Y23333D01*
X275712D01*
X275045Y23999D01*
X275712Y24666D01*
X277711D01*
X279710Y26665D02*
Y25999D01*
X279044D01*
X280377D01*
X279710D01*
Y23999D01*
X280377Y23333D01*
X282376Y27332D02*
Y23333D01*
Y25332D01*
X283043Y25999D01*
X284376D01*
X285042Y25332D01*
Y23333D01*
X290374Y27332D02*
Y23333D01*
X293039D01*
X296372D02*
X295039D01*
X294372Y23999D01*
Y25332D01*
X295039Y25999D01*
X296372D01*
X297038Y25332D01*
Y24666D01*
X294372D01*
X298371Y23333D02*
Y25999D01*
X300370D01*
X301037Y25332D01*
Y23333D01*
X303703Y22000D02*
X304369D01*
X305035Y22667D01*
Y25999D01*
X303036D01*
X302370Y25332D01*
Y23999D01*
X303036Y23333D01*
X305035D01*
X307035Y26665D02*
Y25999D01*
X306368D01*
X307701D01*
X307035D01*
Y23999D01*
X307701Y23333D01*
X309701Y27332D02*
Y23333D01*
Y25332D01*
X310367Y25999D01*
X311700D01*
X312367Y25332D01*
Y23333D01*
X251719Y15333D02*
Y19332D01*
X253719D01*
X254385Y18665D01*
Y17332D01*
X253719Y16666D01*
X251719D01*
X255718Y19332D02*
Y15333D01*
Y17332D01*
X256384Y17999D01*
X257717D01*
X258384Y17332D01*
Y15333D01*
X259717Y17999D02*
Y15999D01*
X260383Y15333D01*
X262383D01*
Y14667D01*
X261716Y14000D01*
X261050D01*
X262383Y15333D02*
Y17999D01*
X263716Y15333D02*
X265715D01*
X266381Y15999D01*
X265715Y16666D01*
X264382D01*
X263716Y17332D01*
X264382Y17999D01*
X266381D01*
X267714Y15333D02*
X269047D01*
X268381D01*
Y17999D01*
X267714D01*
X273712D02*
X271713D01*
X271046Y17332D01*
Y15999D01*
X271713Y15333D01*
X273712D01*
X275712Y17999D02*
X277045D01*
X277711Y17332D01*
Y15333D01*
X275712D01*
X275045Y15999D01*
X275712Y16666D01*
X277711D01*
X279044Y15333D02*
X280377D01*
X279710D01*
Y19332D01*
X279044D01*
X286375D02*
Y15333D01*
X289041D01*
X292373D02*
X291040D01*
X290374Y15999D01*
Y17332D01*
X291040Y17999D01*
X292373D01*
X293039Y17332D01*
Y16666D01*
X290374D01*
X294372Y15333D02*
Y17999D01*
X296372D01*
X297038Y17332D01*
Y15333D01*
X299704Y14000D02*
X300370D01*
X301037Y14667D01*
Y17999D01*
X299037D01*
X298371Y17332D01*
Y15999D01*
X299037Y15333D01*
X301037D01*
X303036Y18665D02*
Y17999D01*
X302370D01*
X303703D01*
X303036D01*
Y15999D01*
X303703Y15333D01*
X305702Y19332D02*
Y15333D01*
Y17332D01*
X306368Y17999D01*
X307701D01*
X308368Y17332D01*
Y15333D01*
M02*
