M48
;Layer_Color=9474304
;FILE_FORMAT=2:5
INCH,TZ
;TYPE=PLATED
T1F00S00C0.01000
T2F00S00C0.01200
T4F00S00C0.02559
T5F00S00C0.03543
%
T01
X29800Y18600
X32425
X35050
X37675
X40300
X42925
X45550
X48175
X50800
X53400Y16900
X54900Y14200
Y11600
X57700Y9900
X69300Y13800
X71200Y20300
Y25500
X65500
X65300Y20300
X80600Y20247
X82200Y18300
X86011Y11000
X84387Y9100
X76089Y11711
X73200Y33700
X69800Y32600
X55100Y34800
X52600
X47249Y30018
X40800Y30700
X38200Y34300
X37100Y38900
X37300Y42000
X31119Y39981
X34536Y36369
X30400Y30400
X35800Y22900
X42000Y22700
X44800Y42700
Y46700
X45700Y49200
X49400
X48700Y56000
X51200
X45700
Y62800
X41700Y63100
X40400Y65900
X35100Y65200
X49800Y65900
X57000Y62900
X56900Y56100
X66200Y53700
Y49900
X70000
Y53800
X74100Y53700
Y49900
X78300Y47600
X80300Y45500
X83900Y45700
X82000Y48400
X84500Y52700
X81200Y40000
X78100Y63600
X67400Y64300
X61700Y47600
X40200Y50200
X25800Y54500
X19900Y58100
X12500Y50200
Y44900
X92800Y39000
X92300Y29400
X96500Y25500
Y21667
X90600Y21700
X91005Y14907
X94300Y17800
X96500Y14000
X91500Y8500
X102600Y9300
X104900Y21500
X109121Y41500
Y51550
Y61600
X97800Y54700
X94034Y52839
X97800Y48000
X98500Y72800
X97400Y79700
X89600
X90500Y84400
X93550Y93300
X100800
Y88400
X86300
Y83700
Y93300
X73000Y89300
X69200
Y85200
X73000Y85300
X60600Y83300
X53100Y82700
X56300Y77900
X56000Y72200
X60800Y71000
X69100Y72200
X78000Y72800
Y69731
X49800Y73700
X40400
X39500Y83200
X28800Y86300
X34000Y94500
X46700Y90700
X59900Y92000
T02
X11700Y58200
X16200Y60756
X21500Y50250
X42100Y56800
X38500Y63100
X61800Y60300
X81321Y28121
X102400Y27700
X102406Y14930
X95408Y11056
X95400Y44700
X94200Y59900
X95900Y75200
X103000Y77700
X100519Y83582
X93400Y83700
X82100Y77700
X69850Y68600
X66300Y68800
X30600Y91000
T04
X95342Y40422
Y63178
T05
X72900Y71796
M30
