G04*
G04 #@! TF.GenerationSoftware,Altium Limited,Altium Designer,22.0.2 (36)*
G04*
G04 Layer_Color=128*
%FSLAX25Y25*%
%MOIN*%
G70*
G04*
G04 #@! TF.SameCoordinates,4AEEF1EB-5C28-47D6-87F3-BA9F17CF17F5*
G04*
G04*
G04 #@! TF.FilePolarity,Positive*
G04*
G01*
G75*
%ADD16C,0.00200*%
D16*
X70932Y40300D02*
X74869D01*
X72900Y38331D02*
Y42268D01*
X71128Y71796D02*
X74672D01*
X72900Y70024D02*
Y73568D01*
X92192Y34772D02*
X94554D01*
X93373Y33591D02*
Y35954D01*
X92192Y68828D02*
X94554D01*
X93373Y67646D02*
Y70009D01*
X107940Y34772D02*
X110302D01*
X109121Y33591D02*
Y35954D01*
X107940Y68828D02*
X110302D01*
X109121Y67646D02*
Y70009D01*
X94062Y63178D02*
X96621D01*
X95342Y61898D02*
Y64457D01*
X94062Y40422D02*
X96621D01*
X95342Y39143D02*
Y41702D01*
X95300Y75200D02*
X96500D01*
X95900Y74600D02*
Y75800D01*
X46200Y90700D02*
X47200D01*
X46700Y90200D02*
Y91200D01*
X91000Y8500D02*
X92000D01*
X91500Y8000D02*
Y9000D01*
X83887Y9100D02*
X84887D01*
X84387Y8600D02*
Y9600D01*
X41500Y22700D02*
X42500D01*
X42000Y22200D02*
Y23200D01*
X72700Y33700D02*
X73700D01*
X73200Y33200D02*
Y34200D01*
X84000Y52700D02*
X85000D01*
X84500Y52200D02*
Y53200D01*
X19400Y58100D02*
X20400D01*
X19900Y57600D02*
Y58600D01*
X46749Y30018D02*
X47750D01*
X47249Y29518D02*
Y30518D01*
X54600Y34800D02*
X55600D01*
X55100Y34300D02*
Y35300D01*
X52100Y34800D02*
X53100D01*
X52600Y34300D02*
Y35300D01*
X34036Y36369D02*
X35035D01*
X34536Y35869D02*
Y36869D01*
X50700Y56000D02*
X51700D01*
X51200Y55500D02*
Y56500D01*
X77500Y69731D02*
X78500D01*
X78000Y69231D02*
Y70231D01*
X77500Y72800D02*
X78500D01*
X78000Y72300D02*
Y73300D01*
X68600Y72200D02*
X69600D01*
X69100Y71700D02*
Y72700D01*
X59400Y92000D02*
X60400D01*
X59900Y91500D02*
Y92500D01*
X60100Y83300D02*
X61100D01*
X60600Y82800D02*
Y83800D01*
X93534Y52839D02*
X94534D01*
X94034Y52339D02*
Y53339D01*
X93600Y59900D02*
X94800D01*
X94200Y59300D02*
Y60500D01*
X81500Y48400D02*
X82500D01*
X82000Y47900D02*
Y48900D01*
X41200Y63100D02*
X42200D01*
X41700Y62600D02*
Y63600D01*
X37900Y63100D02*
X39100D01*
X38500Y62500D02*
Y63700D01*
X30619Y39981D02*
X31619D01*
X31119Y39481D02*
Y40481D01*
X90000Y84400D02*
X91000D01*
X90500Y83900D02*
Y84900D01*
X92300Y39000D02*
X93300D01*
X92800Y38500D02*
Y39500D01*
X104400Y21500D02*
X105400D01*
X104900Y21000D02*
Y22000D01*
X25300Y54500D02*
X26300D01*
X25800Y54000D02*
Y55000D01*
X34600Y65200D02*
X35600D01*
X35100Y64700D02*
Y65700D01*
X66900Y64300D02*
X67900D01*
X67400Y63800D02*
Y64800D01*
X77800Y47600D02*
X78800D01*
X78300Y47100D02*
Y48100D01*
X61200Y47600D02*
X62200D01*
X61700Y47100D02*
Y48100D01*
X97300Y54700D02*
X98300D01*
X97800Y54200D02*
Y55200D01*
X93800Y17800D02*
X94800D01*
X94300Y17300D02*
Y18300D01*
X83400Y45700D02*
X84400D01*
X83900Y45200D02*
Y46200D01*
X80700Y40000D02*
X81700D01*
X81200Y39500D02*
Y40500D01*
X97300Y48000D02*
X98300D01*
X97800Y47500D02*
Y48500D01*
X33500Y94500D02*
X34500D01*
X34000Y94000D02*
Y95000D01*
X28300Y86300D02*
X29300D01*
X28800Y85800D02*
Y86800D01*
X39000Y83200D02*
X40000D01*
X39500Y82700D02*
Y83700D01*
X77600Y63600D02*
X78600D01*
X78100Y63100D02*
Y64100D01*
X60300Y71000D02*
X61300D01*
X60800Y70500D02*
Y71500D01*
X39900Y65900D02*
X40900D01*
X40400Y65400D02*
Y66400D01*
X39900Y73700D02*
X40900D01*
X40400Y73200D02*
Y74200D01*
X49300Y73700D02*
X50300D01*
X49800Y73200D02*
Y74200D01*
X40300Y30700D02*
X41300D01*
X40800Y30200D02*
Y31200D01*
X35300Y22900D02*
X36300D01*
X35800Y22400D02*
Y23400D01*
X29900Y30400D02*
X30900D01*
X30400Y29900D02*
Y30900D01*
X37700Y34300D02*
X38700D01*
X38200Y33800D02*
Y34800D01*
X44300Y42700D02*
X45300D01*
X44800Y42200D02*
Y43200D01*
X36800Y42000D02*
X37800D01*
X37300Y41500D02*
Y42500D01*
X12000Y44900D02*
X13000D01*
X12500Y44400D02*
Y45400D01*
X12000Y50200D02*
X13000D01*
X12500Y49700D02*
Y50700D01*
X56500Y62900D02*
X57500D01*
X57000Y62400D02*
Y63400D01*
X49300Y65900D02*
X50300D01*
X49800Y65400D02*
Y66400D01*
X48200Y56000D02*
X49200D01*
X48700Y55500D02*
Y56500D01*
X48900Y49200D02*
X49900D01*
X49400Y48700D02*
Y49700D01*
X45200Y49200D02*
X46200D01*
X45700Y48700D02*
Y49700D01*
X45200Y56000D02*
X46200D01*
X45700Y55500D02*
Y56500D01*
X45200Y62800D02*
X46200D01*
X45700Y62300D02*
Y63300D01*
X98000Y72800D02*
X99000D01*
X98500Y72300D02*
Y73300D01*
X89100Y79700D02*
X90100D01*
X89600Y79200D02*
Y80200D01*
X96900Y79700D02*
X97900D01*
X97400Y79200D02*
Y80200D01*
X85800Y83700D02*
X86800D01*
X86300Y83200D02*
Y84200D01*
X85800Y88400D02*
X86800D01*
X86300Y87900D02*
Y88900D01*
X100300Y88400D02*
X101300D01*
X100800Y87900D02*
Y88900D01*
X100300Y93300D02*
X101300D01*
X100800Y92800D02*
Y93800D01*
X93050Y93300D02*
X94050D01*
X93550Y92800D02*
Y93800D01*
X85800Y93300D02*
X86800D01*
X86300Y92800D02*
Y93800D01*
X72500Y89300D02*
X73500D01*
X73000Y88800D02*
Y89800D01*
X72500Y85300D02*
X73500D01*
X73000Y84800D02*
Y85800D01*
X68700Y85200D02*
X69700D01*
X69200Y84700D02*
Y85700D01*
X68700Y89300D02*
X69700D01*
X69200Y88800D02*
Y89800D01*
X70700Y25500D02*
X71700D01*
X71200Y25000D02*
Y26000D01*
X70700Y20300D02*
X71700D01*
X71200Y19800D02*
Y20800D01*
X64800Y20300D02*
X65800D01*
X65300Y19800D02*
Y20800D01*
X65000Y25500D02*
X66000D01*
X65500Y25000D02*
Y26000D01*
X73600Y53700D02*
X74600D01*
X74100Y53200D02*
Y54200D01*
X73600Y49900D02*
X74600D01*
X74100Y49400D02*
Y50400D01*
X65700Y49900D02*
X66700D01*
X66200Y49400D02*
Y50400D01*
X69500Y49900D02*
X70500D01*
X70000Y49400D02*
Y50400D01*
X65700Y53700D02*
X66700D01*
X66200Y53200D02*
Y54200D01*
X69500Y53800D02*
X70500D01*
X70000Y53300D02*
Y54300D01*
X108621Y41500D02*
X109621D01*
X109121Y41000D02*
Y42000D01*
X108621Y51550D02*
X109621D01*
X109121Y51050D02*
Y52050D01*
X108621Y61600D02*
X109621D01*
X109121Y61100D02*
Y62100D01*
X96000Y21667D02*
X97000D01*
X96500Y21167D02*
Y22167D01*
X96000Y25500D02*
X97000D01*
X96500Y25000D02*
Y26000D01*
X96000Y14000D02*
X97000D01*
X96500Y13500D02*
Y14500D01*
X102100Y9300D02*
X103100D01*
X102600Y8800D02*
Y9800D01*
X57200Y9900D02*
X58200D01*
X57700Y9400D02*
Y10400D01*
X54400Y11600D02*
X55400D01*
X54900Y11100D02*
Y12100D01*
X54400Y14200D02*
X55400D01*
X54900Y13700D02*
Y14700D01*
X52900Y16900D02*
X53900D01*
X53400Y16400D02*
Y17400D01*
X29300Y18600D02*
X30300D01*
X29800Y18100D02*
Y19100D01*
X31925Y18600D02*
X32925D01*
X32425Y18100D02*
Y19100D01*
X34550Y18600D02*
X35550D01*
X35050Y18100D02*
Y19100D01*
X37175Y18600D02*
X38175D01*
X37675Y18100D02*
Y19100D01*
X39800Y18600D02*
X40800D01*
X40300Y18100D02*
Y19100D01*
X42425Y18600D02*
X43425D01*
X42925Y18100D02*
Y19100D01*
X45050Y18600D02*
X46050D01*
X45550Y18100D02*
Y19100D01*
X47675Y18600D02*
X48675D01*
X48175Y18100D02*
Y19100D01*
X50300Y18600D02*
X51300D01*
X50800Y18100D02*
Y19100D01*
X94800Y44700D02*
X96000D01*
X95400Y44100D02*
Y45300D01*
X55800Y77900D02*
X56800D01*
X56300Y77400D02*
Y78400D01*
X41500Y56800D02*
X42700D01*
X42100Y56200D02*
Y57400D01*
X39700Y50200D02*
X40700D01*
X40200Y49700D02*
Y50700D01*
X61200Y60300D02*
X62400D01*
X61800Y59700D02*
Y60900D01*
X56400Y56100D02*
X57400D01*
X56900Y55600D02*
Y56600D01*
X11100Y58200D02*
X12300D01*
X11700Y57600D02*
Y58800D01*
X30000Y91000D02*
X31200D01*
X30600Y90400D02*
Y91600D01*
X90505Y14907D02*
X91505D01*
X91005Y14407D02*
Y15407D01*
X94808Y11056D02*
X96008D01*
X95408Y10456D02*
Y11656D01*
X81500Y77700D02*
X82700D01*
X82100Y77100D02*
Y78300D01*
X101800Y27700D02*
X103000D01*
X102400Y27100D02*
Y28300D01*
X101805Y14930D02*
X103006D01*
X102406Y14330D02*
Y15530D01*
X15600Y60756D02*
X16800D01*
X16200Y60156D02*
Y61356D01*
X20900Y50250D02*
X22100D01*
X21500Y49650D02*
Y50850D01*
X65700Y68800D02*
X66900D01*
X66300Y68200D02*
Y69400D01*
X69250Y68600D02*
X70450D01*
X69850Y68000D02*
Y69200D01*
X92800Y83700D02*
X94000D01*
X93400Y83100D02*
Y84300D01*
X99919Y83582D02*
X101119D01*
X100519Y82982D02*
Y84182D01*
X102400Y77700D02*
X103600D01*
X103000Y77100D02*
Y78300D01*
X36600Y38900D02*
X37600D01*
X37100Y38400D02*
Y39400D01*
X79800Y45500D02*
X80800D01*
X80300Y45000D02*
Y46000D01*
X55500Y72200D02*
X56500D01*
X56000Y71700D02*
Y72700D01*
X75589Y11711D02*
X76589D01*
X76089Y11211D02*
Y12211D01*
X80721Y28121D02*
X81921D01*
X81321Y27521D02*
Y28721D01*
X91800Y29400D02*
X92800D01*
X92300Y28900D02*
Y29900D01*
X90100Y21700D02*
X91100D01*
X90600Y21200D02*
Y22200D01*
X68800Y13800D02*
X69800D01*
X69300Y13300D02*
Y14300D01*
Y32600D02*
X70300D01*
X69800Y32100D02*
Y33100D01*
X44300Y46700D02*
X45300D01*
X44800Y46200D02*
Y47200D01*
X80100Y20247D02*
X81100D01*
X80600Y19747D02*
Y20747D01*
X81700Y18300D02*
X82700D01*
X82200Y17800D02*
Y18800D01*
X85511Y11000D02*
X86511D01*
X86011Y10500D02*
Y11500D01*
X52600Y82700D02*
X53600D01*
X53100Y82200D02*
Y83200D01*
M02*
