G04*
G04 #@! TF.GenerationSoftware,Altium Limited,Altium Designer,22.0.2 (36)*
G04*
G04 Layer_Physical_Order=1*
G04 Layer_Color=255*
%FSLAX25Y25*%
%MOIN*%
G70*
G04*
G04 #@! TF.SameCoordinates,4AEEF1EB-5C28-47D6-87F3-BA9F17CF17F5*
G04*
G04*
G04 #@! TF.FilePolarity,Positive*
G04*
G01*
G75*
%ADD11C,0.00600*%
%ADD17C,0.01000*%
%ADD18C,0.04000*%
%ADD19R,0.11024X0.10630*%
G04:AMPARAMS|DCode=20|XSize=12mil|YSize=38mil|CornerRadius=3mil|HoleSize=0mil|Usage=FLASHONLY|Rotation=270.000|XOffset=0mil|YOffset=0mil|HoleType=Round|Shape=RoundedRectangle|*
%AMROUNDEDRECTD20*
21,1,0.01200,0.03200,0,0,270.0*
21,1,0.00600,0.03800,0,0,270.0*
1,1,0.00600,-0.01600,-0.00300*
1,1,0.00600,-0.01600,0.00300*
1,1,0.00600,0.01600,0.00300*
1,1,0.00600,0.01600,-0.00300*
%
%ADD20ROUNDEDRECTD20*%
G04:AMPARAMS|DCode=21|XSize=12mil|YSize=38mil|CornerRadius=3mil|HoleSize=0mil|Usage=FLASHONLY|Rotation=0.000|XOffset=0mil|YOffset=0mil|HoleType=Round|Shape=RoundedRectangle|*
%AMROUNDEDRECTD21*
21,1,0.01200,0.03200,0,0,0.0*
21,1,0.00600,0.03800,0,0,0.0*
1,1,0.00600,0.00300,-0.01600*
1,1,0.00600,-0.00300,-0.01600*
1,1,0.00600,-0.00300,0.01600*
1,1,0.00600,0.00300,0.01600*
%
%ADD21ROUNDEDRECTD21*%
G04:AMPARAMS|DCode=22|XSize=160mil|YSize=160mil|CornerRadius=16mil|HoleSize=0mil|Usage=FLASHONLY|Rotation=90.000|XOffset=0mil|YOffset=0mil|HoleType=Round|Shape=RoundedRectangle|*
%AMROUNDEDRECTD22*
21,1,0.16000,0.12800,0,0,90.0*
21,1,0.12800,0.16000,0,0,90.0*
1,1,0.03200,0.06400,0.06400*
1,1,0.03200,0.06400,-0.06400*
1,1,0.03200,-0.06400,-0.06400*
1,1,0.03200,-0.06400,0.06400*
%
%ADD22ROUNDEDRECTD22*%
G04:AMPARAMS|DCode=23|XSize=26.57mil|YSize=9.84mil|CornerRadius=2.46mil|HoleSize=0mil|Usage=FLASHONLY|Rotation=90.000|XOffset=0mil|YOffset=0mil|HoleType=Round|Shape=RoundedRectangle|*
%AMROUNDEDRECTD23*
21,1,0.02657,0.00492,0,0,90.0*
21,1,0.02165,0.00984,0,0,90.0*
1,1,0.00492,0.00246,0.01083*
1,1,0.00492,0.00246,-0.01083*
1,1,0.00492,-0.00246,-0.01083*
1,1,0.00492,-0.00246,0.01083*
%
%ADD23ROUNDEDRECTD23*%
G04:AMPARAMS|DCode=24|XSize=26.57mil|YSize=9.84mil|CornerRadius=2.46mil|HoleSize=0mil|Usage=FLASHONLY|Rotation=180.000|XOffset=0mil|YOffset=0mil|HoleType=Round|Shape=RoundedRectangle|*
%AMROUNDEDRECTD24*
21,1,0.02657,0.00492,0,0,180.0*
21,1,0.02165,0.00984,0,0,180.0*
1,1,0.00492,-0.01083,0.00246*
1,1,0.00492,0.01083,0.00246*
1,1,0.00492,0.01083,-0.00246*
1,1,0.00492,-0.01083,-0.00246*
%
%ADD24ROUNDEDRECTD24*%
%ADD25O,0.02756X0.00984*%
%ADD26O,0.00984X0.02756*%
G04:AMPARAMS|DCode=27|XSize=23.62mil|YSize=35mil|CornerRadius=5.91mil|HoleSize=0mil|Usage=FLASHONLY|Rotation=270.000|XOffset=0mil|YOffset=0mil|HoleType=Round|Shape=RoundedRectangle|*
%AMROUNDEDRECTD27*
21,1,0.02362,0.02319,0,0,270.0*
21,1,0.01181,0.03500,0,0,270.0*
1,1,0.01181,-0.01159,-0.00591*
1,1,0.01181,-0.01159,0.00591*
1,1,0.01181,0.01159,0.00591*
1,1,0.01181,0.01159,-0.00591*
%
%ADD27ROUNDEDRECTD27*%
G04:AMPARAMS|DCode=28|XSize=20mil|YSize=20mil|CornerRadius=5mil|HoleSize=0mil|Usage=FLASHONLY|Rotation=270.000|XOffset=0mil|YOffset=0mil|HoleType=Round|Shape=RoundedRectangle|*
%AMROUNDEDRECTD28*
21,1,0.02000,0.01000,0,0,270.0*
21,1,0.01000,0.02000,0,0,270.0*
1,1,0.01000,-0.00500,-0.00500*
1,1,0.01000,-0.00500,0.00500*
1,1,0.01000,0.00500,0.00500*
1,1,0.01000,0.00500,-0.00500*
%
%ADD28ROUNDEDRECTD28*%
G04:AMPARAMS|DCode=29|XSize=59.06mil|YSize=11.81mil|CornerRadius=2.95mil|HoleSize=0mil|Usage=FLASHONLY|Rotation=180.000|XOffset=0mil|YOffset=0mil|HoleType=Round|Shape=RoundedRectangle|*
%AMROUNDEDRECTD29*
21,1,0.05906,0.00591,0,0,180.0*
21,1,0.05315,0.01181,0,0,180.0*
1,1,0.00591,-0.02657,0.00295*
1,1,0.00591,0.02657,0.00295*
1,1,0.00591,0.02657,-0.00295*
1,1,0.00591,-0.02657,-0.00295*
%
%ADD29ROUNDEDRECTD29*%
G04:AMPARAMS|DCode=30|XSize=44mil|YSize=40mil|CornerRadius=10mil|HoleSize=0mil|Usage=FLASHONLY|Rotation=0.000|XOffset=0mil|YOffset=0mil|HoleType=Round|Shape=RoundedRectangle|*
%AMROUNDEDRECTD30*
21,1,0.04400,0.02000,0,0,0.0*
21,1,0.02400,0.04000,0,0,0.0*
1,1,0.02000,0.01200,-0.01000*
1,1,0.02000,-0.01200,-0.01000*
1,1,0.02000,-0.01200,0.01000*
1,1,0.02000,0.01200,0.01000*
%
%ADD30ROUNDEDRECTD30*%
G04:AMPARAMS|DCode=31|XSize=21.65mil|YSize=9.84mil|CornerRadius=2.46mil|HoleSize=0mil|Usage=FLASHONLY|Rotation=270.000|XOffset=0mil|YOffset=0mil|HoleType=Round|Shape=RoundedRectangle|*
%AMROUNDEDRECTD31*
21,1,0.02165,0.00492,0,0,270.0*
21,1,0.01673,0.00984,0,0,270.0*
1,1,0.00492,-0.00246,-0.00837*
1,1,0.00492,-0.00246,0.00837*
1,1,0.00492,0.00246,0.00837*
1,1,0.00492,0.00246,-0.00837*
%
%ADD31ROUNDEDRECTD31*%
G04:AMPARAMS|DCode=32|XSize=86mil|YSize=50mil|CornerRadius=12.5mil|HoleSize=0mil|Usage=FLASHONLY|Rotation=0.000|XOffset=0mil|YOffset=0mil|HoleType=Round|Shape=RoundedRectangle|*
%AMROUNDEDRECTD32*
21,1,0.08600,0.02500,0,0,0.0*
21,1,0.06100,0.05000,0,0,0.0*
1,1,0.02500,0.03050,-0.01250*
1,1,0.02500,-0.03050,-0.01250*
1,1,0.02500,-0.03050,0.01250*
1,1,0.02500,0.03050,0.01250*
%
%ADD32ROUNDEDRECTD32*%
G04:AMPARAMS|DCode=33|XSize=50mil|YSize=10mil|CornerRadius=2.5mil|HoleSize=0mil|Usage=FLASHONLY|Rotation=180.000|XOffset=0mil|YOffset=0mil|HoleType=Round|Shape=RoundedRectangle|*
%AMROUNDEDRECTD33*
21,1,0.05000,0.00500,0,0,180.0*
21,1,0.04500,0.01000,0,0,180.0*
1,1,0.00500,-0.02250,0.00250*
1,1,0.00500,0.02250,0.00250*
1,1,0.00500,0.02250,-0.00250*
1,1,0.00500,-0.02250,-0.00250*
%
%ADD33ROUNDEDRECTD33*%
G04:AMPARAMS|DCode=34|XSize=20mil|YSize=20mil|CornerRadius=5mil|HoleSize=0mil|Usage=FLASHONLY|Rotation=180.000|XOffset=0mil|YOffset=0mil|HoleType=Round|Shape=RoundedRectangle|*
%AMROUNDEDRECTD34*
21,1,0.02000,0.01000,0,0,180.0*
21,1,0.01000,0.02000,0,0,180.0*
1,1,0.01000,-0.00500,0.00500*
1,1,0.01000,0.00500,0.00500*
1,1,0.01000,0.00500,-0.00500*
1,1,0.01000,-0.00500,-0.00500*
%
%ADD34ROUNDEDRECTD34*%
G04:AMPARAMS|DCode=35|XSize=37.4mil|YSize=39.37mil|CornerRadius=9.35mil|HoleSize=0mil|Usage=FLASHONLY|Rotation=0.000|XOffset=0mil|YOffset=0mil|HoleType=Round|Shape=RoundedRectangle|*
%AMROUNDEDRECTD35*
21,1,0.03740,0.02067,0,0,0.0*
21,1,0.01870,0.03937,0,0,0.0*
1,1,0.01870,0.00935,-0.01034*
1,1,0.01870,-0.00935,-0.01034*
1,1,0.01870,-0.00935,0.01034*
1,1,0.01870,0.00935,0.01034*
%
%ADD35ROUNDEDRECTD35*%
G04:AMPARAMS|DCode=36|XSize=31.5mil|YSize=70.87mil|CornerRadius=7.87mil|HoleSize=0mil|Usage=FLASHONLY|Rotation=180.000|XOffset=0mil|YOffset=0mil|HoleType=Round|Shape=RoundedRectangle|*
%AMROUNDEDRECTD36*
21,1,0.03150,0.05512,0,0,180.0*
21,1,0.01575,0.07087,0,0,180.0*
1,1,0.01575,-0.00787,0.02756*
1,1,0.01575,0.00787,0.02756*
1,1,0.01575,0.00787,-0.02756*
1,1,0.01575,-0.00787,-0.02756*
%
%ADD36ROUNDEDRECTD36*%
%ADD60C,0.00400*%
%ADD61C,0.00400*%
%ADD62C,0.00500*%
%ADD63C,0.01200*%
%ADD64C,0.03200*%
%ADD65C,0.02400*%
%ADD66C,0.02000*%
%ADD67C,0.03937*%
%ADD68O,0.04500X0.04400*%
%ADD69O,0.08268X0.03937*%
%ADD70O,0.06299X0.03937*%
%ADD71C,0.02559*%
%ADD72C,0.02400*%
%ADD73C,0.02000*%
%ADD74C,0.03200*%
%ADD75C,0.01800*%
%ADD76C,0.03400*%
G36*
X34500Y96980D02*
X34500Y96980D01*
X65898D01*
X65930Y96946D01*
X66120Y96480D01*
X66041Y96362D01*
X65979Y96050D01*
Y92850D01*
X66013Y92680D01*
X65946Y92568D01*
X65732Y92354D01*
X65620Y92287D01*
X65450Y92321D01*
X62250D01*
X61938Y92259D01*
X61893Y92229D01*
X61345Y92423D01*
X61313Y92585D01*
X60981Y93081D01*
X60485Y93413D01*
X59900Y93529D01*
X59315Y93413D01*
X58819Y93081D01*
X58573Y92714D01*
X55548D01*
Y93063D01*
X55437Y93622D01*
X55120Y94097D01*
X54645Y94414D01*
X54085Y94526D01*
X52215D01*
X51655Y94414D01*
X51180Y94097D01*
X50863Y93622D01*
X50752Y93063D01*
Y90996D01*
X50863Y90436D01*
X51180Y89961D01*
X51655Y89644D01*
X52215Y89533D01*
X54085D01*
X54645Y89644D01*
X55120Y89961D01*
X55437Y90436D01*
X55548Y90996D01*
Y91286D01*
X58573D01*
X58819Y90919D01*
X59315Y90587D01*
X59900Y90471D01*
X60485Y90587D01*
X60940Y90891D01*
X61023Y90894D01*
X61098Y90877D01*
X61466Y90744D01*
X61496Y90593D01*
X61634Y90221D01*
X61496Y89849D01*
X61434Y89537D01*
Y88937D01*
X61496Y88625D01*
X61577Y88405D01*
X61445Y88076D01*
X61370Y87982D01*
X50223D01*
Y88004D01*
X48791Y87863D01*
X47415Y87445D01*
X46146Y86767D01*
X45410Y86164D01*
X45033Y85854D01*
X45031Y85851D01*
X44633Y85606D01*
X44325Y85668D01*
X42455D01*
X41895Y85556D01*
X41421Y85239D01*
X41103Y84764D01*
X40992Y84204D01*
Y82137D01*
X41103Y81577D01*
X41421Y81103D01*
X41601Y80982D01*
X41741Y80351D01*
X41736Y80337D01*
X41252Y79707D01*
X41237Y79697D01*
X41159Y79618D01*
X41150Y79620D01*
X40150D01*
X39760Y79542D01*
X39429Y79321D01*
X39208Y78990D01*
X39130Y78600D01*
Y77756D01*
X38784Y77530D01*
X38640Y77501D01*
X38001Y77992D01*
X37252Y78969D01*
X36780Y80107D01*
X36724Y80536D01*
X36845Y80674D01*
X37405Y80786D01*
X37879Y81103D01*
X38197Y81577D01*
X38308Y82137D01*
Y84204D01*
X38197Y84764D01*
X37879Y85239D01*
X37405Y85556D01*
X36845Y85668D01*
X34975D01*
X34415Y85556D01*
X33940Y85239D01*
X33623Y84764D01*
X33512Y84204D01*
Y82137D01*
X33623Y81577D01*
X33940Y81103D01*
X34415Y80786D01*
X34975Y80674D01*
X35245D01*
X35298Y80127D01*
X35649Y78972D01*
X36218Y77907D01*
X36984Y76974D01*
X37917Y76208D01*
X38982Y75639D01*
X40137Y75289D01*
X41338Y75170D01*
Y75186D01*
X43889D01*
X44378Y75161D01*
X44378Y75161D01*
X44778Y75214D01*
X44862Y75225D01*
X44874Y75226D01*
X45552Y75316D01*
X46645Y75769D01*
X47199Y76194D01*
X47584Y76489D01*
X47586Y76492D01*
X48050Y76580D01*
X48650D01*
X49040Y76658D01*
X49371Y76879D01*
X49592Y77210D01*
X49670Y77600D01*
Y78600D01*
X49592Y78990D01*
X49371Y79321D01*
X49040Y79542D01*
X48650Y79620D01*
X47650D01*
X47556Y79601D01*
X47310Y80062D01*
X48014Y80766D01*
X48475Y80674D01*
X50345D01*
X50905Y80786D01*
X51380Y81103D01*
X51571Y81389D01*
X51662Y81436D01*
X52104Y81516D01*
X52192Y81503D01*
X52515Y81287D01*
X53100Y81171D01*
X53192Y81189D01*
X53438Y80728D01*
X52329Y79620D01*
X51650D01*
X51260Y79542D01*
X50929Y79321D01*
X50708Y78990D01*
X50630Y78600D01*
Y77600D01*
X50708Y77210D01*
X50929Y76879D01*
X51260Y76658D01*
X51650Y76580D01*
X52650D01*
X53040Y76658D01*
X53371Y76879D01*
X53592Y77210D01*
X53670Y77600D01*
Y78600D01*
X53613Y78884D01*
X55494Y80766D01*
X55955Y80674D01*
X57825D01*
X58318Y80772D01*
X59169Y80074D01*
X60625Y79295D01*
X61444Y79047D01*
X61496Y78782D01*
X61673Y78518D01*
X61938Y78341D01*
X62250Y78279D01*
X65450D01*
X65620Y78313D01*
X65732Y78246D01*
X65946Y78032D01*
X66013Y77920D01*
X65979Y77750D01*
Y74550D01*
X66041Y74238D01*
X66218Y73973D01*
X66482Y73796D01*
X66795Y73734D01*
X67395D01*
X67707Y73796D01*
X68079Y73934D01*
X68451Y73796D01*
X68763Y73734D01*
X69363D01*
X69675Y73796D01*
X69940Y73973D01*
X70117Y74238D01*
X70179Y74550D01*
Y77750D01*
X70117Y78062D01*
X69940Y78327D01*
X69675Y78504D01*
X69363Y78566D01*
X68763D01*
X68451Y78504D01*
X68079Y78366D01*
X67707Y78504D01*
X67395Y78566D01*
X66795D01*
X66625Y78532D01*
X66512Y78599D01*
X66299Y78812D01*
X66232Y78925D01*
X66266Y79094D01*
Y79694D01*
X66204Y80007D01*
X66066Y80379D01*
X66204Y80751D01*
X66266Y81063D01*
Y81663D01*
X66204Y81975D01*
X66027Y82240D01*
Y82455D01*
X66204Y82719D01*
X66266Y83031D01*
Y83631D01*
X66204Y83944D01*
X66066Y84316D01*
X66204Y84688D01*
X66266Y85000D01*
Y85600D01*
X66204Y85912D01*
X66066Y86284D01*
X66204Y86656D01*
X66266Y86968D01*
Y87568D01*
X66204Y87881D01*
X66066Y88253D01*
X66204Y88625D01*
X66266Y88937D01*
Y89537D01*
X66204Y89849D01*
X66066Y90221D01*
X66204Y90593D01*
X66266Y90905D01*
Y91505D01*
X66232Y91675D01*
X66299Y91788D01*
X66512Y92001D01*
X66625Y92068D01*
X66795Y92034D01*
X67395D01*
X67707Y92096D01*
X68079Y92234D01*
X68451Y92096D01*
X68763Y92034D01*
X69363D01*
X69675Y92096D01*
X70047Y92234D01*
X70419Y92096D01*
X70732Y92034D01*
X71332D01*
X71644Y92096D01*
X72016Y92234D01*
X72388Y92096D01*
X72700Y92034D01*
X73300D01*
X73612Y92096D01*
X73984Y92234D01*
X74356Y92096D01*
X74669Y92034D01*
X75269D01*
X75581Y92096D01*
X75953Y92234D01*
X76325Y92096D01*
X76637Y92034D01*
X77237D01*
X77549Y92096D01*
X77921Y92234D01*
X78293Y92096D01*
X78606Y92034D01*
X79206D01*
X79375Y92068D01*
X79488Y92001D01*
X79701Y91788D01*
X79768Y91675D01*
X79734Y91505D01*
Y90905D01*
X79796Y90593D01*
X79934Y90221D01*
X79796Y89849D01*
X79734Y89537D01*
Y88937D01*
X79796Y88625D01*
X79934Y88253D01*
X79796Y87881D01*
X79734Y87568D01*
Y86968D01*
X79796Y86656D01*
X79934Y86284D01*
X79796Y85912D01*
X79734Y85600D01*
Y85000D01*
X79796Y84688D01*
X79934Y84316D01*
X79796Y83944D01*
X79734Y83631D01*
Y83031D01*
X79796Y82719D01*
X79934Y82347D01*
X79796Y81975D01*
X79734Y81663D01*
Y81063D01*
X79796Y80751D01*
X79934Y80379D01*
X79796Y80007D01*
X79734Y79694D01*
Y79094D01*
X79768Y78925D01*
X79701Y78812D01*
X79488Y78599D01*
X79375Y78532D01*
X79206Y78566D01*
X78606D01*
X78293Y78504D01*
X77921Y78366D01*
X77549Y78504D01*
X77237Y78566D01*
X76637D01*
X76325Y78504D01*
X75953Y78366D01*
X75581Y78504D01*
X75269Y78566D01*
X74669D01*
X74356Y78504D01*
X73984Y78366D01*
X73612Y78504D01*
X73300Y78566D01*
X72700D01*
X72388Y78504D01*
X72123Y78327D01*
X71946Y78062D01*
X71884Y77750D01*
Y74550D01*
X71927Y74336D01*
X71488Y74155D01*
X70924Y73722D01*
X70491Y73158D01*
X70219Y72501D01*
X70127Y71796D01*
X70219Y71091D01*
X70365Y70741D01*
X70005Y70302D01*
X69850Y70333D01*
X69187Y70201D01*
X68624Y69826D01*
X68487Y69620D01*
X67797D01*
X67526Y70026D01*
X66963Y70401D01*
X66300Y70533D01*
X65637Y70401D01*
X65074Y70026D01*
X64699Y69463D01*
X64567Y68800D01*
X64637Y68446D01*
X64267Y67964D01*
X64195Y67789D01*
X63960Y67742D01*
X63629Y67521D01*
X63408Y67190D01*
X63330Y66800D01*
Y65800D01*
X63408Y65410D01*
X63629Y65079D01*
X63960Y64858D01*
X64350Y64780D01*
X65350D01*
X65740Y64858D01*
X66071Y65079D01*
X66292Y65410D01*
X66370Y65800D01*
Y66800D01*
X66316Y67070D01*
X66963Y67199D01*
X67526Y67574D01*
X67530Y67580D01*
X68487D01*
X68624Y67374D01*
X69187Y66999D01*
X69850Y66867D01*
X69859Y66868D01*
X70330Y66452D01*
Y65800D01*
X70332Y65791D01*
X69500Y64959D01*
X69500Y64959D01*
X69485Y64974D01*
X68831Y64123D01*
X68743Y63911D01*
X68629Y63888D01*
X68300Y63669D01*
X68081Y63341D01*
X68004Y62954D01*
Y61182D01*
X68081Y60795D01*
X68300Y60467D01*
X68629Y60247D01*
X69016Y60170D01*
X69403Y60247D01*
X69731Y60467D01*
X69950Y60795D01*
X70027Y61182D01*
Y62954D01*
X69991Y63134D01*
X70098Y63392D01*
X70519Y63940D01*
X70509Y63950D01*
X71341Y64782D01*
X71350Y64780D01*
X71962D01*
X72325Y64280D01*
X72059Y63401D01*
X72018Y63341D01*
X71941Y62954D01*
Y62277D01*
X71921Y62068D01*
X71933D01*
X71941Y62027D01*
Y61182D01*
X72018Y60795D01*
X72237Y60467D01*
X72566Y60247D01*
X72953Y60170D01*
X73340Y60247D01*
X73668Y60467D01*
X74206D01*
X74534Y60247D01*
X74921Y60170D01*
X75308Y60247D01*
X75637Y60467D01*
X75856Y60795D01*
X75933Y61182D01*
Y62954D01*
X75856Y63341D01*
X75637Y63669D01*
X75308Y63888D01*
X74950Y63959D01*
X74915Y63973D01*
X74626Y64329D01*
X74611Y64396D01*
X74913Y64780D01*
X75350D01*
X75740Y64858D01*
X76071Y65079D01*
X76292Y65410D01*
X76370Y65800D01*
Y66800D01*
X76292Y67190D01*
X76071Y67521D01*
X75740Y67742D01*
X75505Y67789D01*
X75433Y67964D01*
X74904Y68654D01*
X74491Y68971D01*
X74459Y69052D01*
X74502Y69584D01*
X74876Y69870D01*
X75309Y70434D01*
X75810Y70339D01*
X76504Y69968D01*
X76516Y69958D01*
X76471Y69731D01*
X76587Y69146D01*
X76919Y68650D01*
X77415Y68318D01*
X78000Y68202D01*
X78585Y68318D01*
X79081Y68650D01*
X79413Y69146D01*
X79529Y69731D01*
X79413Y70316D01*
X79081Y70812D01*
X78848Y70968D01*
Y71563D01*
X79081Y71719D01*
X79413Y72215D01*
X79529Y72800D01*
X79413Y73385D01*
X79671Y73899D01*
X79782Y73973D01*
X79959Y74238D01*
X80021Y74550D01*
Y75815D01*
X80605Y76264D01*
X80665Y76256D01*
X81138Y75951D01*
X81233Y74992D01*
X81443Y74298D01*
X81546Y73807D01*
X81645Y73524D01*
X81676Y73451D01*
X81743Y73296D01*
X81759Y73259D01*
X81891Y73012D01*
X82613Y71661D01*
X82980Y71213D01*
Y70500D01*
X83058Y70110D01*
X83279Y69779D01*
X83610Y69558D01*
X84000Y69480D01*
X84564D01*
X84771Y68980D01*
X84432Y68641D01*
X84402Y68641D01*
X84402Y68641D01*
X84074Y68268D01*
X82991Y67032D01*
X81802Y65253D01*
X80856Y63334D01*
X80168Y61308D01*
X79866Y59791D01*
X79541Y59656D01*
X79154Y59733D01*
X77382D01*
X76995Y59656D01*
X76667Y59437D01*
X76447Y59108D01*
X76370Y58721D01*
X76447Y58334D01*
X76667Y58006D01*
Y57468D01*
X76447Y57140D01*
X76370Y56753D01*
X76447Y56366D01*
X76667Y56037D01*
Y55500D01*
X76447Y55171D01*
X76370Y54784D01*
X76447Y54397D01*
X76667Y54069D01*
Y53531D01*
X76447Y53203D01*
X76370Y52816D01*
X76447Y52429D01*
X76667Y52100D01*
Y51562D01*
X76447Y51234D01*
X76370Y50847D01*
X76447Y50460D01*
X76667Y50132D01*
X76995Y49913D01*
X77382Y49836D01*
X79154D01*
X79632Y49421D01*
Y46858D01*
X79219Y46581D01*
X78973Y46214D01*
X75933D01*
Y46418D01*
X75856Y46805D01*
X75637Y47133D01*
X75308Y47353D01*
X74921Y47430D01*
X74534Y47353D01*
X74206Y47133D01*
X73668D01*
X73340Y47353D01*
X72953Y47430D01*
X72566Y47353D01*
X72237Y47133D01*
X71700D01*
X71371Y47353D01*
X70984Y47430D01*
X70597Y47353D01*
X70269Y47133D01*
X69731D01*
X69403Y47353D01*
X69016Y47430D01*
X68629Y47353D01*
X68300Y47133D01*
X67763D01*
X67434Y47353D01*
X67047Y47430D01*
X66660Y47353D01*
X66332Y47133D01*
X65794D01*
X65466Y47353D01*
X65079Y47430D01*
X64692Y47353D01*
X64363Y47133D01*
X64144Y46805D01*
X64067Y46418D01*
Y44646D01*
X64144Y44259D01*
X64363Y43931D01*
X64692Y43712D01*
X65079Y43635D01*
X65466Y43712D01*
X65571Y43782D01*
X66178Y43675D01*
X66295Y43493D01*
X66166Y43108D01*
X66075Y42972D01*
X65811Y42796D01*
X65500Y42734D01*
Y42714D01*
X58477D01*
X58442Y42890D01*
X58221Y43221D01*
X57890Y43442D01*
X57500Y43520D01*
X56500D01*
X56110Y43442D01*
X55779Y43221D01*
X55558Y42890D01*
X55480Y42500D01*
Y41500D01*
X55537Y41214D01*
X55347Y40862D01*
X55221Y40714D01*
X47002D01*
X46512Y40717D01*
D01*
X46032Y40764D01*
X45186Y40848D01*
X43911Y41234D01*
X42737Y41862D01*
X42101Y42384D01*
X41738Y42715D01*
X41728Y42728D01*
X41366Y43025D01*
X40264Y43929D01*
X38594Y44822D01*
X36783Y45371D01*
X36132Y45435D01*
X36037Y45526D01*
X36099Y45779D01*
X36329Y46026D01*
X43447D01*
X43719Y45619D01*
X44215Y45287D01*
X44800Y45171D01*
X45385Y45287D01*
X45881Y45619D01*
X46213Y46115D01*
X46329Y46700D01*
X46213Y47285D01*
X45881Y47781D01*
X45385Y48113D01*
X44800Y48229D01*
X44215Y48113D01*
X43719Y47781D01*
X43499Y47453D01*
X35737D01*
X35649Y47579D01*
X35591Y47956D01*
X35756Y48205D01*
X35815Y48497D01*
Y48997D01*
X35756Y49290D01*
X35591Y49538D01*
Y49925D01*
X35756Y50173D01*
X35815Y50466D01*
Y50966D01*
X35756Y51258D01*
X35731Y51296D01*
X36048Y51722D01*
X37176Y51380D01*
X38519Y50662D01*
X38728Y50490D01*
X38671Y50200D01*
X38787Y49615D01*
X39119Y49119D01*
X39615Y48787D01*
X40200Y48671D01*
X40785Y48787D01*
X41281Y49119D01*
X41613Y49615D01*
X41729Y50200D01*
X41613Y50785D01*
X41281Y51281D01*
X40785Y51613D01*
X40200Y51729D01*
X39640Y51618D01*
X39328Y51874D01*
X37733Y52726D01*
X36002Y53251D01*
X35722Y53279D01*
X35591Y53475D01*
X35343Y53641D01*
X35050Y53699D01*
X30550D01*
X30257Y53641D01*
X30009Y53475D01*
X29844Y53227D01*
X29785Y52934D01*
Y52434D01*
X29844Y52142D01*
X30009Y51894D01*
Y51506D01*
X29844Y51258D01*
X29807Y51072D01*
X29593Y50984D01*
X28880Y50436D01*
X28332Y49723D01*
X27988Y48892D01*
X27871Y48000D01*
X27886D01*
Y42304D01*
X27868D01*
X27996Y41003D01*
X28375Y39753D01*
X28992Y38600D01*
X29821Y37589D01*
X30831Y36760D01*
X31984Y36144D01*
X33119Y35800D01*
X33123Y35783D01*
X33454Y35287D01*
X33950Y34956D01*
X34536Y34839D01*
X35121Y34956D01*
X35617Y35287D01*
X35949Y35783D01*
X35973Y35907D01*
X36428Y36128D01*
X36527Y36130D01*
X37152Y35871D01*
X37877Y35776D01*
Y35786D01*
X50899D01*
X51167Y35286D01*
X51071Y34800D01*
X51187Y34215D01*
X51519Y33719D01*
X51886Y33473D01*
Y31460D01*
X51851D01*
X52045Y29994D01*
X52610Y28627D01*
X53117Y27968D01*
X52895Y27520D01*
X52500D01*
X52110Y27442D01*
X51779Y27221D01*
X51558Y26890D01*
X51480Y26500D01*
Y25500D01*
X51558Y25110D01*
X51604Y25042D01*
X51545Y24955D01*
X51066Y24634D01*
X50500Y24522D01*
Y24520D01*
X48500D01*
Y24522D01*
X47934Y24634D01*
X47455Y24955D01*
X47396Y25042D01*
X47442Y25110D01*
X47520Y25500D01*
Y26500D01*
X47442Y26890D01*
X47221Y27221D01*
X46890Y27442D01*
X46500Y27520D01*
X45500D01*
X45110Y27442D01*
X44779Y27221D01*
X44558Y26890D01*
X44480Y26500D01*
Y25500D01*
X44558Y25110D01*
X44779Y24779D01*
X45110Y24558D01*
X45327Y24515D01*
X45443Y24235D01*
X46004Y23504D01*
X46735Y22943D01*
X47586Y22590D01*
X48500Y22470D01*
Y22480D01*
X50500D01*
Y22470D01*
X51414Y22590D01*
X52265Y22943D01*
X52996Y23504D01*
X53051Y23507D01*
X53855Y22703D01*
X53837Y22686D01*
X54908Y21864D01*
X56031Y21399D01*
X56059Y21366D01*
X56190Y21025D01*
X56211Y20836D01*
X56176Y20784D01*
X56118Y20493D01*
Y20001D01*
X56176Y19710D01*
X56341Y19463D01*
Y19063D01*
X56176Y18816D01*
X56118Y18525D01*
Y18033D01*
X56176Y17742D01*
X56341Y17495D01*
Y17094D01*
X56176Y16847D01*
X56118Y16556D01*
Y16064D01*
X56176Y15773D01*
X56341Y15526D01*
Y15126D01*
X56176Y14879D01*
X56118Y14588D01*
Y14096D01*
X56176Y13805D01*
X56341Y13558D01*
Y13157D01*
X56176Y12910D01*
X56118Y12619D01*
Y12127D01*
X56176Y11836D01*
X56341Y11589D01*
X56588Y11424D01*
X56879Y11366D01*
X58921D01*
X59180Y11180D01*
X59367Y10921D01*
Y10279D01*
X59325Y9962D01*
X59354D01*
X59367Y9897D01*
Y8879D01*
X59398Y8720D01*
X59180Y8335D01*
X59069Y8220D01*
X58100D01*
X58074Y8214D01*
X57285Y8371D01*
X56617Y8818D01*
X56602Y8840D01*
X55842Y9600D01*
X55857Y9614D01*
X54602Y10644D01*
X53701Y11125D01*
Y12417D01*
X53509Y13383D01*
X53132Y14293D01*
X52585Y15112D01*
X51888Y15809D01*
X51069Y16356D01*
X50160Y16733D01*
X49194Y16925D01*
X27520D01*
Y34700D01*
X27537D01*
X27503Y35070D01*
X27484Y35143D01*
Y35218D01*
X27464Y35319D01*
X27824Y35540D01*
X27927Y35563D01*
X37480Y26010D01*
Y25500D01*
X37558Y25110D01*
X37779Y24779D01*
X38110Y24558D01*
X38500Y24480D01*
X39500D01*
X39890Y24558D01*
X40214Y24775D01*
X40224Y24779D01*
X40775D01*
X40786Y24775D01*
X41110Y24558D01*
X41286Y24523D01*
Y24027D01*
X40919Y23781D01*
X40587Y23285D01*
X40471Y22700D01*
X40587Y22115D01*
X40919Y21619D01*
X41415Y21287D01*
X42000Y21171D01*
X42585Y21287D01*
X43081Y21619D01*
X43413Y22115D01*
X43529Y22700D01*
X43413Y23285D01*
X43081Y23781D01*
X42714Y24027D01*
Y24523D01*
X42890Y24558D01*
X43221Y24779D01*
X43442Y25110D01*
X43520Y25500D01*
Y26500D01*
X43442Y26890D01*
X43221Y27221D01*
X42890Y27442D01*
X42500Y27520D01*
X41500D01*
X41110Y27442D01*
X40786Y27225D01*
X40775Y27221D01*
X40224D01*
X40214Y27225D01*
X39890Y27442D01*
X39500Y27520D01*
X38500D01*
X38110Y27442D01*
X38084Y27425D01*
X27659Y37850D01*
X21334Y44176D01*
X21309Y44192D01*
X20172Y45578D01*
X19313Y47185D01*
X18784Y48929D01*
X18608Y50714D01*
X18614Y50742D01*
Y56554D01*
X19114Y56821D01*
X19315Y56687D01*
X19900Y56571D01*
X20485Y56687D01*
X20981Y57019D01*
X21227Y57386D01*
X22771D01*
Y57200D01*
X22887Y56615D01*
X23219Y56119D01*
X23715Y55787D01*
X24300Y55671D01*
X26700D01*
X27285Y55787D01*
X27781Y56119D01*
X27981Y56417D01*
X28538Y56459D01*
X28559Y56451D01*
X28708Y56229D01*
X29429Y55748D01*
X30279Y55579D01*
Y55602D01*
X32800D01*
X32825Y55607D01*
X35050D01*
X35343Y55665D01*
X35591Y55831D01*
X35756Y56079D01*
X35815Y56371D01*
Y56871D01*
X35795Y56968D01*
X36067Y57401D01*
X36154Y57468D01*
X37779D01*
X37823Y57477D01*
X39074Y57312D01*
X39986Y56934D01*
X39959Y56800D01*
X40122Y55981D01*
X40586Y55286D01*
X41281Y54822D01*
X42100Y54659D01*
X42919Y54822D01*
X43614Y55286D01*
X44078Y55981D01*
X44241Y56800D01*
X44078Y57619D01*
X43614Y58314D01*
X42919Y58778D01*
X42100Y58941D01*
X41288Y58780D01*
X40552Y59173D01*
X39193Y59585D01*
X37779Y59725D01*
Y59711D01*
X32800D01*
X32371Y59626D01*
X32339Y59604D01*
X30550D01*
X30120Y60010D01*
Y61300D01*
X30133D01*
X30199Y61632D01*
X30387Y61913D01*
X30668Y62101D01*
X31000Y62167D01*
Y62180D01*
X37070D01*
X37274Y61874D01*
X37837Y61499D01*
X38500Y61367D01*
X39163Y61499D01*
X39726Y61874D01*
X39850Y62060D01*
X40350D01*
X40474Y61874D01*
X41037Y61499D01*
X41700Y61367D01*
X42363Y61499D01*
X42926Y61874D01*
X43301Y62437D01*
X43433Y63100D01*
X43301Y63763D01*
X42926Y64326D01*
X42363Y64701D01*
X41700Y64833D01*
X41037Y64701D01*
X40474Y64326D01*
X40350Y64139D01*
X39850D01*
X39726Y64326D01*
X39163Y64701D01*
X38500Y64833D01*
X37837Y64701D01*
X37274Y64326D01*
X37203Y64220D01*
X31000D01*
Y64225D01*
X30243Y64125D01*
X29537Y63833D01*
X28932Y63368D01*
X28467Y62762D01*
X28175Y62057D01*
X28075Y61300D01*
X28080D01*
Y60666D01*
X27580Y60416D01*
X27285Y60613D01*
X26700Y60729D01*
X24300D01*
X23715Y60613D01*
X23219Y60281D01*
X22887Y59785D01*
X22771Y59200D01*
Y58814D01*
X21227D01*
X20981Y59181D01*
X20485Y59513D01*
X19900Y59629D01*
X19315Y59513D01*
X19144Y59399D01*
X18677Y59689D01*
X18721Y60018D01*
X18998Y60687D01*
X19439Y61261D01*
X20013Y61702D01*
X20682Y61979D01*
X21382Y62071D01*
X21400Y62055D01*
Y62055D01*
X23203Y62233D01*
X24938Y62759D01*
X26536Y63613D01*
X27937Y64763D01*
X29087Y66164D01*
X29941Y67762D01*
X30467Y69497D01*
X30645Y71300D01*
X30614D01*
Y82279D01*
X30609Y82304D01*
X30780Y84044D01*
X31295Y85740D01*
X32131Y87304D01*
X33255Y88674D01*
X34626Y89799D01*
X36189Y90634D01*
X36903Y90851D01*
X37332Y90594D01*
X37363Y90436D01*
X37680Y89961D01*
X38155Y89644D01*
X38715Y89533D01*
X40585D01*
X41145Y89644D01*
X41620Y89961D01*
X41937Y90436D01*
X42048Y90996D01*
Y93063D01*
X41937Y93622D01*
X41620Y94097D01*
X41145Y94414D01*
X40585Y94526D01*
X38715D01*
X38155Y94414D01*
X37680Y94097D01*
X37363Y93622D01*
X37252Y93063D01*
Y92450D01*
X36411Y92248D01*
X34891Y91619D01*
X33489Y90759D01*
X32549Y89957D01*
X32172Y90292D01*
X32201Y90337D01*
X32333Y91000D01*
X32201Y91663D01*
X31826Y92226D01*
X31263Y92601D01*
X30600Y92733D01*
X29937Y92601D01*
X29374Y92226D01*
X28999Y91663D01*
X28867Y91000D01*
X28999Y90337D01*
X29374Y89774D01*
X29937Y89399D01*
X30600Y89267D01*
X31263Y89399D01*
X31420Y89503D01*
X31755Y89126D01*
X31170Y88441D01*
X30310Y87038D01*
X29681Y85518D01*
X29297Y83919D01*
X29168Y82279D01*
X29186D01*
Y71300D01*
X29187Y71296D01*
X29038Y69781D01*
X28595Y68320D01*
X28041Y67283D01*
X27917Y67260D01*
X27817Y67299D01*
X27484Y67682D01*
Y67757D01*
X27503Y67830D01*
X27537Y68200D01*
X27520Y68201D01*
X27502Y89911D01*
X27520Y90000D01*
X27520D01*
X27517Y90003D01*
X27647Y91330D01*
X27660Y91393D01*
X28039Y92642D01*
X28063Y92701D01*
X28678Y93851D01*
X28714Y93905D01*
X29541Y94913D01*
X29587Y94959D01*
X30595Y95786D01*
X30649Y95822D01*
X31799Y96437D01*
X31859Y96461D01*
X33107Y96840D01*
X33170Y96853D01*
X34468Y96980D01*
X34500D01*
D02*
G37*
G36*
X100330Y96853D02*
X100393Y96840D01*
X101641Y96461D01*
X101701Y96437D01*
X102851Y95822D01*
X102905Y95786D01*
X103913Y94959D01*
X103959Y94913D01*
X104786Y93905D01*
X104822Y93851D01*
X105437Y92701D01*
X105461Y92642D01*
X105840Y91393D01*
X105853Y91330D01*
X105981Y90032D01*
Y90000D01*
X105980Y90000D01*
Y75298D01*
X105971Y75250D01*
X105954D01*
X105987Y74911D01*
X106006Y74822D01*
Y74732D01*
X106053Y74497D01*
X106100Y74138D01*
X106185Y73933D01*
X106189Y73914D01*
X106433Y73323D01*
X106444Y73307D01*
X106529Y73102D01*
X106750Y72814D01*
X106883Y72616D01*
X106954Y72545D01*
X107009Y72461D01*
X107059Y72412D01*
X107212Y72212D01*
X107412Y72058D01*
X107461Y72009D01*
X107545Y71954D01*
X107616Y71883D01*
X107814Y71750D01*
X108102Y71529D01*
X108307Y71444D01*
X108323Y71433D01*
X108914Y71189D01*
X108933Y71185D01*
X109138Y71100D01*
X109497Y71053D01*
X109732Y71006D01*
X109807D01*
X109880Y70988D01*
X110250Y70954D01*
Y70954D01*
X110252Y70971D01*
X114327Y70978D01*
X114680Y70625D01*
Y32520D01*
X110300D01*
Y32537D01*
X109931Y32503D01*
X109857Y32484D01*
X109782D01*
X109548Y32438D01*
X109188Y32390D01*
X108983Y32305D01*
X108964Y32302D01*
X108373Y32057D01*
X108357Y32046D01*
X108152Y31961D01*
X107864Y31740D01*
X107666Y31608D01*
X107595Y31537D01*
X107511Y31481D01*
X107462Y31432D01*
X107262Y31278D01*
X107108Y31078D01*
X107059Y31029D01*
X107004Y30946D01*
X106933Y30875D01*
X106800Y30676D01*
X106579Y30389D01*
X106494Y30184D01*
X106483Y30167D01*
X106239Y29577D01*
X106235Y29557D01*
X106150Y29352D01*
X106103Y28993D01*
X106056Y28759D01*
Y28683D01*
X106038Y28610D01*
X106033Y28502D01*
X105980Y28240D01*
Y13500D01*
X105981Y13500D01*
Y13468D01*
X105853Y12170D01*
X105840Y12107D01*
X105461Y10859D01*
X105437Y10799D01*
X104822Y9649D01*
X104786Y9595D01*
X103959Y8587D01*
X103913Y8541D01*
X102905Y7714D01*
X102851Y7678D01*
X101701Y7063D01*
X101642Y7039D01*
X100393Y6660D01*
X100330Y6647D01*
X99488Y6565D01*
X99000Y6520D01*
X99000Y6520D01*
X98513Y6520D01*
X89328D01*
X89085Y7020D01*
X89133Y7080D01*
X89500D01*
X89890Y7158D01*
X90221Y7379D01*
X90442Y7710D01*
X90520Y8100D01*
Y9100D01*
X90442Y9490D01*
X90221Y9821D01*
X90020Y9956D01*
Y10745D01*
X90221Y10879D01*
X90442Y11210D01*
X90520Y11600D01*
Y11632D01*
X91020Y11840D01*
X91490Y11479D01*
X91506Y11472D01*
X91558Y11210D01*
X91779Y10879D01*
X92110Y10658D01*
X92500Y10580D01*
X93500D01*
X93759Y10632D01*
X93807Y10393D01*
X94182Y9831D01*
X94745Y9455D01*
X94847Y9435D01*
X94780Y9100D01*
Y8100D01*
X94858Y7710D01*
X95079Y7379D01*
X95410Y7158D01*
X95800Y7080D01*
X96800D01*
X97190Y7158D01*
X97521Y7379D01*
X97742Y7710D01*
X97820Y8100D01*
Y9100D01*
X97742Y9490D01*
X97521Y9821D01*
X97259Y9996D01*
X97142Y10182D01*
X97031Y10503D01*
X97141Y11056D01*
X97009Y11720D01*
X96634Y12282D01*
X96071Y12658D01*
X95408Y12790D01*
X94911Y12691D01*
X94449Y12956D01*
X94442Y12990D01*
X94221Y13321D01*
X93890Y13542D01*
X93500Y13620D01*
X93307D01*
X93240Y13746D01*
X93092Y14120D01*
X93249Y14907D01*
X93176Y15272D01*
X93493Y15659D01*
X94300D01*
X95119Y15822D01*
X95814Y16286D01*
X96278Y16981D01*
X96441Y17800D01*
X96278Y18619D01*
X95814Y19314D01*
X95119Y19778D01*
X94300Y19941D01*
X91319D01*
X91293Y20008D01*
X91236Y20441D01*
X91609Y20691D01*
X91919Y21154D01*
X92027Y21700D01*
X91919Y22246D01*
X91609Y22709D01*
X91146Y23019D01*
X91051Y23038D01*
X91100Y23538D01*
X92165D01*
X92590Y23622D01*
X92951Y23863D01*
X93192Y24224D01*
X93277Y24650D01*
Y25831D01*
X93192Y26256D01*
X92951Y26617D01*
X92590Y26858D01*
X92165Y26943D01*
X89846D01*
X89421Y26858D01*
X89060Y26617D01*
X88819Y26256D01*
X88734Y25831D01*
Y25282D01*
X88234Y25075D01*
X87860Y25449D01*
X87880Y25469D01*
X86872Y26242D01*
X86263Y26495D01*
X86224Y26690D01*
X86059Y26937D01*
Y27337D01*
X86224Y27584D01*
X86282Y27875D01*
Y28367D01*
X86224Y28658D01*
X86059Y28905D01*
Y29306D01*
X86224Y29553D01*
X86282Y29844D01*
Y30336D01*
X86224Y30627D01*
X86156Y30728D01*
X86180Y30792D01*
X86532Y31128D01*
X87280Y30818D01*
X87701Y30495D01*
X88069Y30178D01*
X88069Y30178D01*
X89146Y29352D01*
X90399Y28833D01*
X90921Y28764D01*
X91219Y28319D01*
X91715Y27987D01*
X92300Y27871D01*
X92885Y27987D01*
X93381Y28319D01*
X93713Y28815D01*
X93829Y29400D01*
X93713Y29985D01*
X93381Y30481D01*
X92885Y30813D01*
X92300Y30929D01*
X91715Y30813D01*
X91219Y30481D01*
X91038Y30211D01*
X90778Y30245D01*
X89877Y30618D01*
X89492Y30914D01*
X89123Y31232D01*
X89123D01*
X88011Y32085D01*
X86716Y32621D01*
X86157Y32695D01*
X86059Y32842D01*
Y33243D01*
X86224Y33490D01*
X86282Y33781D01*
Y34273D01*
X86224Y34564D01*
X86059Y34811D01*
X85812Y34976D01*
X85521Y35034D01*
X83479D01*
X83220Y35221D01*
X83034Y35479D01*
Y37521D01*
X82976Y37812D01*
X82811Y38059D01*
X82564Y38224D01*
X82273Y38282D01*
X81781D01*
X81490Y38224D01*
X81243Y38059D01*
X80842D01*
X80595Y38224D01*
X80304Y38282D01*
X79812D01*
X79521Y38224D01*
X79274Y38059D01*
X78874D01*
X78627Y38224D01*
X78336Y38282D01*
X77844D01*
X77553Y38224D01*
X77306Y38059D01*
X76905D01*
X76658Y38224D01*
X76367Y38282D01*
X75875D01*
X75584Y38224D01*
X75376Y38084D01*
X75072Y38138D01*
X74774Y38582D01*
X74802Y38704D01*
X75225Y39337D01*
X75417Y40300D01*
X75260Y41087D01*
X75643Y41470D01*
X75724Y41436D01*
X76620Y41318D01*
X77105Y41254D01*
X77107Y41254D01*
X77607Y41286D01*
X78375D01*
Y41262D01*
X79522Y41413D01*
X80590Y41856D01*
X81508Y42560D01*
X82212Y43478D01*
X82655Y44546D01*
X82806Y45693D01*
X82782D01*
Y47239D01*
X83009Y47391D01*
X83319Y47854D01*
X83427Y48400D01*
X83319Y48946D01*
X83009Y49409D01*
X82659Y49643D01*
Y51897D01*
X83159Y52006D01*
X83419Y51619D01*
X83915Y51287D01*
X84190Y51232D01*
X84505Y50821D01*
X85056Y50399D01*
X85697Y50134D01*
X85765Y50125D01*
X85871Y49971D01*
X85994Y49636D01*
X85872Y49453D01*
X85810Y49143D01*
Y48552D01*
X85872Y48242D01*
X86048Y47979D01*
Y47747D01*
X85872Y47484D01*
X85810Y47174D01*
Y46584D01*
X85872Y46273D01*
X86048Y46010D01*
Y45779D01*
X85872Y45516D01*
X85810Y45206D01*
Y44615D01*
X85872Y44305D01*
X86048Y44042D01*
Y43810D01*
X85872Y43547D01*
X85810Y43237D01*
Y42646D01*
X85869Y42351D01*
X85810Y42056D01*
Y41465D01*
X85872Y41155D01*
X86048Y40892D01*
X86311Y40716D01*
X86621Y40655D01*
X91936D01*
X92247Y40716D01*
X92510Y40892D01*
X92685Y41155D01*
X92747Y41465D01*
Y42056D01*
X92737Y42107D01*
X93848Y42443D01*
X94442Y42761D01*
X94746Y42628D01*
X94689Y42107D01*
X94647Y42098D01*
X94059Y41705D01*
X93665Y41116D01*
X93527Y40422D01*
X93665Y39728D01*
X94059Y39139D01*
X94647Y38746D01*
X95342Y38608D01*
X96036Y38746D01*
X96625Y39139D01*
X97018Y39728D01*
X97156Y40422D01*
X97018Y41116D01*
X96625Y41705D01*
X96036Y42098D01*
X95842Y42137D01*
Y42647D01*
X96219Y42722D01*
X96914Y43186D01*
X97378Y43881D01*
X97541Y44700D01*
X97378Y45519D01*
X96914Y46214D01*
X96219Y46678D01*
X95400Y46841D01*
X94581Y46678D01*
X93886Y46214D01*
X93422Y45519D01*
X93310Y44955D01*
X93247Y44932D01*
X92829Y45161D01*
X92733Y45276D01*
X92685Y45516D01*
X92510Y45779D01*
Y46010D01*
X92685Y46273D01*
X92747Y46584D01*
Y47174D01*
X92685Y47484D01*
X92612Y47593D01*
X92806Y48052D01*
X93200Y48119D01*
Y48119D01*
X93818Y48242D01*
X94342Y48592D01*
X94692Y49116D01*
X94815Y49734D01*
X94799D01*
Y51546D01*
X95116Y51757D01*
X95447Y52254D01*
X95564Y52839D01*
X95447Y53424D01*
X95116Y53920D01*
X94619Y54252D01*
X94034Y54368D01*
X93449Y54252D01*
X93180Y54072D01*
X92730Y54373D01*
X92747Y54457D01*
Y55048D01*
X92685Y55358D01*
X92510Y55621D01*
Y55853D01*
X92685Y56116D01*
X92747Y56426D01*
Y57016D01*
X92685Y57327D01*
X92681Y57334D01*
X92550Y57705D01*
X92615Y57891D01*
X93143Y58081D01*
X93381Y57922D01*
X94200Y57759D01*
X95019Y57922D01*
X95714Y58386D01*
X96178Y59081D01*
X96341Y59900D01*
X96178Y60719D01*
X96001Y60985D01*
X96009Y61105D01*
X96189Y61604D01*
X96625Y61895D01*
X97018Y62484D01*
X97156Y63178D01*
X97018Y63872D01*
X96625Y64461D01*
X96036Y64854D01*
X95342Y64992D01*
X94647Y64854D01*
X94059Y64461D01*
X93665Y63872D01*
X93527Y63178D01*
X93665Y62484D01*
X93451Y62010D01*
X93188Y61913D01*
X93072Y61971D01*
X92738Y62182D01*
X92685Y62445D01*
X92510Y62708D01*
X92247Y62884D01*
X91936Y62945D01*
X86621D01*
X86311Y62884D01*
X86048Y62708D01*
X85872Y62445D01*
X85810Y62135D01*
Y61544D01*
X85869Y61249D01*
X85810Y60953D01*
Y60363D01*
X85872Y60053D01*
X86048Y59790D01*
Y59558D01*
X85872Y59295D01*
X85810Y58985D01*
Y58394D01*
X85872Y58084D01*
X85877Y58077D01*
X86007Y57705D01*
X85877Y57334D01*
X85872Y57327D01*
X85810Y57016D01*
Y56426D01*
X85872Y56116D01*
X86016Y55900D01*
X85913Y55622D01*
X85795Y55420D01*
X85139Y55148D01*
X84554Y54699D01*
X84138Y54157D01*
X83915Y54113D01*
X83419Y53781D01*
X83159Y53394D01*
X82659Y53503D01*
Y54663D01*
X82659Y54665D01*
X82659Y54666D01*
X82659Y54669D01*
X82658Y54676D01*
X82653Y54757D01*
X82824Y57369D01*
X83334Y59936D01*
X84176Y62415D01*
X85334Y64763D01*
X86788Y66939D01*
X88192Y68541D01*
X88521Y68905D01*
X88521Y68905D01*
X88874Y69258D01*
X90918Y71303D01*
X90920Y71303D01*
X90926Y71297D01*
X90927Y71299D01*
X91392Y71610D01*
X91921Y71715D01*
X91941Y71698D01*
Y71698D01*
X92810Y71871D01*
X93547Y72363D01*
X94039Y73099D01*
X94147Y73642D01*
X94252Y73712D01*
X94417Y73959D01*
X94475Y74250D01*
Y75923D01*
X94417Y76214D01*
X94252Y76461D01*
X94455Y76927D01*
X94594Y77045D01*
X95585Y76915D01*
X96863Y76385D01*
X97480Y75911D01*
Y75000D01*
X97558Y74610D01*
X97779Y74279D01*
X98110Y74058D01*
X98500Y73980D01*
X99500D01*
X99890Y74058D01*
X100221Y74279D01*
X100442Y74610D01*
X100520Y75000D01*
Y76000D01*
X100442Y76390D01*
X100221Y76721D01*
X99890Y76942D01*
X99500Y77020D01*
X98500D01*
X98432Y77006D01*
X97956Y77397D01*
X96791Y78020D01*
X95527Y78403D01*
X94213Y78532D01*
Y78529D01*
X93322Y78412D01*
X92492Y78068D01*
X91779Y77521D01*
X91232Y76808D01*
X91174Y76668D01*
X90963Y76626D01*
X90716Y76461D01*
X90315D01*
X90069Y76626D01*
X89778Y76684D01*
X89285D01*
X88994Y76626D01*
X88748Y76461D01*
X88583Y76214D01*
X88525Y75923D01*
Y74250D01*
X88583Y73959D01*
X88660Y73843D01*
X88655Y73798D01*
X88157Y72597D01*
X87379Y71583D01*
X87363Y71572D01*
X86520Y70729D01*
X86020Y70936D01*
Y71500D01*
X85942Y71890D01*
X85721Y72221D01*
X85390Y72442D01*
X85000Y72520D01*
X84560D01*
X84325Y72806D01*
X84232Y72980D01*
X84532Y73480D01*
X85000D01*
X85390Y73558D01*
X85721Y73779D01*
X85942Y74110D01*
X86020Y74500D01*
Y75500D01*
X85942Y75890D01*
X85841Y76041D01*
X85927Y76690D01*
X85914D01*
Y80000D01*
X85940D01*
X85780Y80805D01*
X85324Y81487D01*
X85133Y81615D01*
X84642Y81943D01*
X84625Y81947D01*
X84393Y82420D01*
X84504Y82719D01*
X84566Y83031D01*
Y83631D01*
X84504Y83944D01*
X84366Y84316D01*
X84504Y84688D01*
X84566Y85000D01*
Y85600D01*
X84504Y85912D01*
X84366Y86284D01*
X84504Y86656D01*
X84566Y86968D01*
Y87568D01*
X84504Y87881D01*
X84366Y88253D01*
X84504Y88625D01*
X84566Y88937D01*
Y89537D01*
X84504Y89849D01*
X84366Y90221D01*
X84504Y90593D01*
X84566Y90905D01*
Y91505D01*
X84504Y91818D01*
X84327Y92082D01*
X84062Y92259D01*
X83750Y92321D01*
X80550D01*
X80380Y92287D01*
X80268Y92354D01*
X80054Y92568D01*
X79987Y92680D01*
X80021Y92850D01*
Y96050D01*
X79959Y96362D01*
X79880Y96480D01*
X80070Y96946D01*
X80102Y96980D01*
X99000D01*
X99000Y96981D01*
X99032D01*
X100330Y96853D01*
D02*
G37*
G36*
X20841Y63463D02*
X20304Y63392D01*
X19282Y62969D01*
X18405Y62296D01*
X18031Y61808D01*
X17531Y61824D01*
X17426Y61982D01*
X16863Y62357D01*
X16200Y62489D01*
X15537Y62357D01*
X14974Y61982D01*
X14599Y61419D01*
X14467Y60756D01*
X14599Y60093D01*
X14974Y59530D01*
X15537Y59155D01*
X16200Y59023D01*
X16686Y59119D01*
X17108Y58863D01*
X17186Y58769D01*
Y50742D01*
X17167D01*
X17299Y49063D01*
X17692Y47425D01*
X18337Y45869D01*
X19217Y44433D01*
X20311Y43153D01*
X20324Y43166D01*
X24104Y39387D01*
X24080Y39284D01*
X23860Y38924D01*
X23759Y38944D01*
X23683D01*
X23610Y38962D01*
X23502Y38967D01*
X23240Y39020D01*
X4520D01*
Y43265D01*
X5020Y43416D01*
X5219Y43119D01*
X5715Y42787D01*
X6300Y42671D01*
X8700D01*
X9285Y42787D01*
X9781Y43119D01*
X10113Y43615D01*
X10229Y44200D01*
Y46200D01*
X10113Y46785D01*
X9781Y47281D01*
X9285Y47613D01*
X8700Y47729D01*
X6300D01*
X5715Y47613D01*
X5219Y47281D01*
X5020Y46984D01*
X4520Y47135D01*
Y56265D01*
X5020Y56416D01*
X5219Y56119D01*
X5715Y55787D01*
X6300Y55671D01*
X8700D01*
X9285Y55787D01*
X9781Y56119D01*
X9902Y56299D01*
X10549Y56443D01*
X10553Y56441D01*
X10881Y56222D01*
X11700Y56059D01*
X12519Y56222D01*
X13214Y56686D01*
X13678Y57381D01*
X13841Y58200D01*
X13678Y59019D01*
X13214Y59714D01*
X12519Y60178D01*
X11700Y60341D01*
X10881Y60178D01*
X10553Y59959D01*
X10549Y59957D01*
X9902Y60101D01*
X9781Y60281D01*
X9285Y60613D01*
X8700Y60729D01*
X6300D01*
X5715Y60613D01*
X5219Y60281D01*
X5020Y59984D01*
X4520Y60135D01*
Y63963D01*
X20808D01*
X20841Y63463D01*
D02*
G37*
G36*
X36498Y43942D02*
X38037Y43475D01*
X39455Y42717D01*
X40328Y42001D01*
X40689Y41667D01*
X40689Y41667D01*
X41927Y40651D01*
X42932Y40114D01*
X42807Y39614D01*
X38427D01*
X38181Y39981D01*
X37685Y40313D01*
X37100Y40429D01*
X36515Y40313D01*
X36019Y39981D01*
X35423Y39924D01*
X35253Y40129D01*
X35158Y40852D01*
X34879Y41526D01*
X34435Y42105D01*
X33856Y42549D01*
X33182Y42829D01*
X32458Y42924D01*
X32458Y42924D01*
X31966Y42942D01*
X31445Y43046D01*
X31122Y43329D01*
X31261Y43795D01*
X35050D01*
X35343Y43854D01*
X35591Y44019D01*
X35598Y44031D01*
X36498Y43942D01*
D02*
G37*
G36*
X71647Y34653D02*
X71754Y34122D01*
X71671Y33700D01*
X71730Y33403D01*
X71338Y32956D01*
X71151Y32983D01*
X71119Y33146D01*
X70809Y33609D01*
X70346Y33919D01*
X69800Y34027D01*
X69254Y33919D01*
X68791Y33609D01*
X68481Y33146D01*
X68373Y32600D01*
X68481Y32054D01*
X68791Y31591D01*
X69254Y31281D01*
X69800Y31173D01*
X70346Y31281D01*
X70474Y31366D01*
X70683Y31280D01*
X71490Y31173D01*
X71490Y31173D01*
Y31186D01*
X71490Y31186D01*
X79174D01*
Y31179D01*
X79754Y31064D01*
X79848Y31001D01*
X80233Y30721D01*
X80233Y30722D01*
X80826Y30266D01*
X80702Y29731D01*
X80658Y29723D01*
X80096Y29347D01*
X79720Y28785D01*
X79588Y28121D01*
X79720Y27458D01*
X80096Y26896D01*
X80658Y26520D01*
X81321Y26388D01*
X81985Y26520D01*
X82128Y26616D01*
X82420Y26480D01*
X82595Y26326D01*
Y25907D01*
X82653Y25616D01*
X82818Y25369D01*
Y24968D01*
X82653Y24721D01*
X82595Y24430D01*
Y23938D01*
X82653Y23647D01*
X82818Y23400D01*
Y23000D01*
X82653Y22753D01*
X82595Y22462D01*
Y21970D01*
X82653Y21679D01*
X82809Y21445D01*
X82788Y21361D01*
X82622Y20961D01*
X81807D01*
X81609Y21257D01*
X81146Y21566D01*
X80600Y21675D01*
X80054Y21566D01*
X79591Y21257D01*
X79281Y20794D01*
X79173Y20247D01*
X79281Y19701D01*
X79591Y19238D01*
X80054Y18928D01*
X80600Y18820D01*
X80745Y18675D01*
X80671Y18300D01*
X80787Y17715D01*
X81119Y17219D01*
X81230Y17144D01*
X81174Y16580D01*
X80946Y16485D01*
X80080Y15820D01*
Y15820D01*
X80079Y15804D01*
X79445Y15318D01*
X78697Y15008D01*
X77893Y14902D01*
Y14892D01*
X70214D01*
Y14918D01*
X70162Y14908D01*
X69846Y15119D01*
X69300Y15227D01*
X68754Y15119D01*
X68291Y14809D01*
X67981Y14346D01*
X67873Y13800D01*
X67981Y13254D01*
X68291Y12791D01*
X68754Y12481D01*
X69300Y12373D01*
X69846Y12481D01*
X70309Y12791D01*
X70619Y13254D01*
X70661Y13465D01*
X75115D01*
X75267Y12965D01*
X75008Y12792D01*
X74676Y12296D01*
X74572Y11771D01*
X74399Y11805D01*
X73907D01*
X73616Y11747D01*
X73369Y11582D01*
X72968D01*
X72721Y11747D01*
X72430Y11805D01*
X71938D01*
X71647Y11747D01*
X71400Y11582D01*
X71000D01*
X70753Y11747D01*
X70462Y11805D01*
X69970D01*
X69679Y11747D01*
X69432Y11582D01*
X69031D01*
X68784Y11747D01*
X68493Y11805D01*
X68001D01*
X67798Y11765D01*
X67627Y11855D01*
X67304Y12221D01*
X67204Y12720D01*
X66922Y13143D01*
X66499Y13426D01*
X66000Y13525D01*
Y13520D01*
X65362D01*
X64812Y13942D01*
X63738Y14386D01*
X62983Y14486D01*
X62942Y14690D01*
X62721Y15021D01*
X62145Y15597D01*
X62145Y15597D01*
X62151Y15604D01*
X61253Y16340D01*
X61233Y16351D01*
X61127Y16840D01*
X61489Y17312D01*
X61896Y18294D01*
X62035Y19348D01*
X62020D01*
Y20424D01*
Y32800D01*
X62044D01*
X61871Y33669D01*
X61462Y34280D01*
X61777Y34623D01*
X61816Y34650D01*
X62096Y34595D01*
X62588D01*
X62879Y34653D01*
X63126Y34818D01*
X63526D01*
X63773Y34653D01*
X64064Y34595D01*
X64556D01*
X64847Y34653D01*
X65094Y34818D01*
X65495D01*
X65742Y34653D01*
X66033Y34595D01*
X66525D01*
X66816Y34653D01*
X67063Y34818D01*
X67463D01*
X67710Y34653D01*
X68001Y34595D01*
X68493D01*
X68784Y34653D01*
X69031Y34818D01*
X69432D01*
X69679Y34653D01*
X69970Y34595D01*
X70462D01*
X70753Y34653D01*
X71000Y34818D01*
X71400D01*
X71647Y34653D01*
D02*
G37*
%LPC*%
G36*
X58500Y79520D02*
X57500D01*
X57110Y79442D01*
X56901Y79303D01*
X56885Y79313D01*
X56300Y79429D01*
X55715Y79313D01*
X55219Y78981D01*
X54887Y78485D01*
X54771Y77900D01*
X54887Y77315D01*
X55219Y76819D01*
X55715Y76487D01*
X56300Y76371D01*
X56885Y76487D01*
X57051Y76597D01*
X57110Y76558D01*
X57500Y76480D01*
X58500D01*
X58890Y76558D01*
X59221Y76779D01*
X59442Y77110D01*
X59520Y77500D01*
Y78500D01*
X59442Y78890D01*
X59221Y79221D01*
X58890Y79442D01*
X58500Y79520D01*
D02*
G37*
G36*
Y75520D02*
X57500D01*
X57110Y75442D01*
X56779Y75221D01*
X56558Y74890D01*
X56480Y74500D01*
Y74028D01*
X56094Y73711D01*
X56000Y73729D01*
X55415Y73613D01*
X54919Y73281D01*
X54587Y72785D01*
X54471Y72200D01*
X54587Y71615D01*
X54919Y71119D01*
X55415Y70787D01*
X56000Y70671D01*
X56585Y70787D01*
X57081Y71119D01*
X57413Y71615D01*
X57529Y72200D01*
X57983Y72480D01*
X58500D01*
X58890Y72558D01*
X59221Y72779D01*
X59442Y73110D01*
X59520Y73500D01*
Y74500D01*
X59442Y74890D01*
X59221Y75221D01*
X58890Y75442D01*
X58500Y75520D01*
D02*
G37*
G36*
X65079Y63965D02*
X64692Y63888D01*
X64363Y63669D01*
X64144Y63341D01*
X64067Y62954D01*
Y61182D01*
X64144Y60795D01*
X64363Y60467D01*
X64692Y60247D01*
X65079Y60170D01*
X65466Y60247D01*
X65794Y60467D01*
X66013Y60795D01*
X66090Y61182D01*
Y62954D01*
X66013Y63341D01*
X65794Y63669D01*
X65466Y63888D01*
X65079Y63965D01*
D02*
G37*
G36*
X51200Y57529D02*
X50615Y57413D01*
X50119Y57081D01*
X49787Y56585D01*
X49671Y56000D01*
X49787Y55415D01*
X50119Y54919D01*
X50615Y54587D01*
X51200Y54471D01*
X51785Y54587D01*
X52281Y54919D01*
X52561Y55336D01*
X55726D01*
X55891Y55091D01*
X56354Y54781D01*
X56900Y54673D01*
X57446Y54781D01*
X57909Y55091D01*
X58219Y55554D01*
X58327Y56100D01*
X58219Y56646D01*
X57909Y57109D01*
X57446Y57419D01*
X56900Y57527D01*
X56354Y57419D01*
X55891Y57109D01*
X55660Y56764D01*
X52494D01*
X52281Y57081D01*
X51785Y57413D01*
X51200Y57529D01*
D02*
G37*
G36*
X61800Y62033D02*
X61137Y61901D01*
X60574Y61526D01*
X60199Y60963D01*
X60067Y60300D01*
X60199Y59637D01*
X60270Y59530D01*
X60131Y59437D01*
X59912Y59108D01*
X59835Y58721D01*
X59912Y58334D01*
X60131Y58006D01*
Y57468D01*
X59912Y57140D01*
X59835Y56753D01*
X59912Y56366D01*
X60131Y56037D01*
Y55500D01*
X59912Y55171D01*
X59835Y54784D01*
X59912Y54397D01*
X60131Y54069D01*
Y53531D01*
X59912Y53203D01*
X59835Y52816D01*
X59912Y52429D01*
X60131Y52100D01*
Y51562D01*
X59912Y51234D01*
X59835Y50847D01*
X59912Y50460D01*
X60131Y50132D01*
X60459Y49913D01*
X60847Y49836D01*
X62618D01*
X63005Y49913D01*
X63333Y50132D01*
X63553Y50460D01*
X63630Y50847D01*
X63553Y51234D01*
X63333Y51562D01*
Y52100D01*
X63553Y52429D01*
X63630Y52816D01*
X63553Y53203D01*
X63333Y53531D01*
Y54069D01*
X63553Y54397D01*
X63630Y54784D01*
X63553Y55171D01*
X63333Y55500D01*
Y56037D01*
X63553Y56366D01*
X63630Y56753D01*
X63553Y57140D01*
X63333Y57468D01*
Y58006D01*
X63553Y58334D01*
X63630Y58721D01*
X63553Y59108D01*
X63333Y59437D01*
X63288Y59467D01*
X63401Y59637D01*
X63533Y60300D01*
X63401Y60963D01*
X63026Y61526D01*
X62463Y61901D01*
X61800Y62033D01*
D02*
G37*
G36*
X21500Y51983D02*
X20837Y51851D01*
X20274Y51476D01*
X19899Y50913D01*
X19767Y50250D01*
X19899Y49587D01*
X20274Y49024D01*
X20837Y48649D01*
X21500Y48517D01*
X22163Y48649D01*
X22726Y49024D01*
X23101Y49587D01*
X23233Y50250D01*
X23101Y50913D01*
X22726Y51476D01*
X22163Y51851D01*
X21500Y51983D01*
D02*
G37*
G36*
X93500Y91520D02*
X92500D01*
X92110Y91442D01*
X91779Y91221D01*
X91558Y90890D01*
X91480Y90500D01*
Y89500D01*
X91558Y89110D01*
X91779Y88779D01*
X92110Y88558D01*
X92449Y88491D01*
Y85945D01*
X92441Y85905D01*
Y85104D01*
X92174Y84926D01*
X91799Y84363D01*
X91667Y83700D01*
X91799Y83037D01*
X92174Y82474D01*
X92737Y82099D01*
X93400Y81967D01*
X94063Y82099D01*
X94626Y82474D01*
X95001Y83037D01*
X95133Y83700D01*
X95001Y84363D01*
X94993Y84375D01*
X95278Y84850D01*
X96191Y84760D01*
X97541Y84350D01*
X98786Y83685D01*
X98804Y83670D01*
X98786Y83582D01*
X98918Y82918D01*
X99294Y82356D01*
X99856Y81980D01*
X100519Y81849D01*
X100631Y81871D01*
X100772Y81699D01*
X101437Y80455D01*
X101846Y79104D01*
X101858Y78982D01*
X101774Y78926D01*
X101399Y78363D01*
X101267Y77700D01*
X101399Y77037D01*
X101694Y76594D01*
X101558Y76390D01*
X101480Y76000D01*
Y75000D01*
X101558Y74610D01*
X101779Y74279D01*
X102110Y74058D01*
X102500Y73980D01*
X103500D01*
X103890Y74058D01*
X104221Y74279D01*
X104442Y74610D01*
X104520Y75000D01*
Y76000D01*
X104442Y76390D01*
X104306Y76594D01*
X104601Y77037D01*
X104733Y77700D01*
X104601Y78363D01*
X104226Y78926D01*
X103903Y79141D01*
X103867Y79506D01*
X103340Y81243D01*
X102484Y82843D01*
X102180Y83215D01*
X102253Y83582D01*
X102121Y84245D01*
X101745Y84807D01*
X101183Y85183D01*
X100519Y85315D01*
X100126Y85237D01*
X99930Y85398D01*
X98330Y86253D01*
X96593Y86780D01*
X94787Y86958D01*
X94488Y87334D01*
Y88869D01*
X94491D01*
X94452Y89162D01*
X94520Y89500D01*
Y90500D01*
X94442Y90890D01*
X94221Y91221D01*
X93890Y91442D01*
X93500Y91520D01*
D02*
G37*
G36*
X102400Y29433D02*
X101737Y29301D01*
X101174Y28926D01*
X100799Y28363D01*
X100667Y27700D01*
X100799Y27037D01*
X100472Y26625D01*
X100460Y26617D01*
X100219Y26256D01*
X100134Y25831D01*
Y24650D01*
X100219Y24224D01*
X100460Y23863D01*
X100821Y23622D01*
X101246Y23538D01*
X103565D01*
X103990Y23622D01*
X104351Y23863D01*
X104592Y24224D01*
X104677Y24650D01*
Y25831D01*
X104592Y26256D01*
X104351Y26617D01*
X104331Y26630D01*
X104001Y27037D01*
X104133Y27700D01*
X104001Y28363D01*
X103626Y28926D01*
X103063Y29301D01*
X102400Y29433D01*
D02*
G37*
G36*
X103565Y19462D02*
X101246D01*
X100821Y19378D01*
X100460Y19137D01*
X100219Y18776D01*
X100134Y18350D01*
Y17169D01*
X100219Y16744D01*
X100460Y16383D01*
X100647Y16258D01*
X100852Y15665D01*
X100804Y15593D01*
X100672Y14930D01*
X100804Y14267D01*
X101081Y13853D01*
X101185Y13321D01*
X100963Y12990D01*
X100886Y12600D01*
Y11600D01*
X100963Y11210D01*
X101185Y10879D01*
X101515Y10658D01*
X101906Y10580D01*
X102905D01*
X103296Y10658D01*
X103627Y10879D01*
X103848Y11210D01*
X103925Y11600D01*
Y12600D01*
X103848Y12990D01*
X103627Y13321D01*
X103730Y13853D01*
X104007Y14267D01*
X104139Y14930D01*
X104007Y15593D01*
X103959Y15665D01*
X104164Y16258D01*
X104351Y16383D01*
X104592Y16744D01*
X104677Y17169D01*
Y18350D01*
X104592Y18776D01*
X104351Y19137D01*
X103990Y19378D01*
X103565Y19462D01*
D02*
G37*
%LPD*%
D11*
X70732Y74250D02*
Y75850D01*
X69368Y72468D02*
Y72886D01*
X70732Y75850D02*
X71031Y76150D01*
X69368Y72886D02*
X70732Y74250D01*
X69100Y72200D02*
X69368Y72468D01*
D17*
X93200Y60522D02*
G03*
X93048Y60568I-830J-2452D01*
G01*
D02*
G03*
X92369Y60658I-679J-2498D01*
G01*
X94200Y59900D02*
G03*
X93200Y60522I-1831J-1831D01*
G01*
X84035Y71505D02*
G03*
X84024Y71519I-780J-626D01*
G01*
X82100Y77700D02*
G03*
X79293Y76537I0J-3970D01*
G01*
X82250Y75233D02*
G03*
X82542Y74141I8044J1561D01*
G01*
X82100Y76794D02*
G03*
X82250Y75233I8194J0D01*
G01*
X82653Y73836D02*
G03*
X82634Y73880I-931J-365D01*
G01*
X82556Y74096D02*
G03*
X82542Y74141I-962J-275D01*
G01*
X82653Y73836D02*
G03*
X84024Y71519I7642J2958D01*
G01*
X82556Y74096D02*
G03*
X82634Y73880I1445J404D01*
G01*
X91155Y42942D02*
G03*
X95397Y44697I0J6003D01*
G01*
X29100Y57800D02*
G03*
X30279Y56621I1179J0D01*
G01*
X31000Y63200D02*
G03*
X29100Y61300I0J-1900D01*
G01*
X26169Y54653D02*
G03*
X25800Y54500I0J-521D01*
G01*
X67400Y64300D02*
G03*
X67047Y63448I852J-852D01*
G01*
X67400Y64300D02*
G03*
X67850Y65386I-1086J1086D01*
G01*
X95397Y44697D02*
G03*
X95400Y44700I-4242J4248D01*
G01*
X93468Y88869D02*
G03*
X93000Y90000I-1600J0D01*
G01*
X96300Y8800D02*
G03*
X93000Y12100I-3300J0D01*
G01*
X91005Y14095D02*
G03*
X93000Y12100I1994J0D01*
G01*
X74850Y66300D02*
G03*
X72550Y68600I-2300J0D01*
G01*
X67150D02*
G03*
X64850Y66300I0J-2300D01*
G01*
X103000Y77700D02*
G03*
X94787Y85913I-8213J0D01*
G01*
X74604Y66054D02*
G03*
X72953Y62068I3986J-3986D01*
G01*
X64998Y12502D02*
G03*
X62586Y13500I-2412J-2417D01*
G01*
X66279Y12221D02*
G03*
X66000Y12500I-279J0D01*
G01*
X65000D02*
G03*
X64310Y11810I0J-690D01*
G01*
X65000Y12500D02*
G03*
X64998Y12502I-2414J-2414D01*
G01*
X50500Y23500D02*
G03*
X53000Y26000I0J2500D01*
G01*
X54576Y23424D02*
G03*
X57493Y22216I2918J2918D01*
G01*
X53000Y26000D02*
G03*
X53707Y24293I2414J0D01*
G01*
X46000Y26000D02*
G03*
X48500Y23500I2500J0D01*
G01*
X60090Y21334D02*
G03*
X57962Y22216I-2128J-2128D01*
G01*
Y16310D02*
G03*
X61000Y19348I0J3038D01*
G01*
X61424Y14876D02*
G03*
X57962Y16310I-3462J-3462D01*
G01*
X61722Y13223D02*
G03*
X60373Y9962I3265J-3261D01*
G01*
X61725Y13225D02*
G03*
X61722Y13223I3263J-3263D01*
G01*
X66279Y9962D02*
G03*
X69140Y7100I2862J0D01*
G01*
X88999Y8599D02*
G03*
X89000Y8600I-3621J3622D01*
G01*
X85379Y7100D02*
G03*
X88999Y8599I0J5121D01*
G01*
X87714Y14886D02*
G03*
X89000Y12100I4425J353D01*
G01*
X87700Y15238D02*
G03*
X87714Y14886I4439J0D01*
G01*
X61000Y32800D02*
G03*
X59773Y34027I-1227J0D01*
G01*
X87700Y20922D02*
G03*
X84438Y24184I-3262J0D01*
G01*
X61800Y7800D02*
G03*
X62342Y9108I-1308J1308D01*
G01*
X60352Y7200D02*
G03*
X61800Y7800I0J2049D01*
G01*
X55881Y8119D02*
G03*
X58100Y7200I2219J2219D01*
G01*
X55121Y8879D02*
G03*
X50000Y11000I-5121J-5121D01*
G01*
X89279Y60658D02*
X92369D01*
X84035Y71505D02*
Y71505D01*
Y71500D02*
Y71505D01*
Y71500D02*
X84500Y71000D01*
X84500Y71000D01*
X82100Y77700D02*
Y79344D01*
Y76794D02*
Y77700D01*
X78905Y76150D02*
X79293Y76537D01*
X102406Y12100D02*
Y17760D01*
X89279Y42942D02*
X91155D01*
X31000Y63200D02*
X38400D01*
X30279Y56621D02*
X32800D01*
X38400Y63200D02*
X38500Y63100D01*
X29100Y57800D02*
Y61300D01*
X26169Y54653D02*
X32800D01*
X67047Y62068D02*
Y63448D01*
X67850Y65386D02*
Y66300D01*
X78268Y48879D02*
X78276D01*
X78284Y47616D02*
Y48871D01*
X78276Y48879D02*
X78284Y48871D01*
Y47616D02*
X78300Y47600D01*
X61724Y48879D02*
X61732D01*
X61716Y47616D02*
Y48871D01*
X61724Y48879D01*
X61700Y47600D02*
X61716Y47616D01*
X91005Y14095D02*
Y14907D01*
X93468Y85913D02*
X94787D01*
X93468D02*
Y88869D01*
X61732Y58721D02*
X61758D01*
X61766Y58729D02*
Y60266D01*
X61758Y58721D02*
X61766Y58729D01*
Y60266D02*
X61800Y60300D01*
X96300Y8600D02*
Y8800D01*
X82100Y79344D02*
X82150Y79395D01*
X89279Y60658D02*
Y61839D01*
Y41761D02*
Y42942D01*
X102403Y25243D02*
X102406Y25240D01*
X102400Y27700D02*
X102403Y27697D01*
Y25243D02*
Y27697D01*
X67150Y68600D02*
X72550D01*
X74604Y66054D02*
X74850Y66300D01*
X103000Y75500D02*
Y77700D01*
X93461Y83761D02*
Y85905D01*
X93468Y85913D01*
X93400Y83700D02*
X93461Y83761D01*
X66279Y9962D02*
Y12221D01*
X65000Y12500D02*
X66000D01*
X39000Y26000D02*
X42000D01*
X53707Y24293D02*
X54576Y23424D01*
X48500Y23500D02*
X50500D01*
X57493Y22216D02*
X57962D01*
X60090Y21334D02*
X61000Y20424D01*
Y32800D01*
Y19348D02*
Y20424D01*
X62000Y13500D02*
X62586D01*
X61424Y14876D02*
X62000Y14300D01*
X61725Y13225D02*
X62000Y13500D01*
X64310Y9962D02*
Y11810D01*
X69140Y7100D02*
X85379D01*
X89000Y8600D02*
Y12100D01*
X87700Y15238D02*
Y20922D01*
X57962Y34027D02*
X59773D01*
X62000Y13500D02*
Y14300D01*
X58100Y7200D02*
X60352D01*
X55121Y8879D02*
X55881Y8119D01*
X62342Y9108D02*
Y10162D01*
D18*
X46600Y94900D02*
D03*
D19*
X73000Y85300D02*
D03*
X70000Y53800D02*
D03*
D20*
X63850Y79395D02*
D03*
Y81363D02*
D03*
Y83332D02*
D03*
Y85300D02*
D03*
Y87269D02*
D03*
Y89237D02*
D03*
Y91206D02*
D03*
X82150D02*
D03*
Y89237D02*
D03*
Y87269D02*
D03*
Y85300D02*
D03*
Y83332D02*
D03*
Y81363D02*
D03*
Y79395D02*
D03*
D21*
X67094Y94450D02*
D03*
X69063D02*
D03*
X71031D02*
D03*
X73000D02*
D03*
X74968D02*
D03*
X76937D02*
D03*
X78905D02*
D03*
Y76150D02*
D03*
X76937D02*
D03*
X74968D02*
D03*
X73000D02*
D03*
X71031D02*
D03*
X69063D02*
D03*
X67094D02*
D03*
D22*
X71200Y23200D02*
D03*
D23*
X60373Y9962D02*
D03*
X62342D02*
D03*
X64310D02*
D03*
X66279D02*
D03*
X68247D02*
D03*
X70216D02*
D03*
X72184D02*
D03*
X74153D02*
D03*
X76121D02*
D03*
X78090D02*
D03*
X80058D02*
D03*
X82027D02*
D03*
Y36438D02*
D03*
X80058D02*
D03*
X78090D02*
D03*
X76121D02*
D03*
X74153D02*
D03*
X72184D02*
D03*
X70216D02*
D03*
X68247D02*
D03*
X66279D02*
D03*
X64310D02*
D03*
X62342D02*
D03*
X60373D02*
D03*
D24*
X84438Y12373D02*
D03*
Y14342D02*
D03*
Y16310D02*
D03*
Y18279D02*
D03*
Y20247D02*
D03*
Y22216D02*
D03*
Y24184D02*
D03*
Y26153D02*
D03*
Y28121D02*
D03*
Y30090D02*
D03*
Y32058D02*
D03*
Y34027D02*
D03*
X57962D02*
D03*
Y32058D02*
D03*
Y30090D02*
D03*
Y28121D02*
D03*
Y26153D02*
D03*
Y24184D02*
D03*
Y22216D02*
D03*
Y20247D02*
D03*
Y18279D02*
D03*
Y16310D02*
D03*
Y14342D02*
D03*
Y12373D02*
D03*
D25*
X78268Y48879D02*
D03*
Y50847D02*
D03*
Y52816D02*
D03*
Y54784D02*
D03*
Y56753D02*
D03*
Y58721D02*
D03*
X61732D02*
D03*
Y56753D02*
D03*
Y54784D02*
D03*
Y52816D02*
D03*
Y50847D02*
D03*
Y48879D02*
D03*
D26*
X74921Y62068D02*
D03*
X72953D02*
D03*
X70984D02*
D03*
X69016D02*
D03*
X67047D02*
D03*
X65079D02*
D03*
Y45532D02*
D03*
X67047D02*
D03*
X69016D02*
D03*
X70984D02*
D03*
X72953D02*
D03*
X74921D02*
D03*
D27*
X91005Y25240D02*
D03*
Y17760D02*
D03*
X102406D02*
D03*
Y21500D02*
D03*
Y25240D02*
D03*
D28*
X89000Y8600D02*
D03*
X93000D02*
D03*
X89000Y90000D02*
D03*
X93000D02*
D03*
X103000Y75500D02*
D03*
X99000D02*
D03*
X102406Y12100D02*
D03*
X98405D02*
D03*
X96300Y8600D02*
D03*
X100300D02*
D03*
X89000Y12100D02*
D03*
X93000D02*
D03*
X53000Y26000D02*
D03*
X49000D02*
D03*
X48150Y78100D02*
D03*
X52150D02*
D03*
X44650D02*
D03*
X40650D02*
D03*
X42000Y26000D02*
D03*
X46000D02*
D03*
X35000D02*
D03*
X39000D02*
D03*
X78850Y66300D02*
D03*
X74850D02*
D03*
X67850D02*
D03*
X71850D02*
D03*
X64850D02*
D03*
X60850D02*
D03*
D29*
X89279Y38611D02*
D03*
Y39792D02*
D03*
Y41761D02*
D03*
Y42942D02*
D03*
Y44910D02*
D03*
Y46879D02*
D03*
Y48847D02*
D03*
Y50816D02*
D03*
Y52784D02*
D03*
Y54753D02*
D03*
Y56721D02*
D03*
Y58690D02*
D03*
Y60658D02*
D03*
Y61839D02*
D03*
Y63808D02*
D03*
Y64989D02*
D03*
D30*
X7500Y58200D02*
D03*
Y45200D02*
D03*
X25500D02*
D03*
Y58200D02*
D03*
D31*
X93468Y75087D02*
D03*
X91500D02*
D03*
X89531D02*
D03*
Y85913D02*
D03*
X91500D02*
D03*
X93468D02*
D03*
D32*
X45200Y70263D02*
D03*
Y33137D02*
D03*
D33*
X32800Y58590D02*
D03*
Y56621D02*
D03*
Y54653D02*
D03*
Y52684D02*
D03*
Y50716D02*
D03*
Y48747D02*
D03*
Y46779D02*
D03*
Y44810D02*
D03*
D34*
X84500Y75000D02*
D03*
Y71000D02*
D03*
X58000Y78000D02*
D03*
Y74000D02*
D03*
X57000Y42000D02*
D03*
Y46000D02*
D03*
D35*
X35910Y83171D02*
D03*
X43390Y83171D02*
D03*
X39650Y92029D02*
D03*
X49410Y83171D02*
D03*
X56890Y83171D02*
D03*
X53150Y92029D02*
D03*
D36*
X29909Y11000D02*
D03*
X50000D02*
D03*
D60*
X60373Y36438D02*
G03*
X60224Y36500I-149J-149D01*
G01*
X34530Y40129D02*
G03*
X32458Y42200I-2071J0D01*
G01*
X34795Y38777D02*
G03*
X34933Y38616I1112J813D01*
G01*
X34530Y39590D02*
G03*
X34795Y38777I1378J0D01*
G01*
X29600Y44560D02*
G03*
X29623Y44350I950J0D01*
G01*
X29628Y44324D02*
G03*
X32100Y42200I2472J376D01*
G01*
X29624Y44349D02*
G03*
X29623Y44350I-391J-86D01*
G01*
X29628Y44324D02*
G03*
X29624Y44349I-395J-61D01*
G01*
X28600Y42304D02*
G03*
X34536Y36369I5935J0D01*
G01*
X31316Y50716D02*
G03*
X28600Y48000I0J-2716D01*
G01*
X17900Y50742D02*
G03*
X20829Y43671I10000J0D01*
G01*
X83287Y9793D02*
G03*
X82306Y9962I-981J-2774D01*
G01*
X84387Y9100D02*
G03*
X83287Y9793I-2081J-2081D01*
G01*
X80755Y31245D02*
G03*
X79174Y31900I-1582J-1582D01*
G01*
X69800Y32600D02*
G03*
X71490Y31900I1690J1690D01*
G01*
X54392Y27631D02*
G03*
X57962Y26153I3570J3570D01*
G01*
X52600Y31460D02*
G03*
X54040Y27984I4916J0D01*
G01*
X36408Y37108D02*
G03*
X37877Y36500I1468J1468D01*
G01*
X30845Y48747D02*
G03*
X30827Y48747I0J-1245D01*
G01*
D02*
G03*
X29600Y47502I19J-1245D01*
G01*
X70214Y14179D02*
G03*
X69300Y13800I0J-1293D01*
G01*
X77893Y14179D02*
G03*
X80600Y15300I0J3828D01*
G01*
X83039Y16310D02*
G03*
X80600Y15300I0J-3449D01*
G01*
X55900Y85900D02*
G03*
X53100Y83100I0J-2800D01*
G01*
X40200Y50200D02*
G03*
X34203Y52684I-5997J-5997D01*
G01*
X80755Y31245D02*
G03*
X83547Y30090I2792J2796D01*
G01*
X70004Y64454D02*
G03*
X69016Y62068I2387J-2387D01*
G01*
X55300Y30627D02*
G03*
X57806Y28121I2506J0D01*
G01*
X87356Y24944D02*
G03*
X84438Y26153I-2918J-2918D01*
G01*
X39650Y92029D02*
G03*
X29900Y82279I0J-9750D01*
G01*
X21400Y62800D02*
G03*
X29900Y71300I0J8500D01*
G01*
X21400Y62800D02*
G03*
X17900Y59300I0J-3500D01*
G01*
X38146Y26354D02*
G03*
X39000Y26000I854J854D01*
G01*
X88596Y30704D02*
G03*
X91744Y29400I3148J3148D01*
G01*
X88596Y30704D02*
G03*
X88593Y30707I-3269J-3269D01*
G01*
D02*
G03*
X85327Y32058I-3267J-3272D01*
G01*
X94213Y77800D02*
G03*
X91500Y75087I0J-2713D01*
G01*
X98456Y76044D02*
G03*
X94213Y77800I-4243J-4247D01*
G01*
X98458Y76042D02*
G03*
X98456Y76044I-4245J-4245D01*
G01*
X44378Y75900D02*
G03*
X47064Y77014I0J3794D01*
G01*
X35910Y81328D02*
G03*
X41338Y75900I5428J0D01*
G01*
X78375Y42000D02*
G03*
X82068Y45693I0J3693D01*
G01*
X73858Y43346D02*
G03*
X77106Y42000I3248J3245D01*
G01*
X72953Y45532D02*
G03*
X73856Y43348I3094J0D01*
G01*
X88016Y69410D02*
G03*
X81946Y54666I14648J-14653D01*
G01*
X84921Y68121D02*
G03*
X80346Y57063I11047J-11047D01*
G01*
X91941Y72441D02*
G03*
X93468Y73968I0J1527D01*
G01*
X91941Y72441D02*
G03*
X90414Y71807I0J-2157D01*
G01*
X85670Y11141D02*
G03*
X86011Y11000I341J341D01*
G01*
X87868Y71068D02*
G03*
X89531Y75087I-4022J4019D01*
G01*
X63850Y85300D02*
G03*
X62401Y85900I-1448J-1448D01*
G01*
X62342Y37258D02*
G03*
X60700Y38900I-1642J0D01*
G01*
X41210Y42190D02*
G03*
X46512Y40000I5301J5322D01*
G01*
X64310Y38390D02*
G03*
X62700Y40000I-1610J0D01*
G01*
X41210Y42190D02*
G03*
X34894Y44810I-6312J-6291D01*
G01*
X50223Y87269D02*
G03*
X45551Y85332I0J-6604D01*
G01*
X41742Y79192D02*
G03*
X43390Y83171I-3979J3979D01*
G01*
X84500Y75000D02*
G03*
X85200Y76690I-1690J1690D01*
G01*
X84690Y81063D02*
G03*
X83837Y81363I-853J-1063D01*
G01*
X85200Y80000D02*
G03*
X84690Y81063I-1363J0D01*
G01*
X58417Y81643D02*
G03*
X63850Y79395I5432J5437D01*
G01*
X58416Y81646D02*
G03*
X58417Y81643I5435J5435D01*
G01*
X65500Y42000D02*
G03*
X67047Y43547I0J1547D01*
G01*
X37877Y36500D02*
X56004D01*
X60373Y36213D02*
Y36438D01*
X56004Y36500D02*
X60224D01*
X34530Y39590D02*
Y40129D01*
X35469Y38080D02*
X36408Y37108D01*
X34933Y38616D02*
X35469Y38080D01*
X34933Y38616D02*
X34933Y38616D01*
X32100Y42200D02*
X32458D01*
X29600Y44560D02*
Y47502D01*
X28600Y42304D02*
Y48000D01*
X31316Y50716D02*
X32800D01*
X27154Y37346D02*
X38146Y26354D01*
X20829Y43671D02*
X27154Y37346D01*
X17900Y50742D02*
Y59300D01*
X82027Y9962D02*
X82306D01*
X42000Y22700D02*
Y26000D01*
X73363Y33863D02*
X84275D01*
X84438Y34027D01*
X73200Y33700D02*
X73363Y33863D01*
X71490Y31900D02*
X79174D01*
X19900Y58100D02*
X25400D01*
X54040Y27984D02*
X54392Y27631D01*
X52600Y31460D02*
Y34800D01*
X55300Y30627D02*
Y34600D01*
X55100Y34800D02*
X55300Y34600D01*
X30845Y48747D02*
X32800D01*
X51250Y56050D02*
X56850D01*
X51200Y56000D02*
X51250Y56050D01*
X56850D02*
X56900Y56100D01*
X53179Y92000D02*
X59900D01*
X53150Y92029D02*
X53179Y92000D01*
X60616Y83316D02*
X63550D01*
X60600Y83300D02*
X60616Y83316D01*
X63550D02*
X63558Y83324D01*
X82000Y48400D02*
X82068Y48332D01*
X81946Y48454D02*
X82000Y48400D01*
X81946Y48454D02*
Y54663D01*
X82068Y45693D02*
Y48332D01*
X70214Y14179D02*
X77893D01*
X83039Y16310D02*
X84438D01*
X53100Y82700D02*
Y83100D01*
X56350Y77950D02*
X57950D01*
X56300Y77900D02*
X56350Y77950D01*
X57950D02*
X58000Y78000D01*
X32800Y52684D02*
X34203D01*
X83547Y30090D02*
X84438D01*
X70004Y64454D02*
X71850Y66300D01*
X37100Y38900D02*
X60700D01*
X74921Y45532D02*
X74954Y45500D01*
X80300D02*
X80346Y45546D01*
Y57060D01*
X74954Y45500D02*
X80300D01*
X56100Y72200D02*
X57900Y74000D01*
X58000D01*
X56000Y72200D02*
X56100D01*
X57806Y28121D02*
X57962D01*
X87356Y24944D02*
X90600Y21700D01*
X82211Y18289D02*
X84438D01*
X29900Y71300D02*
Y82279D01*
X76105Y9978D02*
X76121Y9962D01*
X76089Y11711D02*
X76105Y11695D01*
Y9978D02*
Y11695D01*
X81321Y28121D02*
X84438D01*
X91744Y29400D02*
X92300D01*
X84438Y32058D02*
X85327D01*
X98458Y76042D02*
X99000Y75500D01*
X41338Y75900D02*
X44376D01*
X44378Y75900D01*
X47064Y77014D02*
X48150Y78100D01*
X35910Y81328D02*
Y83171D01*
X77109Y42000D02*
X78375D01*
X73856Y43348D02*
X73858Y43346D01*
X77106Y42000D02*
X77109Y42000D01*
X88016Y69410D02*
X90414Y71807D01*
X81946Y54666D02*
X81946Y54663D01*
X80346Y57063D02*
X80346Y57060D01*
X93468Y73968D02*
Y75087D01*
X84438Y12373D02*
X85670Y11141D01*
X84921Y68121D02*
X87868Y71068D01*
X25400Y58100D02*
X25500Y58200D01*
X32800Y46779D02*
X32839Y46739D01*
X44761D02*
X44800Y46700D01*
X32839Y46739D02*
X44761D01*
X80600Y20247D02*
X84438D01*
X55900Y85900D02*
X62401D01*
X62342Y36438D02*
Y37258D01*
X46512Y40000D02*
X46515Y40000D01*
X62700D01*
X64310Y36438D02*
Y38390D01*
X34894Y44810D02*
Y44810D01*
X41210Y42190D02*
X41210Y42190D01*
X82200Y18300D02*
X82211Y18289D01*
X50223Y87269D02*
X63850D01*
X43390Y83171D02*
X45551Y85332D01*
X40650Y78100D02*
X41742Y79192D01*
X85200Y76690D02*
Y80000D01*
X82150Y81363D02*
X83837D01*
X52150Y78431D02*
X56890Y83171D01*
X58416Y81646D01*
X67047Y43547D02*
Y45532D01*
X57000Y42000D02*
X65500D01*
X32800Y44810D02*
X34894D01*
X52150Y78100D02*
Y78431D01*
X44650Y78100D02*
Y78411D01*
X49410Y83171D01*
D61*
X34933Y38616D02*
D03*
D62*
X75700Y73700D02*
G03*
X77873Y72800I2173J2173D01*
G01*
X74968Y75466D02*
G03*
X75700Y73700I2497J0D01*
G01*
X93200Y48900D02*
G03*
X94034Y49734I0J834D01*
G01*
X78000Y69731D02*
G03*
X73014Y71796I-4986J-4986D01*
G01*
X72900D02*
G03*
X73000Y72038I-241J241D01*
G01*
X86553Y54753D02*
G03*
X84500Y52700I0J-2053D01*
G01*
D02*
G03*
X86384Y50816I1884J0D01*
G01*
X77873Y72800D02*
X78000D01*
X77963Y72837D02*
X78000Y72800D01*
X74968Y75466D02*
Y76150D01*
X89279Y48900D02*
X93200D01*
X89279Y52784D02*
X94034D01*
X72900Y71796D02*
X73014D01*
X86384Y50816D02*
X89279D01*
X84724Y52700D02*
X84990Y52966D01*
Y53190D01*
X86553Y54753D02*
X89279D01*
X94034Y52784D02*
Y52839D01*
Y49734D02*
Y52784D01*
X89279Y48847D02*
Y48900D01*
X73000Y72038D02*
Y76150D01*
D63*
X42100Y56800D02*
G03*
X37779Y58590I-4321J-4321D01*
G01*
X32800D02*
X37779D01*
D64*
X91046Y17800D02*
X94300D01*
X91005Y17760D02*
X91046Y17800D01*
D65*
X91005Y14907D02*
Y17760D01*
D66*
X7500Y58200D02*
X11700D01*
D67*
X72900Y40300D02*
D03*
D68*
Y71796D02*
D03*
D69*
X93373Y34772D02*
D03*
Y68828D02*
D03*
D70*
X109121Y34772D02*
D03*
Y68828D02*
D03*
D71*
X95342Y63178D02*
D03*
Y40422D02*
D03*
D72*
X95900Y75200D02*
D03*
X41700Y63100D02*
D03*
X38500D02*
D03*
X61800Y60300D02*
D03*
X30600Y91000D02*
D03*
X95408Y11056D02*
D03*
X82100Y77700D02*
D03*
X102400Y27700D02*
D03*
X102406Y14930D02*
D03*
X16200Y60756D02*
D03*
X21500Y50250D02*
D03*
X66300Y68800D02*
D03*
X69850Y68600D02*
D03*
X93400Y83700D02*
D03*
X100519Y83582D02*
D03*
X103000Y77700D02*
D03*
X81321Y28121D02*
D03*
D73*
X46700Y90700D02*
D03*
X91500Y8500D02*
D03*
X84387Y9100D02*
D03*
X42000Y22700D02*
D03*
X73200Y33700D02*
D03*
X84500Y52700D02*
D03*
X19900Y58100D02*
D03*
X47249Y30018D02*
D03*
X55100Y34800D02*
D03*
X52600D02*
D03*
X34536Y36369D02*
D03*
X51200Y56000D02*
D03*
X78000Y69731D02*
D03*
Y72800D02*
D03*
X69100Y72200D02*
D03*
X59900Y92000D02*
D03*
X60600Y83300D02*
D03*
X94034Y52839D02*
D03*
X31119Y39981D02*
D03*
X90500Y84400D02*
D03*
X92800Y39000D02*
D03*
X104900Y21500D02*
D03*
X35100Y65200D02*
D03*
X67400Y64300D02*
D03*
X78300Y47600D02*
D03*
X61700D02*
D03*
X97800Y54700D02*
D03*
X83900Y45700D02*
D03*
X81200Y40000D02*
D03*
X97800Y48000D02*
D03*
X34000Y94500D02*
D03*
X28800Y86300D02*
D03*
X39500Y83200D02*
D03*
X78100Y63600D02*
D03*
X60800Y71000D02*
D03*
X40400Y65900D02*
D03*
Y73700D02*
D03*
X49800D02*
D03*
X40800Y30700D02*
D03*
X35800Y22900D02*
D03*
X30400Y30400D02*
D03*
X38200Y34300D02*
D03*
X44800Y42700D02*
D03*
X37300Y42000D02*
D03*
X12500Y44900D02*
D03*
Y50200D02*
D03*
X57000Y62900D02*
D03*
X49800Y65900D02*
D03*
X48700Y56000D02*
D03*
X49400Y49200D02*
D03*
X45700D02*
D03*
Y56000D02*
D03*
Y62800D02*
D03*
X98500Y72800D02*
D03*
X89600Y79700D02*
D03*
X97400D02*
D03*
X86300Y83700D02*
D03*
Y88400D02*
D03*
X100800D02*
D03*
Y93300D02*
D03*
X93550D02*
D03*
X86300D02*
D03*
X73000Y89300D02*
D03*
Y85300D02*
D03*
X69200Y85200D02*
D03*
Y89300D02*
D03*
X74100Y53700D02*
D03*
Y49900D02*
D03*
X66200D02*
D03*
X70000D02*
D03*
X66200Y53700D02*
D03*
X70000Y53800D02*
D03*
X109121Y41500D02*
D03*
Y51550D02*
D03*
Y61600D02*
D03*
X96500Y21667D02*
D03*
Y25500D02*
D03*
Y14000D02*
D03*
X102600Y9300D02*
D03*
X57700Y9900D02*
D03*
X54900Y11600D02*
D03*
Y14200D02*
D03*
X53400Y16900D02*
D03*
X29800Y18600D02*
D03*
X32425D02*
D03*
X35050D02*
D03*
X37675D02*
D03*
X40300D02*
D03*
X42925D02*
D03*
X45550D02*
D03*
X48175D02*
D03*
X50800D02*
D03*
X56300Y77900D02*
D03*
X40200Y50200D02*
D03*
X37100Y38900D02*
D03*
X80300Y45500D02*
D03*
X56000Y72200D02*
D03*
X76089Y11711D02*
D03*
X92300Y29400D02*
D03*
X44800Y46700D02*
D03*
X82200Y18300D02*
D03*
X86011Y11000D02*
D03*
X53100Y82700D02*
D03*
D74*
X94200Y59900D02*
D03*
X94300Y17800D02*
D03*
X71200Y25500D02*
D03*
Y20300D02*
D03*
X65300D02*
D03*
X65500Y25500D02*
D03*
X95400Y44700D02*
D03*
X42100Y56800D02*
D03*
X11700Y58200D02*
D03*
D75*
X82000Y48400D02*
D03*
X25800Y54500D02*
D03*
X56900Y56100D02*
D03*
X90600Y21700D02*
D03*
X69300Y13800D02*
D03*
X69800Y32600D02*
D03*
X80600Y20247D02*
D03*
D76*
X91005Y14907D02*
D03*
M02*
