G04*
G04 #@! TF.GenerationSoftware,Altium Limited,Altium Designer,22.0.2 (36)*
G04*
G04 Layer_Color=32896*
%FSLAX25Y25*%
%MOIN*%
G70*
G04*
G04 #@! TF.SameCoordinates,4AEEF1EB-5C28-47D6-87F3-BA9F17CF17F5*
G04*
G04*
G04 #@! TF.FilePolarity,Positive*
G04*
G01*
G75*
%ADD11C,0.00600*%
%ADD14C,0.00100*%
G36*
X22850Y47450D02*
X24150D01*
Y47800D01*
X22850D01*
Y47450D01*
D02*
G37*
G36*
X24150Y49350D02*
X22850D01*
X22850Y49000D01*
X24150D01*
X24150Y49350D01*
D02*
G37*
G36*
X22850Y51150D02*
X24150D01*
Y51500D01*
X22850D01*
Y51150D01*
D02*
G37*
G36*
X24150Y53050D02*
X22850D01*
X22850Y52700D01*
X24150D01*
X24150Y53050D01*
D02*
G37*
G36*
X22350Y59850D02*
X23650D01*
Y60200D01*
X22350D01*
Y59850D01*
D02*
G37*
G36*
X23650Y61750D02*
X22350D01*
X22350Y61400D01*
X23650D01*
X23650Y61750D01*
D02*
G37*
G36*
X31950Y87950D02*
X33250D01*
Y88300D01*
X31950D01*
Y87950D01*
D02*
G37*
G36*
X33250Y89850D02*
X31950D01*
X31950Y89500D01*
X33250D01*
X33250Y89850D01*
D02*
G37*
G36*
X38212Y18346D02*
X38254Y18335D01*
X38291Y18323D01*
X38324Y18306D01*
X38350Y18292D01*
X38366Y18278D01*
X38380Y18267D01*
X38383Y18264D01*
X38411Y18230D01*
X38431Y18197D01*
X38448Y18160D01*
X38456Y18129D01*
X38462Y18101D01*
X38465Y18076D01*
X38467Y18062D01*
Y18059D01*
Y18056D01*
X38465Y18011D01*
X38454Y17969D01*
X38439Y17935D01*
X38425Y17905D01*
X38408Y17879D01*
X38397Y17860D01*
X38386Y17848D01*
X38383Y17846D01*
X38350Y17817D01*
X38313Y17798D01*
X38276Y17781D01*
X38240Y17773D01*
X38209Y17767D01*
X38186Y17764D01*
X38170Y17761D01*
X38164D01*
X38116Y17764D01*
X38074Y17775D01*
X38035Y17789D01*
X38004Y17803D01*
X37979Y17820D01*
X37959Y17831D01*
X37948Y17843D01*
X37945Y17846D01*
X37917Y17879D01*
X37894Y17913D01*
X37880Y17950D01*
X37869Y17983D01*
X37863Y18011D01*
X37858Y18037D01*
Y18051D01*
Y18056D01*
X37861Y18101D01*
X37872Y18141D01*
X37886Y18177D01*
X37900Y18208D01*
X37917Y18230D01*
X37931Y18250D01*
X37942Y18261D01*
X37945Y18264D01*
X37979Y18292D01*
X38015Y18312D01*
X38052Y18329D01*
X38085Y18337D01*
X38116Y18343D01*
X38142Y18349D01*
X38164D01*
X38212Y18346D01*
D02*
G37*
G36*
X31586D02*
X31628Y18335D01*
X31664Y18323D01*
X31698Y18306D01*
X31723Y18292D01*
X31740Y18278D01*
X31754Y18267D01*
X31757Y18264D01*
X31785Y18230D01*
X31805Y18197D01*
X31822Y18160D01*
X31830Y18129D01*
X31836Y18101D01*
X31839Y18076D01*
X31842Y18062D01*
Y18059D01*
Y18056D01*
X31839Y18011D01*
X31828Y17969D01*
X31813Y17935D01*
X31799Y17905D01*
X31782Y17879D01*
X31771Y17860D01*
X31760Y17848D01*
X31757Y17846D01*
X31723Y17817D01*
X31687Y17798D01*
X31651Y17781D01*
X31614Y17773D01*
X31583Y17767D01*
X31561Y17764D01*
X31544Y17761D01*
X31538D01*
X31490Y17764D01*
X31448Y17775D01*
X31409Y17789D01*
X31378Y17803D01*
X31353Y17820D01*
X31333Y17831D01*
X31322Y17843D01*
X31319Y17846D01*
X31291Y17879D01*
X31268Y17913D01*
X31254Y17950D01*
X31243Y17983D01*
X31237Y18011D01*
X31232Y18037D01*
Y18051D01*
Y18056D01*
X31235Y18101D01*
X31246Y18141D01*
X31260Y18177D01*
X31274Y18208D01*
X31291Y18230D01*
X31305Y18250D01*
X31316Y18261D01*
X31319Y18264D01*
X31353Y18292D01*
X31389Y18312D01*
X31426Y18329D01*
X31459Y18337D01*
X31490Y18343D01*
X31516Y18349D01*
X31538D01*
X31586Y18346D01*
D02*
G37*
G36*
X41182Y18169D02*
Y15390D01*
X40699D01*
Y16800D01*
X40668Y16840D01*
X40637Y16876D01*
X40606Y16907D01*
X40575Y16935D01*
X40550Y16955D01*
X40530Y16972D01*
X40516Y16983D01*
X40510Y16986D01*
X40468Y17011D01*
X40426Y17031D01*
X40390Y17045D01*
X40353Y17056D01*
X40325Y17062D01*
X40303Y17064D01*
X40283D01*
X40238Y17062D01*
X40198Y17053D01*
X40165Y17045D01*
X40139Y17033D01*
X40120Y17019D01*
X40106Y17011D01*
X40097Y17003D01*
X40095Y17000D01*
X40075Y16972D01*
X40061Y16938D01*
X40052Y16901D01*
X40044Y16862D01*
X40041Y16828D01*
X40038Y16800D01*
Y16789D01*
Y16783D01*
Y16778D01*
Y16775D01*
Y15390D01*
X39555D01*
Y16840D01*
X39558Y16893D01*
X39561Y16941D01*
X39569Y16988D01*
X39577Y17031D01*
X39589Y17073D01*
X39600Y17109D01*
X39614Y17143D01*
X39628Y17174D01*
X39642Y17199D01*
X39656Y17224D01*
X39667Y17244D01*
X39679Y17261D01*
X39687Y17272D01*
X39696Y17281D01*
X39698Y17286D01*
X39701Y17289D01*
X39729Y17317D01*
X39763Y17343D01*
X39794Y17362D01*
X39830Y17382D01*
X39867Y17399D01*
X39903Y17410D01*
X39971Y17430D01*
X40005Y17435D01*
X40036Y17441D01*
X40064Y17444D01*
X40086Y17447D01*
X40106Y17449D01*
X40134D01*
X40201Y17447D01*
X40263Y17438D01*
X40322Y17424D01*
X40373Y17410D01*
X40418Y17396D01*
X40435Y17390D01*
X40451Y17382D01*
X40463Y17379D01*
X40471Y17373D01*
X40477Y17371D01*
X40479D01*
X40536Y17340D01*
X40584Y17306D01*
X40620Y17272D01*
X40651Y17239D01*
X40673Y17210D01*
X40687Y17188D01*
X40696Y17171D01*
X40699Y17168D01*
Y18222D01*
X41182Y18169D01*
D02*
G37*
G36*
X36765D02*
Y15390D01*
X36281D01*
Y16800D01*
X36250Y16840D01*
X36219Y16876D01*
X36189Y16907D01*
X36158Y16935D01*
X36132Y16955D01*
X36113Y16972D01*
X36099Y16983D01*
X36093Y16986D01*
X36051Y17011D01*
X36009Y17031D01*
X35972Y17045D01*
X35936Y17056D01*
X35908Y17062D01*
X35885Y17064D01*
X35866D01*
X35820Y17062D01*
X35781Y17053D01*
X35747Y17045D01*
X35722Y17033D01*
X35702Y17019D01*
X35688Y17011D01*
X35680Y17003D01*
X35677Y17000D01*
X35658Y16972D01*
X35644Y16938D01*
X35635Y16901D01*
X35627Y16862D01*
X35624Y16828D01*
X35621Y16800D01*
Y16789D01*
Y16783D01*
Y16778D01*
Y16775D01*
Y15390D01*
X35138D01*
Y16840D01*
X35140Y16893D01*
X35143Y16941D01*
X35152Y16988D01*
X35160Y17031D01*
X35171Y17073D01*
X35183Y17109D01*
X35197Y17143D01*
X35211Y17174D01*
X35225Y17199D01*
X35239Y17224D01*
X35250Y17244D01*
X35261Y17261D01*
X35270Y17272D01*
X35278Y17281D01*
X35281Y17286D01*
X35284Y17289D01*
X35312Y17317D01*
X35346Y17343D01*
X35377Y17362D01*
X35413Y17382D01*
X35450Y17399D01*
X35486Y17410D01*
X35554Y17430D01*
X35587Y17435D01*
X35618Y17441D01*
X35646Y17444D01*
X35669Y17447D01*
X35688Y17449D01*
X35717D01*
X35784Y17447D01*
X35846Y17438D01*
X35905Y17424D01*
X35955Y17410D01*
X36000Y17396D01*
X36017Y17390D01*
X36034Y17382D01*
X36045Y17379D01*
X36054Y17373D01*
X36059Y17371D01*
X36062D01*
X36118Y17340D01*
X36166Y17306D01*
X36203Y17272D01*
X36234Y17239D01*
X36256Y17210D01*
X36270Y17188D01*
X36279Y17171D01*
X36281Y17168D01*
Y18222D01*
X36765Y18169D01*
D02*
G37*
G36*
X49230Y17447D02*
X49280Y17444D01*
X49373Y17427D01*
X49418Y17416D01*
X49457Y17404D01*
X49497Y17393D01*
X49531Y17379D01*
X49561Y17365D01*
X49589Y17354D01*
X49615Y17343D01*
X49635Y17331D01*
X49648Y17323D01*
X49663Y17314D01*
X49668Y17312D01*
X49671Y17309D01*
X49744Y17253D01*
X49809Y17191D01*
X49865Y17129D01*
X49910Y17070D01*
X49944Y17017D01*
X49958Y16991D01*
X49972Y16972D01*
X49980Y16955D01*
X49986Y16943D01*
X49991Y16935D01*
Y16932D01*
X50028Y16840D01*
X50056Y16747D01*
X50073Y16657D01*
X50087Y16573D01*
X50093Y16536D01*
X50095Y16500D01*
X50098Y16469D01*
Y16443D01*
X50101Y16421D01*
Y16407D01*
Y16396D01*
Y16393D01*
X50095Y16280D01*
X50084Y16176D01*
X50076Y16126D01*
X50064Y16081D01*
X50056Y16039D01*
X50045Y15999D01*
X50033Y15966D01*
X50025Y15935D01*
X50014Y15907D01*
X50005Y15884D01*
X50000Y15867D01*
X49994Y15853D01*
X49988Y15845D01*
Y15842D01*
X49941Y15758D01*
X49890Y15685D01*
X49834Y15623D01*
X49781Y15570D01*
X49755Y15547D01*
X49733Y15527D01*
X49710Y15510D01*
X49694Y15499D01*
X49677Y15488D01*
X49665Y15480D01*
X49660Y15477D01*
X49657Y15474D01*
X49615Y15451D01*
X49570Y15432D01*
X49483Y15398D01*
X49393Y15376D01*
X49311Y15359D01*
X49272Y15353D01*
X49238Y15350D01*
X49207Y15345D01*
X49179D01*
X49160Y15342D01*
X49129D01*
X49053Y15345D01*
X48980Y15353D01*
X48912Y15361D01*
X48853Y15376D01*
X48825Y15381D01*
X48803Y15387D01*
X48783Y15392D01*
X48766Y15395D01*
X48752Y15401D01*
X48741Y15404D01*
X48735Y15406D01*
X48733D01*
X48662Y15435D01*
X48598Y15465D01*
X48539Y15499D01*
X48488Y15533D01*
X48446Y15564D01*
X48429Y15578D01*
X48415Y15589D01*
X48401Y15598D01*
X48393Y15606D01*
X48390Y15609D01*
X48387Y15612D01*
X48592Y15901D01*
X48648Y15870D01*
X48699Y15842D01*
X48746Y15820D01*
X48786Y15800D01*
X48817Y15786D01*
X48842Y15777D01*
X48856Y15772D01*
X48862Y15769D01*
X48907Y15755D01*
X48949Y15746D01*
X48991Y15738D01*
X49027Y15735D01*
X49061Y15732D01*
X49086Y15730D01*
X49109D01*
X49148Y15732D01*
X49185Y15735D01*
X49252Y15749D01*
X49311Y15772D01*
X49362Y15794D01*
X49401Y15817D01*
X49418Y15828D01*
X49429Y15839D01*
X49441Y15848D01*
X49449Y15853D01*
X49452Y15859D01*
X49455D01*
X49500Y15912D01*
X49533Y15971D01*
X49559Y16033D01*
X49578Y16092D01*
X49589Y16146D01*
X49592Y16168D01*
X49595Y16188D01*
X49598Y16205D01*
X49601Y16216D01*
Y16224D01*
Y16227D01*
X48319D01*
X48317Y16269D01*
X48314Y16311D01*
X48311Y16348D01*
X48308Y16382D01*
Y16407D01*
Y16429D01*
Y16441D01*
Y16446D01*
X48314Y16556D01*
X48325Y16660D01*
X48333Y16705D01*
X48342Y16750D01*
X48350Y16789D01*
X48362Y16826D01*
X48373Y16859D01*
X48381Y16890D01*
X48390Y16915D01*
X48398Y16938D01*
X48404Y16955D01*
X48409Y16966D01*
X48415Y16974D01*
Y16977D01*
X48457Y17059D01*
X48505Y17129D01*
X48555Y17188D01*
X48603Y17236D01*
X48648Y17275D01*
X48668Y17292D01*
X48682Y17303D01*
X48696Y17314D01*
X48707Y17320D01*
X48713Y17326D01*
X48716D01*
X48752Y17348D01*
X48792Y17368D01*
X48870Y17396D01*
X48949Y17418D01*
X49022Y17435D01*
X49053Y17438D01*
X49084Y17444D01*
X49112Y17447D01*
X49134D01*
X49154Y17449D01*
X49179D01*
X49230Y17447D01*
D02*
G37*
G36*
X34556Y15957D02*
X34553Y15904D01*
X34550Y15853D01*
X34542Y15805D01*
X34534Y15763D01*
X34522Y15721D01*
X34508Y15685D01*
X34494Y15651D01*
X34480Y15620D01*
X34469Y15592D01*
X34455Y15570D01*
X34441Y15550D01*
X34430Y15533D01*
X34421Y15519D01*
X34413Y15510D01*
X34410Y15505D01*
X34407Y15502D01*
X34376Y15474D01*
X34345Y15449D01*
X34309Y15429D01*
X34272Y15409D01*
X34236Y15395D01*
X34199Y15381D01*
X34126Y15361D01*
X34092Y15356D01*
X34062Y15350D01*
X34033Y15348D01*
X34008Y15345D01*
X33988Y15342D01*
X33960D01*
X33893Y15345D01*
X33828Y15353D01*
X33769Y15367D01*
X33716Y15381D01*
X33671Y15395D01*
X33651Y15404D01*
X33637Y15409D01*
X33623Y15412D01*
X33615Y15418D01*
X33609Y15420D01*
X33606D01*
X33547Y15454D01*
X33497Y15488D01*
X33457Y15525D01*
X33426Y15558D01*
X33404Y15589D01*
X33387Y15614D01*
X33379Y15631D01*
X33376Y15634D01*
Y15637D01*
X33356Y15390D01*
X32932D01*
Y17399D01*
X33418D01*
Y15971D01*
X33443Y15935D01*
X33474Y15901D01*
X33502Y15870D01*
X33533Y15845D01*
X33558Y15822D01*
X33578Y15808D01*
X33592Y15797D01*
X33598Y15794D01*
X33640Y15772D01*
X33682Y15755D01*
X33721Y15741D01*
X33758Y15732D01*
X33789Y15727D01*
X33811Y15724D01*
X33831D01*
X33876Y15727D01*
X33913Y15732D01*
X33946Y15744D01*
X33972Y15755D01*
X33991Y15766D01*
X34005Y15777D01*
X34014Y15783D01*
X34016Y15786D01*
X34036Y15814D01*
X34050Y15848D01*
X34059Y15884D01*
X34064Y15921D01*
X34070Y15954D01*
X34073Y15982D01*
Y15994D01*
Y16002D01*
Y16005D01*
Y16008D01*
Y17399D01*
X34556D01*
Y15957D01*
D02*
G37*
G36*
X52203Y15390D02*
X51703D01*
Y16292D01*
X51433D01*
X51346Y16294D01*
X51264Y16300D01*
X51188Y16311D01*
X51115Y16325D01*
X51051Y16342D01*
X50989Y16359D01*
X50933Y16379D01*
X50879Y16398D01*
X50834Y16418D01*
X50795Y16438D01*
X50761Y16455D01*
X50733Y16472D01*
X50711Y16486D01*
X50697Y16497D01*
X50685Y16502D01*
X50683Y16505D01*
X50635Y16547D01*
X50590Y16595D01*
X50553Y16646D01*
X50522Y16699D01*
X50494Y16755D01*
X50472Y16809D01*
X50455Y16865D01*
X50438Y16915D01*
X50427Y16966D01*
X50419Y17014D01*
X50413Y17056D01*
X50410Y17093D01*
X50407Y17123D01*
X50404Y17146D01*
Y17160D01*
Y17165D01*
X50407Y17241D01*
X50416Y17312D01*
X50430Y17376D01*
X50447Y17438D01*
X50469Y17492D01*
X50491Y17545D01*
X50517Y17590D01*
X50542Y17632D01*
X50570Y17669D01*
X50595Y17699D01*
X50618Y17725D01*
X50638Y17747D01*
X50657Y17764D01*
X50671Y17778D01*
X50680Y17784D01*
X50683Y17786D01*
X50736Y17823D01*
X50795Y17854D01*
X50857Y17882D01*
X50921Y17907D01*
X50986Y17927D01*
X51051Y17944D01*
X51115Y17958D01*
X51177Y17969D01*
X51233Y17978D01*
X51287Y17983D01*
X51337Y17989D01*
X51380Y17992D01*
X51413Y17995D01*
X52203D01*
Y15390D01*
D02*
G37*
G36*
X46827Y17447D02*
X46895Y17435D01*
X46954Y17424D01*
X47010Y17407D01*
X47055Y17393D01*
X47075Y17385D01*
X47089Y17379D01*
X47103Y17373D01*
X47111Y17368D01*
X47117Y17365D01*
X47120D01*
X47179Y17331D01*
X47229Y17298D01*
X47271Y17261D01*
X47305Y17227D01*
X47330Y17196D01*
X47347Y17171D01*
X47358Y17154D01*
X47361Y17152D01*
Y17149D01*
X47384Y17399D01*
X47808D01*
Y15390D01*
X47325D01*
Y16806D01*
X47294Y16845D01*
X47263Y16882D01*
X47229Y16913D01*
X47201Y16938D01*
X47176Y16960D01*
X47153Y16974D01*
X47142Y16986D01*
X47136Y16988D01*
X47094Y17014D01*
X47055Y17033D01*
X47016Y17045D01*
X46979Y17056D01*
X46951Y17062D01*
X46926Y17064D01*
X46906D01*
X46869Y17062D01*
X46839Y17059D01*
X46813Y17053D01*
X46791Y17045D01*
X46777Y17036D01*
X46763Y17031D01*
X46757Y17028D01*
X46754Y17025D01*
X46737Y17008D01*
X46720Y16991D01*
X46701Y16949D01*
X46692Y16929D01*
X46687Y16913D01*
X46684Y16901D01*
Y16899D01*
X46678Y16862D01*
X46673Y16820D01*
X46670Y16778D01*
X46667Y16733D01*
X46664Y16696D01*
Y16662D01*
Y16651D01*
Y16643D01*
Y16637D01*
Y16634D01*
Y15390D01*
X46181D01*
Y16840D01*
X46184Y16893D01*
X46187Y16941D01*
X46195Y16988D01*
X46204Y17031D01*
X46215Y17073D01*
X46226Y17109D01*
X46240Y17143D01*
X46254Y17174D01*
X46268Y17199D01*
X46282Y17224D01*
X46293Y17244D01*
X46305Y17261D01*
X46313Y17272D01*
X46321Y17281D01*
X46324Y17286D01*
X46327Y17289D01*
X46355Y17317D01*
X46389Y17343D01*
X46420Y17362D01*
X46456Y17382D01*
X46493Y17399D01*
X46529Y17410D01*
X46597Y17430D01*
X46631Y17435D01*
X46661Y17441D01*
X46690Y17444D01*
X46712Y17447D01*
X46732Y17449D01*
X46760D01*
X46827Y17447D01*
D02*
G37*
G36*
X43368Y17579D02*
X42210D01*
X43500Y15766D01*
Y15390D01*
X41710D01*
X41660Y15811D01*
X42941D01*
X41668Y17615D01*
Y17995D01*
X43368D01*
Y17579D01*
D02*
G37*
G36*
X38886Y17028D02*
X38324D01*
Y15761D01*
X38906D01*
Y15390D01*
X37313D01*
Y15761D01*
X37841D01*
Y17399D01*
X38886D01*
Y17028D01*
D02*
G37*
G36*
X32260D02*
X31698D01*
Y15761D01*
X32280D01*
Y15390D01*
X30687D01*
Y15761D01*
X31215D01*
Y17399D01*
X32260D01*
Y17028D01*
D02*
G37*
G36*
X43970Y17624D02*
X44026Y17598D01*
X44074Y17579D01*
X44116Y17562D01*
X44146Y17550D01*
X44172Y17542D01*
X44186Y17536D01*
X44192Y17534D01*
X44234Y17520D01*
X44279Y17508D01*
X44324Y17497D01*
X44366Y17489D01*
X44402Y17480D01*
X44430Y17477D01*
X44442Y17475D01*
X44450Y17472D01*
X44456D01*
X44515Y17463D01*
X44576Y17458D01*
X44638Y17455D01*
X44697Y17452D01*
X44748Y17449D01*
X44824D01*
X44914Y17447D01*
X44995Y17435D01*
X45071Y17421D01*
X45105Y17413D01*
X45136Y17404D01*
X45164Y17393D01*
X45189Y17385D01*
X45209Y17379D01*
X45228Y17371D01*
X45242Y17365D01*
X45254Y17359D01*
X45259Y17357D01*
X45262D01*
X45330Y17320D01*
X45391Y17278D01*
X45442Y17236D01*
X45487Y17196D01*
X45521Y17157D01*
X45546Y17129D01*
X45554Y17118D01*
X45560Y17109D01*
X45566Y17104D01*
Y17101D01*
X45602Y17039D01*
X45627Y16974D01*
X45647Y16910D01*
X45658Y16854D01*
X45667Y16803D01*
X45670Y16781D01*
Y16764D01*
X45672Y16747D01*
Y16736D01*
Y16730D01*
Y16727D01*
X45670Y16654D01*
X45658Y16590D01*
X45644Y16533D01*
X45630Y16483D01*
X45613Y16443D01*
X45608Y16427D01*
X45602Y16412D01*
X45597Y16401D01*
X45591Y16393D01*
X45588Y16390D01*
Y16387D01*
X45551Y16337D01*
X45512Y16294D01*
X45470Y16261D01*
X45431Y16230D01*
X45394Y16207D01*
X45366Y16193D01*
X45355Y16188D01*
X45346Y16182D01*
X45341Y16179D01*
X45338D01*
X45372Y16162D01*
X45403Y16140D01*
X45431Y16117D01*
X45453Y16095D01*
X45470Y16075D01*
X45484Y16058D01*
X45493Y16047D01*
X45495Y16041D01*
X45515Y16005D01*
X45529Y15969D01*
X45540Y15932D01*
X45546Y15901D01*
X45551Y15873D01*
X45554Y15853D01*
Y15839D01*
Y15834D01*
X45551Y15791D01*
X45543Y15752D01*
X45535Y15718D01*
X45521Y15687D01*
X45509Y15662D01*
X45501Y15642D01*
X45493Y15631D01*
X45490Y15626D01*
X45462Y15592D01*
X45434Y15564D01*
X45400Y15539D01*
X45369Y15519D01*
X45341Y15502D01*
X45318Y15491D01*
X45304Y15482D01*
X45299Y15480D01*
X45248Y15463D01*
X45195Y15449D01*
X45144Y15440D01*
X45094Y15432D01*
X45051Y15429D01*
X45032D01*
X45018Y15426D01*
X44652D01*
X44596Y15423D01*
X44546Y15418D01*
X44503Y15409D01*
X44467Y15398D01*
X44439Y15387D01*
X44419Y15378D01*
X44405Y15373D01*
X44402Y15370D01*
X44371Y15348D01*
X44349Y15322D01*
X44335Y15297D01*
X44324Y15274D01*
X44318Y15252D01*
X44312Y15235D01*
Y15224D01*
Y15218D01*
X44318Y15176D01*
X44332Y15139D01*
X44349Y15106D01*
X44371Y15080D01*
X44394Y15061D01*
X44411Y15044D01*
X44425Y15036D01*
X44430Y15033D01*
X44453Y15021D01*
X44481Y15010D01*
X44540Y14996D01*
X44607Y14985D01*
X44672Y14976D01*
X44734Y14971D01*
X44759D01*
X44784Y14968D01*
X44897D01*
X44956Y14974D01*
X45009Y14976D01*
X45049Y14982D01*
X45082Y14988D01*
X45105Y14991D01*
X45119Y14996D01*
X45124D01*
X45158Y15008D01*
X45186Y15021D01*
X45209Y15036D01*
X45228Y15050D01*
X45240Y15061D01*
X45251Y15072D01*
X45254Y15078D01*
X45257Y15080D01*
X45268Y15103D01*
X45276Y15134D01*
X45285Y15196D01*
X45287Y15224D01*
X45290Y15246D01*
Y15263D01*
Y15266D01*
Y15269D01*
X45734D01*
X45731Y15182D01*
X45720Y15103D01*
X45715Y15069D01*
X45706Y15036D01*
X45700Y15008D01*
X45692Y14982D01*
X45684Y14957D01*
X45675Y14937D01*
X45670Y14920D01*
X45664Y14906D01*
X45658Y14895D01*
X45653Y14887D01*
X45650Y14884D01*
Y14881D01*
X45613Y14830D01*
X45568Y14788D01*
X45521Y14752D01*
X45476Y14724D01*
X45434Y14701D01*
X45414Y14690D01*
X45397Y14684D01*
X45386Y14679D01*
X45375Y14673D01*
X45369Y14670D01*
X45366D01*
X45327Y14659D01*
X45285Y14648D01*
X45197Y14631D01*
X45110Y14617D01*
X45023Y14608D01*
X44984Y14606D01*
X44947Y14603D01*
X44916D01*
X44888Y14600D01*
X44832D01*
X44717Y14603D01*
X44664Y14606D01*
X44613Y14611D01*
X44565Y14617D01*
X44520Y14623D01*
X44481Y14631D01*
X44442Y14637D01*
X44408Y14642D01*
X44377Y14651D01*
X44352Y14656D01*
X44329Y14662D01*
X44312Y14667D01*
X44301Y14670D01*
X44293Y14673D01*
X44290D01*
X44211Y14704D01*
X44141Y14738D01*
X44082Y14774D01*
X44034Y14811D01*
X43995Y14842D01*
X43970Y14870D01*
X43953Y14887D01*
X43947Y14889D01*
Y14892D01*
X43924Y14920D01*
X43908Y14948D01*
X43877Y15010D01*
X43854Y15069D01*
X43840Y15125D01*
X43832Y15173D01*
X43829Y15193D01*
Y15213D01*
X43826Y15227D01*
Y15238D01*
Y15244D01*
Y15246D01*
X43829Y15305D01*
X43840Y15359D01*
X43857Y15409D01*
X43874Y15451D01*
X43894Y15485D01*
X43908Y15513D01*
X43919Y15530D01*
X43924Y15536D01*
X43964Y15584D01*
X44006Y15623D01*
X44051Y15659D01*
X44093Y15687D01*
X44130Y15710D01*
X44161Y15727D01*
X44172Y15732D01*
X44180Y15738D01*
X44186Y15741D01*
X44189D01*
X44253Y15766D01*
X44318Y15786D01*
X44383Y15797D01*
X44442Y15808D01*
X44492Y15814D01*
X44515D01*
X44532Y15817D01*
X44950D01*
X44987Y15822D01*
X45015Y15825D01*
X45037Y15831D01*
X45054Y15836D01*
X45065Y15839D01*
X45071Y15845D01*
X45074D01*
X45088Y15856D01*
X45096Y15870D01*
X45108Y15898D01*
X45110Y15910D01*
X45113Y15921D01*
Y15926D01*
Y15929D01*
X45110Y15954D01*
X45102Y15977D01*
X45096Y15994D01*
X45094Y15997D01*
Y15999D01*
X45079Y16022D01*
X45068Y16039D01*
X45060Y16050D01*
X45057Y16053D01*
X45018Y16041D01*
X44976Y16033D01*
X44933Y16027D01*
X44891Y16025D01*
X44852Y16022D01*
X44824Y16019D01*
X44796D01*
X44708Y16022D01*
X44627Y16033D01*
X44557Y16047D01*
X44523Y16056D01*
X44495Y16064D01*
X44467Y16070D01*
X44444Y16078D01*
X44422Y16086D01*
X44405Y16092D01*
X44391Y16098D01*
X44383Y16103D01*
X44377Y16106D01*
X44374D01*
X44309Y16143D01*
X44253Y16182D01*
X44205Y16224D01*
X44166Y16263D01*
X44133Y16300D01*
X44110Y16328D01*
X44104Y16339D01*
X44099Y16348D01*
X44093Y16351D01*
Y16353D01*
X44059Y16415D01*
X44037Y16477D01*
X44020Y16536D01*
X44006Y16592D01*
X44000Y16640D01*
X43998Y16662D01*
Y16679D01*
X43995Y16693D01*
Y16705D01*
Y16710D01*
Y16713D01*
X43998Y16778D01*
X44009Y16840D01*
X44026Y16890D01*
X44043Y16935D01*
X44059Y16972D01*
X44076Y17000D01*
X44087Y17017D01*
X44090Y17022D01*
X44127Y17064D01*
X44169Y17101D01*
X44211Y17126D01*
X44253Y17143D01*
X44290Y17157D01*
X44318Y17163D01*
X44329Y17165D01*
X44338Y17168D01*
X44290D01*
X44236Y17171D01*
X44189Y17174D01*
X44144Y17177D01*
X44107D01*
X44079Y17180D01*
X44071Y17182D01*
X44057D01*
X44006Y17188D01*
X43955Y17199D01*
X43911Y17210D01*
X43868Y17219D01*
X43835Y17230D01*
X43806Y17239D01*
X43790Y17244D01*
X43787Y17247D01*
X43784D01*
X43908Y17649D01*
X43970Y17624D01*
D02*
G37*
G36*
X103400Y7233D02*
X102010D01*
Y10427D01*
X99917D01*
Y7233D01*
X98527D01*
Y14473D01*
X99917D01*
Y11599D01*
X102010D01*
Y14473D01*
X103400D01*
Y7233D01*
D02*
G37*
G36*
X91349Y13942D02*
X89717D01*
Y8904D01*
X89709Y8701D01*
X89686Y8521D01*
X89647Y8357D01*
X89608Y8209D01*
X89576Y8100D01*
X89553Y8045D01*
X89537Y8006D01*
X89522Y7975D01*
X89514Y7951D01*
X89506Y7943D01*
Y7936D01*
X89412Y7795D01*
X89319Y7670D01*
X89209Y7561D01*
X89108Y7475D01*
X89022Y7405D01*
X88951Y7350D01*
X88897Y7319D01*
X88889Y7311D01*
X88881D01*
X88717Y7241D01*
X88553Y7186D01*
X88389Y7155D01*
X88233Y7123D01*
X88100Y7108D01*
X88046D01*
X87991Y7100D01*
X87897D01*
X87749Y7108D01*
X87600Y7116D01*
X87319Y7155D01*
X87194Y7178D01*
X87069Y7209D01*
X86952Y7241D01*
X86851Y7272D01*
X86757Y7303D01*
X86671Y7334D01*
X86593Y7366D01*
X86530Y7389D01*
X86484Y7412D01*
X86444Y7428D01*
X86421Y7444D01*
X86413D01*
X86741Y8397D01*
X86929Y8334D01*
X87108Y8287D01*
X87257Y8256D01*
X87397Y8232D01*
X87507Y8217D01*
X87585Y8209D01*
X87655D01*
X87780Y8217D01*
X87889Y8232D01*
X87983Y8256D01*
X88053Y8279D01*
X88116Y8303D01*
X88163Y8326D01*
X88186Y8342D01*
X88194Y8350D01*
X88256Y8412D01*
X88296Y8482D01*
X88327Y8553D01*
X88350Y8631D01*
X88366Y8693D01*
X88374Y8756D01*
Y8787D01*
Y8803D01*
Y14980D01*
X91349D01*
Y13942D01*
D02*
G37*
G36*
X94973Y12950D02*
X95114Y12942D01*
X95371Y12903D01*
X95496Y12872D01*
X95606Y12840D01*
X95715Y12809D01*
X95809Y12770D01*
X95895Y12739D01*
X95973Y12700D01*
X96043Y12668D01*
X96098Y12645D01*
X96137Y12614D01*
X96176Y12598D01*
X96191Y12590D01*
X96199Y12583D01*
X96402Y12434D01*
X96582Y12270D01*
X96730Y12098D01*
X96855Y11927D01*
X96949Y11778D01*
X96988Y11716D01*
X97019Y11661D01*
X97043Y11614D01*
X97058Y11583D01*
X97074Y11559D01*
Y11552D01*
X97168Y11294D01*
X97238Y11036D01*
X97293Y10779D01*
X97324Y10544D01*
X97339Y10435D01*
X97347Y10333D01*
X97355Y10247D01*
Y10177D01*
X97363Y10115D01*
Y10068D01*
Y10037D01*
Y10029D01*
X97347Y9701D01*
X97339Y9552D01*
X97316Y9404D01*
X97293Y9271D01*
X97269Y9138D01*
X97246Y9021D01*
X97215Y8912D01*
X97191Y8810D01*
X97168Y8725D01*
X97144Y8646D01*
X97121Y8584D01*
X97097Y8537D01*
X97089Y8498D01*
X97074Y8475D01*
Y8467D01*
X96949Y8232D01*
X96816Y8029D01*
X96668Y7858D01*
X96527Y7709D01*
X96465Y7647D01*
X96402Y7600D01*
X96348Y7553D01*
X96301Y7514D01*
X96262Y7491D01*
X96230Y7467D01*
X96215Y7459D01*
X96207Y7451D01*
X96098Y7389D01*
X95981Y7334D01*
X95754Y7248D01*
X95520Y7186D01*
X95301Y7147D01*
X95200Y7131D01*
X95114Y7116D01*
X95028Y7108D01*
X94957D01*
X94903Y7100D01*
X94825D01*
X94676Y7108D01*
X94536Y7116D01*
X94278Y7155D01*
X94153Y7186D01*
X94044Y7217D01*
X93934Y7248D01*
X93841Y7280D01*
X93755Y7311D01*
X93677Y7342D01*
X93614Y7373D01*
X93559Y7405D01*
X93512Y7428D01*
X93481Y7444D01*
X93466Y7459D01*
X93458D01*
X93255Y7608D01*
X93075Y7772D01*
X92927Y7943D01*
X92802Y8115D01*
X92708Y8264D01*
X92669Y8326D01*
X92638Y8381D01*
X92614Y8428D01*
X92599Y8459D01*
X92583Y8482D01*
Y8490D01*
X92482Y8748D01*
X92411Y9014D01*
X92357Y9271D01*
X92325Y9513D01*
X92310Y9623D01*
X92302Y9724D01*
X92294Y9810D01*
Y9888D01*
X92286Y9951D01*
Y9997D01*
Y10029D01*
Y10037D01*
X92302Y10357D01*
X92333Y10646D01*
X92357Y10779D01*
X92380Y10904D01*
X92404Y11021D01*
X92435Y11130D01*
X92466Y11224D01*
X92489Y11317D01*
X92513Y11388D01*
X92536Y11450D01*
X92552Y11505D01*
X92567Y11536D01*
X92583Y11559D01*
Y11567D01*
X92700Y11802D01*
X92841Y12005D01*
X92981Y12184D01*
X93122Y12325D01*
X93185Y12387D01*
X93247Y12442D01*
X93302Y12489D01*
X93348Y12528D01*
X93388Y12551D01*
X93419Y12575D01*
X93434Y12583D01*
X93442Y12590D01*
X93552Y12653D01*
X93669Y12715D01*
X93895Y12801D01*
X94130Y12872D01*
X94348Y12911D01*
X94450Y12926D01*
X94536Y12942D01*
X94622Y12950D01*
X94692D01*
X94747Y12957D01*
X94825D01*
X94973Y12950D01*
D02*
G37*
G36*
X82696D02*
X82836Y12942D01*
X83094Y12903D01*
X83219Y12872D01*
X83328Y12840D01*
X83438Y12809D01*
X83531Y12770D01*
X83617Y12739D01*
X83695Y12700D01*
X83766Y12668D01*
X83820Y12645D01*
X83859Y12614D01*
X83898Y12598D01*
X83914Y12590D01*
X83922Y12583D01*
X84125Y12434D01*
X84304Y12270D01*
X84453Y12098D01*
X84578Y11927D01*
X84672Y11778D01*
X84711Y11716D01*
X84742Y11661D01*
X84765Y11614D01*
X84781Y11583D01*
X84797Y11559D01*
Y11552D01*
X84890Y11294D01*
X84961Y11036D01*
X85015Y10779D01*
X85046Y10544D01*
X85062Y10435D01*
X85070Y10333D01*
X85078Y10247D01*
Y10177D01*
X85086Y10115D01*
Y10068D01*
Y10037D01*
Y10029D01*
X85070Y9701D01*
X85062Y9552D01*
X85039Y9404D01*
X85015Y9271D01*
X84992Y9138D01*
X84968Y9021D01*
X84937Y8912D01*
X84914Y8810D01*
X84890Y8725D01*
X84867Y8646D01*
X84843Y8584D01*
X84820Y8537D01*
X84812Y8498D01*
X84797Y8475D01*
Y8467D01*
X84672Y8232D01*
X84539Y8029D01*
X84390Y7858D01*
X84250Y7709D01*
X84187Y7647D01*
X84125Y7600D01*
X84070Y7553D01*
X84023Y7514D01*
X83984Y7491D01*
X83953Y7467D01*
X83938Y7459D01*
X83930Y7451D01*
X83820Y7389D01*
X83703Y7334D01*
X83477Y7248D01*
X83242Y7186D01*
X83024Y7147D01*
X82922Y7131D01*
X82836Y7116D01*
X82750Y7108D01*
X82680D01*
X82625Y7100D01*
X82547D01*
X82399Y7108D01*
X82258Y7116D01*
X82001Y7155D01*
X81876Y7186D01*
X81766Y7217D01*
X81657Y7248D01*
X81563Y7280D01*
X81477Y7311D01*
X81399Y7342D01*
X81337Y7373D01*
X81282Y7405D01*
X81235Y7428D01*
X81204Y7444D01*
X81188Y7459D01*
X81181D01*
X80977Y7608D01*
X80798Y7772D01*
X80650Y7943D01*
X80524Y8115D01*
X80431Y8264D01*
X80392Y8326D01*
X80361Y8381D01*
X80337Y8428D01*
X80322Y8459D01*
X80306Y8482D01*
Y8490D01*
X80204Y8748D01*
X80134Y9014D01*
X80079Y9271D01*
X80048Y9513D01*
X80032Y9623D01*
X80025Y9724D01*
X80017Y9810D01*
Y9888D01*
X80009Y9951D01*
Y9997D01*
Y10029D01*
Y10037D01*
X80025Y10357D01*
X80056Y10646D01*
X80079Y10779D01*
X80103Y10904D01*
X80126Y11021D01*
X80157Y11130D01*
X80189Y11224D01*
X80212Y11317D01*
X80235Y11388D01*
X80259Y11450D01*
X80275Y11505D01*
X80290Y11536D01*
X80306Y11559D01*
Y11567D01*
X80423Y11802D01*
X80564Y12005D01*
X80704Y12184D01*
X80845Y12325D01*
X80907Y12387D01*
X80970Y12442D01*
X81024Y12489D01*
X81071Y12528D01*
X81110Y12551D01*
X81142Y12575D01*
X81157Y12583D01*
X81165Y12590D01*
X81274Y12653D01*
X81391Y12715D01*
X81618Y12801D01*
X81852Y12872D01*
X82071Y12911D01*
X82172Y12926D01*
X82258Y12942D01*
X82344Y12950D01*
X82415D01*
X82469Y12957D01*
X82547D01*
X82696Y12950D01*
D02*
G37*
G36*
X31451Y10604D02*
X31493Y10593D01*
X31530Y10581D01*
X31563Y10565D01*
X31589Y10550D01*
X31605Y10537D01*
X31620Y10525D01*
X31622Y10522D01*
X31651Y10489D01*
X31670Y10455D01*
X31687Y10418D01*
X31695Y10387D01*
X31701Y10359D01*
X31704Y10334D01*
X31707Y10320D01*
Y10317D01*
Y10315D01*
X31704Y10270D01*
X31693Y10227D01*
X31679Y10194D01*
X31664Y10163D01*
X31648Y10137D01*
X31636Y10118D01*
X31625Y10107D01*
X31622Y10104D01*
X31589Y10076D01*
X31552Y10056D01*
X31516Y10039D01*
X31479Y10031D01*
X31448Y10025D01*
X31426Y10022D01*
X31409Y10019D01*
X31403D01*
X31355Y10022D01*
X31313Y10034D01*
X31274Y10047D01*
X31243Y10062D01*
X31218Y10078D01*
X31198Y10090D01*
X31187Y10101D01*
X31184Y10104D01*
X31156Y10137D01*
X31133Y10171D01*
X31119Y10208D01*
X31108Y10241D01*
X31102Y10270D01*
X31097Y10295D01*
Y10309D01*
Y10315D01*
X31100Y10359D01*
X31111Y10399D01*
X31125Y10435D01*
X31139Y10466D01*
X31156Y10489D01*
X31170Y10508D01*
X31181Y10520D01*
X31184Y10522D01*
X31218Y10550D01*
X31254Y10570D01*
X31291Y10587D01*
X31324Y10595D01*
X31355Y10601D01*
X31381Y10607D01*
X31403D01*
X31451Y10604D01*
D02*
G37*
G36*
X49882Y10427D02*
Y7648D01*
X49398D01*
Y9058D01*
X49367Y9098D01*
X49337Y9134D01*
X49306Y9165D01*
X49275Y9193D01*
X49250Y9213D01*
X49230Y9230D01*
X49216Y9241D01*
X49210Y9244D01*
X49168Y9269D01*
X49126Y9289D01*
X49089Y9303D01*
X49053Y9314D01*
X49025Y9320D01*
X49002Y9323D01*
X48983D01*
X48938Y9320D01*
X48898Y9311D01*
X48864Y9303D01*
X48839Y9292D01*
X48820Y9278D01*
X48805Y9269D01*
X48797Y9261D01*
X48794Y9258D01*
X48775Y9230D01*
X48761Y9196D01*
X48752Y9160D01*
X48744Y9120D01*
X48741Y9087D01*
X48738Y9058D01*
Y9047D01*
Y9042D01*
Y9036D01*
Y9033D01*
Y7648D01*
X48255D01*
Y9098D01*
X48258Y9151D01*
X48260Y9199D01*
X48269Y9247D01*
X48277Y9289D01*
X48289Y9331D01*
X48300Y9368D01*
X48314Y9401D01*
X48328Y9432D01*
X48342Y9457D01*
X48356Y9483D01*
X48367Y9502D01*
X48378Y9519D01*
X48387Y9531D01*
X48395Y9539D01*
X48398Y9544D01*
X48401Y9547D01*
X48429Y9575D01*
X48463Y9601D01*
X48494Y9620D01*
X48530Y9640D01*
X48567Y9657D01*
X48603Y9668D01*
X48671Y9688D01*
X48704Y9693D01*
X48735Y9699D01*
X48763Y9702D01*
X48786Y9705D01*
X48805Y9708D01*
X48834D01*
X48901Y9705D01*
X48963Y9696D01*
X49022Y9682D01*
X49073Y9668D01*
X49117Y9654D01*
X49134Y9648D01*
X49151Y9640D01*
X49162Y9637D01*
X49171Y9632D01*
X49176Y9629D01*
X49179D01*
X49235Y9598D01*
X49283Y9564D01*
X49320Y9531D01*
X49351Y9497D01*
X49373Y9469D01*
X49387Y9446D01*
X49396Y9429D01*
X49398Y9426D01*
Y10480D01*
X49882Y10427D01*
D02*
G37*
G36*
X43320Y7648D02*
X42820D01*
Y8797D01*
X42067D01*
Y7648D01*
X41567D01*
Y10253D01*
X42067D01*
Y9219D01*
X42820D01*
Y10253D01*
X43320D01*
Y7648D01*
D02*
G37*
G36*
X38212Y9702D02*
X38268Y9696D01*
X38319Y9691D01*
X38364Y9685D01*
X38380Y9682D01*
X38397Y9679D01*
X38411Y9677D01*
X38420D01*
X38425Y9674D01*
X38428D01*
X38496Y9660D01*
X38563Y9643D01*
X38628Y9623D01*
X38687Y9606D01*
X38737Y9589D01*
X38757Y9581D01*
X38777Y9575D01*
X38791Y9570D01*
X38802Y9564D01*
X38807Y9561D01*
X38810D01*
X38695Y9216D01*
X38631Y9233D01*
X38572Y9250D01*
X38518Y9261D01*
X38473Y9272D01*
X38437Y9280D01*
X38408Y9286D01*
X38400Y9289D01*
X38392Y9292D01*
X38386D01*
X38338Y9300D01*
X38293Y9306D01*
X38254Y9311D01*
X38220Y9314D01*
X38195Y9317D01*
X38156D01*
X38085Y9314D01*
X38024Y9306D01*
X37973Y9292D01*
X37931Y9280D01*
X37900Y9266D01*
X37877Y9252D01*
X37863Y9244D01*
X37858Y9241D01*
X37824Y9210D01*
X37802Y9171D01*
X37785Y9131D01*
X37771Y9092D01*
X37765Y9056D01*
X37762Y9027D01*
X37759Y9016D01*
Y9008D01*
Y9002D01*
Y8999D01*
Y8907D01*
X38001D01*
X38083Y8904D01*
X38161Y8898D01*
X38234Y8890D01*
X38305Y8879D01*
X38366Y8867D01*
X38425Y8850D01*
X38479Y8836D01*
X38526Y8820D01*
X38569Y8803D01*
X38605Y8789D01*
X38636Y8772D01*
X38661Y8760D01*
X38684Y8749D01*
X38698Y8741D01*
X38706Y8735D01*
X38709Y8732D01*
X38754Y8699D01*
X38791Y8662D01*
X38824Y8623D01*
X38853Y8581D01*
X38878Y8541D01*
X38897Y8499D01*
X38914Y8457D01*
X38928Y8418D01*
X38940Y8381D01*
X38945Y8348D01*
X38951Y8316D01*
X38956Y8288D01*
Y8266D01*
X38959Y8249D01*
Y8238D01*
Y8235D01*
X38956Y8168D01*
X38945Y8103D01*
X38934Y8047D01*
X38917Y7996D01*
X38903Y7957D01*
X38897Y7940D01*
X38889Y7926D01*
X38886Y7915D01*
X38881Y7906D01*
X38878Y7903D01*
Y7901D01*
X38844Y7850D01*
X38807Y7805D01*
X38768Y7769D01*
X38732Y7735D01*
X38698Y7712D01*
X38670Y7693D01*
X38659Y7687D01*
X38650Y7682D01*
X38647Y7679D01*
X38645D01*
X38586Y7653D01*
X38524Y7634D01*
X38462Y7620D01*
X38406Y7611D01*
X38358Y7606D01*
X38338Y7603D01*
X38319Y7600D01*
X38285D01*
X38212Y7603D01*
X38144Y7611D01*
X38083Y7622D01*
X38029Y7637D01*
X37984Y7648D01*
X37964Y7653D01*
X37948Y7659D01*
X37936Y7665D01*
X37928Y7667D01*
X37922Y7670D01*
X37920D01*
X37861Y7698D01*
X37810Y7732D01*
X37768Y7763D01*
X37734Y7794D01*
X37709Y7822D01*
X37692Y7847D01*
X37681Y7861D01*
X37678Y7867D01*
X37661Y7828D01*
X37641Y7791D01*
X37619Y7760D01*
X37594Y7735D01*
X37571Y7715D01*
X37552Y7698D01*
X37540Y7690D01*
X37535Y7687D01*
X37490Y7665D01*
X37442Y7645D01*
X37394Y7631D01*
X37346Y7620D01*
X37304Y7611D01*
X37284Y7606D01*
X37271D01*
X37256Y7603D01*
X37248Y7600D01*
X37240D01*
X37136Y7934D01*
X37167Y7948D01*
X37195Y7960D01*
X37214Y7974D01*
X37231Y7985D01*
X37242Y7996D01*
X37251Y8005D01*
X37254Y8008D01*
X37256Y8010D01*
X37265Y8030D01*
X37271Y8052D01*
X37279Y8103D01*
Y8123D01*
X37282Y8142D01*
Y8154D01*
Y8159D01*
Y9025D01*
X37284Y9084D01*
X37290Y9140D01*
X37301Y9193D01*
X37315Y9241D01*
X37330Y9286D01*
X37346Y9328D01*
X37366Y9365D01*
X37386Y9398D01*
X37405Y9429D01*
X37425Y9455D01*
X37442Y9477D01*
X37456Y9494D01*
X37470Y9508D01*
X37481Y9519D01*
X37487Y9525D01*
X37490Y9528D01*
X37529Y9559D01*
X37574Y9587D01*
X37622Y9612D01*
X37670Y9632D01*
X37720Y9648D01*
X37771Y9663D01*
X37869Y9685D01*
X37914Y9693D01*
X37956Y9699D01*
X37995Y9702D01*
X38029Y9705D01*
X38054Y9708D01*
X38153D01*
X38212Y9702D01*
D02*
G37*
G36*
X33893Y8704D02*
X34590Y7648D01*
X34078D01*
X33623Y8437D01*
X33168Y7648D01*
X32628D01*
X33328Y8721D01*
X32721Y9657D01*
X33233D01*
X33606Y8977D01*
X33980Y9657D01*
X34514D01*
X33893Y8704D01*
D02*
G37*
G36*
X45464Y8215D02*
X45462Y8162D01*
X45459Y8111D01*
X45450Y8064D01*
X45442Y8021D01*
X45431Y7979D01*
X45417Y7943D01*
X45403Y7909D01*
X45389Y7878D01*
X45377Y7850D01*
X45363Y7828D01*
X45349Y7808D01*
X45338Y7791D01*
X45330Y7777D01*
X45321Y7769D01*
X45318Y7763D01*
X45316Y7760D01*
X45285Y7732D01*
X45254Y7707D01*
X45217Y7687D01*
X45181Y7667D01*
X45144Y7653D01*
X45108Y7639D01*
X45035Y7620D01*
X45001Y7614D01*
X44970Y7608D01*
X44942Y7606D01*
X44916Y7603D01*
X44897Y7600D01*
X44869D01*
X44801Y7603D01*
X44737Y7611D01*
X44678Y7625D01*
X44624Y7639D01*
X44579Y7653D01*
X44560Y7662D01*
X44546Y7667D01*
X44532Y7670D01*
X44523Y7676D01*
X44517Y7679D01*
X44515D01*
X44456Y7712D01*
X44405Y7746D01*
X44366Y7783D01*
X44335Y7816D01*
X44312Y7847D01*
X44295Y7873D01*
X44287Y7889D01*
X44284Y7892D01*
Y7895D01*
X44265Y7648D01*
X43840D01*
Y9657D01*
X44326D01*
Y8229D01*
X44352Y8193D01*
X44383Y8159D01*
X44411Y8128D01*
X44442Y8103D01*
X44467Y8081D01*
X44486Y8066D01*
X44501Y8055D01*
X44506Y8052D01*
X44548Y8030D01*
X44590Y8013D01*
X44630Y7999D01*
X44666Y7991D01*
X44697Y7985D01*
X44720Y7982D01*
X44739D01*
X44784Y7985D01*
X44821Y7991D01*
X44855Y8002D01*
X44880Y8013D01*
X44900Y8024D01*
X44914Y8036D01*
X44922Y8041D01*
X44925Y8044D01*
X44945Y8072D01*
X44959Y8106D01*
X44967Y8142D01*
X44973Y8179D01*
X44978Y8213D01*
X44981Y8241D01*
Y8252D01*
Y8260D01*
Y8263D01*
Y8266D01*
Y9657D01*
X45464D01*
Y8215D01*
D02*
G37*
G36*
X41047D02*
X41044Y8162D01*
X41041Y8111D01*
X41033Y8064D01*
X41025Y8021D01*
X41013Y7979D01*
X40999Y7943D01*
X40985Y7909D01*
X40971Y7878D01*
X40960Y7850D01*
X40946Y7828D01*
X40932Y7808D01*
X40921Y7791D01*
X40912Y7777D01*
X40904Y7769D01*
X40901Y7763D01*
X40898Y7760D01*
X40867Y7732D01*
X40836Y7707D01*
X40800Y7687D01*
X40763Y7667D01*
X40727Y7653D01*
X40690Y7639D01*
X40617Y7620D01*
X40584Y7614D01*
X40553Y7608D01*
X40525Y7606D01*
X40499Y7603D01*
X40479Y7600D01*
X40451D01*
X40384Y7603D01*
X40319Y7611D01*
X40260Y7625D01*
X40207Y7639D01*
X40162Y7653D01*
X40142Y7662D01*
X40128Y7667D01*
X40114Y7670D01*
X40106Y7676D01*
X40100Y7679D01*
X40097D01*
X40038Y7712D01*
X39988Y7746D01*
X39948Y7783D01*
X39917Y7816D01*
X39895Y7847D01*
X39878Y7873D01*
X39870Y7889D01*
X39867Y7892D01*
Y7895D01*
X39847Y7648D01*
X39423D01*
Y9657D01*
X39909D01*
Y8229D01*
X39934Y8193D01*
X39965Y8159D01*
X39993Y8128D01*
X40024Y8103D01*
X40050Y8081D01*
X40069Y8066D01*
X40083Y8055D01*
X40089Y8052D01*
X40131Y8030D01*
X40173Y8013D01*
X40213Y7999D01*
X40249Y7991D01*
X40280Y7985D01*
X40303Y7982D01*
X40322D01*
X40367Y7985D01*
X40404Y7991D01*
X40437Y8002D01*
X40463Y8013D01*
X40482Y8024D01*
X40496Y8036D01*
X40505Y8041D01*
X40508Y8044D01*
X40527Y8072D01*
X40541Y8106D01*
X40550Y8142D01*
X40555Y8179D01*
X40561Y8213D01*
X40564Y8241D01*
Y8252D01*
Y8260D01*
Y8263D01*
Y8266D01*
Y9657D01*
X41047D01*
Y8215D01*
D02*
G37*
G36*
X52068Y9837D02*
X50910D01*
X52200Y8024D01*
Y7648D01*
X50410D01*
X50359Y8069D01*
X51641D01*
X50368Y9873D01*
Y10253D01*
X52068D01*
Y9837D01*
D02*
G37*
G36*
X35649Y9705D02*
X35717Y9693D01*
X35776Y9682D01*
X35832Y9665D01*
X35877Y9651D01*
X35896Y9643D01*
X35910Y9637D01*
X35925Y9632D01*
X35933Y9626D01*
X35939Y9623D01*
X35941D01*
X36000Y9589D01*
X36051Y9556D01*
X36093Y9519D01*
X36127Y9486D01*
X36152Y9455D01*
X36169Y9429D01*
X36180Y9412D01*
X36183Y9410D01*
Y9407D01*
X36206Y9657D01*
X36630D01*
Y7648D01*
X36147D01*
Y9064D01*
X36116Y9103D01*
X36085Y9140D01*
X36051Y9171D01*
X36023Y9196D01*
X35998Y9219D01*
X35975Y9233D01*
X35964Y9244D01*
X35958Y9247D01*
X35916Y9272D01*
X35877Y9292D01*
X35837Y9303D01*
X35801Y9314D01*
X35773Y9320D01*
X35747Y9323D01*
X35728D01*
X35691Y9320D01*
X35660Y9317D01*
X35635Y9311D01*
X35613Y9303D01*
X35598Y9294D01*
X35585Y9289D01*
X35579Y9286D01*
X35576Y9283D01*
X35559Y9266D01*
X35542Y9250D01*
X35523Y9207D01*
X35514Y9188D01*
X35509Y9171D01*
X35506Y9160D01*
Y9157D01*
X35500Y9120D01*
X35495Y9078D01*
X35492Y9036D01*
X35489Y8991D01*
X35486Y8954D01*
Y8921D01*
Y8909D01*
Y8901D01*
Y8895D01*
Y8893D01*
Y7648D01*
X35003D01*
Y9098D01*
X35006Y9151D01*
X35008Y9199D01*
X35017Y9247D01*
X35025Y9289D01*
X35037Y9331D01*
X35048Y9368D01*
X35062Y9401D01*
X35076Y9432D01*
X35090Y9457D01*
X35104Y9483D01*
X35115Y9502D01*
X35126Y9519D01*
X35135Y9531D01*
X35143Y9539D01*
X35146Y9544D01*
X35149Y9547D01*
X35177Y9575D01*
X35211Y9601D01*
X35242Y9620D01*
X35278Y9640D01*
X35315Y9657D01*
X35351Y9668D01*
X35419Y9688D01*
X35452Y9693D01*
X35483Y9699D01*
X35511Y9702D01*
X35534Y9705D01*
X35554Y9708D01*
X35582D01*
X35649Y9705D01*
D02*
G37*
G36*
X32125Y9286D02*
X31563D01*
Y8019D01*
X32145D01*
Y7648D01*
X30552D01*
Y8019D01*
X31080D01*
Y9657D01*
X32125D01*
Y9286D01*
D02*
G37*
G36*
X29023Y9705D02*
X29091Y9693D01*
X29150Y9682D01*
X29206Y9665D01*
X29251Y9651D01*
X29270Y9643D01*
X29284Y9637D01*
X29298Y9632D01*
X29307Y9626D01*
X29313Y9623D01*
X29315D01*
X29374Y9589D01*
X29425Y9556D01*
X29467Y9519D01*
X29501Y9486D01*
X29526Y9455D01*
X29543Y9429D01*
X29554Y9412D01*
X29557Y9410D01*
Y9407D01*
X29579Y9657D01*
X30004D01*
Y7648D01*
X29520D01*
Y9064D01*
X29490Y9103D01*
X29459Y9140D01*
X29425Y9171D01*
X29397Y9196D01*
X29372Y9219D01*
X29349Y9233D01*
X29338Y9244D01*
X29332Y9247D01*
X29290Y9272D01*
X29251Y9292D01*
X29211Y9303D01*
X29175Y9314D01*
X29147Y9320D01*
X29122Y9323D01*
X29102D01*
X29065Y9320D01*
X29034Y9317D01*
X29009Y9311D01*
X28987Y9303D01*
X28973Y9294D01*
X28958Y9289D01*
X28953Y9286D01*
X28950Y9283D01*
X28933Y9266D01*
X28916Y9250D01*
X28897Y9207D01*
X28888Y9188D01*
X28883Y9171D01*
X28880Y9160D01*
Y9157D01*
X28874Y9120D01*
X28869Y9078D01*
X28866Y9036D01*
X28863Y8991D01*
X28860Y8954D01*
Y8921D01*
Y8909D01*
Y8901D01*
Y8895D01*
Y8893D01*
Y7648D01*
X28377D01*
Y9098D01*
X28380Y9151D01*
X28382Y9199D01*
X28391Y9247D01*
X28399Y9289D01*
X28411Y9331D01*
X28422Y9368D01*
X28436Y9401D01*
X28450Y9432D01*
X28464Y9457D01*
X28478Y9483D01*
X28489Y9502D01*
X28501Y9519D01*
X28509Y9531D01*
X28517Y9539D01*
X28520Y9544D01*
X28523Y9547D01*
X28551Y9575D01*
X28585Y9601D01*
X28616Y9620D01*
X28652Y9640D01*
X28689Y9657D01*
X28725Y9668D01*
X28793Y9688D01*
X28826Y9693D01*
X28857Y9699D01*
X28885Y9702D01*
X28908Y9705D01*
X28928Y9708D01*
X28956D01*
X29023Y9705D01*
D02*
G37*
G36*
X46914D02*
X46965Y9702D01*
X47058Y9688D01*
X47103Y9677D01*
X47142Y9665D01*
X47181Y9654D01*
X47215Y9640D01*
X47246Y9629D01*
X47274Y9615D01*
X47299Y9604D01*
X47319Y9595D01*
X47333Y9584D01*
X47347Y9578D01*
X47353Y9575D01*
X47356Y9573D01*
X47429Y9519D01*
X47493Y9460D01*
X47547Y9398D01*
X47592Y9337D01*
X47625Y9283D01*
X47639Y9261D01*
X47651Y9241D01*
X47659Y9224D01*
X47665Y9213D01*
X47670Y9205D01*
Y9202D01*
X47704Y9109D01*
X47729Y9016D01*
X47749Y8924D01*
X47760Y8839D01*
X47766Y8800D01*
X47769Y8763D01*
X47771Y8732D01*
Y8707D01*
X47774Y8685D01*
Y8668D01*
Y8657D01*
Y8654D01*
X47769Y8536D01*
X47766Y8482D01*
X47757Y8429D01*
X47749Y8381D01*
X47741Y8333D01*
X47732Y8291D01*
X47721Y8252D01*
X47712Y8215D01*
X47704Y8185D01*
X47696Y8156D01*
X47687Y8134D01*
X47679Y8117D01*
X47676Y8103D01*
X47670Y8095D01*
Y8092D01*
X47625Y8008D01*
X47578Y7934D01*
X47524Y7873D01*
X47474Y7819D01*
X47451Y7797D01*
X47429Y7780D01*
X47409Y7763D01*
X47392Y7749D01*
X47378Y7740D01*
X47367Y7732D01*
X47361Y7729D01*
X47358Y7726D01*
X47319Y7704D01*
X47277Y7684D01*
X47195Y7653D01*
X47111Y7631D01*
X47032Y7617D01*
X46996Y7611D01*
X46965Y7606D01*
X46934Y7603D01*
X46909D01*
X46889Y7600D01*
X46861D01*
X46808Y7603D01*
X46757Y7606D01*
X46664Y7620D01*
X46619Y7631D01*
X46580Y7642D01*
X46541Y7653D01*
X46507Y7665D01*
X46476Y7676D01*
X46448Y7687D01*
X46426Y7698D01*
X46406Y7710D01*
X46389Y7718D01*
X46378Y7724D01*
X46372Y7729D01*
X46369D01*
X46296Y7783D01*
X46232Y7842D01*
X46178Y7903D01*
X46133Y7965D01*
X46099Y8019D01*
X46085Y8041D01*
X46074Y8061D01*
X46066Y8078D01*
X46060Y8089D01*
X46055Y8097D01*
Y8100D01*
X46018Y8193D01*
X45993Y8288D01*
X45973Y8381D01*
X45962Y8468D01*
X45956Y8508D01*
X45953Y8544D01*
X45951Y8575D01*
Y8603D01*
X45948Y8626D01*
Y8642D01*
Y8654D01*
Y8657D01*
X45953Y8772D01*
X45965Y8876D01*
X45973Y8924D01*
X45981Y8969D01*
X45990Y9011D01*
X46001Y9050D01*
X46012Y9084D01*
X46021Y9117D01*
X46029Y9143D01*
X46038Y9165D01*
X46043Y9185D01*
X46049Y9196D01*
X46055Y9205D01*
Y9207D01*
X46097Y9292D01*
X46147Y9365D01*
X46198Y9429D01*
X46248Y9480D01*
X46271Y9502D01*
X46293Y9522D01*
X46313Y9539D01*
X46330Y9553D01*
X46344Y9561D01*
X46355Y9570D01*
X46361Y9573D01*
X46364Y9575D01*
X46403Y9598D01*
X46445Y9620D01*
X46527Y9651D01*
X46611Y9677D01*
X46690Y9691D01*
X46726Y9696D01*
X46757Y9702D01*
X46788Y9705D01*
X46813D01*
X46833Y9708D01*
X46861D01*
X46914Y9705D01*
D02*
G37*
G36*
X49241Y21095D02*
X49269Y21087D01*
X49293Y21080D01*
X49316Y21068D01*
X49332Y21059D01*
X49344Y21050D01*
X49353Y21042D01*
X49355Y21040D01*
X49373Y21018D01*
X49387Y20996D01*
X49398Y20971D01*
X49403Y20951D01*
X49407Y20932D01*
X49409Y20915D01*
X49411Y20906D01*
Y20904D01*
Y20902D01*
X49409Y20872D01*
X49402Y20844D01*
X49392Y20822D01*
X49383Y20801D01*
X49372Y20784D01*
X49364Y20771D01*
X49357Y20764D01*
X49355Y20762D01*
X49332Y20743D01*
X49308Y20730D01*
X49284Y20719D01*
X49259Y20713D01*
X49239Y20709D01*
X49224Y20707D01*
X49213Y20706D01*
X49209D01*
X49177Y20707D01*
X49149Y20715D01*
X49123Y20724D01*
X49102Y20734D01*
X49086Y20745D01*
X49073Y20752D01*
X49065Y20760D01*
X49063Y20762D01*
X49044Y20784D01*
X49029Y20807D01*
X49020Y20831D01*
X49013Y20853D01*
X49009Y20872D01*
X49005Y20889D01*
Y20898D01*
Y20902D01*
X49007Y20932D01*
X49014Y20958D01*
X49024Y20982D01*
X49033Y21003D01*
X49044Y21018D01*
X49054Y21031D01*
X49061Y21038D01*
X49063Y21040D01*
X49086Y21059D01*
X49110Y21072D01*
X49134Y21083D01*
X49157Y21089D01*
X49177Y21093D01*
X49194Y21096D01*
X49209D01*
X49241Y21095D01*
D02*
G37*
G36*
X39115Y19127D02*
X39029D01*
X39057Y19083D01*
X39070Y19062D01*
X39083Y19043D01*
X39092Y19028D01*
X39102Y19015D01*
X39107Y19008D01*
X39109Y19006D01*
X39126Y18985D01*
X39145Y18965D01*
X39165Y18950D01*
X39184Y18935D01*
X39199Y18924D01*
X39214Y18916D01*
X39221Y18910D01*
X39225Y18909D01*
X39255Y18895D01*
X39289Y18884D01*
X39324Y18873D01*
X39360Y18866D01*
X39391Y18858D01*
X39406Y18854D01*
X39418Y18852D01*
X39429Y18851D01*
X39436D01*
X39440Y18849D01*
X39442D01*
X39403Y18600D01*
X39350Y18606D01*
X39302Y18613D01*
X39255Y18622D01*
X39212Y18635D01*
X39173Y18647D01*
X39137Y18662D01*
X39103Y18675D01*
X39074Y18690D01*
X39047Y18703D01*
X39025Y18716D01*
X39006Y18729D01*
X38989Y18738D01*
X38978Y18748D01*
X38969Y18755D01*
X38963Y18759D01*
X38961Y18761D01*
X38933Y18787D01*
X38907Y18817D01*
X38860Y18877D01*
X38819Y18940D01*
X38787Y19000D01*
X38772Y19028D01*
X38761Y19054D01*
X38750Y19079D01*
X38743Y19099D01*
X38735Y19116D01*
X38731Y19127D01*
X38728Y19137D01*
Y19139D01*
X38281Y20464D01*
X38604D01*
X38917Y19367D01*
X39223Y20464D01*
X39556D01*
X39115Y19127D01*
D02*
G37*
G36*
X52164Y20496D02*
X52197Y20494D01*
X52259Y20483D01*
X52289Y20476D01*
X52315Y20468D01*
X52341Y20461D01*
X52364Y20451D01*
X52384Y20442D01*
X52403Y20435D01*
X52420Y20427D01*
X52433Y20419D01*
X52442Y20414D01*
X52451Y20408D01*
X52455Y20406D01*
X52457Y20405D01*
X52506Y20367D01*
X52549Y20326D01*
X52586Y20285D01*
X52616Y20246D01*
X52639Y20210D01*
X52648Y20193D01*
X52657Y20180D01*
X52663Y20169D01*
X52667Y20161D01*
X52670Y20156D01*
Y20154D01*
X52695Y20092D01*
X52713Y20030D01*
X52725Y19971D01*
X52734Y19915D01*
X52738Y19890D01*
X52740Y19866D01*
X52741Y19845D01*
Y19829D01*
X52743Y19814D01*
Y19804D01*
Y19797D01*
Y19795D01*
X52740Y19720D01*
X52732Y19651D01*
X52726Y19617D01*
X52719Y19587D01*
X52713Y19559D01*
X52706Y19533D01*
X52698Y19511D01*
X52693Y19490D01*
X52685Y19471D01*
X52680Y19456D01*
X52676Y19445D01*
X52672Y19436D01*
X52668Y19430D01*
Y19428D01*
X52637Y19372D01*
X52603Y19324D01*
X52566Y19283D01*
X52530Y19247D01*
X52513Y19232D01*
X52498Y19219D01*
X52483Y19208D01*
X52472Y19200D01*
X52461Y19193D01*
X52453Y19187D01*
X52450Y19185D01*
X52448Y19183D01*
X52420Y19169D01*
X52390Y19155D01*
X52332Y19133D01*
X52272Y19118D01*
X52218Y19107D01*
X52192Y19103D01*
X52169Y19101D01*
X52149Y19097D01*
X52130D01*
X52117Y19096D01*
X52096D01*
X52046Y19097D01*
X51997Y19103D01*
X51952Y19109D01*
X51913Y19118D01*
X51894Y19122D01*
X51879Y19126D01*
X51866Y19129D01*
X51855Y19131D01*
X51846Y19135D01*
X51838Y19137D01*
X51834Y19139D01*
X51833D01*
X51786Y19157D01*
X51743Y19178D01*
X51704Y19200D01*
X51670Y19223D01*
X51642Y19243D01*
X51631Y19253D01*
X51621Y19260D01*
X51612Y19266D01*
X51606Y19271D01*
X51604Y19273D01*
X51603Y19275D01*
X51739Y19468D01*
X51776Y19447D01*
X51810Y19428D01*
X51842Y19413D01*
X51868Y19400D01*
X51889Y19391D01*
X51906Y19385D01*
X51915Y19382D01*
X51919Y19380D01*
X51948Y19370D01*
X51977Y19365D01*
X52005Y19359D01*
X52029Y19357D01*
X52051Y19355D01*
X52068Y19354D01*
X52083D01*
X52109Y19355D01*
X52134Y19357D01*
X52179Y19367D01*
X52218Y19382D01*
X52251Y19397D01*
X52278Y19412D01*
X52289Y19419D01*
X52296Y19426D01*
X52304Y19432D01*
X52309Y19436D01*
X52311Y19440D01*
X52313D01*
X52343Y19475D01*
X52365Y19514D01*
X52382Y19556D01*
X52395Y19595D01*
X52403Y19630D01*
X52405Y19645D01*
X52407Y19658D01*
X52408Y19670D01*
X52410Y19677D01*
Y19683D01*
Y19685D01*
X51558D01*
X51556Y19713D01*
X51554Y19741D01*
X51552Y19765D01*
X51550Y19787D01*
Y19804D01*
Y19819D01*
Y19827D01*
Y19830D01*
X51554Y19903D01*
X51561Y19973D01*
X51567Y20003D01*
X51573Y20032D01*
X51578Y20059D01*
X51586Y20083D01*
X51593Y20105D01*
X51599Y20126D01*
X51604Y20143D01*
X51610Y20158D01*
X51614Y20169D01*
X51617Y20176D01*
X51621Y20182D01*
Y20184D01*
X51649Y20238D01*
X51681Y20285D01*
X51715Y20324D01*
X51747Y20356D01*
X51776Y20382D01*
X51790Y20393D01*
X51799Y20401D01*
X51808Y20408D01*
X51816Y20412D01*
X51819Y20416D01*
X51821D01*
X51846Y20431D01*
X51872Y20444D01*
X51924Y20462D01*
X51977Y20478D01*
X52025Y20489D01*
X52046Y20491D01*
X52066Y20494D01*
X52085Y20496D01*
X52100D01*
X52113Y20498D01*
X52130D01*
X52164Y20496D01*
D02*
G37*
G36*
X44815D02*
X44848Y20494D01*
X44910Y20483D01*
X44940Y20476D01*
X44966Y20468D01*
X44992Y20461D01*
X45015Y20451D01*
X45035Y20442D01*
X45054Y20435D01*
X45071Y20427D01*
X45084Y20419D01*
X45093Y20414D01*
X45102Y20408D01*
X45106Y20406D01*
X45108Y20405D01*
X45157Y20367D01*
X45200Y20326D01*
X45237Y20285D01*
X45267Y20246D01*
X45289Y20210D01*
X45299Y20193D01*
X45308Y20180D01*
X45314Y20169D01*
X45318Y20161D01*
X45321Y20156D01*
Y20154D01*
X45346Y20092D01*
X45364Y20030D01*
X45375Y19971D01*
X45385Y19915D01*
X45389Y19890D01*
X45390Y19866D01*
X45392Y19845D01*
Y19829D01*
X45394Y19814D01*
Y19804D01*
Y19797D01*
Y19795D01*
X45390Y19720D01*
X45383Y19651D01*
X45377Y19617D01*
X45370Y19587D01*
X45364Y19559D01*
X45357Y19533D01*
X45349Y19511D01*
X45344Y19490D01*
X45336Y19471D01*
X45331Y19456D01*
X45327Y19445D01*
X45323Y19436D01*
X45319Y19430D01*
Y19428D01*
X45288Y19372D01*
X45254Y19324D01*
X45217Y19283D01*
X45181Y19247D01*
X45164Y19232D01*
X45149Y19219D01*
X45134Y19208D01*
X45123Y19200D01*
X45112Y19193D01*
X45104Y19187D01*
X45101Y19185D01*
X45099Y19183D01*
X45071Y19169D01*
X45041Y19155D01*
X44983Y19133D01*
X44923Y19118D01*
X44869Y19107D01*
X44842Y19103D01*
X44820Y19101D01*
X44800Y19097D01*
X44781D01*
X44768Y19096D01*
X44747D01*
X44697Y19097D01*
X44648Y19103D01*
X44603Y19109D01*
X44564Y19118D01*
X44545Y19122D01*
X44530Y19126D01*
X44517Y19129D01*
X44506Y19131D01*
X44497Y19135D01*
X44489Y19137D01*
X44485Y19139D01*
X44484D01*
X44437Y19157D01*
X44394Y19178D01*
X44355Y19200D01*
X44321Y19223D01*
X44293Y19243D01*
X44282Y19253D01*
X44272Y19260D01*
X44263Y19266D01*
X44257Y19271D01*
X44255Y19273D01*
X44254Y19275D01*
X44390Y19468D01*
X44427Y19447D01*
X44461Y19428D01*
X44493Y19413D01*
X44519Y19400D01*
X44540Y19391D01*
X44556Y19385D01*
X44566Y19382D01*
X44570Y19380D01*
X44599Y19370D01*
X44627Y19365D01*
X44655Y19359D01*
X44680Y19357D01*
X44702Y19355D01*
X44719Y19354D01*
X44734D01*
X44760Y19355D01*
X44785Y19357D01*
X44829Y19367D01*
X44869Y19382D01*
X44902Y19397D01*
X44929Y19412D01*
X44940Y19419D01*
X44947Y19426D01*
X44955Y19432D01*
X44960Y19436D01*
X44962Y19440D01*
X44964D01*
X44994Y19475D01*
X45016Y19514D01*
X45033Y19556D01*
X45046Y19595D01*
X45054Y19630D01*
X45056Y19645D01*
X45058Y19658D01*
X45059Y19670D01*
X45061Y19677D01*
Y19683D01*
Y19685D01*
X44209D01*
X44207Y19713D01*
X44205Y19741D01*
X44203Y19765D01*
X44201Y19787D01*
Y19804D01*
Y19819D01*
Y19827D01*
Y19830D01*
X44205Y19903D01*
X44212Y19973D01*
X44218Y20003D01*
X44224Y20032D01*
X44229Y20059D01*
X44237Y20083D01*
X44244Y20105D01*
X44250Y20126D01*
X44255Y20143D01*
X44261Y20158D01*
X44265Y20169D01*
X44268Y20176D01*
X44272Y20182D01*
Y20184D01*
X44300Y20238D01*
X44332Y20285D01*
X44366Y20324D01*
X44398Y20356D01*
X44427Y20382D01*
X44440Y20393D01*
X44450Y20401D01*
X44459Y20408D01*
X44467Y20412D01*
X44470Y20416D01*
X44472D01*
X44497Y20431D01*
X44523Y20444D01*
X44575Y20462D01*
X44627Y20478D01*
X44676Y20489D01*
X44697Y20491D01*
X44717Y20494D01*
X44736Y20496D01*
X44751D01*
X44764Y20498D01*
X44781D01*
X44815Y20496D01*
D02*
G37*
G36*
X54200Y19127D02*
X53762D01*
X53699Y19129D01*
X53637Y19135D01*
X53579Y19146D01*
X53525Y19157D01*
X53474Y19172D01*
X53426Y19189D01*
X53383Y19206D01*
X53343Y19225D01*
X53308Y19241D01*
X53276Y19258D01*
X53248Y19275D01*
X53226Y19290D01*
X53209Y19303D01*
X53196Y19312D01*
X53187Y19318D01*
X53185Y19320D01*
X53143Y19359D01*
X53108Y19406D01*
X53078Y19455D01*
X53052Y19509D01*
X53029Y19565D01*
X53011Y19621D01*
X52996Y19679D01*
X52983Y19735D01*
X52973Y19787D01*
X52966Y19838D01*
X52962Y19883D01*
X52958Y19924D01*
X52956Y19941D01*
Y19956D01*
X52955Y19971D01*
Y19982D01*
Y19989D01*
Y19997D01*
Y20001D01*
Y20003D01*
X52956Y20064D01*
X52960Y20122D01*
X52966Y20176D01*
X52973Y20227D01*
X52981Y20274D01*
X52992Y20317D01*
X53001Y20356D01*
X53013Y20393D01*
X53024Y20423D01*
X53033Y20451D01*
X53044Y20476D01*
X53052Y20494D01*
X53059Y20509D01*
X53065Y20520D01*
X53069Y20528D01*
X53070Y20530D01*
X53093Y20563D01*
X53115Y20595D01*
X53140Y20625D01*
X53166Y20651D01*
X53190Y20674D01*
X53215Y20696D01*
X53239Y20715D01*
X53263Y20732D01*
X53286Y20745D01*
X53304Y20758D01*
X53323Y20767D01*
X53340Y20777D01*
X53351Y20782D01*
X53362Y20786D01*
X53368Y20790D01*
X53370D01*
X53441Y20814D01*
X53514Y20831D01*
X53585Y20844D01*
X53618Y20848D01*
X53650Y20852D01*
X53678Y20855D01*
X53706Y20857D01*
X53731Y20859D01*
X53751D01*
X53768Y20861D01*
X54200D01*
Y19127D01*
D02*
G37*
G36*
X49690Y20218D02*
X49316D01*
Y19374D01*
X49703D01*
Y19127D01*
X48642D01*
Y19374D01*
X48994D01*
Y20464D01*
X49690D01*
Y20218D01*
D02*
G37*
G36*
X46155Y20496D02*
X46200Y20489D01*
X46239Y20481D01*
X46277Y20470D01*
X46307Y20461D01*
X46320Y20455D01*
X46329Y20451D01*
X46338Y20448D01*
X46344Y20444D01*
X46348Y20442D01*
X46350D01*
X46389Y20419D01*
X46423Y20397D01*
X46451Y20373D01*
X46473Y20350D01*
X46490Y20330D01*
X46501Y20313D01*
X46509Y20302D01*
X46511Y20300D01*
Y20298D01*
X46525Y20464D01*
X46808D01*
Y19127D01*
X46486D01*
Y20070D01*
X46466Y20096D01*
X46445Y20120D01*
X46423Y20141D01*
X46404Y20158D01*
X46387Y20173D01*
X46372Y20182D01*
X46365Y20189D01*
X46361Y20191D01*
X46333Y20208D01*
X46307Y20221D01*
X46281Y20229D01*
X46256Y20236D01*
X46237Y20240D01*
X46221Y20242D01*
X46208D01*
X46183Y20240D01*
X46163Y20238D01*
X46146Y20234D01*
X46131Y20229D01*
X46122Y20223D01*
X46112Y20219D01*
X46108Y20218D01*
X46107Y20216D01*
X46095Y20204D01*
X46084Y20193D01*
X46071Y20165D01*
X46066Y20152D01*
X46062Y20141D01*
X46060Y20133D01*
Y20132D01*
X46056Y20107D01*
X46052Y20079D01*
X46051Y20051D01*
X46049Y20021D01*
X46047Y19997D01*
Y19974D01*
Y19967D01*
Y19961D01*
Y19958D01*
Y19956D01*
Y19127D01*
X45725D01*
Y20092D01*
X45727Y20128D01*
X45729Y20160D01*
X45735Y20191D01*
X45740Y20219D01*
X45748Y20247D01*
X45755Y20272D01*
X45764Y20294D01*
X45774Y20315D01*
X45783Y20332D01*
X45792Y20348D01*
X45800Y20361D01*
X45807Y20373D01*
X45813Y20380D01*
X45819Y20386D01*
X45821Y20390D01*
X45822Y20391D01*
X45841Y20410D01*
X45864Y20427D01*
X45884Y20440D01*
X45908Y20453D01*
X45933Y20464D01*
X45957Y20472D01*
X46002Y20485D01*
X46024Y20489D01*
X46045Y20492D01*
X46064Y20494D01*
X46079Y20496D01*
X46092Y20498D01*
X46110D01*
X46155Y20496D01*
D02*
G37*
G36*
X40949Y19127D02*
X40429D01*
X40375Y19129D01*
X40325Y19133D01*
X40276Y19139D01*
X40231Y19146D01*
X40188Y19155D01*
X40147Y19165D01*
X40110Y19176D01*
X40076Y19187D01*
X40046Y19196D01*
X40020Y19208D01*
X39997Y19217D01*
X39979Y19226D01*
X39964Y19234D01*
X39952Y19240D01*
X39945Y19243D01*
X39943Y19245D01*
X39909Y19270D01*
X39880Y19296D01*
X39853Y19326D01*
X39831Y19355D01*
X39812Y19389D01*
X39795Y19421D01*
X39782Y19455D01*
X39773Y19486D01*
X39766Y19516D01*
X39758Y19544D01*
X39754Y19570D01*
X39752Y19593D01*
X39750Y19612D01*
X39749Y19627D01*
Y19634D01*
Y19638D01*
X39750Y19673D01*
X39754Y19709D01*
X39760Y19741D01*
X39767Y19769D01*
X39777Y19797D01*
X39786Y19821D01*
X39797Y19843D01*
X39807Y19862D01*
X39818Y19881D01*
X39829Y19896D01*
X39838Y19907D01*
X39848Y19918D01*
X39855Y19926D01*
X39861Y19933D01*
X39865Y19935D01*
X39866Y19937D01*
X39889Y19956D01*
X39911Y19971D01*
X39934Y19986D01*
X39956Y19997D01*
X40001Y20016D01*
X40044Y20030D01*
X40063Y20034D01*
X40080Y20040D01*
X40095Y20042D01*
X40108Y20044D01*
X40119Y20045D01*
X40126Y20047D01*
X40134D01*
X40111Y20049D01*
X40089Y20055D01*
X40050Y20068D01*
X40012Y20085D01*
X39981Y20103D01*
X39954Y20122D01*
X39936Y20139D01*
X39928Y20145D01*
X39923Y20150D01*
X39921Y20152D01*
X39919Y20154D01*
X39902Y20173D01*
X39887Y20193D01*
X39874Y20214D01*
X39863Y20236D01*
X39846Y20279D01*
X39835Y20320D01*
X39829Y20356D01*
X39827Y20373D01*
X39825Y20386D01*
X39823Y20397D01*
Y20405D01*
Y20410D01*
Y20412D01*
X39825Y20455D01*
X39831Y20496D01*
X39840Y20534D01*
X39851Y20567D01*
X39866Y20597D01*
X39881Y20627D01*
X39898Y20651D01*
X39915Y20674D01*
X39932Y20694D01*
X39949Y20711D01*
X39964Y20724D01*
X39979Y20735D01*
X39990Y20745D01*
X39999Y20751D01*
X40005Y20754D01*
X40007Y20756D01*
X40042Y20775D01*
X40078Y20792D01*
X40117Y20805D01*
X40154Y20816D01*
X40231Y20835D01*
X40267Y20842D01*
X40302Y20848D01*
X40336Y20852D01*
X40366Y20855D01*
X40394Y20857D01*
X40416Y20859D01*
X40437Y20861D01*
X40949D01*
Y19127D01*
D02*
G37*
G36*
X50722Y20496D02*
X50776Y20491D01*
X50825Y20483D01*
X50845Y20478D01*
X50866Y20474D01*
X50884Y20470D01*
X50899Y20464D01*
X50914Y20461D01*
X50926Y20457D01*
X50935Y20453D01*
X50942Y20451D01*
X50946Y20449D01*
X50948D01*
X50991Y20429D01*
X51029Y20408D01*
X51060Y20384D01*
X51088Y20361D01*
X51109Y20343D01*
X51124Y20326D01*
X51133Y20315D01*
X51137Y20313D01*
Y20311D01*
X51159Y20277D01*
X51174Y20242D01*
X51186Y20208D01*
X51195Y20175D01*
X51199Y20146D01*
X51200Y20135D01*
Y20126D01*
X51202Y20117D01*
Y20111D01*
Y20107D01*
Y20105D01*
X51200Y20064D01*
X51193Y20027D01*
X51186Y19993D01*
X51174Y19965D01*
X51165Y19943D01*
X51156Y19926D01*
X51150Y19915D01*
X51148Y19911D01*
X51126Y19883D01*
X51101Y19859D01*
X51077Y19836D01*
X51053Y19817D01*
X51032Y19802D01*
X51013Y19793D01*
X51002Y19786D01*
X51000Y19784D01*
X50999D01*
X50961Y19767D01*
X50920Y19750D01*
X50881Y19737D01*
X50843Y19724D01*
X50810Y19715D01*
X50797Y19709D01*
X50783Y19707D01*
X50774Y19703D01*
X50767Y19701D01*
X50763Y19700D01*
X50761D01*
X50714Y19688D01*
X50675Y19677D01*
X50643Y19666D01*
X50615Y19657D01*
X50595Y19649D01*
X50580Y19644D01*
X50572Y19640D01*
X50568Y19638D01*
X50546Y19627D01*
X50529Y19615D01*
X50514Y19606D01*
X50503Y19597D01*
X50495Y19589D01*
X50490Y19584D01*
X50486Y19580D01*
Y19578D01*
X50481Y19567D01*
X50475Y19554D01*
X50469Y19529D01*
X50467Y19518D01*
Y19509D01*
Y19503D01*
Y19501D01*
X50471Y19477D01*
X50479Y19455D01*
X50488Y19436D01*
X50501Y19421D01*
X50514Y19408D01*
X50524Y19399D01*
X50531Y19393D01*
X50535Y19391D01*
X50563Y19378D01*
X50593Y19367D01*
X50625Y19359D01*
X50655Y19355D01*
X50682Y19352D01*
X50703Y19350D01*
X50724D01*
X50763Y19352D01*
X50800Y19355D01*
X50834Y19361D01*
X50864Y19369D01*
X50888Y19374D01*
X50907Y19380D01*
X50914Y19382D01*
X50920Y19384D01*
X50922Y19385D01*
X50924D01*
X50959Y19400D01*
X50993Y19417D01*
X51025Y19434D01*
X51053Y19451D01*
X51077Y19466D01*
X51096Y19479D01*
X51103Y19483D01*
X51109Y19486D01*
X51111Y19490D01*
X51113D01*
X51279Y19297D01*
X51238Y19262D01*
X51195Y19230D01*
X51154Y19204D01*
X51116Y19182D01*
X51085Y19165D01*
X51070Y19159D01*
X51058Y19153D01*
X51049Y19150D01*
X51042Y19146D01*
X51038Y19144D01*
X51036D01*
X50984Y19127D01*
X50929Y19116D01*
X50877Y19107D01*
X50828Y19101D01*
X50806Y19099D01*
X50787Y19097D01*
X50769D01*
X50754Y19096D01*
X50724D01*
X50666Y19097D01*
X50612Y19103D01*
X50561Y19109D01*
X50518Y19118D01*
X50499Y19122D01*
X50482Y19126D01*
X50467Y19129D01*
X50454Y19131D01*
X50445Y19135D01*
X50438Y19137D01*
X50434Y19139D01*
X50432D01*
X50383Y19157D01*
X50340Y19180D01*
X50303Y19202D01*
X50271Y19226D01*
X50247Y19247D01*
X50228Y19264D01*
X50222Y19270D01*
X50217Y19275D01*
X50213Y19277D01*
Y19279D01*
X50198Y19297D01*
X50185Y19316D01*
X50165Y19357D01*
X50150Y19397D01*
X50140Y19436D01*
X50133Y19468D01*
X50131Y19483D01*
Y19494D01*
X50129Y19505D01*
Y19513D01*
Y19516D01*
Y19518D01*
X50131Y19563D01*
X50137Y19602D01*
X50146Y19638D01*
X50155Y19668D01*
X50166Y19692D01*
X50174Y19709D01*
X50181Y19720D01*
X50183Y19724D01*
X50204Y19754D01*
X50228Y19780D01*
X50252Y19802D01*
X50275Y19821D01*
X50297Y19834D01*
X50314Y19845D01*
X50325Y19853D01*
X50327Y19855D01*
X50329D01*
X50366Y19873D01*
X50406Y19888D01*
X50445Y19903D01*
X50482Y19917D01*
X50514Y19928D01*
X50529Y19931D01*
X50540Y19935D01*
X50552Y19939D01*
X50559Y19941D01*
X50563Y19943D01*
X50565D01*
X50612Y19956D01*
X50651Y19969D01*
X50686Y19980D01*
X50714Y19989D01*
X50735Y19997D01*
X50750Y20003D01*
X50759Y20004D01*
X50763Y20006D01*
X50785Y20016D01*
X50804Y20025D01*
X50821Y20034D01*
X50832Y20042D01*
X50841Y20049D01*
X50847Y20055D01*
X50851Y20057D01*
X50853Y20059D01*
X50860Y20070D01*
X50866Y20081D01*
X50871Y20102D01*
X50873Y20111D01*
X50875Y20118D01*
Y20124D01*
Y20126D01*
X50873Y20146D01*
X50866Y20165D01*
X50855Y20180D01*
X50841Y20193D01*
X50825Y20206D01*
X50806Y20216D01*
X50765Y20229D01*
X50724Y20238D01*
X50705Y20240D01*
X50688Y20242D01*
X50675Y20244D01*
X50655D01*
X50617Y20242D01*
X50583Y20240D01*
X50552Y20234D01*
X50524Y20229D01*
X50499Y20223D01*
X50482Y20219D01*
X50471Y20216D01*
X50467Y20214D01*
X50434Y20203D01*
X50402Y20189D01*
X50370Y20175D01*
X50340Y20161D01*
X50316Y20148D01*
X50297Y20139D01*
X50290Y20135D01*
X50284Y20132D01*
X50282Y20130D01*
X50280D01*
X50148Y20332D01*
X50189Y20361D01*
X50232Y20386D01*
X50277Y20408D01*
X50320Y20427D01*
X50365Y20444D01*
X50406Y20457D01*
X50447Y20468D01*
X50486Y20478D01*
X50524Y20485D01*
X50557Y20489D01*
X50587Y20492D01*
X50612Y20496D01*
X50634D01*
X50649Y20498D01*
X50662D01*
X50722Y20496D01*
D02*
G37*
G36*
X43111Y20360D02*
X43130Y20384D01*
X43150Y20405D01*
X43173Y20423D01*
X43197Y20440D01*
X43221Y20453D01*
X43246Y20464D01*
X43272Y20474D01*
X43296Y20481D01*
X43319Y20487D01*
X43341Y20491D01*
X43360Y20494D01*
X43378Y20496D01*
X43391Y20498D01*
X43412D01*
X43442Y20496D01*
X43472Y20494D01*
X43526Y20483D01*
X43575Y20470D01*
X43597Y20461D01*
X43616Y20453D01*
X43635Y20444D01*
X43651Y20436D01*
X43664Y20427D01*
X43676Y20421D01*
X43685Y20416D01*
X43692Y20410D01*
X43696Y20408D01*
X43698Y20406D01*
X43741Y20369D01*
X43778Y20328D01*
X43810Y20287D01*
X43837Y20247D01*
X43857Y20212D01*
X43865Y20195D01*
X43872Y20182D01*
X43876Y20171D01*
X43880Y20163D01*
X43883Y20158D01*
Y20156D01*
X43904Y20094D01*
X43919Y20032D01*
X43930Y19973D01*
X43937Y19917D01*
X43939Y19892D01*
X43941Y19868D01*
X43943Y19847D01*
Y19830D01*
X43945Y19816D01*
Y19806D01*
Y19799D01*
Y19797D01*
X43943Y19737D01*
X43939Y19683D01*
X43934Y19630D01*
X43924Y19580D01*
X43915Y19535D01*
X43904Y19492D01*
X43893Y19455D01*
X43881Y19419D01*
X43870Y19389D01*
X43857Y19361D01*
X43848Y19339D01*
X43838Y19320D01*
X43829Y19303D01*
X43823Y19294D01*
X43820Y19286D01*
X43818Y19284D01*
X43792Y19251D01*
X43765Y19223D01*
X43736Y19196D01*
X43704Y19176D01*
X43674Y19157D01*
X43642Y19142D01*
X43610Y19129D01*
X43578Y19120D01*
X43550Y19110D01*
X43524Y19105D01*
X43500Y19101D01*
X43477Y19099D01*
X43461Y19097D01*
X43448Y19096D01*
X43436D01*
X43393Y19097D01*
X43352Y19103D01*
X43315Y19112D01*
X43283Y19122D01*
X43257Y19129D01*
X43236Y19139D01*
X43229Y19142D01*
X43223Y19144D01*
X43221Y19146D01*
X43219D01*
X43186Y19167D01*
X43158Y19191D01*
X43135Y19213D01*
X43117Y19236D01*
X43103Y19256D01*
X43096Y19271D01*
X43090Y19283D01*
X43088Y19284D01*
Y19286D01*
X43075Y19127D01*
X42787D01*
Y20980D01*
X43111Y21016D01*
Y20360D01*
D02*
G37*
G36*
X47193Y20614D02*
X47230Y20597D01*
X47262Y20584D01*
X47290Y20573D01*
X47311Y20565D01*
X47328Y20560D01*
X47337Y20556D01*
X47341Y20554D01*
X47369Y20545D01*
X47399Y20537D01*
X47429Y20530D01*
X47457Y20524D01*
X47481Y20519D01*
X47500Y20517D01*
X47507Y20515D01*
X47513Y20513D01*
X47517D01*
X47556Y20507D01*
X47597Y20504D01*
X47638Y20502D01*
X47677Y20500D01*
X47711Y20498D01*
X47762D01*
X47821Y20496D01*
X47876Y20489D01*
X47926Y20479D01*
X47949Y20474D01*
X47969Y20468D01*
X47988Y20461D01*
X48005Y20455D01*
X48018Y20451D01*
X48031Y20446D01*
X48040Y20442D01*
X48048Y20438D01*
X48051Y20436D01*
X48053D01*
X48098Y20412D01*
X48139Y20384D01*
X48173Y20356D01*
X48203Y20330D01*
X48225Y20304D01*
X48242Y20285D01*
X48248Y20277D01*
X48252Y20272D01*
X48255Y20268D01*
Y20266D01*
X48280Y20225D01*
X48296Y20182D01*
X48309Y20139D01*
X48317Y20102D01*
X48323Y20068D01*
X48324Y20053D01*
Y20042D01*
X48326Y20030D01*
Y20023D01*
Y20019D01*
Y20018D01*
X48324Y19969D01*
X48317Y19926D01*
X48308Y19888D01*
X48298Y19855D01*
X48287Y19829D01*
X48283Y19817D01*
X48280Y19808D01*
X48276Y19801D01*
X48272Y19795D01*
X48270Y19793D01*
Y19791D01*
X48246Y19758D01*
X48220Y19729D01*
X48192Y19707D01*
X48166Y19687D01*
X48141Y19671D01*
X48123Y19662D01*
X48115Y19658D01*
X48109Y19655D01*
X48106Y19653D01*
X48104D01*
X48126Y19642D01*
X48147Y19627D01*
X48166Y19612D01*
X48180Y19597D01*
X48192Y19584D01*
X48201Y19572D01*
X48207Y19565D01*
X48208Y19561D01*
X48222Y19537D01*
X48231Y19513D01*
X48238Y19488D01*
X48242Y19468D01*
X48246Y19449D01*
X48248Y19436D01*
Y19426D01*
Y19423D01*
X48246Y19395D01*
X48240Y19369D01*
X48235Y19346D01*
X48225Y19326D01*
X48218Y19309D01*
X48212Y19296D01*
X48207Y19288D01*
X48205Y19284D01*
X48186Y19262D01*
X48167Y19243D01*
X48145Y19226D01*
X48124Y19213D01*
X48106Y19202D01*
X48091Y19195D01*
X48081Y19189D01*
X48078Y19187D01*
X48044Y19176D01*
X48008Y19167D01*
X47975Y19161D01*
X47941Y19155D01*
X47913Y19153D01*
X47900D01*
X47891Y19152D01*
X47648D01*
X47610Y19150D01*
X47576Y19146D01*
X47548Y19140D01*
X47524Y19133D01*
X47505Y19126D01*
X47492Y19120D01*
X47483Y19116D01*
X47481Y19114D01*
X47460Y19099D01*
X47446Y19083D01*
X47436Y19066D01*
X47429Y19051D01*
X47425Y19036D01*
X47421Y19025D01*
Y19017D01*
Y19013D01*
X47425Y18985D01*
X47434Y18961D01*
X47446Y18938D01*
X47460Y18922D01*
X47475Y18909D01*
X47487Y18897D01*
X47496Y18892D01*
X47500Y18890D01*
X47515Y18882D01*
X47533Y18875D01*
X47573Y18866D01*
X47618Y18858D01*
X47661Y18852D01*
X47702Y18849D01*
X47719D01*
X47735Y18847D01*
X47810D01*
X47850Y18851D01*
X47885Y18852D01*
X47911Y18856D01*
X47934Y18860D01*
X47949Y18862D01*
X47958Y18866D01*
X47962D01*
X47984Y18873D01*
X48003Y18882D01*
X48018Y18892D01*
X48031Y18901D01*
X48038Y18909D01*
X48046Y18916D01*
X48048Y18920D01*
X48050Y18922D01*
X48057Y18937D01*
X48063Y18957D01*
X48068Y18998D01*
X48070Y19017D01*
X48072Y19032D01*
Y19043D01*
Y19045D01*
Y19047D01*
X48368D01*
X48366Y18989D01*
X48358Y18937D01*
X48354Y18914D01*
X48349Y18892D01*
X48345Y18873D01*
X48339Y18856D01*
X48334Y18839D01*
X48328Y18826D01*
X48324Y18815D01*
X48321Y18806D01*
X48317Y18798D01*
X48313Y18793D01*
X48311Y18791D01*
Y18789D01*
X48287Y18755D01*
X48257Y18727D01*
X48225Y18703D01*
X48195Y18684D01*
X48167Y18669D01*
X48154Y18662D01*
X48143Y18658D01*
X48136Y18654D01*
X48128Y18651D01*
X48124Y18649D01*
X48123D01*
X48096Y18641D01*
X48068Y18634D01*
X48010Y18622D01*
X47952Y18613D01*
X47894Y18608D01*
X47868Y18606D01*
X47844Y18604D01*
X47823D01*
X47805Y18602D01*
X47767D01*
X47690Y18604D01*
X47655Y18606D01*
X47621Y18609D01*
X47590Y18613D01*
X47560Y18617D01*
X47533Y18622D01*
X47507Y18626D01*
X47485Y18630D01*
X47464Y18635D01*
X47447Y18639D01*
X47433Y18643D01*
X47421Y18647D01*
X47414Y18649D01*
X47408Y18651D01*
X47406D01*
X47354Y18671D01*
X47307Y18693D01*
X47268Y18718D01*
X47236Y18742D01*
X47210Y18763D01*
X47193Y18781D01*
X47182Y18793D01*
X47178Y18794D01*
Y18796D01*
X47163Y18815D01*
X47152Y18834D01*
X47131Y18875D01*
X47116Y18914D01*
X47107Y18952D01*
X47102Y18983D01*
X47100Y18996D01*
Y19010D01*
X47098Y19019D01*
Y19026D01*
Y19030D01*
Y19032D01*
X47100Y19071D01*
X47107Y19107D01*
X47118Y19140D01*
X47129Y19169D01*
X47143Y19191D01*
X47152Y19210D01*
X47159Y19221D01*
X47163Y19225D01*
X47189Y19256D01*
X47217Y19283D01*
X47247Y19307D01*
X47275Y19326D01*
X47300Y19341D01*
X47320Y19352D01*
X47328Y19355D01*
X47333Y19359D01*
X47337Y19361D01*
X47339D01*
X47382Y19378D01*
X47425Y19391D01*
X47468Y19399D01*
X47507Y19406D01*
X47541Y19410D01*
X47556D01*
X47567Y19412D01*
X47846D01*
X47870Y19415D01*
X47889Y19417D01*
X47904Y19421D01*
X47915Y19425D01*
X47922Y19426D01*
X47926Y19430D01*
X47928D01*
X47937Y19438D01*
X47943Y19447D01*
X47951Y19466D01*
X47952Y19473D01*
X47954Y19481D01*
Y19485D01*
Y19486D01*
X47952Y19503D01*
X47947Y19518D01*
X47943Y19529D01*
X47941Y19531D01*
Y19533D01*
X47932Y19548D01*
X47924Y19559D01*
X47919Y19567D01*
X47917Y19569D01*
X47891Y19561D01*
X47863Y19556D01*
X47835Y19552D01*
X47807Y19550D01*
X47780Y19548D01*
X47762Y19546D01*
X47743D01*
X47685Y19548D01*
X47631Y19556D01*
X47584Y19565D01*
X47561Y19570D01*
X47543Y19576D01*
X47524Y19580D01*
X47509Y19586D01*
X47494Y19591D01*
X47483Y19595D01*
X47474Y19599D01*
X47468Y19602D01*
X47464Y19604D01*
X47462D01*
X47419Y19628D01*
X47382Y19655D01*
X47350Y19683D01*
X47324Y19709D01*
X47302Y19733D01*
X47287Y19752D01*
X47283Y19759D01*
X47279Y19765D01*
X47275Y19767D01*
Y19769D01*
X47253Y19810D01*
X47238Y19851D01*
X47227Y19890D01*
X47217Y19928D01*
X47214Y19960D01*
X47212Y19974D01*
Y19986D01*
X47210Y19995D01*
Y20003D01*
Y20006D01*
Y20008D01*
X47212Y20051D01*
X47219Y20092D01*
X47230Y20126D01*
X47242Y20156D01*
X47253Y20180D01*
X47264Y20199D01*
X47272Y20210D01*
X47273Y20214D01*
X47298Y20242D01*
X47326Y20266D01*
X47354Y20283D01*
X47382Y20294D01*
X47406Y20304D01*
X47425Y20307D01*
X47433Y20309D01*
X47438Y20311D01*
X47406D01*
X47371Y20313D01*
X47339Y20315D01*
X47309Y20317D01*
X47285D01*
X47266Y20319D01*
X47260Y20320D01*
X47251D01*
X47217Y20324D01*
X47184Y20332D01*
X47154Y20339D01*
X47126Y20345D01*
X47103Y20352D01*
X47085Y20358D01*
X47073Y20361D01*
X47072Y20363D01*
X47070D01*
X47152Y20631D01*
X47193Y20614D01*
D02*
G37*
G36*
X78580Y17405D02*
X78725Y17385D01*
X78865Y17355D01*
X79000Y17315D01*
X79130Y17270D01*
X79250Y17215D01*
X79360Y17160D01*
X79460Y17105D01*
X79555Y17045D01*
X79635Y16990D01*
X79705Y16940D01*
X79765Y16890D01*
X79810Y16850D01*
X79845Y16820D01*
X79870Y16800D01*
X79875Y16795D01*
X79425Y16315D01*
X79330Y16390D01*
X79240Y16455D01*
X79160Y16510D01*
X79090Y16550D01*
X79035Y16585D01*
X78990Y16605D01*
X78965Y16620D01*
X78955Y16625D01*
X78875Y16655D01*
X78795Y16680D01*
X78715Y16695D01*
X78640Y16710D01*
X78580Y16715D01*
X78530Y16720D01*
X78485D01*
X78410Y16715D01*
X78340Y16710D01*
X78280Y16695D01*
X78225Y16685D01*
X78180Y16670D01*
X78150Y16655D01*
X78125Y16650D01*
X78120Y16645D01*
X78060Y16615D01*
X78010Y16580D01*
X77965Y16545D01*
X77930Y16510D01*
X77900Y16480D01*
X77880Y16455D01*
X77870Y16435D01*
X77865Y16430D01*
X77835Y16375D01*
X77815Y16320D01*
X77795Y16265D01*
X77785Y16215D01*
X77780Y16170D01*
X77775Y16135D01*
Y16110D01*
Y16100D01*
X77780Y16025D01*
X77790Y15955D01*
X77805Y15890D01*
X77820Y15840D01*
X77840Y15795D01*
X77855Y15765D01*
X77865Y15745D01*
X77870Y15740D01*
X77910Y15690D01*
X77950Y15645D01*
X77995Y15605D01*
X78035Y15575D01*
X78075Y15550D01*
X78105Y15535D01*
X78125Y15525D01*
X78130Y15520D01*
X78195Y15495D01*
X78255Y15480D01*
X78320Y15465D01*
X78375Y15460D01*
X78425Y15455D01*
X78465Y15450D01*
X78830D01*
X78925Y14785D01*
X78470D01*
X78330Y14780D01*
X78210Y14760D01*
X78110Y14730D01*
X78025Y14700D01*
X77960Y14670D01*
X77915Y14640D01*
X77885Y14620D01*
X77875Y14615D01*
X77840Y14580D01*
X77805Y14545D01*
X77755Y14460D01*
X77715Y14365D01*
X77690Y14275D01*
X77675Y14190D01*
X77670Y14155D01*
Y14125D01*
X77665Y14095D01*
Y14075D01*
Y14065D01*
Y14060D01*
Y13995D01*
X77675Y13935D01*
X77700Y13825D01*
X77735Y13725D01*
X77775Y13645D01*
X77820Y13585D01*
X77855Y13540D01*
X77880Y13510D01*
X77885Y13505D01*
X77890Y13500D01*
X77980Y13435D01*
X78080Y13385D01*
X78185Y13350D01*
X78285Y13325D01*
X78375Y13310D01*
X78410Y13305D01*
X78445D01*
X78470Y13300D01*
X78510D01*
X78610Y13305D01*
X78700Y13315D01*
X78790Y13335D01*
X78865Y13355D01*
X78930Y13370D01*
X78975Y13390D01*
X78995Y13395D01*
X79010Y13400D01*
X79015Y13405D01*
X79020D01*
X79110Y13450D01*
X79195Y13505D01*
X79270Y13560D01*
X79340Y13615D01*
X79400Y13670D01*
X79445Y13710D01*
X79475Y13740D01*
X79480Y13745D01*
X79485Y13750D01*
X80000Y13295D01*
X79890Y13165D01*
X79775Y13055D01*
X79660Y12965D01*
X79555Y12890D01*
X79460Y12830D01*
X79420Y12810D01*
X79385Y12790D01*
X79360Y12780D01*
X79335Y12770D01*
X79325Y12760D01*
X79320D01*
X79170Y12705D01*
X79020Y12670D01*
X78880Y12640D01*
X78750Y12620D01*
X78690Y12615D01*
X78640Y12610D01*
X78590Y12605D01*
X78550D01*
X78520Y12600D01*
X78475D01*
X78295Y12610D01*
X78125Y12630D01*
X78050Y12645D01*
X77975Y12660D01*
X77905Y12675D01*
X77845Y12695D01*
X77790Y12710D01*
X77740Y12725D01*
X77695Y12740D01*
X77660Y12755D01*
X77630Y12770D01*
X77605Y12775D01*
X77595Y12785D01*
X77590D01*
X77455Y12860D01*
X77335Y12945D01*
X77230Y13030D01*
X77145Y13110D01*
X77080Y13185D01*
X77030Y13245D01*
X77010Y13270D01*
X77000Y13285D01*
X76990Y13295D01*
Y13300D01*
X76950Y13365D01*
X76920Y13425D01*
X76865Y13555D01*
X76825Y13680D01*
X76800Y13790D01*
X76795Y13845D01*
X76785Y13890D01*
X76780Y13930D01*
Y13965D01*
X76775Y13995D01*
Y14015D01*
Y14030D01*
Y14035D01*
X76780Y14165D01*
X76800Y14280D01*
X76820Y14385D01*
X76850Y14475D01*
X76875Y14545D01*
X76890Y14575D01*
X76900Y14600D01*
X76910Y14620D01*
X76920Y14635D01*
X76925Y14640D01*
Y14645D01*
X76985Y14735D01*
X77050Y14815D01*
X77115Y14880D01*
X77175Y14935D01*
X77235Y14980D01*
X77280Y15010D01*
X77310Y15030D01*
X77315Y15035D01*
X77320D01*
X77410Y15080D01*
X77500Y15115D01*
X77585Y15140D01*
X77660Y15155D01*
X77725Y15165D01*
X77770Y15170D01*
X77735D01*
X77655Y15180D01*
X77580Y15200D01*
X77515Y15225D01*
X77465Y15250D01*
X77420Y15275D01*
X77395Y15295D01*
X77385Y15300D01*
X77310Y15360D01*
X77240Y15425D01*
X77185Y15490D01*
X77135Y15555D01*
X77095Y15610D01*
X77070Y15650D01*
X77050Y15680D01*
X77045Y15685D01*
Y15690D01*
X77005Y15780D01*
X76975Y15870D01*
X76950Y15960D01*
X76935Y16040D01*
X76925Y16110D01*
X76920Y16160D01*
Y16180D01*
Y16195D01*
Y16205D01*
Y16210D01*
X76930Y16330D01*
X76950Y16445D01*
X76980Y16545D01*
X77015Y16635D01*
X77050Y16710D01*
X77065Y16740D01*
X77080Y16765D01*
X77090Y16790D01*
X77100Y16805D01*
X77110Y16810D01*
Y16815D01*
X77185Y16915D01*
X77270Y17000D01*
X77360Y17075D01*
X77445Y17135D01*
X77520Y17185D01*
X77555Y17205D01*
X77585Y17220D01*
X77605Y17235D01*
X77625Y17245D01*
X77635Y17250D01*
X77640D01*
X77770Y17305D01*
X77905Y17345D01*
X78040Y17370D01*
X78160Y17390D01*
X78215Y17395D01*
X78265Y17400D01*
X78310Y17405D01*
X78350Y17410D01*
X78425D01*
X78580Y17405D01*
D02*
G37*
G36*
X49129Y13595D02*
X49157Y13587D01*
X49181Y13580D01*
X49203Y13568D01*
X49220Y13559D01*
X49231Y13550D01*
X49241Y13542D01*
X49243Y13540D01*
X49261Y13518D01*
X49274Y13496D01*
X49286Y13471D01*
X49291Y13451D01*
X49295Y13432D01*
X49297Y13415D01*
X49299Y13406D01*
Y13404D01*
Y13402D01*
X49297Y13372D01*
X49289Y13344D01*
X49280Y13322D01*
X49271Y13301D01*
X49259Y13284D01*
X49252Y13271D01*
X49244Y13264D01*
X49243Y13262D01*
X49220Y13243D01*
X49196Y13230D01*
X49172Y13219D01*
X49147Y13213D01*
X49127Y13209D01*
X49112Y13207D01*
X49101Y13206D01*
X49097D01*
X49065Y13207D01*
X49037Y13215D01*
X49011Y13224D01*
X48990Y13234D01*
X48973Y13245D01*
X48960Y13252D01*
X48953Y13260D01*
X48951Y13262D01*
X48932Y13284D01*
X48917Y13307D01*
X48908Y13331D01*
X48900Y13353D01*
X48897Y13372D01*
X48893Y13389D01*
Y13398D01*
Y13402D01*
X48895Y13432D01*
X48902Y13458D01*
X48912Y13482D01*
X48921Y13503D01*
X48932Y13518D01*
X48942Y13531D01*
X48949Y13539D01*
X48951Y13540D01*
X48973Y13559D01*
X48998Y13572D01*
X49022Y13583D01*
X49044Y13589D01*
X49065Y13593D01*
X49082Y13596D01*
X49097D01*
X49129Y13595D01*
D02*
G37*
G36*
X46189D02*
X46217Y13587D01*
X46241Y13580D01*
X46264Y13568D01*
X46281Y13559D01*
X46292Y13550D01*
X46301Y13542D01*
X46303Y13540D01*
X46322Y13518D01*
X46335Y13496D01*
X46346Y13471D01*
X46352Y13451D01*
X46355Y13432D01*
X46357Y13415D01*
X46359Y13406D01*
Y13404D01*
Y13402D01*
X46357Y13372D01*
X46350Y13344D01*
X46340Y13322D01*
X46331Y13301D01*
X46320Y13284D01*
X46312Y13271D01*
X46305Y13264D01*
X46303Y13262D01*
X46281Y13243D01*
X46256Y13230D01*
X46232Y13219D01*
X46208Y13213D01*
X46187Y13209D01*
X46172Y13207D01*
X46161Y13206D01*
X46157D01*
X46125Y13207D01*
X46097Y13215D01*
X46071Y13224D01*
X46051Y13234D01*
X46034Y13245D01*
X46021Y13252D01*
X46013Y13260D01*
X46011Y13262D01*
X45993Y13284D01*
X45978Y13307D01*
X45968Y13331D01*
X45961Y13353D01*
X45957Y13372D01*
X45953Y13389D01*
Y13398D01*
Y13402D01*
X45955Y13432D01*
X45963Y13458D01*
X45972Y13482D01*
X45981Y13503D01*
X45993Y13518D01*
X46002Y13531D01*
X46009Y13539D01*
X46011Y13540D01*
X46034Y13559D01*
X46058Y13572D01*
X46082Y13583D01*
X46105Y13589D01*
X46125Y13593D01*
X46142Y13596D01*
X46157D01*
X46189Y13595D01*
D02*
G37*
G36*
X54200Y11627D02*
X53899D01*
X53865Y12469D01*
X53863Y12516D01*
Y12561D01*
X53861Y12600D01*
Y12633D01*
Y12663D01*
Y12675D01*
Y12684D01*
Y12691D01*
Y12697D01*
Y12701D01*
Y12703D01*
Y12779D01*
Y12815D01*
X53863Y12848D01*
Y12880D01*
X53865Y12910D01*
Y12938D01*
Y12962D01*
X53867Y12985D01*
Y13005D01*
X53869Y13022D01*
Y13037D01*
X53871Y13048D01*
Y13056D01*
Y13062D01*
Y13063D01*
X53648Y11923D01*
X53362D01*
X53158Y13063D01*
X53160Y13024D01*
X53162Y12981D01*
Y12940D01*
X53164Y12899D01*
Y12863D01*
Y12848D01*
Y12835D01*
Y12824D01*
Y12817D01*
Y12811D01*
Y12809D01*
Y12749D01*
X53162Y12689D01*
Y12631D01*
X53160Y12579D01*
Y12555D01*
X53158Y12534D01*
Y12514D01*
Y12499D01*
X53157Y12486D01*
Y12474D01*
Y12469D01*
Y12467D01*
X53115Y11627D01*
X52809D01*
X52906Y13361D01*
X53289D01*
X53501Y12231D01*
X53721Y13361D01*
X54105D01*
X54200Y11627D01*
D02*
G37*
G36*
X39002D02*
X38917D01*
X38945Y11582D01*
X38958Y11562D01*
X38971Y11543D01*
X38980Y11528D01*
X38989Y11515D01*
X38995Y11508D01*
X38997Y11506D01*
X39014Y11485D01*
X39032Y11465D01*
X39053Y11450D01*
X39072Y11435D01*
X39087Y11423D01*
X39102Y11416D01*
X39109Y11410D01*
X39113Y11408D01*
X39143Y11395D01*
X39176Y11384D01*
X39212Y11373D01*
X39248Y11366D01*
X39279Y11358D01*
X39294Y11354D01*
X39305Y11353D01*
X39317Y11351D01*
X39324D01*
X39328Y11349D01*
X39330D01*
X39290Y11100D01*
X39238Y11106D01*
X39189Y11113D01*
X39143Y11122D01*
X39100Y11135D01*
X39061Y11147D01*
X39025Y11162D01*
X38991Y11175D01*
X38961Y11190D01*
X38935Y11203D01*
X38913Y11216D01*
X38894Y11229D01*
X38877Y11238D01*
X38866Y11248D01*
X38857Y11255D01*
X38851Y11259D01*
X38849Y11261D01*
X38821Y11287D01*
X38795Y11317D01*
X38748Y11377D01*
X38707Y11440D01*
X38675Y11500D01*
X38660Y11528D01*
X38649Y11554D01*
X38638Y11579D01*
X38630Y11599D01*
X38623Y11616D01*
X38619Y11627D01*
X38615Y11637D01*
Y11639D01*
X38168Y12964D01*
X38492D01*
X38804Y11867D01*
X39111Y12964D01*
X39444D01*
X39002Y11627D01*
D02*
G37*
G36*
X44702Y12996D02*
X44736Y12994D01*
X44798Y12983D01*
X44828Y12976D01*
X44854Y12968D01*
X44880Y12961D01*
X44902Y12951D01*
X44923Y12942D01*
X44942Y12934D01*
X44958Y12927D01*
X44972Y12920D01*
X44981Y12914D01*
X44990Y12908D01*
X44994Y12906D01*
X44996Y12905D01*
X45044Y12867D01*
X45088Y12826D01*
X45125Y12785D01*
X45155Y12746D01*
X45177Y12710D01*
X45187Y12693D01*
X45196Y12680D01*
X45202Y12669D01*
X45205Y12662D01*
X45209Y12656D01*
Y12654D01*
X45233Y12592D01*
X45252Y12530D01*
X45263Y12471D01*
X45273Y12415D01*
X45276Y12390D01*
X45278Y12366D01*
X45280Y12345D01*
Y12329D01*
X45282Y12314D01*
Y12304D01*
Y12297D01*
Y12295D01*
X45278Y12220D01*
X45271Y12151D01*
X45265Y12117D01*
X45258Y12087D01*
X45252Y12059D01*
X45245Y12033D01*
X45237Y12011D01*
X45232Y11990D01*
X45224Y11971D01*
X45218Y11957D01*
X45215Y11945D01*
X45211Y11936D01*
X45207Y11930D01*
Y11928D01*
X45175Y11872D01*
X45142Y11824D01*
X45104Y11783D01*
X45069Y11747D01*
X45052Y11732D01*
X45037Y11719D01*
X45022Y11708D01*
X45011Y11700D01*
X45000Y11693D01*
X44992Y11687D01*
X44988Y11685D01*
X44987Y11683D01*
X44958Y11669D01*
X44929Y11655D01*
X44871Y11633D01*
X44811Y11618D01*
X44756Y11607D01*
X44730Y11603D01*
X44708Y11601D01*
X44687Y11597D01*
X44669D01*
X44655Y11596D01*
X44635D01*
X44585Y11597D01*
X44536Y11603D01*
X44491Y11609D01*
X44452Y11618D01*
X44433Y11622D01*
X44418Y11626D01*
X44405Y11629D01*
X44394Y11631D01*
X44384Y11635D01*
X44377Y11637D01*
X44373Y11639D01*
X44371D01*
X44324Y11657D01*
X44282Y11678D01*
X44242Y11700D01*
X44209Y11723D01*
X44181Y11743D01*
X44169Y11753D01*
X44160Y11760D01*
X44151Y11766D01*
X44145Y11771D01*
X44143Y11773D01*
X44141Y11775D01*
X44278Y11968D01*
X44315Y11947D01*
X44349Y11928D01*
X44381Y11913D01*
X44407Y11900D01*
X44427Y11891D01*
X44444Y11885D01*
X44454Y11882D01*
X44457Y11880D01*
X44487Y11870D01*
X44515Y11865D01*
X44543Y11859D01*
X44568Y11857D01*
X44590Y11856D01*
X44607Y11854D01*
X44622D01*
X44648Y11856D01*
X44672Y11857D01*
X44717Y11867D01*
X44756Y11882D01*
X44790Y11897D01*
X44816Y11912D01*
X44828Y11919D01*
X44835Y11926D01*
X44842Y11932D01*
X44848Y11936D01*
X44850Y11940D01*
X44852D01*
X44882Y11975D01*
X44904Y12014D01*
X44921Y12056D01*
X44934Y12095D01*
X44942Y12130D01*
X44943Y12145D01*
X44945Y12158D01*
X44947Y12170D01*
X44949Y12177D01*
Y12183D01*
Y12185D01*
X44096D01*
X44094Y12213D01*
X44093Y12241D01*
X44091Y12265D01*
X44089Y12287D01*
Y12304D01*
Y12319D01*
Y12327D01*
Y12331D01*
X44093Y12403D01*
X44100Y12473D01*
X44106Y12503D01*
X44111Y12532D01*
X44117Y12559D01*
X44124Y12583D01*
X44132Y12605D01*
X44137Y12626D01*
X44143Y12643D01*
X44149Y12658D01*
X44153Y12669D01*
X44156Y12676D01*
X44160Y12682D01*
Y12684D01*
X44188Y12738D01*
X44220Y12785D01*
X44254Y12824D01*
X44285Y12856D01*
X44315Y12882D01*
X44328Y12893D01*
X44338Y12901D01*
X44347Y12908D01*
X44355Y12912D01*
X44358Y12916D01*
X44360D01*
X44384Y12931D01*
X44411Y12944D01*
X44463Y12962D01*
X44515Y12978D01*
X44564Y12989D01*
X44585Y12991D01*
X44605Y12994D01*
X44624Y12996D01*
X44639D01*
X44652Y12998D01*
X44669D01*
X44702Y12996D01*
D02*
G37*
G36*
X49577Y12718D02*
X49203D01*
Y11874D01*
X49590D01*
Y11627D01*
X48530D01*
Y11874D01*
X48882D01*
Y12964D01*
X49577D01*
Y12718D01*
D02*
G37*
G36*
X47412Y13512D02*
X47462Y13507D01*
X47509Y13497D01*
X47550Y13488D01*
X47567Y13482D01*
X47582Y13477D01*
X47597Y13473D01*
X47608Y13469D01*
X47618Y13465D01*
X47623Y13462D01*
X47627Y13460D01*
X47629D01*
X47670Y13438D01*
X47707Y13413D01*
X47739Y13387D01*
X47765Y13363D01*
X47786Y13340D01*
X47801Y13323D01*
X47805Y13316D01*
X47808Y13310D01*
X47812Y13308D01*
Y13307D01*
X47833Y13269D01*
X47850Y13230D01*
X47861Y13191D01*
X47868Y13157D01*
X47872Y13125D01*
X47874Y13112D01*
Y13101D01*
X47876Y13093D01*
Y13086D01*
Y13082D01*
Y13080D01*
Y12871D01*
X48169D01*
Y12622D01*
X47876D01*
Y11627D01*
X47554D01*
Y12622D01*
X47156D01*
X47124Y12871D01*
X47554D01*
Y13079D01*
X47552Y13110D01*
X47546Y13136D01*
X47537Y13161D01*
X47528Y13179D01*
X47519Y13193D01*
X47509Y13204D01*
X47504Y13209D01*
X47502Y13211D01*
X47479Y13226D01*
X47453Y13236D01*
X47425Y13243D01*
X47395Y13249D01*
X47371Y13252D01*
X47348Y13254D01*
X47330D01*
X47275Y13252D01*
X47221Y13247D01*
X47172Y13237D01*
X47129Y13228D01*
X47109Y13223D01*
X47092Y13219D01*
X47077Y13215D01*
X47064Y13209D01*
X47055Y13207D01*
X47045Y13204D01*
X47042Y13202D01*
X47040D01*
X46946Y13428D01*
X46982Y13443D01*
X47019Y13456D01*
X47090Y13479D01*
X47159Y13494D01*
X47191Y13499D01*
X47223Y13503D01*
X47251Y13507D01*
X47277Y13510D01*
X47300Y13512D01*
X47318D01*
X47333Y13514D01*
X47356D01*
X47412Y13512D01*
D02*
G37*
G36*
X46638Y12718D02*
X46264D01*
Y11874D01*
X46651D01*
Y11627D01*
X45590D01*
Y11874D01*
X45942D01*
Y12964D01*
X46638D01*
Y12718D01*
D02*
G37*
G36*
X40837Y11627D02*
X40317D01*
X40263Y11629D01*
X40212Y11633D01*
X40164Y11639D01*
X40119Y11646D01*
X40076Y11655D01*
X40035Y11665D01*
X39997Y11676D01*
X39964Y11687D01*
X39934Y11697D01*
X39908Y11708D01*
X39885Y11717D01*
X39866Y11726D01*
X39851Y11734D01*
X39840Y11739D01*
X39833Y11743D01*
X39831Y11745D01*
X39797Y11769D01*
X39767Y11796D01*
X39741Y11826D01*
X39719Y11856D01*
X39700Y11889D01*
X39683Y11921D01*
X39670Y11955D01*
X39661Y11986D01*
X39653Y12016D01*
X39646Y12044D01*
X39642Y12071D01*
X39640Y12093D01*
X39638Y12112D01*
X39636Y12127D01*
Y12134D01*
Y12138D01*
X39638Y12173D01*
X39642Y12209D01*
X39648Y12241D01*
X39655Y12269D01*
X39665Y12297D01*
X39674Y12321D01*
X39685Y12344D01*
X39694Y12362D01*
X39706Y12381D01*
X39717Y12396D01*
X39726Y12407D01*
X39736Y12418D01*
X39743Y12426D01*
X39749Y12433D01*
X39752Y12435D01*
X39754Y12437D01*
X39777Y12456D01*
X39799Y12471D01*
X39822Y12486D01*
X39844Y12497D01*
X39889Y12516D01*
X39932Y12530D01*
X39951Y12534D01*
X39967Y12540D01*
X39982Y12542D01*
X39996Y12544D01*
X40007Y12546D01*
X40014Y12547D01*
X40022D01*
X39999Y12549D01*
X39977Y12555D01*
X39937Y12568D01*
X39900Y12585D01*
X39868Y12604D01*
X39842Y12622D01*
X39823Y12639D01*
X39816Y12645D01*
X39810Y12650D01*
X39808Y12652D01*
X39807Y12654D01*
X39790Y12673D01*
X39775Y12693D01*
X39762Y12714D01*
X39750Y12736D01*
X39734Y12779D01*
X39722Y12820D01*
X39717Y12856D01*
X39715Y12873D01*
X39713Y12886D01*
X39711Y12897D01*
Y12905D01*
Y12910D01*
Y12912D01*
X39713Y12955D01*
X39719Y12996D01*
X39728Y13034D01*
X39739Y13067D01*
X39754Y13097D01*
X39769Y13127D01*
X39786Y13151D01*
X39803Y13174D01*
X39820Y13194D01*
X39836Y13211D01*
X39851Y13224D01*
X39866Y13236D01*
X39878Y13245D01*
X39887Y13250D01*
X39893Y13254D01*
X39895Y13256D01*
X39930Y13275D01*
X39966Y13292D01*
X40005Y13305D01*
X40042Y13316D01*
X40119Y13335D01*
X40154Y13342D01*
X40190Y13348D01*
X40224Y13352D01*
X40253Y13355D01*
X40282Y13357D01*
X40304Y13359D01*
X40325Y13361D01*
X40837D01*
Y11627D01*
D02*
G37*
G36*
X52070Y12996D02*
X52104Y12994D01*
X52165Y12985D01*
X52195Y12978D01*
X52222Y12970D01*
X52248Y12962D01*
X52270Y12953D01*
X52291Y12946D01*
X52309Y12936D01*
X52326Y12929D01*
X52339Y12923D01*
X52349Y12916D01*
X52358Y12912D01*
X52362Y12910D01*
X52364Y12908D01*
X52412Y12873D01*
X52455Y12833D01*
X52491Y12792D01*
X52521Y12751D01*
X52543Y12716D01*
X52552Y12701D01*
X52560Y12688D01*
X52566Y12676D01*
X52569Y12669D01*
X52573Y12663D01*
Y12662D01*
X52596Y12600D01*
X52612Y12538D01*
X52626Y12476D01*
X52633Y12420D01*
X52637Y12394D01*
X52639Y12370D01*
X52640Y12349D01*
Y12332D01*
X52642Y12317D01*
Y12306D01*
Y12299D01*
Y12297D01*
X52639Y12218D01*
X52637Y12183D01*
X52631Y12147D01*
X52626Y12115D01*
X52620Y12084D01*
X52614Y12056D01*
X52607Y12029D01*
X52601Y12005D01*
X52596Y11985D01*
X52590Y11966D01*
X52584Y11951D01*
X52579Y11940D01*
X52577Y11930D01*
X52573Y11925D01*
Y11923D01*
X52543Y11867D01*
X52511Y11818D01*
X52476Y11777D01*
X52442Y11741D01*
X52427Y11726D01*
X52412Y11715D01*
X52399Y11704D01*
X52388Y11695D01*
X52379Y11689D01*
X52371Y11683D01*
X52367Y11682D01*
X52365Y11680D01*
X52339Y11665D01*
X52311Y11652D01*
X52257Y11631D01*
X52201Y11616D01*
X52149Y11607D01*
X52124Y11603D01*
X52104Y11599D01*
X52083Y11597D01*
X52066D01*
X52053Y11596D01*
X52034D01*
X51999Y11597D01*
X51965Y11599D01*
X51904Y11609D01*
X51874Y11616D01*
X51847Y11624D01*
X51821Y11631D01*
X51799Y11639D01*
X51778Y11646D01*
X51760Y11654D01*
X51745Y11661D01*
X51732Y11669D01*
X51720Y11674D01*
X51713Y11678D01*
X51709Y11682D01*
X51707D01*
X51659Y11717D01*
X51616Y11756D01*
X51580Y11797D01*
X51550Y11839D01*
X51528Y11874D01*
X51518Y11889D01*
X51511Y11902D01*
X51505Y11913D01*
X51502Y11921D01*
X51498Y11926D01*
Y11928D01*
X51473Y11990D01*
X51457Y12054D01*
X51444Y12115D01*
X51436Y12173D01*
X51432Y12200D01*
X51430Y12224D01*
X51429Y12244D01*
Y12263D01*
X51427Y12278D01*
Y12289D01*
Y12297D01*
Y12299D01*
X51430Y12375D01*
X51438Y12444D01*
X51444Y12476D01*
X51449Y12506D01*
X51455Y12534D01*
X51462Y12561D01*
X51470Y12583D01*
X51475Y12605D01*
X51481Y12622D01*
X51487Y12637D01*
X51490Y12650D01*
X51494Y12658D01*
X51498Y12663D01*
Y12665D01*
X51526Y12721D01*
X51560Y12770D01*
X51593Y12813D01*
X51627Y12847D01*
X51642Y12862D01*
X51657Y12875D01*
X51670Y12886D01*
X51681Y12895D01*
X51691Y12901D01*
X51698Y12906D01*
X51702Y12908D01*
X51704Y12910D01*
X51730Y12925D01*
X51758Y12940D01*
X51812Y12961D01*
X51868Y12978D01*
X51920Y12987D01*
X51945Y12991D01*
X51965Y12994D01*
X51986Y12996D01*
X52003D01*
X52016Y12998D01*
X52034D01*
X52070Y12996D01*
D02*
G37*
G36*
X50348Y12860D02*
X50366Y12884D01*
X50387Y12905D01*
X50410Y12923D01*
X50434Y12940D01*
X50458Y12953D01*
X50482Y12964D01*
X50509Y12974D01*
X50533Y12981D01*
X50555Y12987D01*
X50578Y12991D01*
X50596Y12994D01*
X50615Y12996D01*
X50628Y12998D01*
X50649D01*
X50679Y12996D01*
X50709Y12994D01*
X50763Y12983D01*
X50812Y12970D01*
X50834Y12961D01*
X50853Y12953D01*
X50871Y12944D01*
X50888Y12936D01*
X50901Y12927D01*
X50912Y12921D01*
X50922Y12916D01*
X50929Y12910D01*
X50933Y12908D01*
X50935Y12906D01*
X50978Y12869D01*
X51015Y12828D01*
X51047Y12787D01*
X51073Y12747D01*
X51094Y12712D01*
X51101Y12695D01*
X51109Y12682D01*
X51113Y12671D01*
X51116Y12663D01*
X51120Y12658D01*
Y12656D01*
X51141Y12594D01*
X51156Y12532D01*
X51167Y12473D01*
X51174Y12416D01*
X51176Y12392D01*
X51178Y12368D01*
X51180Y12347D01*
Y12331D01*
X51182Y12315D01*
Y12306D01*
Y12299D01*
Y12297D01*
X51180Y12237D01*
X51176Y12183D01*
X51171Y12130D01*
X51161Y12080D01*
X51152Y12035D01*
X51141Y11992D01*
X51130Y11955D01*
X51118Y11919D01*
X51107Y11889D01*
X51094Y11861D01*
X51085Y11839D01*
X51075Y11820D01*
X51066Y11803D01*
X51060Y11794D01*
X51056Y11786D01*
X51055Y11784D01*
X51029Y11751D01*
X51002Y11723D01*
X50972Y11697D01*
X50941Y11676D01*
X50911Y11657D01*
X50879Y11642D01*
X50847Y11629D01*
X50815Y11620D01*
X50787Y11610D01*
X50761Y11605D01*
X50737Y11601D01*
X50714Y11599D01*
X50697Y11597D01*
X50684Y11596D01*
X50673D01*
X50630Y11597D01*
X50589Y11603D01*
X50552Y11612D01*
X50520Y11622D01*
X50494Y11629D01*
X50473Y11639D01*
X50466Y11642D01*
X50460Y11644D01*
X50458Y11646D01*
X50456D01*
X50423Y11667D01*
X50394Y11691D01*
X50372Y11713D01*
X50353Y11736D01*
X50340Y11756D01*
X50333Y11771D01*
X50327Y11783D01*
X50325Y11784D01*
Y11786D01*
X50312Y11627D01*
X50024D01*
Y13480D01*
X50348Y13516D01*
Y12860D01*
D02*
G37*
G36*
X42999D02*
X43017Y12884D01*
X43038Y12905D01*
X43060Y12923D01*
X43085Y12940D01*
X43109Y12953D01*
X43133Y12964D01*
X43159Y12974D01*
X43184Y12981D01*
X43206Y12987D01*
X43229Y12991D01*
X43247Y12994D01*
X43266Y12996D01*
X43279Y12998D01*
X43300D01*
X43330Y12996D01*
X43360Y12994D01*
X43414Y12983D01*
X43462Y12970D01*
X43485Y12961D01*
X43504Y12953D01*
X43522Y12944D01*
X43539Y12936D01*
X43552Y12927D01*
X43563Y12921D01*
X43573Y12916D01*
X43580Y12910D01*
X43584Y12908D01*
X43586Y12906D01*
X43629Y12869D01*
X43666Y12828D01*
X43698Y12787D01*
X43724Y12747D01*
X43745Y12712D01*
X43752Y12695D01*
X43760Y12682D01*
X43764Y12671D01*
X43767Y12663D01*
X43771Y12658D01*
Y12656D01*
X43792Y12594D01*
X43806Y12532D01*
X43818Y12473D01*
X43825Y12416D01*
X43827Y12392D01*
X43829Y12368D01*
X43831Y12347D01*
Y12331D01*
X43833Y12315D01*
Y12306D01*
Y12299D01*
Y12297D01*
X43831Y12237D01*
X43827Y12183D01*
X43821Y12130D01*
X43812Y12080D01*
X43803Y12035D01*
X43792Y11992D01*
X43780Y11955D01*
X43769Y11919D01*
X43758Y11889D01*
X43745Y11861D01*
X43736Y11839D01*
X43726Y11820D01*
X43717Y11803D01*
X43711Y11794D01*
X43707Y11786D01*
X43706Y11784D01*
X43679Y11751D01*
X43653Y11723D01*
X43623Y11697D01*
X43591Y11676D01*
X43562Y11657D01*
X43530Y11642D01*
X43498Y11629D01*
X43466Y11620D01*
X43438Y11610D01*
X43412Y11605D01*
X43388Y11601D01*
X43365Y11599D01*
X43348Y11597D01*
X43335Y11596D01*
X43324D01*
X43281Y11597D01*
X43240Y11603D01*
X43202Y11612D01*
X43171Y11622D01*
X43145Y11629D01*
X43124Y11639D01*
X43117Y11642D01*
X43111Y11644D01*
X43109Y11646D01*
X43107D01*
X43073Y11667D01*
X43045Y11691D01*
X43023Y11713D01*
X43004Y11736D01*
X42991Y11756D01*
X42984Y11771D01*
X42978Y11783D01*
X42976Y11784D01*
Y11786D01*
X42963Y11627D01*
X42675D01*
Y13480D01*
X42999Y13516D01*
Y12860D01*
D02*
G37*
%LPC*%
G36*
X49193Y17076D02*
X49176D01*
X49143Y17073D01*
X49112Y17070D01*
X49053Y17056D01*
X49002Y17033D01*
X48963Y17008D01*
X48929Y16983D01*
X48907Y16963D01*
X48893Y16946D01*
X48887Y16943D01*
Y16941D01*
X48853Y16887D01*
X48825Y16828D01*
X48805Y16767D01*
X48794Y16710D01*
X48786Y16657D01*
X48783Y16634D01*
X48780Y16615D01*
X48777Y16601D01*
Y16590D01*
Y16581D01*
Y16578D01*
X49604D01*
X49592Y16660D01*
X49575Y16733D01*
X49556Y16797D01*
X49533Y16848D01*
X49522Y16871D01*
X49511Y16890D01*
X49500Y16907D01*
X49491Y16918D01*
X49485Y16929D01*
X49480Y16938D01*
X49474Y16941D01*
Y16943D01*
X49452Y16966D01*
X49429Y16988D01*
X49379Y17019D01*
X49328Y17045D01*
X49283Y17059D01*
X49241Y17070D01*
X49221Y17073D01*
X49207D01*
X49193Y17076D01*
D02*
G37*
G36*
X51703Y17604D02*
X51388D01*
X51343Y17598D01*
X51267Y17584D01*
X51200Y17562D01*
X51141Y17534D01*
X51090Y17500D01*
X51051Y17463D01*
X51017Y17424D01*
X50989Y17382D01*
X50969Y17340D01*
X50952Y17300D01*
X50941Y17264D01*
X50936Y17230D01*
X50930Y17202D01*
X50927Y17180D01*
Y17165D01*
Y17160D01*
Y17115D01*
X50933Y17070D01*
X50938Y17031D01*
X50947Y16994D01*
X50958Y16963D01*
X50969Y16932D01*
X50981Y16904D01*
X50992Y16882D01*
X51003Y16862D01*
X51014Y16842D01*
X51025Y16828D01*
X51037Y16817D01*
X51051Y16800D01*
X51054Y16795D01*
X51056D01*
X51110Y16758D01*
X51169Y16733D01*
X51231Y16713D01*
X51290Y16702D01*
X51343Y16693D01*
X51368Y16691D01*
X51388D01*
X51405Y16688D01*
X51703D01*
Y17604D01*
D02*
G37*
G36*
X44838Y17095D02*
X44821D01*
X44759Y17093D01*
X44708Y17081D01*
X44661Y17062D01*
X44621Y17039D01*
X44590Y17011D01*
X44562Y16983D01*
X44540Y16949D01*
X44520Y16915D01*
X44506Y16882D01*
X44495Y16851D01*
X44489Y16820D01*
X44484Y16792D01*
X44481Y16769D01*
X44478Y16752D01*
Y16738D01*
Y16736D01*
X44481Y16671D01*
X44492Y16615D01*
X44506Y16564D01*
X44520Y16525D01*
X44537Y16494D01*
X44551Y16472D01*
X44562Y16460D01*
X44565Y16455D01*
X44599Y16424D01*
X44641Y16398D01*
X44680Y16382D01*
X44723Y16370D01*
X44759Y16365D01*
X44787Y16362D01*
X44798Y16359D01*
X44815D01*
X44880Y16365D01*
X44933Y16376D01*
X44981Y16390D01*
X45018Y16410D01*
X45049Y16427D01*
X45071Y16443D01*
X45082Y16455D01*
X45088Y16457D01*
X45119Y16497D01*
X45141Y16542D01*
X45158Y16587D01*
X45169Y16632D01*
X45175Y16671D01*
X45178Y16702D01*
X45181Y16713D01*
Y16722D01*
Y16727D01*
Y16730D01*
X45178Y16792D01*
X45167Y16845D01*
X45153Y16890D01*
X45133Y16927D01*
X45116Y16958D01*
X45102Y16980D01*
X45091Y16991D01*
X45088Y16997D01*
X45049Y17031D01*
X45006Y17053D01*
X44961Y17070D01*
X44919Y17084D01*
X44880Y17090D01*
X44849Y17093D01*
X44838Y17095D01*
D02*
G37*
G36*
X94879Y11880D02*
X94825D01*
X94723Y11872D01*
X94629Y11864D01*
X94536Y11841D01*
X94458Y11809D01*
X94309Y11739D01*
X94192Y11661D01*
X94098Y11575D01*
X94036Y11505D01*
X94012Y11474D01*
X93997Y11450D01*
X93981Y11442D01*
Y11435D01*
X93927Y11349D01*
X93887Y11247D01*
X93848Y11146D01*
X93817Y11028D01*
X93762Y10802D01*
X93731Y10575D01*
X93716Y10466D01*
X93708Y10365D01*
X93700Y10271D01*
Y10193D01*
X93692Y10130D01*
Y10076D01*
Y10044D01*
Y10037D01*
Y9857D01*
X93708Y9693D01*
X93716Y9537D01*
X93739Y9396D01*
X93762Y9271D01*
X93786Y9154D01*
X93809Y9045D01*
X93833Y8951D01*
X93864Y8873D01*
X93887Y8803D01*
X93911Y8740D01*
X93934Y8693D01*
X93958Y8654D01*
X93966Y8631D01*
X93981Y8615D01*
Y8607D01*
X94036Y8529D01*
X94098Y8467D01*
X94161Y8404D01*
X94231Y8357D01*
X94372Y8279D01*
X94504Y8225D01*
X94629Y8193D01*
X94684Y8186D01*
X94731Y8178D01*
X94770Y8170D01*
X94825D01*
X94926Y8178D01*
X95028Y8186D01*
X95200Y8240D01*
X95348Y8311D01*
X95465Y8389D01*
X95559Y8467D01*
X95621Y8537D01*
X95660Y8592D01*
X95676Y8600D01*
Y8607D01*
X95723Y8693D01*
X95770Y8795D01*
X95809Y8904D01*
X95840Y9021D01*
X95887Y9256D01*
X95918Y9482D01*
X95934Y9591D01*
X95941Y9693D01*
X95949Y9787D01*
Y9872D01*
X95957Y9935D01*
Y9990D01*
Y10021D01*
Y10029D01*
Y10201D01*
X95941Y10365D01*
X95934Y10521D01*
X95910Y10654D01*
X95895Y10786D01*
X95871Y10896D01*
X95840Y11005D01*
X95816Y11099D01*
X95793Y11177D01*
X95762Y11247D01*
X95738Y11302D01*
X95723Y11349D01*
X95699Y11388D01*
X95692Y11411D01*
X95676Y11427D01*
Y11435D01*
X95621Y11513D01*
X95559Y11583D01*
X95489Y11638D01*
X95418Y11692D01*
X95348Y11739D01*
X95278Y11770D01*
X95145Y11825D01*
X95020Y11856D01*
X94965Y11864D01*
X94918Y11872D01*
X94879Y11880D01*
D02*
G37*
G36*
X82602D02*
X82547D01*
X82446Y11872D01*
X82352Y11864D01*
X82258Y11841D01*
X82180Y11809D01*
X82032Y11739D01*
X81915Y11661D01*
X81821Y11575D01*
X81758Y11505D01*
X81735Y11474D01*
X81719Y11450D01*
X81704Y11442D01*
Y11435D01*
X81649Y11349D01*
X81610Y11247D01*
X81571Y11146D01*
X81540Y11028D01*
X81485Y10802D01*
X81454Y10575D01*
X81438Y10466D01*
X81431Y10365D01*
X81423Y10271D01*
Y10193D01*
X81415Y10130D01*
Y10076D01*
Y10044D01*
Y10037D01*
Y9857D01*
X81431Y9693D01*
X81438Y9537D01*
X81462Y9396D01*
X81485Y9271D01*
X81509Y9154D01*
X81532Y9045D01*
X81555Y8951D01*
X81587Y8873D01*
X81610Y8803D01*
X81634Y8740D01*
X81657Y8693D01*
X81680Y8654D01*
X81688Y8631D01*
X81704Y8615D01*
Y8607D01*
X81758Y8529D01*
X81821Y8467D01*
X81884Y8404D01*
X81954Y8357D01*
X82094Y8279D01*
X82227Y8225D01*
X82352Y8193D01*
X82407Y8186D01*
X82454Y8178D01*
X82493Y8170D01*
X82547D01*
X82649Y8178D01*
X82750Y8186D01*
X82922Y8240D01*
X83071Y8311D01*
X83188Y8389D01*
X83281Y8467D01*
X83344Y8537D01*
X83383Y8592D01*
X83399Y8600D01*
Y8607D01*
X83446Y8693D01*
X83492Y8795D01*
X83531Y8904D01*
X83563Y9021D01*
X83609Y9256D01*
X83641Y9482D01*
X83656Y9591D01*
X83664Y9693D01*
X83672Y9787D01*
Y9872D01*
X83680Y9935D01*
Y9990D01*
Y10021D01*
Y10029D01*
Y10201D01*
X83664Y10365D01*
X83656Y10521D01*
X83633Y10654D01*
X83617Y10786D01*
X83594Y10896D01*
X83563Y11005D01*
X83539Y11099D01*
X83516Y11177D01*
X83485Y11247D01*
X83461Y11302D01*
X83446Y11349D01*
X83422Y11388D01*
X83414Y11411D01*
X83399Y11427D01*
Y11435D01*
X83344Y11513D01*
X83281Y11583D01*
X83211Y11638D01*
X83141Y11692D01*
X83071Y11739D01*
X83000Y11770D01*
X82867Y11825D01*
X82743Y11856D01*
X82688Y11864D01*
X82641Y11872D01*
X82602Y11880D01*
D02*
G37*
G36*
X37995Y8581D02*
X37759D01*
Y8198D01*
X37785Y8162D01*
X37813Y8128D01*
X37844Y8100D01*
X37872Y8078D01*
X37894Y8058D01*
X37917Y8044D01*
X37928Y8036D01*
X37934Y8033D01*
X37976Y8013D01*
X38015Y7996D01*
X38054Y7985D01*
X38088Y7979D01*
X38119Y7974D01*
X38142Y7971D01*
X38161D01*
X38215Y7974D01*
X38260Y7982D01*
X38296Y7993D01*
X38327Y8008D01*
X38352Y8019D01*
X38369Y8030D01*
X38380Y8038D01*
X38383Y8041D01*
X38408Y8069D01*
X38425Y8103D01*
X38439Y8140D01*
X38448Y8173D01*
X38454Y8207D01*
X38456Y8232D01*
Y8249D01*
Y8252D01*
Y8255D01*
X38451Y8311D01*
X38437Y8359D01*
X38420Y8401D01*
X38397Y8435D01*
X38375Y8463D01*
X38358Y8479D01*
X38344Y8494D01*
X38338Y8496D01*
X38313Y8510D01*
X38288Y8524D01*
X38229Y8544D01*
X38164Y8561D01*
X38099Y8569D01*
X38043Y8575D01*
X38018Y8578D01*
X37995Y8581D01*
D02*
G37*
G36*
X46881Y9320D02*
X46861D01*
X46824Y9317D01*
X46791Y9314D01*
X46757Y9306D01*
X46729Y9294D01*
X46676Y9269D01*
X46633Y9241D01*
X46600Y9210D01*
X46577Y9185D01*
X46569Y9174D01*
X46563Y9165D01*
X46558Y9162D01*
Y9160D01*
X46538Y9129D01*
X46524Y9092D01*
X46510Y9056D01*
X46499Y9013D01*
X46479Y8932D01*
X46468Y8850D01*
X46462Y8811D01*
X46459Y8775D01*
X46456Y8741D01*
Y8713D01*
X46454Y8690D01*
Y8671D01*
Y8659D01*
Y8657D01*
Y8592D01*
X46459Y8533D01*
X46462Y8477D01*
X46470Y8426D01*
X46479Y8381D01*
X46487Y8339D01*
X46496Y8300D01*
X46504Y8266D01*
X46515Y8238D01*
X46524Y8213D01*
X46532Y8190D01*
X46541Y8173D01*
X46549Y8159D01*
X46552Y8151D01*
X46558Y8145D01*
Y8142D01*
X46577Y8114D01*
X46600Y8092D01*
X46622Y8069D01*
X46647Y8052D01*
X46698Y8024D01*
X46746Y8005D01*
X46791Y7993D01*
X46810Y7991D01*
X46827Y7988D01*
X46841Y7985D01*
X46861D01*
X46898Y7988D01*
X46934Y7991D01*
X46996Y8010D01*
X47049Y8036D01*
X47091Y8064D01*
X47125Y8092D01*
X47148Y8117D01*
X47162Y8137D01*
X47167Y8140D01*
Y8142D01*
X47184Y8173D01*
X47201Y8210D01*
X47215Y8249D01*
X47226Y8291D01*
X47243Y8376D01*
X47254Y8457D01*
X47260Y8496D01*
X47263Y8533D01*
X47266Y8567D01*
Y8597D01*
X47269Y8620D01*
Y8640D01*
Y8651D01*
Y8654D01*
Y8716D01*
X47263Y8775D01*
X47260Y8831D01*
X47252Y8879D01*
X47246Y8926D01*
X47238Y8966D01*
X47226Y9005D01*
X47218Y9039D01*
X47209Y9067D01*
X47198Y9092D01*
X47190Y9112D01*
X47184Y9129D01*
X47176Y9143D01*
X47173Y9151D01*
X47167Y9157D01*
Y9160D01*
X47148Y9188D01*
X47125Y9213D01*
X47100Y9233D01*
X47075Y9252D01*
X47049Y9269D01*
X47024Y9280D01*
X46976Y9300D01*
X46931Y9311D01*
X46912Y9314D01*
X46895Y9317D01*
X46881Y9320D01*
D02*
G37*
G36*
X52139Y20249D02*
X52128D01*
X52106Y20247D01*
X52085Y20246D01*
X52046Y20236D01*
X52012Y20221D01*
X51986Y20204D01*
X51964Y20188D01*
X51948Y20175D01*
X51939Y20163D01*
X51935Y20161D01*
Y20160D01*
X51913Y20124D01*
X51894Y20085D01*
X51881Y20044D01*
X51874Y20006D01*
X51868Y19971D01*
X51866Y19956D01*
X51864Y19943D01*
X51863Y19933D01*
Y19926D01*
Y19920D01*
Y19918D01*
X52412D01*
X52405Y19973D01*
X52394Y20021D01*
X52381Y20064D01*
X52365Y20098D01*
X52358Y20113D01*
X52351Y20126D01*
X52343Y20137D01*
X52337Y20145D01*
X52334Y20152D01*
X52330Y20158D01*
X52326Y20160D01*
Y20161D01*
X52311Y20176D01*
X52296Y20191D01*
X52263Y20212D01*
X52229Y20229D01*
X52199Y20238D01*
X52171Y20246D01*
X52158Y20247D01*
X52149D01*
X52139Y20249D01*
D02*
G37*
G36*
X44790D02*
X44779D01*
X44756Y20247D01*
X44736Y20246D01*
X44697Y20236D01*
X44663Y20221D01*
X44637Y20204D01*
X44614Y20188D01*
X44599Y20175D01*
X44590Y20163D01*
X44586Y20161D01*
Y20160D01*
X44564Y20124D01*
X44545Y20085D01*
X44532Y20044D01*
X44525Y20006D01*
X44519Y19971D01*
X44517Y19956D01*
X44515Y19943D01*
X44513Y19933D01*
Y19926D01*
Y19920D01*
Y19918D01*
X45063D01*
X45056Y19973D01*
X45044Y20021D01*
X45031Y20064D01*
X45016Y20098D01*
X45009Y20113D01*
X45002Y20126D01*
X44994Y20137D01*
X44988Y20145D01*
X44985Y20152D01*
X44981Y20158D01*
X44977Y20160D01*
Y20161D01*
X44962Y20176D01*
X44947Y20191D01*
X44914Y20212D01*
X44880Y20229D01*
X44850Y20238D01*
X44822Y20246D01*
X44809Y20247D01*
X44800D01*
X44790Y20249D01*
D02*
G37*
G36*
X53867Y20595D02*
X53736D01*
X53691Y20593D01*
X53648Y20588D01*
X53613Y20582D01*
X53579Y20575D01*
X53553Y20565D01*
X53534Y20560D01*
X53527Y20556D01*
X53521Y20554D01*
X53519Y20552D01*
X53517D01*
X53501Y20543D01*
X53484Y20532D01*
X53454Y20507D01*
X53428Y20478D01*
X53405Y20449D01*
X53386Y20421D01*
X53373Y20399D01*
X53368Y20391D01*
X53364Y20384D01*
X53362Y20380D01*
Y20378D01*
X53351Y20352D01*
X53342Y20326D01*
X53327Y20266D01*
X53316Y20203D01*
X53308Y20143D01*
X53306Y20113D01*
X53304Y20087D01*
X53302Y20064D01*
X53300Y20044D01*
Y20027D01*
Y20014D01*
Y20006D01*
Y20003D01*
X53302Y19946D01*
X53306Y19894D01*
X53312Y19845D01*
X53319Y19801D01*
X53329Y19758D01*
X53340Y19718D01*
X53355Y19681D01*
X53368Y19647D01*
X53385Y19617D01*
X53401Y19589D01*
X53420Y19563D01*
X53439Y19539D01*
X53458Y19518D01*
X53478Y19498D01*
X53499Y19481D01*
X53517Y19466D01*
X53559Y19440D01*
X53598Y19421D01*
X53635Y19408D01*
X53669Y19399D01*
X53695Y19393D01*
X53708Y19391D01*
X53717D01*
X53725Y19389D01*
X53867D01*
Y20595D01*
D02*
G37*
G36*
X40616Y20601D02*
X40437D01*
X40388Y20599D01*
X40345Y20593D01*
X40310Y20584D01*
X40280Y20577D01*
X40257Y20567D01*
X40240Y20558D01*
X40231Y20552D01*
X40227Y20550D01*
X40205Y20530D01*
X40188Y20504D01*
X40175Y20478D01*
X40167Y20449D01*
X40162Y20425D01*
X40160Y20406D01*
X40158Y20399D01*
Y20393D01*
Y20390D01*
Y20388D01*
X40160Y20347D01*
X40167Y20311D01*
X40179Y20279D01*
X40190Y20257D01*
X40203Y20238D01*
X40212Y20225D01*
X40220Y20216D01*
X40224Y20214D01*
X40250Y20195D01*
X40282Y20182D01*
X40313Y20173D01*
X40345Y20167D01*
X40375Y20163D01*
X40386Y20161D01*
X40398Y20160D01*
X40616D01*
Y20601D01*
D02*
G37*
G36*
Y19903D02*
X40399D01*
X40347Y19902D01*
X40302Y19894D01*
X40265Y19885D01*
X40233Y19873D01*
X40207Y19862D01*
X40190Y19853D01*
X40179Y19845D01*
X40175Y19843D01*
X40160Y19832D01*
X40149Y19817D01*
X40128Y19787D01*
X40113Y19754D01*
X40104Y19718D01*
X40098Y19688D01*
X40097Y19673D01*
Y19662D01*
X40095Y19653D01*
Y19644D01*
Y19640D01*
Y19638D01*
X40098Y19595D01*
X40108Y19557D01*
X40124Y19524D01*
X40145Y19496D01*
X40167Y19473D01*
X40196Y19453D01*
X40224Y19436D01*
X40253Y19423D01*
X40284Y19413D01*
X40312Y19406D01*
X40340Y19400D01*
X40362Y19397D01*
X40383Y19395D01*
X40399Y19393D01*
X40616D01*
Y19903D01*
D02*
G37*
G36*
X43352Y20242D02*
X43339D01*
X43313Y20240D01*
X43290Y20236D01*
X43268Y20231D01*
X43249Y20225D01*
X43234Y20219D01*
X43221Y20214D01*
X43214Y20210D01*
X43212Y20208D01*
X43189Y20195D01*
X43171Y20180D01*
X43154Y20163D01*
X43139Y20148D01*
X43128Y20135D01*
X43118Y20124D01*
X43113Y20117D01*
X43111Y20115D01*
Y19518D01*
X43132Y19488D01*
X43152Y19462D01*
X43174Y19440D01*
X43195Y19421D01*
X43218Y19404D01*
X43238Y19391D01*
X43259Y19380D01*
X43277Y19370D01*
X43294Y19365D01*
X43311Y19359D01*
X43326Y19355D01*
X43339Y19352D01*
X43348D01*
X43358Y19350D01*
X43363D01*
X43386Y19352D01*
X43406Y19355D01*
X43425Y19361D01*
X43444Y19369D01*
X43461Y19380D01*
X43475Y19391D01*
X43504Y19419D01*
X43528Y19453D01*
X43547Y19492D01*
X43563Y19531D01*
X43576Y19574D01*
X43586Y19615D01*
X43593Y19655D01*
X43599Y19694D01*
X43603Y19728D01*
X43605Y19756D01*
Y19767D01*
X43606Y19778D01*
Y19786D01*
Y19791D01*
Y19795D01*
Y19797D01*
Y19838D01*
X43603Y19877D01*
X43601Y19913D01*
X43595Y19946D01*
X43590Y19976D01*
X43584Y20004D01*
X43578Y20029D01*
X43571Y20051D01*
X43565Y20072D01*
X43560Y20088D01*
X43554Y20102D01*
X43549Y20113D01*
X43543Y20122D01*
X43541Y20128D01*
X43537Y20132D01*
Y20133D01*
X43524Y20152D01*
X43509Y20169D01*
X43492Y20184D01*
X43477Y20197D01*
X43461Y20206D01*
X43444Y20216D01*
X43412Y20229D01*
X43384Y20236D01*
X43371Y20238D01*
X43360Y20240D01*
X43352Y20242D01*
D02*
G37*
G36*
X47771Y20262D02*
X47760D01*
X47719Y20261D01*
X47685Y20253D01*
X47653Y20240D01*
X47627Y20225D01*
X47606Y20206D01*
X47588Y20188D01*
X47573Y20165D01*
X47560Y20143D01*
X47550Y20120D01*
X47543Y20100D01*
X47539Y20079D01*
X47535Y20061D01*
X47533Y20045D01*
X47532Y20034D01*
Y20025D01*
Y20023D01*
X47533Y19980D01*
X47541Y19943D01*
X47550Y19909D01*
X47560Y19883D01*
X47571Y19862D01*
X47580Y19847D01*
X47588Y19840D01*
X47590Y19836D01*
X47612Y19816D01*
X47640Y19799D01*
X47666Y19787D01*
X47694Y19780D01*
X47719Y19776D01*
X47737Y19774D01*
X47745Y19772D01*
X47756D01*
X47799Y19776D01*
X47835Y19784D01*
X47866Y19793D01*
X47891Y19806D01*
X47911Y19817D01*
X47926Y19829D01*
X47934Y19836D01*
X47937Y19838D01*
X47958Y19864D01*
X47973Y19894D01*
X47984Y19924D01*
X47992Y19954D01*
X47995Y19980D01*
X47997Y20001D01*
X47999Y20008D01*
Y20014D01*
Y20018D01*
Y20019D01*
X47997Y20061D01*
X47990Y20096D01*
X47980Y20126D01*
X47967Y20150D01*
X47956Y20171D01*
X47947Y20186D01*
X47939Y20193D01*
X47937Y20197D01*
X47911Y20219D01*
X47883Y20234D01*
X47853Y20246D01*
X47825Y20255D01*
X47799Y20259D01*
X47778Y20261D01*
X47771Y20262D01*
D02*
G37*
G36*
X44678Y12749D02*
X44667D01*
X44644Y12747D01*
X44624Y12746D01*
X44585Y12736D01*
X44551Y12721D01*
X44525Y12705D01*
X44502Y12688D01*
X44487Y12675D01*
X44478Y12663D01*
X44474Y12662D01*
Y12660D01*
X44452Y12624D01*
X44433Y12585D01*
X44420Y12544D01*
X44412Y12506D01*
X44407Y12471D01*
X44405Y12456D01*
X44403Y12443D01*
X44401Y12433D01*
Y12426D01*
Y12420D01*
Y12418D01*
X44951D01*
X44943Y12473D01*
X44932Y12521D01*
X44919Y12564D01*
X44904Y12598D01*
X44897Y12613D01*
X44889Y12626D01*
X44882Y12637D01*
X44876Y12645D01*
X44872Y12652D01*
X44869Y12658D01*
X44865Y12660D01*
Y12662D01*
X44850Y12676D01*
X44835Y12691D01*
X44801Y12712D01*
X44768Y12729D01*
X44738Y12738D01*
X44710Y12746D01*
X44697Y12747D01*
X44687D01*
X44678Y12749D01*
D02*
G37*
G36*
X40504Y13101D02*
X40325D01*
X40276Y13099D01*
X40233Y13093D01*
X40197Y13084D01*
X40167Y13077D01*
X40145Y13067D01*
X40128Y13058D01*
X40119Y13052D01*
X40115Y13050D01*
X40093Y13030D01*
X40076Y13004D01*
X40063Y12978D01*
X40055Y12949D01*
X40050Y12925D01*
X40048Y12906D01*
X40046Y12899D01*
Y12893D01*
Y12890D01*
Y12888D01*
X40048Y12847D01*
X40055Y12811D01*
X40066Y12779D01*
X40078Y12757D01*
X40091Y12738D01*
X40100Y12725D01*
X40108Y12716D01*
X40111Y12714D01*
X40138Y12695D01*
X40169Y12682D01*
X40201Y12673D01*
X40233Y12667D01*
X40263Y12663D01*
X40274Y12662D01*
X40285Y12660D01*
X40504D01*
Y13101D01*
D02*
G37*
G36*
Y12403D02*
X40287D01*
X40235Y12402D01*
X40190Y12394D01*
X40153Y12385D01*
X40121Y12374D01*
X40095Y12362D01*
X40078Y12353D01*
X40066Y12345D01*
X40063Y12344D01*
X40048Y12332D01*
X40037Y12317D01*
X40016Y12287D01*
X40001Y12254D01*
X39992Y12218D01*
X39986Y12188D01*
X39984Y12173D01*
Y12162D01*
X39982Y12153D01*
Y12144D01*
Y12140D01*
Y12138D01*
X39986Y12095D01*
X39996Y12057D01*
X40012Y12024D01*
X40033Y11996D01*
X40055Y11973D01*
X40083Y11953D01*
X40111Y11936D01*
X40141Y11923D01*
X40171Y11913D01*
X40199Y11906D01*
X40227Y11900D01*
X40250Y11897D01*
X40270Y11895D01*
X40287Y11893D01*
X40504D01*
Y12403D01*
D02*
G37*
G36*
X52048Y12740D02*
X52034D01*
X52010Y12738D01*
X51988Y12736D01*
X51965Y12731D01*
X51947Y12723D01*
X51911Y12706D01*
X51883Y12688D01*
X51861Y12667D01*
X51846Y12650D01*
X51840Y12643D01*
X51836Y12637D01*
X51833Y12635D01*
Y12633D01*
X51819Y12613D01*
X51810Y12588D01*
X51801Y12564D01*
X51793Y12536D01*
X51780Y12482D01*
X51773Y12428D01*
X51769Y12402D01*
X51767Y12377D01*
X51765Y12355D01*
Y12336D01*
X51763Y12321D01*
Y12308D01*
Y12301D01*
Y12299D01*
Y12256D01*
X51767Y12216D01*
X51769Y12179D01*
X51775Y12145D01*
X51780Y12115D01*
X51786Y12087D01*
X51791Y12061D01*
X51797Y12039D01*
X51805Y12020D01*
X51810Y12003D01*
X51816Y11988D01*
X51821Y11977D01*
X51827Y11968D01*
X51829Y11962D01*
X51833Y11958D01*
Y11957D01*
X51846Y11938D01*
X51861Y11923D01*
X51876Y11908D01*
X51892Y11897D01*
X51926Y11878D01*
X51958Y11865D01*
X51988Y11857D01*
X52001Y11856D01*
X52012Y11854D01*
X52021Y11852D01*
X52034D01*
X52059Y11854D01*
X52083Y11856D01*
X52124Y11869D01*
X52160Y11885D01*
X52188Y11904D01*
X52210Y11923D01*
X52225Y11940D01*
X52235Y11953D01*
X52238Y11955D01*
Y11957D01*
X52250Y11977D01*
X52261Y12001D01*
X52270Y12027D01*
X52278Y12056D01*
X52289Y12112D01*
X52296Y12166D01*
X52300Y12192D01*
X52302Y12216D01*
X52304Y12239D01*
Y12259D01*
X52306Y12274D01*
Y12287D01*
Y12295D01*
Y12297D01*
Y12338D01*
X52302Y12377D01*
X52300Y12415D01*
X52294Y12446D01*
X52291Y12478D01*
X52285Y12504D01*
X52278Y12530D01*
X52272Y12553D01*
X52266Y12572D01*
X52259Y12588D01*
X52253Y12602D01*
X52250Y12613D01*
X52244Y12622D01*
X52242Y12628D01*
X52238Y12631D01*
Y12633D01*
X52225Y12652D01*
X52210Y12669D01*
X52193Y12682D01*
X52177Y12695D01*
X52160Y12706D01*
X52143Y12714D01*
X52111Y12727D01*
X52081Y12734D01*
X52068Y12736D01*
X52057Y12738D01*
X52048Y12740D01*
D02*
G37*
G36*
X50589Y12742D02*
X50576D01*
X50550Y12740D01*
X50527Y12736D01*
X50505Y12731D01*
X50486Y12725D01*
X50471Y12719D01*
X50458Y12714D01*
X50451Y12710D01*
X50449Y12708D01*
X50426Y12695D01*
X50408Y12680D01*
X50391Y12663D01*
X50376Y12648D01*
X50365Y12635D01*
X50355Y12624D01*
X50350Y12617D01*
X50348Y12615D01*
Y12018D01*
X50368Y11988D01*
X50389Y11962D01*
X50411Y11940D01*
X50432Y11921D01*
X50454Y11904D01*
X50475Y11891D01*
X50495Y11880D01*
X50514Y11870D01*
X50531Y11865D01*
X50548Y11859D01*
X50563Y11856D01*
X50576Y11852D01*
X50585D01*
X50595Y11850D01*
X50600D01*
X50623Y11852D01*
X50643Y11856D01*
X50662Y11861D01*
X50681Y11869D01*
X50697Y11880D01*
X50713Y11891D01*
X50740Y11919D01*
X50765Y11953D01*
X50783Y11992D01*
X50800Y12031D01*
X50813Y12074D01*
X50823Y12115D01*
X50830Y12155D01*
X50836Y12194D01*
X50840Y12228D01*
X50841Y12256D01*
Y12267D01*
X50843Y12278D01*
Y12286D01*
Y12291D01*
Y12295D01*
Y12297D01*
Y12338D01*
X50840Y12377D01*
X50838Y12413D01*
X50832Y12446D01*
X50827Y12476D01*
X50821Y12504D01*
X50815Y12529D01*
X50808Y12551D01*
X50802Y12572D01*
X50797Y12588D01*
X50791Y12602D01*
X50785Y12613D01*
X50780Y12622D01*
X50778Y12628D01*
X50774Y12631D01*
Y12633D01*
X50761Y12652D01*
X50746Y12669D01*
X50729Y12684D01*
X50714Y12697D01*
X50697Y12706D01*
X50681Y12716D01*
X50649Y12729D01*
X50621Y12736D01*
X50608Y12738D01*
X50596Y12740D01*
X50589Y12742D01*
D02*
G37*
G36*
X43240D02*
X43227D01*
X43201Y12740D01*
X43178Y12736D01*
X43156Y12731D01*
X43137Y12725D01*
X43122Y12719D01*
X43109Y12714D01*
X43102Y12710D01*
X43100Y12708D01*
X43077Y12695D01*
X43058Y12680D01*
X43042Y12663D01*
X43027Y12648D01*
X43016Y12635D01*
X43006Y12624D01*
X43001Y12617D01*
X42999Y12615D01*
Y12018D01*
X43019Y11988D01*
X43040Y11962D01*
X43062Y11940D01*
X43083Y11921D01*
X43105Y11904D01*
X43126Y11891D01*
X43146Y11880D01*
X43165Y11870D01*
X43182Y11865D01*
X43199Y11859D01*
X43214Y11856D01*
X43227Y11852D01*
X43236D01*
X43246Y11850D01*
X43251D01*
X43274Y11852D01*
X43294Y11856D01*
X43313Y11861D01*
X43332Y11869D01*
X43348Y11880D01*
X43363Y11891D01*
X43391Y11919D01*
X43416Y11953D01*
X43434Y11992D01*
X43451Y12031D01*
X43464Y12074D01*
X43474Y12115D01*
X43481Y12155D01*
X43487Y12194D01*
X43490Y12228D01*
X43492Y12256D01*
Y12267D01*
X43494Y12278D01*
Y12286D01*
Y12291D01*
Y12295D01*
Y12297D01*
Y12338D01*
X43490Y12377D01*
X43489Y12413D01*
X43483Y12446D01*
X43477Y12476D01*
X43472Y12504D01*
X43466Y12529D01*
X43459Y12551D01*
X43453Y12572D01*
X43448Y12588D01*
X43442Y12602D01*
X43436Y12613D01*
X43431Y12622D01*
X43429Y12628D01*
X43425Y12631D01*
Y12633D01*
X43412Y12652D01*
X43397Y12669D01*
X43380Y12684D01*
X43365Y12697D01*
X43348Y12706D01*
X43332Y12716D01*
X43300Y12729D01*
X43272Y12736D01*
X43259Y12738D01*
X43247Y12740D01*
X43240Y12742D01*
D02*
G37*
%LPD*%
D11*
X38161Y76850D02*
X37661Y76351D01*
X36661D01*
X36161Y76850D01*
Y78850D01*
X36661Y79350D01*
X37661D01*
X38161Y78850D01*
X41160Y76351D02*
Y79350D01*
X39660D01*
X39160Y78850D01*
Y77850D01*
X39660Y77350D01*
X41160D01*
X35862Y74050D02*
X35362Y73550D01*
Y72550D01*
X35862Y72050D01*
X36362D01*
X36862Y72550D01*
X37362Y72050D01*
X37862D01*
X38361Y72550D01*
Y73550D01*
X37862Y74050D01*
X37362D01*
X36862Y73550D01*
X36362Y74050D01*
X35862D01*
X36862Y73550D02*
Y72550D01*
X35462Y69650D02*
Y67650D01*
X35962D01*
X37962Y69650D01*
X38461D01*
X35462Y63450D02*
X35962Y64450D01*
X36962Y65450D01*
X37962D01*
X38461Y64950D01*
Y63950D01*
X37962Y63450D01*
X37462D01*
X36962Y63950D01*
Y65450D01*
X35462Y59250D02*
Y61250D01*
X36962D01*
X36462Y60250D01*
Y59750D01*
X36962Y59250D01*
X37962D01*
X38461Y59750D01*
Y60750D01*
X37962Y61250D01*
X38561Y55550D02*
X35562D01*
X37062Y57050D01*
Y55050D01*
X36062Y52350D02*
X35562Y51850D01*
Y50850D01*
X36062Y50350D01*
X36562D01*
X37062Y50850D01*
Y51350D01*
Y50850D01*
X37562Y50350D01*
X38062D01*
X38561Y50850D01*
Y51850D01*
X38062Y52350D01*
X38561Y46150D02*
Y48150D01*
X36562Y46150D01*
X36062D01*
X35562Y46650D01*
Y47650D01*
X36062Y48150D01*
X38661Y43850D02*
Y42850D01*
Y43350D01*
X35662D01*
X36162Y43850D01*
D14*
X22850Y53050D02*
X24150D01*
X22850D02*
X22850Y52700D01*
X24150D01*
X24150Y53050D01*
X22850Y51150D02*
Y51500D01*
X24150D01*
Y51150D02*
Y51500D01*
X22850Y51150D02*
X24150D01*
X22850Y49350D02*
X24150D01*
X22850D02*
X22850Y49000D01*
X24150D01*
X24150Y49350D01*
X22850Y47450D02*
Y47800D01*
X24150D01*
Y47450D02*
Y47800D01*
X22850Y47450D02*
X24150D01*
X22350Y61750D02*
X23650D01*
X22350D02*
X22350Y61400D01*
X23650D01*
X23650Y61750D01*
X22350Y59850D02*
Y60200D01*
X23650D01*
Y59850D02*
Y60200D01*
X22350Y59850D02*
X23650D01*
X31950Y89850D02*
X33250D01*
X31950D02*
X31950Y89500D01*
X33250D01*
X33250Y89850D01*
X31950Y87950D02*
Y88300D01*
X33250D01*
Y87950D02*
Y88300D01*
X31950Y87950D02*
X33250D01*
M02*
