G04*
G04 #@! TF.GenerationSoftware,Altium Limited,Altium Designer,22.0.2 (36)*
G04*
G04 Layer_Color=16711935*
%FSLAX25Y25*%
%MOIN*%
G70*
G04*
G04 #@! TF.SameCoordinates,4AEEF1EB-5C28-47D6-87F3-BA9F17CF17F5*
G04*
G04*
G04 #@! TF.FilePolarity,Positive*
G04*
G01*
G75*
%ADD93C,0.00000*%
D93*
X63150Y75450D02*
X82850D01*
X63150D02*
Y95150D01*
X82850D01*
Y75450D02*
Y95150D01*
X66495D02*
X67694D01*
X66495D02*
X67694D01*
X68463D02*
X69663D01*
X68463D02*
X69663D01*
X70432D02*
X71631D01*
X70432D02*
X71631D01*
X72400D02*
X73600D01*
X72400D02*
X73600D01*
X74369D02*
X75568D01*
X74369D02*
X75568D01*
X76337D02*
X77537D01*
X76337D02*
X77537D01*
X78306D02*
X79505D01*
X78306D02*
X79505D01*
X82850Y90605D02*
Y91805D01*
Y90605D02*
Y91805D01*
Y88637D02*
Y89837D01*
Y88637D02*
Y89837D01*
Y86668D02*
Y87868D01*
Y86668D02*
Y87868D01*
Y84700D02*
Y85900D01*
Y84700D02*
Y85900D01*
Y82731D02*
Y83931D01*
Y82731D02*
Y83931D01*
Y80763D02*
Y81963D01*
Y80763D02*
Y81963D01*
Y78794D02*
Y79994D01*
Y78794D02*
Y79994D01*
X78306Y75450D02*
X79505D01*
X78306D02*
X79505D01*
X76337D02*
X77537D01*
X76337D02*
X77537D01*
X74369D02*
X75568D01*
X74369D02*
X75568D01*
X72400D02*
X73600D01*
X72400D02*
X73600D01*
X70432D02*
X71631D01*
X70432D02*
X71631D01*
X68463D02*
X69663D01*
X68463D02*
X69663D01*
X66495D02*
X67694D01*
X66495D02*
X67694D01*
X63150Y78794D02*
Y79994D01*
Y78794D02*
Y79994D01*
Y80763D02*
Y81963D01*
Y80763D02*
Y81963D01*
Y82731D02*
Y83931D01*
Y82731D02*
Y83931D01*
Y84700D02*
Y85900D01*
Y84700D02*
Y85900D01*
Y86668D02*
Y87868D01*
Y86668D02*
Y87868D01*
Y88637D02*
Y89837D01*
Y88637D02*
Y89837D01*
Y90605D02*
Y91805D01*
Y90605D02*
Y91805D01*
M02*
