G04*
G04 #@! TF.GenerationSoftware,Altium Limited,Altium Designer,22.0.2 (36)*
G04*
G04 Layer_Physical_Order=2*
G04 Layer_Color=32768*
%FSLAX25Y25*%
%MOIN*%
G70*
G04*
G04 #@! TF.SameCoordinates,4AEEF1EB-5C28-47D6-87F3-BA9F17CF17F5*
G04*
G04*
G04 #@! TF.FilePolarity,Negative*
G04*
G01*
G75*
%ADD17C,0.01000*%
%ADD77C,0.04000*%
%ADD78C,0.05537*%
%ADD79C,0.05143*%
%ADD80C,0.04159*%
%ADD81C,0.02600*%
%ADD82C,0.02800*%
D17*
X79600Y52600D02*
G03*
X84600Y57600I0J5000D01*
G01*
X9000Y54000D02*
G03*
X10400Y52600I1400J0D01*
G01*
X9000Y57506D02*
G03*
X9000Y57506I0J0D01*
G01*
X10800Y60800D02*
G03*
X9000Y59000I0J-1800D01*
G01*
X77100Y60800D02*
G03*
X79700Y63400I0J2600D01*
G01*
X81400Y80100D02*
G03*
X79700Y78400I0J-1700D01*
G01*
X84600Y77700D02*
G03*
X82200Y80100I-2400J0D01*
G01*
X84600Y57600D02*
Y60900D01*
X9000Y54000D02*
Y59000D01*
X79700Y63400D02*
Y78400D01*
X10800Y60800D02*
X77100Y60800D01*
X81400Y80100D02*
X82200D01*
X84600Y60900D02*
Y77700D01*
X10400Y52600D02*
X79600Y52600D01*
D77*
X23240Y64940D02*
G03*
X26500Y68200I0J3260D01*
G01*
X34500Y98000D02*
G03*
X26500Y90000I0J-8000D01*
G01*
X107000D02*
G03*
X99000Y98000I-8000J0D01*
G01*
X106990Y75250D02*
G03*
X110250Y71990I3260J0D01*
G01*
X110300Y31500D02*
G03*
X107040Y28240I0J-3260D01*
G01*
X99000Y5500D02*
G03*
X107000Y13500I0J8000D01*
G01*
X26500Y7207D02*
G03*
X28207Y5500I1707J0D01*
G01*
X26500Y34700D02*
G03*
X23240Y37960I-3260J0D01*
G01*
Y64940D02*
Y64982D01*
X26482Y68200D02*
X26500D01*
X26482D02*
Y90000D01*
X26500D01*
X34500Y98000D02*
Y98000D01*
X106990Y75250D02*
X107000D01*
X110250Y71990D02*
Y72000D01*
X115700D01*
X107000Y28240D02*
X107040D01*
X107000Y13500D02*
Y28240D01*
X99000Y5500D02*
Y5500D01*
X28207D02*
X99000Y5500D01*
X26500Y7207D02*
Y34700D01*
X3500Y38000D02*
X23240Y37960D01*
X3500Y38000D02*
Y64982D01*
X23240D01*
X34500Y98000D02*
X99000Y98000D01*
X107000Y75250D02*
Y90000D01*
X115700Y31500D02*
Y72000D01*
X110300Y31500D02*
X115700D01*
D78*
X72900Y40300D02*
D03*
D79*
Y71796D02*
D03*
D80*
X95342Y63178D02*
D03*
Y40422D02*
D03*
D81*
X84387Y9100D02*
D03*
X42000Y22700D02*
D03*
X73200Y33700D02*
D03*
X84500Y52700D02*
D03*
X19900Y58100D02*
D03*
X55100Y34800D02*
D03*
X52600D02*
D03*
X34536Y36369D02*
D03*
X51200Y56000D02*
D03*
X78000Y69731D02*
D03*
Y72800D02*
D03*
X59900Y92000D02*
D03*
X60600Y83300D02*
D03*
X94034Y52839D02*
D03*
X82000Y48400D02*
D03*
X41700Y63100D02*
D03*
X25800Y54500D02*
D03*
X94300Y17800D02*
D03*
X48700Y56000D02*
D03*
X45700D02*
D03*
X74100Y53700D02*
D03*
X66200D02*
D03*
X70000Y53800D02*
D03*
X56300Y77900D02*
D03*
X40200Y50200D02*
D03*
X56900Y56100D02*
D03*
X91005Y14907D02*
D03*
X37100Y38900D02*
D03*
X80300Y45500D02*
D03*
X56000Y72200D02*
D03*
X76089Y11711D02*
D03*
X92300Y29400D02*
D03*
X90600Y21700D02*
D03*
X69300Y13800D02*
D03*
X69800Y32600D02*
D03*
X44800Y46700D02*
D03*
X80600Y20247D02*
D03*
X82200Y18300D02*
D03*
X86011Y11000D02*
D03*
X53100Y82700D02*
D03*
D82*
X94200Y59900D02*
D03*
X38500Y63100D02*
D03*
X95400Y44700D02*
D03*
X61800Y60300D02*
D03*
X30600Y91000D02*
D03*
X95408Y11056D02*
D03*
X102400Y27700D02*
D03*
X102406Y14930D02*
D03*
X16200Y60756D02*
D03*
X21500Y50250D02*
D03*
X66300Y68800D02*
D03*
X69850Y68600D02*
D03*
X93400Y83700D02*
D03*
X100519Y83582D02*
D03*
X103000Y77700D02*
D03*
X81321Y28121D02*
D03*
M02*
